<svg width="21" height="12" viewBox="0 0 21 12" fill="none" xmlns="http://www.w3.org/2000/svg">
<path d="M10.2548 8.66822L17.9602 0.962792C18.1907 0.741776 18.4787 0.62891 18.8244 0.624193C19.17 0.619476 19.4664 0.732342 19.7135 0.962792C19.9512 1.20989 20.07 1.50627 20.07 1.85192C20.07 2.19757 19.9512 2.48923 19.7135 2.72692L11.644 10.7965C11.4469 10.9936 11.2284 11.1373 10.9885 11.2275C10.7487 11.3177 10.5041 11.3628 10.2548 11.3628C10.0055 11.3628 9.76095 11.3177 9.5211 11.2275C9.28123 11.1373 9.06275 10.9936 8.86565 10.7965L0.785225 2.70192C0.538125 2.46423 0.416383 2.17909 0.42 1.84649C0.423633 1.51388 0.549 1.21931 0.7961 0.962792C1.0432 0.741776 1.33541 0.627101 1.67273 0.618768C2.01006 0.610434 2.30228 0.725109 2.54938 0.962792L10.2548 8.66822Z" fill="#28285E"/>
</svg>
