<svg width="21" height="12" viewBox="0 0 21 12" fill="none" xmlns="http://www.w3.org/2000/svg">
<path d="M10.2354 3.31225L2.53001 11.0177C2.29957 11.2387 2.01152 11.3516 1.66586 11.3563C1.32021 11.361 1.02383 11.2481 0.776733 11.0177C0.539049 10.7706 0.420208 10.4742 0.420208 10.1286C0.420208 9.7829 0.539049 9.49123 0.776733 9.25355L8.84628 1.18398C9.04338 0.986876 9.26187 0.843217 9.50173 0.753001C9.74158 0.662784 9.98615 0.617676 10.2354 0.617676C10.4847 0.617676 10.7293 0.662784 10.9691 0.753001C11.209 0.843217 11.4275 0.986876 11.6246 1.18398L19.705 9.27855C19.9521 9.51624 20.0739 9.80138 20.0702 10.134C20.0666 10.4666 19.9412 10.7612 19.6941 11.0177C19.447 11.2387 19.1548 11.3534 18.8175 11.3617C18.4802 11.37 18.188 11.2554 17.9409 11.0177L10.2354 3.31225Z" fill="#28285E"/>
</svg>
