<svg width="150" height="150" viewBox="0 0 150 150" fill="none" xmlns="http://www.w3.org/2000/svg">
<path d="M74.9997 86.2968C72.6172 86.2968 70.2881 85.5903 68.307 84.2666C66.3259 82.9429 64.7819 81.0615 63.8701 78.8603C62.9583 76.659 62.7198 74.2369 63.1846 71.9001C63.6494 69.5632 64.7968 67.4167 66.4815 65.732C68.1663 64.0472 70.3128 62.8999 72.6496 62.4351C74.9864 61.9703 77.4085 62.2088 79.6098 63.1206C81.811 64.0324 83.6924 65.5764 85.0161 67.5575C86.3398 69.5386 87.0464 71.8676 87.0464 74.2502C87.0429 77.4441 85.7726 80.5063 83.5142 82.7647C81.2558 85.0231 78.1937 86.2934 74.9997 86.2968ZM74.9997 65.6423C73.2968 65.6423 71.6321 66.1473 70.2162 67.0935C68.8003 68.0396 67.6968 69.3844 67.0452 70.9577C66.3936 72.531 66.2232 74.2623 66.5556 75.9324C66.8879 77.6026 67.7081 79.1367 68.9124 80.3407C70.1167 81.5448 71.651 82.3646 73.3212 82.6966C74.9914 83.0286 76.7226 82.8578 78.2958 82.2059C79.869 81.554 81.2135 80.4502 82.1594 79.034C83.1052 77.6179 83.6098 75.9532 83.6095 74.2502C83.6112 73.1192 83.3896 71.9989 82.9575 70.9537C82.5254 69.9084 81.8913 68.9588 81.0914 68.1591C80.2916 67.3594 79.3418 66.7255 78.2964 66.2936C77.2511 65.8617 76.1308 65.6404 74.9997 65.6423Z" fill="white"/>
<path d="M85.3596 53.8413C85.1335 53.8425 84.9118 53.7792 84.7203 53.6589C84.5289 53.5385 84.3758 53.3661 84.2788 53.1618C84.1819 52.9575 84.1453 52.7298 84.1731 52.5054C84.201 52.281 84.2923 52.0692 84.4362 51.8948L92.1171 42.5796C92.2165 42.4591 92.3387 42.3593 92.4767 42.286C92.6147 42.2127 92.7657 42.1673 92.9213 42.1523C93.0768 42.1374 93.2338 42.1533 93.3832 42.199C93.5326 42.2448 93.6715 42.3195 93.7921 42.4189C93.9126 42.5184 94.0124 42.6406 94.0857 42.7786C94.159 42.9165 94.2044 43.0676 94.2193 43.2232C94.2343 43.3787 94.2184 43.5357 94.1727 43.6851C94.1269 43.8345 94.0522 43.9734 93.9528 44.094L86.283 53.4073C86.1711 53.5438 86.0302 53.6537 85.8704 53.7287C85.7107 53.8038 85.5362 53.8423 85.3596 53.8413Z" fill="white"/>
<path d="M84.5079 60.7022C83.5719 60.7027 82.6429 60.5415 81.7617 60.2257C80.2048 59.6792 78.8576 58.6599 77.9083 57.3103C76.959 55.9607 76.4551 54.3482 76.467 52.6982V46.2344C76.467 45.8137 76.6341 45.4102 76.9316 45.1126C77.2291 44.8151 77.6327 44.648 78.0534 44.648C78.4741 44.648 78.8776 44.8151 79.1751 45.1126C79.4726 45.4102 79.6398 45.8137 79.6398 46.2344V52.6982C79.6398 55.2006 81.2908 56.6854 82.8347 57.2394C84.3786 57.7935 86.5966 57.6993 88.1904 55.762L101.135 40.0643C101.405 39.7496 101.788 39.5535 102.202 39.5181C102.616 39.4827 103.027 39.6108 103.347 39.875C103.667 40.1391 103.871 40.5182 103.915 40.931C103.959 41.3437 103.839 41.7572 103.582 42.0828L90.6393 57.7805C89.8978 58.6916 88.963 59.4264 87.9025 59.9317C86.8421 60.437 85.6826 60.7002 84.5079 60.7022Z" fill="white"/>
<path d="M65.3715 60.7022C64.197 60.7002 63.0375 60.4368 61.9774 59.9312C60.9172 59.4255 59.9828 58.6902 59.2421 57.7787L46.2979 42.081C46.0302 41.7562 45.9025 41.3385 45.9429 40.9196C45.9832 40.5007 46.1883 40.115 46.513 39.8473C46.8378 39.5796 47.2556 39.4519 47.6745 39.4922C48.0934 39.5326 48.4791 39.7377 48.7467 40.0624L61.689 55.7601C63.2828 57.6919 65.5008 57.7916 67.0447 57.2376C68.5887 56.6835 70.2397 55.2061 70.2397 52.6963V46.2326C70.2397 45.8118 70.4068 45.4083 70.7043 45.1108C71.0018 44.8133 71.4053 44.6462 71.8261 44.6462C72.2468 44.6462 72.6503 44.8133 72.9478 45.1108C73.2453 45.4083 73.4125 45.8118 73.4125 46.2326V52.6963C73.4242 54.3465 72.9203 55.9592 71.971 57.309C71.0218 58.6589 69.6746 59.6786 68.1177 60.2257C67.2366 60.5415 66.3076 60.7027 65.3715 60.7022Z" fill="white"/>
<path d="M64.5128 53.8413C64.3363 53.8425 64.1617 53.8042 64.0019 53.7291C63.8421 53.654 63.7012 53.544 63.5894 53.4073L55.9068 44.094C55.8073 43.9734 55.7326 43.8345 55.6869 43.6851C55.6411 43.5357 55.6253 43.3787 55.6402 43.2232C55.6551 43.0676 55.7005 42.9165 55.7738 42.7786C55.8471 42.6406 55.9469 42.5184 56.0675 42.4189C56.188 42.3195 56.3269 42.2448 56.4763 42.199C56.6257 42.1533 56.7827 42.1374 56.9382 42.1523C57.0938 42.1673 57.2449 42.2127 57.3829 42.286C57.5209 42.3593 57.6431 42.4591 57.7425 42.5796L65.4251 51.8948C65.5691 52.0692 65.6604 52.281 65.6882 52.5054C65.7161 52.7298 65.6795 52.9575 65.5825 53.1618C65.4856 53.3661 65.3325 53.5385 65.1411 53.6589C64.9496 53.7792 64.7279 53.8425 64.5017 53.8413H64.5128Z" fill="white"/>
<path d="M56.8909 107.853C56.6648 107.854 56.443 107.79 56.2516 107.67C56.0602 107.55 55.907 107.377 55.8101 107.173C55.7132 106.969 55.6765 106.741 55.7044 106.517C55.7323 106.292 55.8235 106.08 55.9675 105.906L63.6483 96.5927C63.7477 96.4722 63.8699 96.3724 64.0079 96.2991C64.1459 96.2258 64.297 96.1804 64.4525 96.1655C64.6081 96.1506 64.765 96.1664 64.9145 96.2121C65.0639 96.2579 65.2028 96.3326 65.3233 96.432C65.4439 96.5315 65.5436 96.6537 65.6169 96.7917C65.6903 96.9297 65.7357 97.0808 65.7506 97.2363C65.7655 97.3918 65.7496 97.5488 65.7039 97.6982C65.6582 97.8476 65.5834 97.9865 65.484 98.1071L57.8032 107.42C57.692 107.555 57.5526 107.663 57.395 107.738C57.2374 107.812 57.0653 107.852 56.8909 107.853Z" fill="white"/>
<path d="M47.5827 110.51C47.2835 110.509 46.9907 110.423 46.7382 110.263C46.4857 110.102 46.2839 109.873 46.156 109.603C46.0281 109.332 45.9794 109.031 46.0155 108.734C46.0516 108.437 46.1711 108.157 46.3601 107.925L59.3024 92.2269C60.3503 90.9556 61.7651 90.039 63.3536 89.6021C64.9421 89.1653 66.6267 89.2297 68.1773 89.7864C69.7278 90.3431 71.0686 91.3651 72.0165 92.7125C72.9643 94.06 73.4729 95.6673 73.4728 97.3148V103.779C73.4728 104.199 73.3057 104.603 73.0082 104.9C72.7107 105.198 72.3072 105.365 71.8864 105.365C71.4657 105.365 71.0622 105.198 70.7647 104.9C70.4672 104.603 70.3 104.199 70.3 103.779V97.3148C70.3 94.8124 68.649 93.3294 67.1051 92.7735C65.5612 92.2176 63.3432 92.3137 61.7494 94.251L48.8053 109.949C48.6552 110.126 48.4679 110.269 48.2566 110.366C48.0453 110.463 47.8152 110.512 47.5827 110.51Z" fill="white"/>
<path d="M102.417 110.51C102.183 110.511 101.952 110.459 101.741 110.359C101.529 110.26 101.342 110.114 101.193 109.934L88.2488 94.2362C86.6569 92.3063 84.4407 92.2047 82.8931 92.7587C81.3455 93.3128 79.6982 94.7902 79.6982 97.3V103.764C79.6982 103.972 79.6571 104.178 79.5774 104.371C79.4977 104.563 79.3808 104.738 79.2335 104.886C79.0862 105.033 78.9113 105.15 78.7189 105.229C78.5264 105.309 78.3201 105.35 78.1118 105.35C77.9035 105.35 77.6972 105.309 77.5047 105.229C77.3122 105.15 77.1374 105.033 76.99 104.886C76.8427 104.738 76.7259 104.563 76.6462 104.371C76.5664 104.178 76.5254 103.972 76.5254 103.764V97.3C76.5253 95.6526 77.0339 94.0453 77.9818 92.6978C78.9296 91.3503 80.2704 90.3283 81.8209 89.7716C83.3715 89.2149 85.0561 89.1505 86.6446 89.5874C88.2331 90.0242 89.648 90.9409 90.6958 92.2121L103.64 107.91C103.828 108.142 103.947 108.423 103.983 108.72C104.018 109.017 103.969 109.318 103.841 109.588C103.714 109.858 103.512 110.087 103.259 110.247C103.007 110.408 102.715 110.494 102.416 110.495L102.417 110.51Z" fill="white"/>
<path d="M93.1163 107.853C92.94 107.854 92.7656 107.816 92.6058 107.741C92.4461 107.666 92.305 107.557 92.1929 107.42L84.5103 98.1071C84.4109 97.9865 84.3361 97.8476 84.2904 97.6982C84.2447 97.5488 84.2288 97.3918 84.2437 97.2363C84.2586 97.0808 84.3041 96.9297 84.3774 96.7917C84.4507 96.6537 84.5504 96.5315 84.671 96.432C84.7915 96.3326 84.9304 96.2579 85.0798 96.2121C85.2293 96.1664 85.3862 96.1506 85.5418 96.1655C85.6973 96.1804 85.8484 96.2258 85.9864 96.2991C86.1244 96.3724 86.2466 96.4722 86.346 96.5927L94.0287 105.906C94.1726 106.08 94.2639 106.292 94.2918 106.517C94.3196 106.741 94.283 106.969 94.1861 107.173C94.0891 107.377 93.936 107.55 93.7446 107.67C93.5531 107.79 93.3314 107.854 93.1053 107.853H93.1163Z" fill="white"/>
<path d="M109.183 93.5492C108.908 93.5496 108.64 93.4535 108.428 93.2777L99.1127 85.5969C98.9915 85.4975 98.891 85.3751 98.817 85.2369C98.743 85.0986 98.697 84.9471 98.6816 84.7911C98.6661 84.635 98.6816 84.4774 98.7271 84.3273C98.7725 84.1773 98.8471 84.0376 98.9465 83.9163C99.1474 83.6714 99.4372 83.5163 99.7524 83.4852C99.9085 83.4697 100.066 83.4852 100.216 83.5306C100.366 83.5761 100.506 83.6507 100.627 83.7501L109.931 91.4365C110.12 91.5923 110.257 91.8027 110.322 92.039C110.387 92.2753 110.377 92.5259 110.294 92.7565C110.211 92.9871 110.059 93.1865 109.859 93.3274C109.658 93.4683 109.419 93.5438 109.174 93.5436L109.183 93.5492Z" fill="white"/>
<path d="M111.435 103.256C111.066 103.254 110.71 103.124 110.427 102.887L94.7291 89.9424C93.4584 88.8942 92.5424 87.4793 92.106 85.891C91.6697 84.3027 91.7344 82.6184 92.2913 81.0682C92.8481 79.518 93.87 78.1775 95.2173 77.2299C96.5647 76.2823 98.1717 75.7738 99.8188 75.7738H106.283C106.703 75.7738 107.107 75.9409 107.404 76.2384C107.702 76.536 107.869 76.9395 107.869 77.3602C107.869 77.7809 107.702 78.1844 107.404 78.4819C107.107 78.7795 106.703 78.9466 106.283 78.9466H99.8188C97.3164 78.9466 95.8316 80.5958 95.2776 82.1415C94.7236 83.6873 94.8177 85.9034 96.755 87.4972L112.453 100.441C112.707 100.649 112.891 100.931 112.978 101.248C113.065 101.564 113.052 101.9 112.941 102.209C112.829 102.518 112.624 102.784 112.354 102.972C112.085 103.159 111.764 103.259 111.435 103.256Z" fill="white"/>
<path d="M106.291 72.7229H99.827C98.1817 72.7214 96.5769 72.2125 95.2314 71.2657C93.8858 70.3188 92.865 68.98 92.3081 67.4318C91.7512 65.8837 91.6852 64.2014 92.1193 62.6144C92.5533 61.0274 93.4662 59.6128 94.7335 58.5636L110.431 45.6194C110.757 45.3619 111.17 45.2423 111.583 45.2862C111.996 45.3301 112.375 45.534 112.639 45.8542C112.903 46.1744 113.031 46.5854 112.996 46.9989C112.961 47.4125 112.765 47.7957 112.45 48.0664L96.7521 61.0106C94.8222 62.6025 94.7206 64.8205 95.2747 66.3663C95.8287 67.912 97.3061 69.5612 99.8159 69.5612H106.28C106.7 69.5612 107.104 69.7283 107.401 70.0258C107.699 70.3233 107.866 70.7269 107.866 71.1476C107.866 71.5683 107.699 71.9718 107.401 72.2693C107.104 72.5668 106.7 72.734 106.28 72.734L106.291 72.7229Z" fill="white"/>
<path d="M99.861 65.0144C99.616 65.014 99.3771 64.938 99.1769 64.7969C98.9766 64.6558 98.8247 64.4563 98.7419 64.2257C98.6592 63.9952 98.6495 63.7447 98.7142 63.5084C98.779 63.2721 98.915 63.0615 99.1038 62.9054L108.419 55.2246C108.539 55.1235 108.678 55.0473 108.828 55.0003C108.978 54.9534 109.136 54.9366 109.293 54.951C109.449 54.9653 109.601 55.0105 109.74 55.084C109.879 55.1575 110.002 55.2578 110.102 55.379C110.202 55.5003 110.277 55.6402 110.322 55.7905C110.368 55.9409 110.383 56.0988 110.367 56.2552C110.351 56.4115 110.305 56.5631 110.23 56.7013C110.155 56.8395 110.054 56.9615 109.932 57.0603L100.618 64.7411C100.405 64.9177 100.138 65.0144 99.861 65.0144Z" fill="white"/>
<path d="M40.8249 93.5491C40.5799 93.5493 40.3408 93.4738 40.1403 93.3329C39.9398 93.192 39.7877 92.9926 39.7048 92.762C39.622 92.5314 39.6124 92.2808 39.6773 92.0445C39.7423 91.8082 39.8786 91.5978 40.0678 91.4419L49.3811 83.7593C49.626 83.5585 49.9407 83.4632 50.2558 83.4943C50.571 83.5255 50.8609 83.6806 51.0617 83.9255C51.2625 84.1704 51.3578 84.485 51.3266 84.8002C51.2955 85.1154 51.1404 85.4053 50.8955 85.6061L41.5914 93.2832C41.375 93.4591 41.1037 93.5532 40.8249 93.5491Z" fill="white"/>
<path d="M38.5642 103.256C38.2377 103.256 37.9192 103.155 37.6522 102.967C37.3852 102.779 37.1826 102.514 37.0721 102.206C36.9616 101.899 36.9486 101.565 37.0349 101.25C37.1211 100.936 37.3024 100.655 37.554 100.447L53.2517 87.5028C55.1816 85.9109 55.2832 83.6929 54.7291 82.1471C54.1751 80.6013 52.6977 78.9521 50.1879 78.9521H43.7241C43.3034 78.9521 42.8999 78.785 42.6024 78.4875C42.3049 78.19 42.1377 77.7865 42.1377 77.3658C42.1377 76.945 42.3049 76.5415 42.6024 76.244C42.8999 75.9465 43.3034 75.7794 43.7241 75.7794H50.1879C51.8351 75.7793 53.4421 76.2879 54.7894 77.2355C56.1367 78.1831 57.1586 79.5235 57.7155 81.0737C58.2723 82.6239 58.337 84.3082 57.9007 85.8966C57.4644 87.4849 56.5483 88.8998 55.2776 89.9479L39.5799 102.892C39.2945 103.129 38.935 103.257 38.5642 103.256Z" fill="white"/>
<path d="M50.178 72.7229H43.7143C43.2935 72.7229 42.89 72.5558 42.5925 72.2583C42.295 71.9608 42.1279 71.5573 42.1279 71.1365C42.1279 70.7158 42.295 70.3123 42.5925 70.0148C42.89 69.7173 43.2935 69.5501 43.7143 69.5501H50.178C52.6804 69.5501 54.1652 67.901 54.7193 66.3552C55.2733 64.8094 55.1791 62.5933 53.2418 60.9995L37.5441 48.0554C37.2294 47.7847 37.0334 47.4015 36.998 46.9879C36.9626 46.5743 37.0907 46.1633 37.3548 45.8431C37.619 45.5229 37.9981 45.319 38.4108 45.2751C38.8236 45.2312 39.2371 45.3509 39.5627 45.6084L55.2604 58.5525C56.531 59.6007 57.4471 61.0156 57.8834 62.6039C58.3198 64.1922 58.2551 65.8765 57.6982 67.4267C57.1413 68.9769 56.1194 70.3174 54.7721 71.265C53.4248 72.2126 51.8178 72.7211 50.1706 72.7211L50.178 72.7229Z" fill="white"/>
<path d="M50.138 65.0144C49.8614 65.0144 49.5936 64.9177 49.3808 64.7411L40.0674 57.0603C39.9469 56.9609 39.8471 56.8387 39.7738 56.7007C39.7005 56.5627 39.6551 56.4116 39.6402 56.2561C39.6253 56.1005 39.6411 55.9436 39.6869 55.7941C39.7326 55.6447 39.8073 55.5058 39.9068 55.3853C40.0062 55.2647 40.1284 55.165 40.2664 55.0917C40.4044 55.0183 40.5555 54.9729 40.711 54.958C40.8666 54.9431 41.0235 54.959 41.1729 55.0047C41.3223 55.0504 41.4613 55.1252 41.5818 55.2246L50.8952 62.9054C51.084 63.0615 51.22 63.2721 51.2847 63.5084C51.3495 63.7447 51.3398 63.9952 51.2571 64.2258C51.1743 64.4563 51.0224 64.6558 50.8221 64.7969C50.6219 64.9381 50.383 65.014 50.138 65.0144Z" fill="white"/>
<path d="M53.1011 128.577L53.042 130.716L57.1049 132.158L58.3977 130.454L60.5492 131.216L53.0937 140.463L50.9219 139.693L50.9551 127.815L53.1011 128.577ZM52.9164 137.676L55.9156 133.728L52.9737 132.686L52.8056 137.634L52.9164 137.676Z" fill="white"/>
<path d="M47.2879 128.511C47.1987 128.173 47.0403 127.858 46.8229 127.585C46.6054 127.312 46.3336 127.087 46.0247 126.924C45.7173 126.755 45.3787 126.65 45.0295 126.616C44.6802 126.581 44.3277 126.619 43.9932 126.725L43.4115 124.773C44.6229 124.488 45.8968 124.665 46.9849 125.269C48.073 125.872 48.8973 126.86 49.2972 128.038C49.503 128.616 49.5849 129.232 49.5375 129.844C49.4901 130.456 49.3145 131.051 49.0221 131.591C48.7297 132.131 48.327 132.603 47.8402 132.978C47.3534 133.352 46.7934 133.619 46.1965 133.763C44.9726 134.084 43.672 133.919 42.5675 133.301C41.4748 132.728 40.6439 131.757 40.2461 130.588L42.2 130.014C42.3486 130.517 42.643 130.965 43.0461 131.301C43.4492 131.637 43.9429 131.845 44.4646 131.9C44.9864 131.956 45.5128 131.855 45.9772 131.611C46.4416 131.367 46.8232 130.99 47.0737 130.529C47.2426 130.224 47.3486 129.888 47.3854 129.542C47.4222 129.195 47.3891 128.844 47.2879 128.511Z" fill="white"/>
<path d="M37.4606 119.022L36.6055 120.115L36.6295 120.134C37.1462 119.941 37.7002 119.868 38.2492 119.921C38.8592 119.98 39.4379 120.219 39.9113 120.608C40.3939 120.969 40.7984 121.424 41.1002 121.946C41.4021 122.467 41.5951 123.044 41.6676 123.643C41.8091 124.856 41.4677 126.076 40.7173 127.04C39.9668 128.004 38.8674 128.635 37.6563 128.795C37.0588 128.872 36.4519 128.826 35.8723 128.662C35.2927 128.498 34.7525 128.217 34.2841 127.839C33.3558 127.117 32.907 126.132 32.9378 124.884L32.9119 124.863L32.14 125.853L30.4668 124.549L35.78 117.716L37.4606 119.022ZM34.7994 122.442C34.5795 122.713 34.417 123.026 34.3218 123.361C34.2265 123.697 34.2005 124.048 34.2453 124.394C34.2866 124.74 34.396 125.074 34.5674 125.377C34.7387 125.679 34.9684 125.945 35.2433 126.159C35.5182 126.372 35.8328 126.529 36.1687 126.62C36.5046 126.71 36.8552 126.734 37.2002 126.688C37.5467 126.65 37.8818 126.542 38.1851 126.37C38.4883 126.198 38.7533 125.967 38.9639 125.689C39.185 125.415 39.3482 125.099 39.4434 124.761C39.5387 124.422 39.564 124.067 39.5179 123.718C39.4771 123.372 39.368 123.038 39.1969 122.734C39.0258 122.431 38.7962 122.164 38.5213 121.95C38.2464 121.736 37.9318 121.579 37.5956 121.487C37.2595 121.396 36.9085 121.372 36.563 121.417C36.2153 121.461 35.88 121.574 35.577 121.75C35.274 121.926 35.0095 122.162 34.7994 122.442Z" fill="white"/>
<path d="M30.0399 111.428L29.0039 112.351L29.0224 112.372C29.5662 112.277 30.1246 112.307 30.6549 112.46C31.2428 112.63 31.7672 112.97 32.1619 113.437C32.5698 113.88 32.8838 114.4 33.0851 114.968C33.2863 115.535 33.3706 116.137 33.3328 116.737C33.251 117.956 32.6931 119.094 31.7794 119.905C30.8658 120.716 29.6699 121.135 28.4499 121.072C27.8485 121.038 27.2602 120.883 26.7206 120.615C26.181 120.347 25.7012 119.973 25.3103 119.515C24.5285 118.636 24.2681 117.584 24.5291 116.359L24.5088 116.337L21.6592 118.863L20.252 117.277L28.6345 109.84L30.0399 111.428ZM26.7988 114.305C26.5344 114.532 26.319 114.81 26.1656 115.123C26.0123 115.436 25.9242 115.776 25.9068 116.124C25.8841 116.472 25.9306 116.82 26.0436 117.149C26.1566 117.478 26.3339 117.782 26.5652 118.042C26.7964 118.302 27.0771 118.514 27.3908 118.665C27.7045 118.815 28.045 118.902 28.3926 118.92C29.0968 118.961 29.7884 118.721 30.3159 118.252C30.8434 117.784 31.1638 117.126 31.2071 116.422C31.2309 116.074 31.1852 115.725 31.0727 115.396C30.9602 115.066 30.7832 114.762 30.552 114.501C30.3208 114.241 30.04 114.029 29.726 113.878C29.412 113.727 29.0711 113.64 28.7232 113.622C28.373 113.601 28.022 113.65 27.6913 113.767C27.3607 113.885 27.0571 114.068 26.7988 114.305Z" fill="white"/>
<path d="M19.4564 103.256C19.7335 103.092 20.0276 102.959 20.3336 102.859L23.946 108.813C24.3104 108.415 24.5274 107.904 24.5609 107.365C24.614 106.821 24.4889 106.274 24.2045 105.806C23.9506 105.388 23.598 105.039 23.1777 104.789C22.7925 104.539 22.344 104.404 21.8849 104.401L22.2192 102.517C22.9376 102.595 23.6274 102.842 24.2322 103.237C24.8664 103.647 25.3979 104.198 25.7854 104.846C26.1166 105.367 26.3405 105.949 26.4439 106.557C26.5473 107.166 26.5281 107.789 26.3874 108.39C26.2504 108.982 25.9963 109.541 25.6401 110.033C25.2838 110.526 24.8327 110.942 24.3131 111.258C23.7935 111.573 23.2161 111.781 22.6148 111.87C22.0135 111.959 21.4006 111.927 20.8119 111.775C20.2151 111.62 19.655 111.348 19.1643 110.974C18.6735 110.601 18.2618 110.133 17.9531 109.6C17.6269 109.083 17.4086 108.506 17.3114 107.903C17.2143 107.3 17.2404 106.683 17.388 106.091C17.5177 105.501 17.7685 104.944 18.1246 104.456C18.4806 103.968 18.9341 103.559 19.4564 103.256ZM22.4113 109.731L19.9199 105.629C19.5163 106.012 19.2557 106.522 19.1812 107.073C19.0999 107.623 19.2178 108.184 19.5137 108.654C19.808 109.128 20.2516 109.492 20.7747 109.686C21.2979 109.881 21.8709 109.897 22.4039 109.731H22.4113Z" fill="white"/>
<path d="M21.8923 98.1883L22.6034 100.187L14.4442 103.08L13.7351 101.08L14.9318 100.656L14.9207 100.63C13.7794 100.45 13.0622 99.9483 12.7692 99.1246C12.5756 98.6307 12.5554 98.0857 12.7119 97.5789C12.8716 97.1009 13.1544 96.6735 13.5319 96.3397C13.026 96.2903 12.542 96.1088 12.1284 95.8133C11.6736 95.5122 11.3298 95.0705 11.1496 94.5557C10.811 93.6064 10.8405 92.752 11.2382 91.9923C11.6359 91.2327 12.3352 90.678 13.3362 90.3284L18.4573 88.5111L19.1665 90.513L14.0102 92.3432C13.8175 92.4049 13.6392 92.5047 13.4858 92.6367C13.3324 92.7686 13.207 92.9301 13.1172 93.1114C13.0274 93.2927 12.9749 93.4902 12.9629 93.6922C12.9509 93.8942 12.9796 94.0966 13.0473 94.2873C13.115 94.478 13.2203 94.6531 13.357 94.8023C13.4936 94.9515 13.6589 95.0718 13.8429 95.1559C14.027 95.24 14.226 95.2863 14.4283 95.292C14.6306 95.2977 14.8319 95.2627 15.0204 95.1891L20.1693 93.3497L20.8785 95.3498L15.737 97.1799C15.5473 97.2418 15.3721 97.3414 15.222 97.4728C15.0719 97.6042 14.9499 97.7647 14.8635 97.9445C14.7751 98.1233 14.7245 98.3185 14.715 98.5177C14.7054 98.7169 14.7371 98.916 14.8081 99.1025C14.8726 99.2915 14.9743 99.4658 15.1071 99.615C15.2399 99.7642 15.4012 99.8854 15.5815 99.9714C15.7618 100.057 15.9575 100.107 16.157 100.116C16.3565 100.125 16.5559 100.095 16.7435 100.026L21.8923 98.1883Z" fill="white"/>
<path d="M8.64062 80.7103L20.3733 83.2958L20.7039 85.451L17.8247 84.8231L9.96477 89.3496L9.64158 87.1759L15.0176 84.1601V84.1305L8.98782 82.8802L8.64062 80.7103Z" fill="white"/>
<path d="M13.4347 65.1252C14.0494 65.1642 14.6484 65.3359 15.1904 65.6286C15.7324 65.9213 16.2045 66.3279 16.5742 66.8206C17.3495 67.8156 17.7238 69.065 17.6233 70.3224C17.5228 71.5798 16.9548 72.7539 16.0313 73.6131C15.5854 74.0356 15.0556 74.3597 14.4764 74.5644C13.8972 74.769 13.2814 74.8497 12.669 74.8011C12.0566 74.7525 11.4613 74.5758 10.9216 74.2824C10.3819 73.989 9.90985 73.5854 9.53612 73.0978C8.76189 72.1031 8.38822 70.8545 8.48872 69.5979C8.58921 68.3414 9.15658 67.1681 10.0791 66.309C10.5188 65.8798 11.0468 65.5515 11.6263 65.347C12.2058 65.1426 12.8229 65.0669 13.4347 65.1252ZM13.2592 67.3285C12.9123 67.295 12.5621 67.3325 12.23 67.4385C11.898 67.5445 11.5909 67.717 11.3275 67.9453C11.061 68.1694 10.8417 68.4443 10.6824 68.754C10.5232 69.0637 10.4271 69.4019 10.3997 69.7491C10.3724 70.0962 10.4144 70.4454 10.5233 70.7761C10.6321 71.1069 10.8057 71.4127 11.0339 71.6758C11.2561 71.9442 11.5307 72.1645 11.841 72.3233C12.1512 72.482 12.4905 72.5759 12.8382 72.5992C13.1882 72.6329 13.5413 72.5951 13.8763 72.4881C14.2112 72.3811 14.5209 72.2072 14.7865 71.9768C15.0536 71.7528 15.2735 71.4778 15.4333 71.1679C15.5931 70.8581 15.6896 70.5195 15.7173 70.172C15.745 69.8245 15.7032 69.4749 15.5945 69.1436C15.4857 68.8124 15.3122 68.5061 15.0839 68.2426C14.8571 67.9751 14.5786 67.7561 14.265 67.599C13.9514 67.4419 13.6093 67.3499 13.2592 67.3285Z" fill="white"/>
<path d="M11.2717 63.3338L9.5763 62.9645L9.7499 62.174L9.15154 62.0429C8.84731 61.9843 8.55972 61.8594 8.30917 61.6772C8.05862 61.495 7.85126 61.2598 7.70181 60.9884C7.38523 60.4187 7.29741 59.7498 7.45618 59.1176C7.55299 58.6341 7.76737 58.1819 8.0804 57.8008L9.52828 58.6559C9.40464 58.8036 9.32412 58.9825 9.29559 59.173C9.2543 59.3532 9.28407 59.5424 9.37869 59.7012C9.4195 59.7795 9.47706 59.848 9.54727 59.9016C9.61749 59.9552 9.69865 59.9927 9.78499 60.0115L10.2042 60.1038L10.5182 58.6707L12.2154 59.04L11.8996 60.4713L18.657 61.9487L18.2008 64.0208L11.4453 62.5434L11.2717 63.3338Z" fill="white"/>
<path d="M14.0532 44.528L15.0744 46.2252C14.201 46.6639 13.5127 47.4 13.1335 48.3009C12.9355 48.7015 12.8807 49.1577 12.9783 49.5937C13.0213 49.7762 13.1063 49.9463 13.2266 50.0902C13.3468 50.2341 13.4989 50.3481 13.6709 50.4229C13.9141 50.5503 14.1966 50.5807 14.4613 50.5079C14.7207 50.4267 14.9515 50.2729 15.1262 50.0646C15.3219 49.843 15.5269 49.5863 15.7485 49.2927C15.9701 48.999 16.1825 48.6906 16.3912 48.3693C16.6002 48.0458 16.8483 47.7493 17.1299 47.4865C17.3996 47.2315 17.7006 47.0118 18.0256 46.8328C18.3761 46.6539 18.7664 46.5675 19.1595 46.5816C19.661 46.5958 20.1542 46.7121 20.6093 46.9232C21.0643 47.1042 21.4693 47.3914 21.7906 47.7608C22.1119 48.1303 22.3401 48.5713 22.4561 49.047C22.722 50.0468 22.6155 51.1001 22.1366 52.2069C21.5708 53.6065 20.5126 54.7508 19.1614 55.424L18.118 53.701C19.1415 53.2787 19.9557 52.4678 20.3821 51.446C20.6141 50.9736 20.6792 50.4366 20.5668 49.9224C20.5176 49.7055 20.4164 49.5037 20.2719 49.3345C20.1275 49.1653 19.9441 49.0337 19.7376 48.951C19.5892 48.8777 19.4277 48.8347 19.2625 48.8245C19.0972 48.8144 18.9317 48.8373 18.7754 48.8919C18.4661 49.0179 18.1968 49.2253 17.9961 49.4921C17.75 49.8044 17.5213 50.1299 17.3109 50.4672C17.0796 50.8327 16.8287 51.1853 16.5593 51.5236C16.2981 51.8538 15.9951 52.1486 15.658 52.4008C15.2974 52.6545 14.8689 52.7941 14.4281 52.8016C13.865 52.8115 13.3071 52.6921 12.7974 52.4525C12.378 52.2812 12.0054 52.0125 11.7106 51.6685C11.4158 51.3245 11.2071 50.9153 11.102 50.4746C10.8546 49.4964 10.9538 48.4626 11.3827 47.5493C11.9001 46.2658 12.843 45.1991 14.0532 44.528Z" fill="white"/>
<path d="M27.9248 41.3367L26.7613 40.5795L26.7466 40.6054C26.9833 41.1042 27.1027 41.6507 27.0956 42.2028C27.0839 42.8157 26.8911 43.4113 26.5416 43.9148C26.2224 44.4257 25.8031 44.8666 25.3089 45.211C24.8147 45.5554 24.2559 45.7961 23.6661 45.9186C22.4689 46.1627 21.2237 45.9259 20.1997 45.2593C19.1757 44.5926 18.4552 43.5497 18.1941 42.3561C18.067 41.7673 18.0606 41.1589 18.1752 40.5676C18.2897 39.9762 18.523 39.4142 18.8608 38.9155C19.5034 37.9306 20.449 37.4006 21.6974 37.3255L21.7141 37.3014L20.6632 36.6163L21.8193 34.8378L29.0717 39.5582L27.9248 41.3367ZM24.2922 38.9728C24.0033 38.7781 23.6779 38.6441 23.3356 38.5791C22.9934 38.514 22.6415 38.5191 22.3013 38.5942C21.9609 38.6652 21.6379 38.803 21.3511 38.9997C21.0642 39.1964 20.8193 39.448 20.6303 39.74C20.4414 40.032 20.3123 40.3585 20.2504 40.7008C20.1885 41.043 20.1951 41.3941 20.2699 41.7337C20.4177 42.4204 20.8301 43.0211 21.4177 43.4059C22.0054 43.7906 22.7209 43.9283 23.4094 43.7892C23.751 43.7197 24.0753 43.5829 24.3635 43.3869C24.6517 43.1908 24.898 42.9393 25.0881 42.6472C25.2782 42.355 25.4083 42.0279 25.4707 41.685C25.5332 41.3421 25.5268 40.9901 25.452 40.6497C25.3797 40.306 25.2389 39.9804 25.0381 39.6923C24.8372 39.4042 24.5804 39.1595 24.2829 38.9728H24.2922Z" fill="white"/>
<path d="M24.5577 34.3429L23.2446 33.2071L23.7746 32.5958L23.3092 32.1951C23.0694 31.9988 22.8759 31.7521 22.7425 31.4724C22.609 31.1928 22.539 30.8871 22.5373 30.5773C22.5301 29.9252 22.7711 29.2947 23.2113 28.8136C23.5283 28.4353 23.9328 28.1399 24.3896 27.953L25.2557 29.3953C25.0766 29.4658 24.9206 29.5848 24.8051 29.7388C24.681 29.8769 24.6149 30.0575 24.6204 30.243C24.6193 30.3313 24.6375 30.4187 24.6739 30.4992C24.7103 30.5796 24.7639 30.651 24.831 30.7084L25.156 30.9891L26.1145 29.8811L27.4294 31.0168L26.4709 32.1249L31.7029 36.6477L30.327 38.2489L25.0932 33.7242L24.5577 34.3429Z" fill="white"/>
<path d="M36.8027 25.7129C37.0154 25.9542 37.2012 26.218 37.3567 26.4996L32.1857 31.172C32.6462 31.4534 33.1887 31.5699 33.7241 31.5026C34.2685 31.4514 34.7817 31.2253 35.1868 30.858C35.549 30.5284 35.8259 30.1159 35.9938 29.6558C36.1658 29.2302 36.2132 28.7646 36.1305 28.3131L38.0511 28.2854C38.1085 29.008 37.9939 29.7339 37.7169 30.4037C37.4316 31.1041 36.9893 31.7296 36.4241 32.232C35.9749 32.6559 35.4455 32.9859 34.8671 33.2025C34.2886 33.4191 33.6727 33.518 33.0556 33.4934C32.4482 33.4704 31.8515 33.3262 31.3007 33.0692C30.7499 32.8122 30.2561 32.4477 29.8482 31.997C29.4404 31.5463 29.1269 31.0187 28.926 30.445C28.7251 29.8713 28.641 29.2633 28.6787 28.6567C28.7181 28.0411 28.8794 27.4396 29.1533 26.887C29.4273 26.3344 29.8083 25.8417 30.2743 25.4377C30.7181 25.0218 31.2413 24.6997 31.8124 24.4906C32.3836 24.2815 32.9911 24.1897 33.5985 24.2207C34.2071 24.2323 34.8066 24.371 35.3584 24.628C35.9102 24.885 36.4021 25.2545 36.8027 25.7129ZM30.9982 29.8312L34.557 26.6141C34.1046 26.2926 33.5561 26.1349 33.002 26.1672C32.4467 26.191 31.9182 26.4124 31.5116 26.7914C31.1019 27.1703 30.8292 27.6744 30.7364 28.2247C30.6435 28.775 30.7356 29.3406 30.9982 29.8331V29.8312Z" fill="white"/>
<path d="M45.7313 13.5794C46.2192 13.7204 46.6741 13.9573 47.0693 14.2762C47.4645 14.5952 47.7921 14.9898 48.0329 15.437C48.2737 15.8842 48.4228 16.3749 48.4716 16.8804C48.5203 17.386 48.4677 17.8961 48.3168 18.3811C48.164 18.8714 47.9154 19.3264 47.5854 19.7198C47.2554 20.1133 46.8505 20.4372 46.3943 20.673L43.9232 22.0063L45.6094 25.1366L43.7423 26.145L38.418 16.285L42.7561 13.9432C43.2032 13.6887 43.6965 13.5255 44.2072 13.4631C44.7179 13.4006 45.2359 13.4402 45.7313 13.5794ZM46.3019 17.9342C46.4064 17.4411 46.3323 16.927 46.0928 16.4835C45.8533 16.04 45.464 15.6961 44.9944 15.513C44.7781 15.4267 44.5455 15.3893 44.3131 15.4033C44.0807 15.4173 43.8542 15.4826 43.6499 15.5943L41.1789 16.9277L43.0257 20.3498L45.4949 19.0145C45.7011 18.9055 45.8804 18.752 46.02 18.5652C46.1596 18.3783 46.2559 18.1628 46.3019 17.9342Z" fill="white"/>
<path d="M58.8685 19.4116L58.4253 18.0986L58.3976 18.1078C58.2749 18.6486 58.0298 19.1541 57.681 19.5852C57.2955 20.0603 56.7784 20.4111 56.1944 20.5936C55.627 20.7965 55.0244 20.8825 54.423 20.8463C53.8215 20.8101 53.2336 20.6525 52.6947 20.383C51.6042 19.8323 50.774 18.8749 50.3832 17.7175C49.9924 16.56 50.0724 15.2953 50.606 14.1963C50.8703 13.653 51.2421 13.1689 51.6989 12.7734C52.1557 12.3778 52.6879 12.0791 53.2635 11.8952C54.3716 11.5184 55.4421 11.6883 56.4751 12.4049L56.5028 12.3957L56.102 11.2063L58.1132 10.5286L60.8834 18.7265L58.8685 19.4116ZM57.4834 15.3062C57.3766 14.9748 57.2039 14.6683 56.9757 14.4052C56.7476 14.1421 56.4686 13.9278 56.1556 13.7752C55.8445 13.6192 55.5055 13.5264 55.1582 13.5024C54.811 13.4783 54.4625 13.5234 54.1328 13.6351C53.8032 13.7468 53.4989 13.9228 53.2378 14.1529C52.9767 14.383 52.7638 14.6626 52.6116 14.9756C52.3829 15.4463 52.2978 15.9739 52.367 16.4926C52.4361 17.0114 52.6565 17.4982 53.0006 17.8925C53.3447 18.2868 53.7972 18.5711 54.3018 18.7099C54.8063 18.8486 55.3406 18.8358 55.8379 18.6729C56.1714 18.5672 56.4793 18.3933 56.7419 18.1621C57.0046 17.931 57.2162 17.6477 57.3634 17.3303C57.5181 17.0169 57.6085 16.6756 57.6291 16.3267C57.6497 15.9778 57.6002 15.6283 57.4834 15.2988V15.3062Z" fill="white"/>
<path d="M60.4889 11.862L60.1602 10.1555L60.9395 10.0059L60.5701 8.08528L62.6459 7.68268L63.0153 9.60149L64.4613 9.32078L64.7919 11.0254L63.3459 11.3061L64.2268 15.8547C64.2435 15.9413 64.279 16.0232 64.3307 16.0946C64.3823 16.1661 64.449 16.2254 64.526 16.2684C64.6833 16.3666 64.8725 16.4004 65.0541 16.3626C65.2462 16.3393 65.4272 16.2603 65.5749 16.1354L66.3007 17.7034C65.865 18.0255 65.3583 18.2383 64.8233 18.3239C64.5321 18.3928 64.2297 18.4006 63.9353 18.3465C63.6409 18.2925 63.3609 18.1778 63.1132 18.0099C62.866 17.8331 62.6569 17.6085 62.4983 17.3493C62.3397 17.0901 62.2348 16.8016 62.1898 16.5011L61.2664 11.7105L60.4889 11.862Z" fill="white"/>
<path d="M66.3089 8.05937C66.1157 7.90475 65.9726 7.69652 65.8973 7.46082C65.8221 7.22513 65.8182 6.97247 65.8861 6.73455C65.9539 6.49663 66.0905 6.28406 66.2788 6.12352C66.467 5.96297 66.6985 5.8616 66.9442 5.83214C67.1082 5.80993 67.2751 5.82228 67.4342 5.8684C67.5932 5.91452 67.7408 5.99338 67.8675 6.09992C68.127 6.30526 68.2943 6.60518 68.3327 6.9338C68.3712 7.26242 68.2776 7.59287 68.0725 7.85253C67.9735 7.98503 67.848 8.09548 67.7039 8.17687C67.5599 8.25826 67.4005 8.30881 67.2359 8.32531C67.0714 8.34716 66.9042 8.33481 66.7447 8.28905C66.5851 8.24329 66.4368 8.1651 66.3089 8.05937ZM66.2571 9.08618L68.3699 8.84056L69.3745 17.4337L67.2618 17.6811L66.2571 9.08618Z" fill="white"/>
<path d="M79.9081 12.8444C79.9026 13.1667 79.8624 13.4874 79.7881 13.8011L72.8238 13.7807C72.9777 14.2997 73.3033 14.7509 73.7472 15.0606C74.1844 15.3893 74.7164 15.5675 75.2635 15.5684C75.7525 15.5682 76.2342 15.449 76.667 15.2212C77.0807 15.0224 77.4292 14.7098 77.6717 14.32L79.1122 15.5925C78.6679 16.1655 78.0946 16.6255 77.439 16.9351C76.758 17.2616 76.0112 17.4277 75.2561 17.4208C74.6376 17.4326 74.023 17.3207 73.4483 17.0917C72.8737 16.8627 72.3506 16.5213 71.9097 16.0874C71.476 15.6616 71.1318 15.1534 70.8974 14.5926C70.6631 14.0318 70.5432 13.4298 70.5449 12.8221C70.5467 12.2143 70.6699 11.613 70.9075 11.0536C71.145 10.4941 71.492 9.98786 71.9281 9.56453C72.3718 9.13565 72.8963 8.79922 73.471 8.57476C74.0458 8.35029 74.6595 8.24228 75.2764 8.257C75.8852 8.2482 76.4895 8.36242 77.0531 8.59281C77.6167 8.8232 78.128 9.16502 78.5563 9.59777C78.9945 10.0156 79.341 10.5199 79.5737 11.0789C79.8065 11.6378 79.9203 12.2391 79.9081 12.8444ZM72.8442 11.9857L77.6458 11.9986C77.5276 11.4566 77.2279 10.9713 76.7963 10.6227C76.3698 10.2666 75.8301 10.0747 75.2745 10.0816C74.7164 10.0858 74.1754 10.275 73.7363 10.6196C73.2972 10.9641 72.9847 11.4446 72.8478 11.9857H72.8442Z" fill="white"/>
<path d="M83.0359 17.6867L80.9453 17.3266L82.4227 8.79993L84.5133 9.16928L84.288 10.4768H84.3157C85.0286 9.52879 85.9427 9.15143 87.0582 9.34473C87.5087 9.40738 87.9402 9.56715 88.3228 9.813C88.7055 10.0589 89.0301 10.3849 89.2743 10.7686C89.7668 11.548 89.9226 12.4713 89.7416 13.5388L88.8514 18.6932L86.759 18.3238L87.6251 13.3209C87.6727 13.0737 87.6692 12.8193 87.6149 12.5735C87.5606 12.3277 87.4566 12.0956 87.3093 11.8915C87.1673 11.6875 86.9861 11.5137 86.7764 11.3803C86.5666 11.2469 86.3325 11.1564 86.0875 11.1141C85.8425 11.0719 85.5916 11.0787 85.3493 11.1341C85.1069 11.1896 84.878 11.2926 84.6758 11.4371C84.4697 11.5804 84.2949 11.7642 84.1622 11.9772C84.0295 12.1903 83.9416 12.4282 83.9039 12.6763L83.0359 17.6867Z" fill="white"/>
<path d="M91.7511 12.4031L92.259 10.7409L93.018 10.9736L93.5887 9.10284L95.6201 9.72152L95.0513 11.5923L96.4586 12.0226L95.9525 13.6847L94.5434 13.2544L93.1916 17.6867C93.1652 17.771 93.1578 17.8601 93.17 17.9476C93.1821 18.0351 93.2135 18.1188 93.2618 18.1927C93.355 18.3524 93.5056 18.4706 93.6828 18.5233C93.8637 18.5924 94.0607 18.6072 94.2498 18.5658L94.1575 20.2926C93.6225 20.3727 93.0761 20.3239 92.5637 20.1503C92.2742 20.0747 92.0036 19.9398 91.769 19.7542C91.5344 19.5685 91.3409 19.3362 91.2008 19.0718C91.0653 18.7998 90.9859 18.5034 90.9672 18.2001C90.9485 17.8968 90.9909 17.5929 91.0918 17.3063L92.5157 12.6376L91.7511 12.4031Z" fill="white"/>
<path d="M106.244 26.1358L104.382 25.1366L106.598 21.0201L102.585 18.8575L100.369 22.974L98.502 21.9675L103.815 12.102L105.675 13.1066L103.479 17.1954L107.485 19.3562L109.688 15.2637L111.557 16.272L106.244 26.1358Z" fill="white"/>
<path d="M113.023 31.3419L113.884 30.256L113.861 30.2375C113.342 30.4256 112.787 30.4932 112.238 30.4351C111.63 30.3685 111.055 30.1237 110.585 29.7315C110.106 29.3657 109.706 28.9066 109.41 28.3819C109.113 27.8572 108.926 27.2778 108.86 26.6787C108.731 25.4638 109.084 24.2467 109.844 23.2902C110.604 22.3337 111.71 21.7146 112.923 21.5668C113.521 21.4955 114.127 21.5459 114.705 21.7151C115.282 21.8843 115.82 22.1687 116.284 22.5512C117.207 23.2825 117.645 24.2736 117.601 25.5245L117.623 25.543L118.405 24.5605L120.067 25.8809L114.685 32.6549L113.023 31.3419ZM115.717 27.9475C115.937 27.6773 116.099 27.3656 116.194 27.031C116.289 26.6964 116.316 26.346 116.271 26.001C116.234 25.6549 116.128 25.3197 115.96 25.015C115.792 24.7102 115.565 24.4419 115.292 24.2257C115.02 24.0095 114.707 23.8497 114.372 23.7556C114.037 23.6615 113.686 23.635 113.341 23.6777C112.994 23.7121 112.658 23.817 112.353 23.986C112.048 24.1549 111.781 24.3843 111.568 24.6602C111.345 24.9322 111.18 25.2467 111.082 25.5844C110.984 25.9221 110.956 26.2762 110.999 26.6252C111.035 26.9719 111.141 27.3078 111.309 27.6134C111.477 27.9189 111.704 28.188 111.977 28.4048C112.25 28.6216 112.563 28.7818 112.899 28.8761C113.235 28.9704 113.586 28.9969 113.932 28.954C114.282 28.9153 114.621 28.8063 114.927 28.6333C115.234 28.4603 115.503 28.227 115.717 27.9475Z" fill="white"/>
<path d="M117.036 35.2146L115.627 33.6319L122.091 27.8847L123.5 29.4693L122.508 30.352L122.527 30.3742C123.674 30.0775 124.624 30.352 125.376 31.1978C125.69 31.5277 125.928 31.9218 126.075 32.353C126.221 32.7841 126.272 33.2419 126.224 33.6947C126.127 34.6132 125.672 35.4325 124.861 36.1528L120.951 39.6284L119.54 38.0421L123.337 34.668C123.528 34.5044 123.684 34.3035 123.794 34.0777C123.905 33.8519 123.968 33.606 123.98 33.3549C123.996 33.1069 123.963 32.858 123.883 32.6229C123.802 32.3877 123.676 32.1709 123.511 31.9851C123.345 31.7994 123.145 31.6483 122.921 31.5407C122.697 31.4331 122.453 31.3712 122.205 31.3585C121.954 31.3418 121.703 31.3764 121.466 31.4602C121.229 31.5441 121.012 31.6753 120.828 31.8461L117.036 35.2146Z" fill="white"/>
<path d="M125.576 46.7903L126.756 46.0626L126.741 46.0386C126.188 46.0381 125.643 45.9118 125.146 45.6693C124.596 45.4008 124.139 44.9753 123.831 44.4467C123.505 43.94 123.286 43.3726 123.185 42.7788C123.085 42.1849 123.106 41.5768 123.247 40.9913C123.538 39.8045 124.283 38.7795 125.323 38.1378C126.363 37.496 127.613 37.2892 128.804 37.5618C129.391 37.6991 129.944 37.9535 130.43 38.3099C130.916 38.6664 131.325 39.1173 131.632 39.6358C132.247 40.638 132.322 41.7196 131.857 42.8806L131.872 42.9065L135.115 40.9064L136.223 42.7125L126.69 48.5909L125.576 46.7903ZM129.27 44.5169C129.569 44.338 129.829 44.1006 130.034 43.8187C130.239 43.5369 130.385 43.2166 130.463 42.8769C130.545 42.5387 130.559 42.1875 130.505 41.8437C130.45 41.5 130.328 41.1704 130.145 40.8744C129.962 40.5783 129.722 40.3215 129.439 40.119C129.156 39.9166 128.835 39.7724 128.496 39.6949C127.809 39.5334 127.086 39.6506 126.486 40.021C125.885 40.3914 125.456 40.9847 125.292 41.671C125.208 42.0094 125.193 42.361 125.247 42.7053C125.301 43.0497 125.423 43.3798 125.606 43.6765C125.789 43.9732 126.029 44.2305 126.313 44.4334C126.596 44.6364 126.917 44.7809 127.257 44.8585C127.597 44.9386 127.95 44.9496 128.295 44.891C128.64 44.8323 128.969 44.7051 129.264 44.5169H129.27Z" fill="white"/>
<path d="M127.182 49.9945L137.378 45.3424L138.259 47.2741L128.063 51.9262L127.182 49.9945Z" fill="white"/>
<path d="M136.771 50.3379L137.524 52.3214L129.439 55.3981L128.684 53.4147L136.771 50.3379ZM137.779 50.1366C137.899 49.8749 138.106 49.6628 138.365 49.5363C138.623 49.4098 138.918 49.3767 139.198 49.4426C139.478 49.5086 139.727 49.6696 139.902 49.8982C140.077 50.1267 140.168 50.4089 140.158 50.6966C140.149 50.9844 140.04 51.2601 139.851 51.4768C139.661 51.6935 139.402 51.8379 139.118 51.8855C138.834 51.9331 138.543 51.8809 138.293 51.7379C138.043 51.5948 137.85 51.3697 137.748 51.1007C137.686 50.9464 137.658 50.7812 137.663 50.6154C137.668 50.4495 137.708 50.2866 137.779 50.1366Z" fill="white"/>
<path d="M130.577 58.8351L130.053 56.7796L138.435 54.6336L138.962 56.6909L137.669 57.0178V57.0474C138.827 57.3071 139.546 57.9843 139.826 59.0788C139.954 59.5159 139.985 59.9755 139.917 60.4258C139.85 60.876 139.685 61.3062 139.434 61.6865C138.927 62.4585 138.148 62.9793 137.096 63.2489L132.029 64.5416L131.502 62.4862L136.422 61.2267C136.667 61.1688 136.897 61.0616 137.099 60.9117C137.3 60.7618 137.469 60.5724 137.595 60.355C137.722 60.142 137.806 59.906 137.842 59.6605C137.878 59.415 137.864 59.1649 137.803 58.9246C137.741 58.6842 137.633 58.4584 137.484 58.2602C137.335 58.0619 137.148 57.8951 136.934 57.7695C136.718 57.6407 136.479 57.5568 136.23 57.5228C135.981 57.4888 135.728 57.5055 135.486 57.5719L130.577 58.8351Z" fill="white"/>
<path d="M141.657 74.1412L134.484 74.7248C133.092 74.8381 132.001 74.4866 131.21 73.6703C130.42 72.854 129.965 71.717 129.845 70.2593C129.735 68.9769 129.991 67.6896 130.584 66.5472L132.381 67.4042C131.908 68.2221 131.687 69.1613 131.746 70.1042C131.777 70.52 131.868 70.9293 132.015 71.3194C132.156 71.6927 132.382 72.0284 132.675 72.3C132.809 72.4303 132.969 72.53 133.146 72.5921C133.322 72.6543 133.51 72.6775 133.696 72.6601L134.278 72.6121L134.303 72.5807C133.357 71.842 132.841 70.9888 132.756 70.0211C132.696 69.4379 132.755 68.8487 132.929 68.2889C133.103 67.7291 133.388 67.2101 133.768 66.7633C134.138 66.3093 134.597 65.937 135.119 65.67C135.64 65.4029 136.21 65.247 136.795 65.212C137.374 65.1507 137.959 65.2116 138.514 65.3907C139.068 65.5698 139.578 65.8631 140.012 66.2518C140.454 66.6341 140.816 67.1012 141.075 67.6255C141.334 68.1498 141.486 68.7207 141.521 69.3045C141.612 70.4126 141.192 71.3421 140.261 72.0932V72.1209L141.484 72.0211L141.657 74.1412ZM135.543 71.781C135.787 71.9969 136.073 72.1601 136.383 72.2602C136.693 72.3603 137.021 72.3952 137.345 72.3628C137.672 72.3369 137.99 72.2468 138.281 72.0976C138.573 71.9484 138.832 71.743 139.043 71.4932C139.255 71.2435 139.416 70.9544 139.515 70.6424C139.615 70.3305 139.652 70.002 139.624 69.6757C139.603 69.3506 139.515 69.0333 139.366 68.7437C139.217 68.4542 139.009 68.1987 138.756 67.9933C138.508 67.7799 138.219 67.6191 137.907 67.5207C137.595 67.4223 137.266 67.3883 136.941 67.4208C136.618 67.4449 136.302 67.5331 136.014 67.6801C135.725 67.8272 135.468 68.0301 135.259 68.2772C135.049 68.5243 134.89 68.8107 134.792 69.1195C134.694 69.4284 134.659 69.7537 134.688 70.0765C134.707 70.4037 134.793 70.7235 134.94 71.0166C135.087 71.3096 135.292 71.5697 135.543 71.781Z" fill="white"/>
<path d="M134.314 82.4407L133.377 88.4705L131.516 88.1824L132.779 80.0565L143.86 81.7759L142.598 89.9018L140.738 89.6118L141.675 83.5802L138.942 83.1554L138.162 88.1713L136.303 87.8832L137.071 82.8692L134.314 82.4407Z" fill="white"/>
<path d="M134.608 92.8456L139.685 91.1687L138.911 93.5695L135.747 94.5132V94.5409L137.759 97.1615L136.985 99.5624L133.834 95.2538L128.748 96.9159L129.522 94.5151L132.698 93.5769V93.5474L130.667 90.9342L131.439 88.5333L134.608 92.8456Z" fill="white"/>
<path d="M129.407 101.056C129.072 101.156 128.762 101.325 128.496 101.551C128.23 101.777 128.014 102.055 127.861 102.369C127.701 102.681 127.606 103.022 127.583 103.371C127.559 103.72 127.608 104.071 127.724 104.401L125.793 105.045C125.47 103.844 125.606 102.565 126.175 101.458C126.744 100.352 127.704 99.4967 128.869 99.06C129.441 98.8365 130.053 98.7356 130.666 98.764C131.279 98.7923 131.88 98.9492 132.428 99.2245C132.977 99.4998 133.461 99.8874 133.85 100.362C134.239 100.837 134.524 101.388 134.687 101.98C135.046 103.193 134.921 104.497 134.338 105.62C133.801 106.726 132.861 107.585 131.712 108.021L131.074 106.085C131.573 105.922 132.012 105.614 132.335 105.201C132.659 104.788 132.852 104.288 132.892 103.765C132.931 103.242 132.815 102.719 132.557 102.262C132.299 101.805 131.912 101.435 131.444 101.199C131.132 101.038 130.79 100.942 130.44 100.918C130.09 100.893 129.738 100.941 129.407 101.056Z" fill="white"/>
<path d="M122.648 115.242C122.389 115.049 122.152 114.829 121.941 114.586L126.022 108.944C125.513 108.764 124.957 108.764 124.448 108.944C123.927 109.107 123.474 109.435 123.156 109.878C122.869 110.275 122.684 110.735 122.616 111.219C122.537 111.672 122.587 112.138 122.762 112.564L120.888 112.988C120.683 112.294 120.644 111.56 120.775 110.848C120.907 110.106 121.206 109.405 121.651 108.796C122.002 108.289 122.451 107.856 122.972 107.524C123.493 107.192 124.074 106.967 124.683 106.863C125.282 106.759 125.896 106.776 126.488 106.913C127.08 107.05 127.639 107.304 128.132 107.66C128.624 108.016 129.04 108.467 129.356 108.987C129.671 109.507 129.88 110.084 129.969 110.686C130.056 111.294 130.022 111.913 129.869 112.508C129.715 113.103 129.446 113.661 129.077 114.152C128.728 114.652 128.282 115.076 127.766 115.399C127.25 115.723 126.674 115.938 126.072 116.034C125.477 116.146 124.866 116.134 124.277 115.997C123.687 115.861 123.133 115.604 122.648 115.242ZM127.468 110.006L124.655 113.895C125.166 114.115 125.735 114.155 126.271 114.01C126.809 113.869 127.279 113.542 127.597 113.086C127.929 112.635 128.092 112.081 128.059 111.522C128.042 110.964 127.833 110.428 127.468 110.006Z" fill="white"/>
<path d="M118.22 113.482L126.458 121.079L125.02 122.647L116.781 115.051L118.22 113.482Z" fill="white"/>
<path d="M115.648 116.196L123.373 124.309L121.836 125.774L114.107 117.648L115.648 116.196Z" fill="white"/>
<path d="M108.445 127.65C108.256 127.389 108.096 127.109 107.967 126.814L113.542 122.647C113.111 122.323 112.582 122.155 112.043 122.173C111.496 122.171 110.964 122.348 110.526 122.675C110.132 122.967 109.815 123.351 109.603 123.794C109.391 124.202 109.3 124.662 109.341 125.12L107.424 124.965C107.436 124.24 107.619 123.528 107.958 122.887C108.306 122.217 108.804 121.637 109.413 121.19C109.9 120.811 110.458 120.532 111.054 120.372C111.651 120.211 112.273 120.171 112.885 120.254C113.487 120.334 114.068 120.533 114.592 120.841C115.116 121.149 115.573 121.559 115.936 122.046C116.299 122.533 116.561 123.088 116.706 123.678C116.851 124.269 116.877 124.882 116.782 125.482C116.684 126.091 116.467 126.675 116.142 127.199C115.817 127.724 115.391 128.178 114.889 128.537C114.406 128.909 113.854 129.18 113.265 129.334C112.676 129.488 112.062 129.521 111.459 129.432C110.861 129.359 110.284 129.163 109.766 128.856C109.247 128.55 108.797 128.139 108.445 127.65ZM114.612 124.101L110.765 126.967C111.184 127.33 111.715 127.539 112.27 127.56C112.821 127.586 113.363 127.416 113.801 127.079C114.246 126.742 114.566 126.266 114.71 125.727C114.855 125.188 114.816 124.615 114.6 124.101H114.612Z" fill="white"/>
<path d="M103.026 125.646L104.917 124.679L108.845 132.389L106.954 133.359L106.352 132.177L106.326 132.19C106.326 133.375 105.821 134.225 104.81 134.738C104.411 134.958 103.969 135.088 103.515 135.12C103.061 135.152 102.605 135.085 102.18 134.923C101.318 134.597 100.641 133.95 100.148 132.984L97.7734 128.321L99.6645 127.358L101.966 131.881C102.076 132.107 102.231 132.309 102.421 132.473C102.612 132.637 102.834 132.761 103.074 132.836C103.31 132.914 103.559 132.945 103.807 132.926C104.055 132.907 104.297 132.839 104.518 132.727C104.74 132.614 104.937 132.458 105.098 132.269C105.259 132.079 105.381 131.859 105.456 131.623C105.535 131.384 105.565 131.132 105.544 130.882C105.523 130.632 105.451 130.389 105.332 130.167L103.026 125.646Z" fill="white"/>
<path d="M94.6783 131.992C94.373 131.823 94.0359 131.719 93.6885 131.687C93.341 131.656 92.9907 131.696 92.6598 131.807C92.3238 131.912 92.0129 132.085 91.7464 132.315C91.4798 132.545 91.2634 132.827 91.1103 133.144L89.2949 132.221C89.9259 131.15 90.9327 130.352 92.1195 129.982C93.3063 129.612 94.5883 129.696 95.7162 130.219C96.2769 130.469 96.7787 130.834 97.1892 131.29C97.5997 131.747 97.9096 132.284 98.0989 132.868C98.2882 133.452 98.3526 134.069 98.288 134.68C98.2233 135.29 98.0311 135.88 97.7237 136.411C97.1125 137.517 96.0963 138.343 94.8889 138.714C93.7237 139.108 92.4519 139.042 91.3338 138.53L92.2572 136.718C92.7241 136.958 93.2516 137.053 93.7729 136.993C94.2941 136.932 94.7857 136.718 95.1853 136.378C95.5848 136.038 95.8744 135.586 96.0172 135.082C96.1601 134.577 96.1498 134.041 95.9877 133.541C95.8846 133.209 95.7155 132.9 95.4906 132.634C95.2656 132.367 94.9894 132.149 94.6783 131.992Z" fill="white"/>
<path d="M79.835 137.143C79.79 136.824 79.7795 136.501 79.8036 136.18L86.6885 135.124C86.4576 134.635 86.0667 134.239 85.5804 134.001C85.098 133.744 84.5451 133.651 84.0051 133.735C83.5219 133.808 83.0639 133.998 82.6717 134.289C82.293 134.55 81.9964 134.913 81.8166 135.337L80.197 134.3C80.5482 133.666 81.0435 133.124 81.643 132.716C82.2653 132.288 82.9773 132.009 83.7244 131.9C84.3331 131.793 84.9571 131.809 85.5597 131.946C86.1622 132.084 86.7312 132.341 87.2333 132.701C87.7277 133.055 88.1465 133.503 88.4648 134.021C88.7832 134.539 88.9947 135.115 89.087 135.716C89.1792 136.317 89.1503 136.93 89.0019 137.519C88.8536 138.109 88.5888 138.663 88.2231 139.148C87.8509 139.64 87.3846 140.053 86.8513 140.364C86.3181 140.674 85.7285 140.876 85.1168 140.956C84.5166 141.06 83.9015 141.042 83.3086 140.902C82.7158 140.762 82.1573 140.503 81.667 140.142C81.1703 139.796 80.7509 139.351 80.4355 138.835C80.1201 138.319 79.9156 137.742 79.835 137.143ZM86.9452 136.901L82.2026 137.628C82.4033 138.146 82.7746 138.58 83.2553 138.858C83.7316 139.144 84.2941 139.25 84.8417 139.158C85.3928 139.068 85.8985 138.797 86.2793 138.389C86.6601 137.98 86.8943 137.457 86.9452 136.901Z" fill="white"/>
<path d="M71.6565 135.283C71.8915 135.294 72.122 135.351 72.3347 135.451C72.5474 135.552 72.7381 135.693 72.8959 135.867C73.0536 136.042 73.1752 136.246 73.2536 136.468C73.332 136.689 73.3658 136.924 73.3528 137.159C73.3399 137.394 73.2806 137.624 73.1783 137.836C73.076 138.048 72.9327 138.237 72.7568 138.393C72.5809 138.549 72.3757 138.669 72.1533 138.745C71.9309 138.822 71.6955 138.853 71.4608 138.838C70.9925 138.808 70.555 138.594 70.2435 138.243C69.9321 137.892 69.7718 137.432 69.7976 136.963C69.8234 136.495 70.0332 136.055 70.3813 135.741C70.7294 135.426 71.1877 135.261 71.6565 135.283Z" fill="white"/>
<path d="M75.001 127.595C46.0064 127.595 22.4062 104 22.4062 75C22.4062 45.9999 46.0008 22.4053 75.001 22.4053C104.001 22.4053 127.596 46.0054 127.596 75C127.596 103.995 104.001 127.595 75.001 127.595ZM75.001 23.4542C46.5789 23.4542 23.4552 46.5779 23.4552 75C23.4552 103.422 46.5789 126.546 75.001 126.546C103.423 126.546 126.545 103.422 126.545 75C126.545 46.5779 103.423 23.4542 75.001 23.4542Z" fill="white"/>
<path d="M75 150C33.6504 150 0 116.355 0 75C0 33.6448 33.6504 0 75 0C116.35 0 149.998 33.6448 149.998 75C149.998 116.355 116.355 150 75 150ZM75 1.57347C34.5128 1.57347 1.57346 34.5128 1.57346 75C1.57346 115.487 34.5128 148.427 75 148.427C115.487 148.427 148.427 115.487 148.427 75C148.427 34.5128 115.487 1.57347 75 1.57347Z" fill="white"/>
</svg>
