<svg width="155" height="149" viewBox="0 0 155 149" fill="none" xmlns="http://www.w3.org/2000/svg">
<mask id="path-1-inside-1_131_9217" fill="white">
<path d="M155 74.5C155 115.645 120.302 149 77.5 149C34.6979 149 0 115.645 0 74.5C0 33.3548 34.6979 0 77.5 0C120.302 0 155 33.3548 155 74.5Z"/>
</mask>
<path d="M155 74.5C155 115.645 120.302 149 77.5 149C34.6979 149 0 115.645 0 74.5C0 33.3548 34.6979 0 77.5 0C120.302 0 155 33.3548 155 74.5Z" fill="#0284FE" fill-opacity="0.2"/>
<path d="M154 74.5C154 115.056 119.787 148 77.5 148V150C120.817 150 156 116.234 156 74.5H154ZM77.5 148C35.2126 148 1 115.056 1 74.5H-1C-1 116.234 34.1832 150 77.5 150V148ZM1 74.5C1 33.9439 35.2126 1 77.5 1V-1C34.1832 -1 -1 32.7657 -1 74.5H1ZM77.5 1C119.787 1 154 33.9439 154 74.5H156C156 32.7657 120.817 -1 77.5 -1V1Z" fill="#28285E" mask="url(#path-1-inside-1_131_9217)"/>
</svg>
