<svg width="305" height="386" viewBox="0 0 305 386" fill="none" xmlns="http://www.w3.org/2000/svg">
<path d="M351.351 459.967C334.378 452.052 320.133 439.282 310.417 423.271C300.702 407.26 295.952 388.728 296.769 370.018C297.586 351.308 303.933 333.26 315.007 318.157C326.081 303.054 341.385 291.574 358.983 285.169C376.582 278.764 395.684 277.721 413.875 282.172C432.067 286.624 448.529 296.369 461.182 310.177C473.834 323.985 482.108 341.234 484.957 359.744C487.806 378.254 485.102 397.193 477.187 414.166C466.553 436.908 447.332 454.503 423.741 463.089C400.149 471.676 374.115 470.553 351.351 459.967ZM419.968 312.819C407.838 307.162 394.303 305.23 381.075 307.266C367.847 309.302 355.519 315.215 345.652 324.257C335.784 333.299 328.819 345.064 325.638 358.064C322.457 371.065 323.202 384.716 327.78 397.293C332.357 409.87 340.562 420.807 351.355 428.721C362.148 436.635 375.046 441.17 388.417 441.754C401.788 442.338 415.032 438.944 426.474 432C437.916 425.057 447.042 414.877 452.699 402.747C456.471 394.696 458.616 385.979 459.012 377.097C459.407 368.215 458.046 359.342 455.005 350.987C451.964 342.632 447.304 334.96 441.291 328.41C435.279 321.86 428.032 316.562 419.968 312.819Z" fill="#E6E6E6" fill-opacity="0.5"/>
<path d="M367.78 245.64C359.419 241.721 352.034 235.989 346.163 228.862C340.291 221.735 336.08 213.39 333.834 204.433L293.748 49.6607C293 46.4869 293.524 43.1461 295.209 40.3543C296.894 37.5626 299.606 35.5419 302.763 34.7255C305.92 33.909 309.271 34.3617 312.099 35.9866C314.926 37.6114 317.004 40.279 317.888 43.4178L357.966 198.208C362.898 217.257 378.378 225.303 391.223 226.482C404.068 227.661 420.742 222.593 429.068 204.739L450.549 158.671C451.947 155.674 454.478 153.354 457.586 152.223C460.694 151.092 464.124 151.242 467.121 152.64C470.118 154.037 472.438 156.568 473.569 159.676C474.7 162.784 474.55 166.214 473.153 169.211L451.658 215.306C446.261 227.1 437.314 236.913 426.068 243.374C414.822 249.835 401.838 252.621 388.931 251.343C381.604 250.678 374.448 248.748 367.78 245.64Z" fill="#E6E6E6" fill-opacity="0.5"/>
<path d="M75.6009 541.377C73.4587 540.377 71.6449 538.789 70.3707 536.798C69.0966 534.807 68.4146 532.495 68.4044 530.131C68.3942 527.767 69.0562 525.449 70.3131 523.447C71.57 521.445 73.3702 519.841 75.5036 518.823L219.846 450.018C231.534 444.444 244.658 442.615 257.425 444.781C270.192 446.947 281.978 453.002 291.174 462.119C300.37 471.236 306.526 482.971 308.801 495.719C311.076 508.467 309.359 521.606 303.885 533.341L282.404 579.409C281.006 582.406 278.475 584.726 275.367 585.857C272.259 586.988 268.829 586.838 265.832 585.441C262.835 584.043 260.515 581.512 259.384 578.404C258.253 575.296 258.403 571.866 259.8 568.869L281.282 522.801C289.595 504.974 282.741 488.913 273.612 479.834C264.484 470.756 248.338 464.066 230.576 472.532L86.234 541.337C84.5751 542.131 82.7608 542.546 80.922 542.553C79.0831 542.559 77.2657 542.158 75.6009 541.377Z" fill="#E6E6E6" fill-opacity="0.5"/>
<path d="M83.7975 398.108C82.0418 397.303 80.5785 395.974 79.6088 394.303C78.6391 392.633 78.2106 390.703 78.3821 388.779C78.5536 386.855 79.3168 385.032 80.5667 383.559C81.8167 382.086 83.492 381.037 85.3625 380.555L177.231 356.772C178.42 356.464 179.658 356.394 180.874 356.564C182.09 356.735 183.261 357.144 184.319 357.767C185.377 358.39 186.303 359.215 187.042 360.196C187.781 361.177 188.32 362.293 188.628 363.482C188.936 364.671 189.006 365.909 188.835 367.125C188.665 368.342 188.256 369.512 187.633 370.57C187.01 371.629 186.185 372.554 185.204 373.293C184.223 374.033 183.107 374.571 181.918 374.879L90.0945 398.683C87.9928 399.233 85.7649 399.03 83.7975 398.108Z" fill="#E6E6E6" fill-opacity="0.5"/>
<path d="M35.4634 459.735C33.1251 458.66 31.1768 456.887 29.8859 454.661C28.5949 452.434 28.0246 449.863 28.253 447.299C28.4814 444.736 29.4975 442.306 31.1617 440.342C32.826 438.379 35.0569 436.979 37.5485 436.334L192.375 396.273C211.424 391.341 219.47 375.861 220.649 363.016C221.828 350.171 216.76 333.497 198.906 325.171L152.856 303.698C149.859 302.3 147.539 299.769 146.408 296.662C145.277 293.554 145.427 290.124 146.825 287.126C148.222 284.129 150.754 281.81 153.861 280.679C156.969 279.547 160.399 279.697 163.396 281.095L209.464 302.577C221.201 308.048 230.962 317.01 237.413 328.238C243.864 339.466 246.691 352.412 245.507 365.307C244.324 378.202 239.187 390.417 230.799 400.282C222.411 410.148 211.182 417.183 198.645 420.426L43.8458 460.499C41.0481 461.232 38.0825 460.961 35.4634 459.735Z" fill="#E6E6E6" fill-opacity="0.5"/>
<path d="M219.612 280.816L173.544 259.335C170.547 257.937 168.228 255.406 167.097 252.298C165.965 249.19 166.115 245.76 167.513 242.763C168.911 239.765 171.442 237.446 174.55 236.315C177.657 235.184 181.087 235.334 184.085 236.731L230.152 258.213C247.979 266.526 264.05 259.676 273.119 250.543C282.189 241.41 288.888 225.269 280.403 207.498L211.616 63.1649C210.193 60.1793 210.015 56.7508 211.12 53.6335C212.225 50.5162 214.523 47.9655 217.508 46.5426C220.494 45.1196 223.922 44.941 227.04 46.0459C230.157 47.1509 232.708 49.4489 234.131 52.4345L302.936 196.776C308.51 208.465 310.339 221.589 308.173 234.356C306.007 247.123 299.952 258.909 290.834 268.105C281.717 277.301 269.983 283.457 257.235 285.732C244.487 288.007 231.348 286.29 219.612 280.816Z" fill="#E6E6E6" fill-opacity="0.5"/>
<path d="M244.942 225.764C242.972 224.849 241.384 223.273 240.454 221.31L199.621 135.647C199.092 134.538 198.787 133.336 198.723 132.11C198.659 130.884 198.837 129.656 199.248 128.499C199.658 127.341 200.292 126.276 201.114 125.363C201.936 124.451 202.929 123.709 204.038 123.181C205.147 122.652 206.348 122.347 207.575 122.283C208.801 122.219 210.028 122.397 211.186 122.807C212.344 123.218 213.409 123.852 214.322 124.674C215.234 125.496 215.976 126.489 216.504 127.598L257.337 213.261C258.169 214.999 258.442 216.953 258.121 218.853C257.799 220.753 256.899 222.508 255.542 223.876C254.185 225.245 252.438 226.161 250.541 226.499C248.643 226.837 246.688 226.58 244.942 225.764Z" fill="#E6E6E6" fill-opacity="0.5"/>
</svg>
