<svg width="560" height="920" viewBox="0 0 560 920" fill="none" xmlns="http://www.w3.org/2000/svg">
<g clip-path="url(#clip0_42_1755)">
<path d="M621.391 1.03271H1.49756V918.968H621.391V1.03271Z" fill="url(#paint0_linear_42_1755)"/>
<path d="M28.6571 1.03271H82.9762M109.753 19.2342V55.1096M82.9762 73.311H28.6571M1.49756 19.2342V55.1096" stroke="#ABB2C3"/>
<path d="M28.6571 73.311H82.9762M109.753 91.5125V127.388M82.9762 145.589H28.6571M1.49756 91.5125V127.388" stroke="#ABB2C3"/>
<path d="M28.6571 145.589H82.9762M109.753 163.791V199.666M82.9762 217.868H28.6571M1.49756 163.791V199.666" stroke="#ABB2C3"/>
<path d="M28.6571 629.854H82.9762M109.753 648.056V683.931M82.9762 702.132H28.6571M1.49756 648.056V683.931" stroke="#ABB2C3"/>
<path d="M136.464 1.03271H190.783M217.56 19.2342V55.1096M190.783 73.311H136.464M109.305 19.2342V55.1096" stroke="#ABB2C3"/>
<path d="M136.912 73.311H191.231M218.008 91.5125V127.388M191.231 145.589H136.912M109.752 91.5125V127.388" stroke="#ABB2C3"/>
<path d="M136.912 145.589H191.231M218.008 163.791V199.666M191.231 217.868H136.912M109.752 163.791V199.666" stroke="#ABB2C3"/>
<path d="M136.912 629.854H191.231M218.008 648.056V683.931M191.231 702.132H136.912M109.752 648.056V683.931" stroke="#ABB2C3"/>
<path d="M244.272 1.03271H298.591M325.367 19.2342V55.1096M298.591 73.311H244.272M217.112 19.2342V55.1096" stroke="#ABB2C3"/>
<path d="M245.166 73.311H299.486M326.263 91.5125V127.388M299.486 145.589H245.166M218.008 91.5125V127.388" stroke="#ABB2C3"/>
<path d="M245.166 145.589H299.486M326.263 163.791V199.666M299.486 217.868H245.166M218.008 163.791V199.666" stroke="#ABB2C3"/>
<path d="M245.166 629.854H299.486M326.263 648.056V683.931M299.486 702.132H245.166M218.008 648.056V683.931" stroke="#ABB2C3"/>
<path d="M353.421 73.311H407.741M434.518 91.5125V127.388M407.741 145.589H353.421M326.261 91.5125V127.388" stroke="#ABB2C3"/>
<path d="M353.421 145.589H407.741M434.518 163.791V199.666M407.741 217.868H353.421M326.261 163.791V199.666" stroke="#ABB2C3"/>
<path d="M353.421 629.854H407.741M434.518 648.056V683.931M407.741 702.132H353.421M326.261 648.056V683.931" stroke="#ABB2C3"/>
<path d="M352.08 1.03271H406.398M433.175 19.2342V55.1096M406.398 73.311H352.08M324.92 19.2342V55.1096" stroke="#ABB2C3"/>
<path d="M461.677 73.311H515.995M542.773 91.5125V127.388M515.995 145.589H461.677M434.517 91.5125V127.388" stroke="#ABB2C3"/>
<path d="M461.677 145.589H515.995M542.773 163.791V199.666M515.995 217.868H461.677M434.517 163.791V199.666" stroke="#ABB2C3"/>
<path d="M461.677 629.854H515.995M542.773 648.056V683.931M515.995 702.132H461.677M434.517 648.056V683.931" stroke="#ABB2C3"/>
<path d="M459.887 1.03271H514.206M540.982 19.2342V55.1096M514.206 73.311H459.887M432.727 19.2342V55.1096" stroke="#ABB2C3"/>
<path d="M569.932 73.311H624.25M651.027 91.5125V127.388M624.25 145.589H569.932M542.772 91.5125V127.388" stroke="#ABB2C3"/>
<path d="M569.932 145.589H624.25M651.027 163.791V199.666M624.25 217.868H569.932M542.772 163.791V199.666" stroke="#ABB2C3"/>
<path d="M569.932 629.854H624.25M651.027 648.056V683.931M624.25 702.132H569.932M542.772 648.056V683.931" stroke="#ABB2C3"/>
<path d="M567.695 1.03271H622.013M648.79 19.2342V55.1096M622.013 73.311H567.695M540.535 19.2342V55.1096" stroke="#ABB2C3"/>
<path d="M28.6571 702.132H82.9762M109.753 720.334V756.209M82.9762 774.411H28.6571M1.49756 720.334V756.209" stroke="#ABB2C3"/>
<path d="M28.6571 774.411H82.9762M109.753 792.612V828.487M82.9762 846.689H28.6571M1.49756 792.612V828.487" stroke="#ABB2C3"/>
<path d="M28.6571 846.689H82.9762M109.753 864.891V900.766M82.9762 918.967H28.6571M1.49756 864.891V900.766" stroke="#ABB2C3"/>
<path d="M136.912 702.132H191.231M218.008 720.334V756.209M191.231 774.411H136.912M109.752 720.334V756.209" stroke="#ABB2C3"/>
<path d="M136.912 774.411H191.231M218.008 792.612V828.487M191.231 846.689H136.912M109.752 792.612V828.487" stroke="#ABB2C3"/>
<path d="M136.912 846.689H191.231M218.008 864.891V900.766M191.231 918.967H136.912M109.752 864.891V900.766" stroke="#ABB2C3"/>
<path d="M245.166 702.132H299.486M326.263 720.334V756.209M299.486 774.411H245.166M218.008 720.334V756.209" stroke="#ABB2C3"/>
<path d="M245.166 774.411H299.486M326.263 792.612V828.487M299.486 846.689H245.166M218.008 792.612V828.487" stroke="#ABB2C3"/>
<path d="M245.166 846.689H299.486M326.263 864.891V900.766M299.486 918.967H245.166M218.008 864.891V900.766" stroke="#ABB2C3"/>
<path d="M353.421 702.132H407.741M434.518 720.334V756.209M407.741 774.411H353.421M326.261 720.334V756.209" stroke="#ABB2C3"/>
<path d="M353.421 774.411H407.741M434.518 792.612V828.487M407.741 846.689H353.421M326.261 792.612V828.487" stroke="#ABB2C3"/>
<path d="M353.421 846.689H407.741M434.518 864.891V900.766M407.741 918.967H353.421M326.261 864.891V900.766" stroke="#ABB2C3"/>
<path d="M461.677 702.132H515.995M542.773 720.334V756.209M515.995 774.411H461.677M434.517 720.334V756.209" stroke="#ABB2C3"/>
<path d="M461.677 774.411H515.995M542.773 792.612V828.487M515.995 846.689H461.677M434.517 792.612V828.487" stroke="#ABB2C3"/>
<path d="M461.677 846.689H515.995M542.773 864.891V900.766M515.995 918.967H461.677M434.517 864.891V900.766" stroke="#ABB2C3"/>
<path d="M569.932 702.132H624.25M651.027 720.334V756.209M624.25 774.411H569.932M542.772 720.334V756.209" stroke="#ABB2C3"/>
<path d="M569.932 774.411H624.25M651.027 792.612V828.487M624.25 846.689H569.932M542.772 792.612V828.487" stroke="#ABB2C3"/>
<path d="M569.932 846.689H624.25M651.027 864.891V900.766M624.25 918.967H569.932M542.772 864.891V900.766" stroke="#ABB2C3"/>
</g>
<defs>
<linearGradient id="paint0_linear_42_1755" x1="1.49756" y1="1.03271" x2="837.38" y2="286.479" gradientUnits="userSpaceOnUse">
<stop stop-color="#017BFF"/>
<stop offset="1" stop-color="#0C1678"/>
</linearGradient>
<clipPath id="clip0_42_1755">
<rect width="560" height="920" fill="white"/>
</clipPath>
</defs>
</svg>
