<svg width="485" height="860" viewBox="0 0 485 860" fill="none" xmlns="http://www.w3.org/2000/svg">
<g clip-path="url(#clip0_42_1755)">
<path d="M538.169 0.964844H1.29688V859.034H538.169V0.964844Z" fill="url(#paint0_linear_42_1755)"/>
<path d="M24.819 0.964844H71.8632M95.054 17.9792V51.515M71.8632 68.5294H24.819M1.29688 17.9792V51.515" stroke="#ABB2C3"/>
<path d="M24.819 68.5293H71.8632M95.054 85.5437V119.079M71.8632 136.094H24.819M1.29688 85.5437V119.079" stroke="#ABB2C3"/>
<path d="M24.819 136.095H71.8632M95.054 153.109V186.645M71.8632 203.659H24.819M1.29688 153.109V186.645" stroke="#ABB2C3"/>
<path d="M24.819 588.776H71.8632M95.054 605.791V639.326M71.8632 656.341H24.819M1.29688 605.791V639.326" stroke="#ABB2C3"/>
<path d="M118.186 0.964844H165.23M188.421 17.9792V51.515M165.23 68.5294H118.186M94.6641 17.9792V51.515" stroke="#ABB2C3"/>
<path d="M118.577 68.5293H165.621M188.812 85.5437V119.079M165.621 136.094H118.577M95.0547 85.5437V119.079" stroke="#ABB2C3"/>
<path d="M118.577 136.095H165.621M188.812 153.109V186.645M165.621 203.659H118.577M95.0547 153.109V186.645" stroke="#ABB2C3"/>
<path d="M118.577 588.776H165.621M188.812 605.791V639.326M165.621 656.341H118.577M95.0547 605.791V639.326" stroke="#ABB2C3"/>
<path d="M211.558 0.964844H258.601M281.792 17.9792V51.515M258.601 68.5294H211.558M188.035 17.9792V51.515" stroke="#ABB2C3"/>
<path d="M212.33 68.5293H259.375M282.565 85.5437V119.079M259.375 136.094H212.33M188.809 85.5437V119.079" stroke="#ABB2C3"/>
<path d="M212.33 136.095H259.375M282.565 153.109V186.645M259.375 203.659H212.33M188.809 153.109V186.645" stroke="#ABB2C3"/>
<path d="M212.33 588.776H259.375M282.565 605.791V639.326M259.375 656.341H212.33M188.809 605.791V639.326" stroke="#ABB2C3"/>
<path d="M306.089 68.5293H353.134M376.324 85.5437V119.079M353.134 136.094H306.089M282.566 85.5437V119.079" stroke="#ABB2C3"/>
<path d="M306.089 136.095H353.134M376.324 153.109V186.645M353.134 203.659H306.089M282.566 153.109V186.645" stroke="#ABB2C3"/>
<path d="M306.089 588.776H353.134M376.324 605.791V639.326M353.134 656.341H306.089M282.566 605.791V639.326" stroke="#ABB2C3"/>
<path d="M304.925 0.964844H351.969M375.159 17.9792V51.515M351.969 68.5294H304.925M281.402 17.9792V51.515" stroke="#ABB2C3"/>
<path d="M399.847 68.5293H446.89M470.082 85.5437V119.079M446.89 136.094H399.847M376.324 85.5437V119.079" stroke="#ABB2C3"/>
<path d="M399.847 136.095H446.89M470.082 153.109V186.645M446.89 203.659H399.847M376.324 153.109V186.645" stroke="#ABB2C3"/>
<path d="M399.847 588.776H446.89M470.082 605.791V639.326M446.89 656.341H399.847M376.324 605.791V639.326" stroke="#ABB2C3"/>
<path d="M398.296 0.964844H445.34M468.53 17.9792V51.515M445.34 68.5294H398.296M374.773 17.9792V51.515" stroke="#ABB2C3"/>
<path d="M493.601 68.5293H540.644M563.835 85.5437V119.079M540.644 136.094H493.601M470.078 85.5437V119.079" stroke="#ABB2C3"/>
<path d="M493.601 136.095H540.644M563.835 153.109V186.645M540.644 203.659H493.601M470.078 153.109V186.645" stroke="#ABB2C3"/>
<path d="M493.601 588.776H540.644M563.835 605.791V639.326M540.644 656.341H493.601M470.078 605.791V639.326" stroke="#ABB2C3"/>
<path d="M491.663 0.964844H538.707M561.897 17.9792V51.515M538.707 68.5294H491.663M468.141 17.9792V51.515" stroke="#ABB2C3"/>
<path d="M24.819 656.341H71.8632M95.054 673.355V706.891M71.8632 723.905H24.819M1.29688 673.355V706.891" stroke="#ABB2C3"/>
<path d="M24.819 723.905H71.8632M95.054 740.92V774.455M71.8632 791.47H24.819M1.29688 740.92V774.455" stroke="#ABB2C3"/>
<path d="M24.819 791.471H71.8632M95.054 808.485V842.021M71.8632 859.035H24.819M1.29688 808.485V842.021" stroke="#ABB2C3"/>
<path d="M118.577 656.341H165.621M188.812 673.355V706.891M165.621 723.905H118.577M95.0547 673.355V706.891" stroke="#ABB2C3"/>
<path d="M118.577 723.905H165.621M188.812 740.92V774.455M165.621 791.47H118.577M95.0547 740.92V774.455" stroke="#ABB2C3"/>
<path d="M118.577 791.471H165.621M188.812 808.485V842.021M165.621 859.035H118.577M95.0547 808.485V842.021" stroke="#ABB2C3"/>
<path d="M212.33 656.341H259.375M282.565 673.355V706.891M259.375 723.905H212.33M188.809 673.355V706.891" stroke="#ABB2C3"/>
<path d="M212.33 723.905H259.375M282.565 740.92V774.455M259.375 791.47H212.33M188.809 740.92V774.455" stroke="#ABB2C3"/>
<path d="M212.33 791.471H259.375M282.565 808.485V842.021M259.375 859.035H212.33M188.809 808.485V842.021" stroke="#ABB2C3"/>
<path d="M306.089 656.341H353.134M376.324 673.355V706.891M353.134 723.905H306.089M282.566 673.355V706.891" stroke="#ABB2C3"/>
<path d="M306.089 723.905H353.134M376.324 740.92V774.455M353.134 791.47H306.089M282.566 740.92V774.455" stroke="#ABB2C3"/>
<path d="M306.089 791.471H353.134M376.324 808.485V842.021M353.134 859.035H306.089M282.566 808.485V842.021" stroke="#ABB2C3"/>
<path d="M399.847 656.341H446.89M470.082 673.355V706.891M446.89 723.905H399.847M376.324 673.355V706.891" stroke="#ABB2C3"/>
<path d="M399.847 723.905H446.89M470.082 740.92V774.455M446.89 791.47H399.847M376.324 740.92V774.455" stroke="#ABB2C3"/>
<path d="M399.847 791.471H446.89M470.082 808.485V842.021M446.89 859.035H399.847M376.324 808.485V842.021" stroke="#ABB2C3"/>
<path d="M493.601 656.341H540.644M563.835 673.355V706.891M540.644 723.905H493.601M470.078 673.355V706.891" stroke="#ABB2C3"/>
<path d="M493.601 723.905H540.644M563.835 740.92V774.455M540.644 791.47H493.601M470.078 740.92V774.455" stroke="#ABB2C3"/>
<path d="M493.601 791.471H540.644M563.835 808.485V842.021M540.644 859.035H493.601M470.078 808.485V842.021" stroke="#ABB2C3"/>
</g>
<defs>
<linearGradient id="paint0_linear_42_1755" x1="1.29688" y1="0.964844" x2="736.098" y2="233.448" gradientUnits="userSpaceOnUse">
<stop stop-color="#017BFF"/>
<stop offset="1" stop-color="#0C1678"/>
</linearGradient>
<clipPath id="clip0_42_1755">
<rect width="485" height="860" fill="white"/>
</clipPath>
</defs>
</svg>
