<svg width="265" height="499" viewBox="0 0 265 499" fill="none" xmlns="http://www.w3.org/2000/svg">
<path d="M-161.649 199.967C-178.622 192.052 -192.867 179.282 -202.583 163.271C-212.298 147.26 -217.048 128.728 -216.231 110.018C-215.414 91.3082 -209.067 73.2605 -197.993 58.1575C-186.919 43.0544 -171.615 31.5744 -154.017 25.1691C-136.418 18.7638 -117.316 17.7208 -99.1246 22.1722C-80.9334 26.6235 -64.4707 36.3693 -51.8183 50.1769C-39.1659 63.9846 -30.8921 81.2341 -28.0431 99.744C-25.1942 118.254 -27.898 137.193 -35.8128 154.166C-46.4467 176.908 -65.6681 194.503 -89.2593 203.089C-112.851 211.676 -138.885 210.553 -161.649 199.967ZM-93.0325 52.8187C-105.162 47.1624 -118.697 45.2301 -131.925 47.2661C-145.153 49.3021 -157.481 55.215 -167.348 64.257C-177.216 73.299 -184.181 85.064 -187.362 98.0643C-190.543 111.065 -189.798 124.716 -185.22 137.293C-180.643 149.87 -172.438 160.807 -161.645 168.721C-150.852 176.635 -137.954 181.17 -124.583 181.754C-111.212 182.338 -97.9677 178.944 -86.5257 172C-75.0837 165.057 -65.9575 154.877 -60.3012 142.747C-56.5294 134.696 -54.3841 125.979 -53.9884 117.097C-53.5927 108.215 -54.9543 99.3418 -57.9952 90.987C-61.0361 82.6322 -65.6965 74.9599 -71.709 68.4101C-77.7215 61.8603 -84.9678 56.5619 -93.0325 52.8187Z" fill="#E6E6E6" fill-opacity="0.5"/>
<path d="M20.0098 3.17136C18.4041 2.41939 17.045 1.22682 16.0908 -0.267539C15.1365 -1.7619 14.6263 -3.49658 14.6196 -5.26963C14.6129 -7.04268 15.1099 -8.78116 16.0528 -10.2827C16.9957 -11.7843 18.3457 -12.9871 19.9456 -13.7513L105.608 -54.5844C107.847 -55.6517 110.418 -55.786 112.756 -54.9576C115.094 -54.1292 117.007 -52.406 118.075 -50.1671C119.142 -47.9282 119.276 -45.357 118.448 -43.0192C117.619 -40.6813 115.896 -38.7683 113.657 -37.7009L27.9945 3.13217C26.7498 3.73051 25.3876 4.04444 24.0066 4.05122C22.6255 4.05801 21.2603 3.75745 20.0098 3.17136Z" fill="#E6E6E6" fill-opacity="0.5"/>
<path d="M-8.89543 49.209C-15.5605 46.0898 -21.6344 41.8388 -26.8476 36.645C-36.1217 27.5843 -42.3336 15.8528 -44.6154 3.08959C-46.8972 -9.67358 -45.1348 -22.8307 -39.5745 -34.5434L-18.0801 -80.6382C-16.6824 -83.6356 -14.1512 -85.955 -11.0434 -87.0862C-7.93565 -88.2173 -4.50578 -88.0676 -1.5084 -86.6699C1.48899 -85.2722 3.80838 -82.741 4.93952 -79.6332C6.07067 -76.5254 5.92089 -73.0955 4.52318 -70.0982L-16.9712 -24.0033C-25.2841 -6.17627 -18.434 9.8944 -9.30123 18.9638C-0.168458 28.0332 15.9726 34.7324 33.7259 26.2616L178.076 -42.5615C179.559 -43.3082 181.176 -43.7513 182.832 -43.8649C184.488 -43.9784 186.151 -43.7601 187.721 -43.2228C189.292 -42.6855 190.74 -41.8399 191.979 -40.7358C193.219 -39.6316 194.226 -38.291 194.94 -36.7926C195.655 -35.2943 196.063 -33.6682 196.141 -32.01C196.219 -30.3517 195.965 -28.6945 195.395 -27.1357C194.824 -25.5768 193.947 -24.1477 192.817 -22.932C191.686 -21.7164 190.324 -20.7386 188.811 -20.0563L44.4563 48.7759C36.1523 52.8005 27.0569 54.9274 17.8293 55.0023C8.60162 55.0772 -0.527141 53.0983 -8.89543 49.209Z" fill="#E6E6E6" fill-opacity="0.5"/>
<path d="M-46.7642 463.534C-48.4325 462.76 -49.9083 461.626 -51.085 460.213C-52.2616 458.8 -53.1098 457.143 -53.5684 455.363L-93.6419 300.563C-98.5778 281.523 -114.054 273.468 -126.899 272.289C-139.744 271.11 -156.377 276.208 -164.698 294.054L-186.18 340.121C-187.578 343.119 -190.109 345.438 -193.217 346.569C-196.324 347.7 -199.754 347.551 -202.752 346.153C-205.749 344.755 -208.068 342.224 -209.2 339.116C-210.331 336.008 -210.181 332.579 -208.783 329.581L-187.302 283.514C-181.83 271.777 -172.868 262.016 -161.641 255.565C-150.413 249.113 -137.467 246.286 -124.571 247.47C-111.676 248.654 -99.4614 253.791 -89.5958 262.178C-79.7302 270.566 -72.6952 281.796 -69.4523 294.332L-29.4241 449.111C-28.8326 451.399 -28.9039 453.809 -29.6297 456.059C-30.3554 458.309 -31.7058 460.306 -33.5232 461.818C-35.3406 463.329 -37.5503 464.293 -39.8946 464.597C-42.239 464.901 -44.6214 464.532 -46.7642 463.534Z" fill="#E6E6E6" fill-opacity="0.5"/>
<path d="M57.7217 365.165C55.7309 364.253 54.1255 362.668 53.1883 360.689L12.3552 275.027C11.2878 272.788 11.1536 270.217 11.982 267.879C12.8104 265.541 14.5336 263.628 16.7725 262.561C19.0114 261.493 21.5826 261.359 23.9204 262.187C26.2583 263.016 28.1713 264.739 29.2386 266.978L70.0718 352.641C70.9049 354.383 71.1779 356.341 70.8533 358.245C70.5286 360.149 69.6222 361.906 68.2586 363.274C66.8951 364.642 65.1412 365.554 63.2382 365.885C61.3352 366.216 59.3765 365.95 57.6311 365.122L57.7217 365.165Z" fill="#E6E6E6" fill-opacity="0.5"/>
<path d="M41.5798 441.803C38.9571 440.585 36.8437 438.487 35.6062 435.873L-33.1987 291.531C-38.7729 279.843 -40.602 266.719 -38.436 253.952C-36.2701 241.185 -30.2147 229.399 -21.0974 220.203C-11.9802 211.007 -0.245777 204.851 12.5021 202.576C25.25 200.301 38.3894 202.018 50.1248 207.492L96.1925 228.973C99.1899 230.371 101.509 232.902 102.64 236.01C103.772 239.118 103.622 242.548 102.224 245.545C100.826 248.542 98.2952 250.862 95.1874 251.993C92.0796 253.124 88.6498 252.974 85.6524 251.577L39.5847 230.095C21.7577 221.782 5.68702 228.632 -3.38239 237.765C-12.4518 246.898 -19.151 263.039 -10.6663 280.809L58.1206 425.143C59.228 427.466 59.5894 430.075 59.1553 432.612C58.7212 435.149 57.5127 437.489 55.6957 439.312C53.8788 441.135 51.5423 442.351 49.0069 442.793C46.4715 443.235 43.8613 442.882 41.5345 441.782L41.5798 441.803Z" fill="#E6E6E6" fill-opacity="0.5"/>
<path d="M106.339 207.213L60.2718 185.731C48.5351 180.26 38.7741 171.298 32.3228 160.07C25.8715 148.842 23.0446 135.896 24.2284 123.001C25.4122 110.106 30.549 97.8908 38.9368 88.0252C47.3245 78.1596 58.554 71.1246 71.0907 67.8817L225.89 27.8082C227.475 27.3977 229.126 27.3034 230.748 27.5309C232.37 27.7583 233.931 28.3029 235.342 29.1336C236.753 29.9644 237.987 31.0649 238.973 32.3725C239.959 33.6801 240.678 35.1691 241.088 36.7544C241.499 38.3397 241.593 39.9904 241.365 41.6121C241.138 43.2339 240.593 44.795 239.763 46.2062C238.932 47.6175 237.831 48.8514 236.524 49.8373C235.216 50.8232 233.727 51.542 232.142 51.9525L77.3608 92.0345C58.316 96.9571 50.2658 112.446 49.091 125.282C47.9161 138.118 52.9757 154.811 70.83 163.136L116.898 184.618C119.895 186.016 122.214 188.547 123.346 191.655C124.477 194.762 124.327 198.192 122.929 201.19C121.532 204.187 119 206.506 115.893 207.638C112.785 208.769 109.355 208.619 106.358 207.221L106.339 207.213Z" fill="#E6E6E6" fill-opacity="0.5"/>
<path d="M86.1641 130.94C84.4166 130.127 82.9631 128.794 82.0022 127.124C81.0414 125.453 80.6203 123.526 80.7966 121.607C80.9728 119.688 81.7378 117.87 82.9869 116.402C84.236 114.935 85.9081 113.889 87.7744 113.408L179.643 89.625C180.832 89.3172 182.07 89.2467 183.286 89.4174C184.502 89.5881 185.673 89.9966 186.731 90.6197C187.789 91.2428 188.715 92.0683 189.454 93.0489C190.193 94.0296 190.732 95.1463 191.04 96.3352C191.348 97.5241 191.418 98.7621 191.247 99.9783C191.077 101.194 190.668 102.365 190.045 103.423C189.422 104.482 188.596 105.407 187.616 106.146C186.635 106.886 185.518 107.424 184.33 107.732L92.4611 131.515C90.3593 132.065 88.1315 131.861 86.1641 130.94Z" fill="#E6E6E6" fill-opacity="0.5"/>
</svg>
