<svg width="560" height="927" viewBox="0 0 393 927" fill="none" xmlns="http://www.w3.org/2000/svg">
<rect width="563" height="926" transform="translate(0 1)" fill="url(#paint0_linear_110_10353)"/>
<path d="M18.1387 1H54.4161M72.2993 18.6277V53.3723M54.4161 71H18.1387M0 18.6277V53.3723" stroke="#ABB2C3"/>
<path d="M18.1387 71H54.4161M72.2993 88.6277V123.372M54.4161 141H18.1387M0 88.6277V123.372" stroke="#ABB2C3"/>
<path d="M18.1387 141H54.4161M72.2993 158.628V193.372M54.4161 211H18.1387M0 158.628V193.372" stroke="#ABB2C3"/>
<path d="M18.1387 610H54.4161M72.2993 627.628V662.372M54.4161 680H18.1387M0 627.628V662.372" stroke="#ABB2C3"/>
<path d="M90.1387 1H126.416M144.299 18.6277V53.3723M126.416 71H90.1387M72 18.6277V53.3723" stroke="#ABB2C3"/>
<path d="M90.4375 71H126.715M144.598 88.6277V123.372M126.715 141H90.4375M72.2988 88.6277V123.372" stroke="#ABB2C3"/>
<path d="M90.4375 141H126.715M144.598 158.628V193.372M126.715 211H90.4375M72.2988 158.628V193.372" stroke="#ABB2C3"/>
<path d="M90.4375 610H126.715M144.598 627.628V662.372M126.715 680H90.4375M72.2988 627.628V662.372" stroke="#ABB2C3"/>
<path d="M162.139 1H198.416M216.299 18.6277V53.3723M198.416 71H162.139M144 18.6277V53.3723" stroke="#ABB2C3"/>
<path d="M162.736 71H199.014M216.897 88.6277V123.372M199.014 141H162.736M144.598 88.6277V123.372" stroke="#ABB2C3"/>
<path d="M162.736 141H199.014M216.897 158.628V193.372M199.014 211H162.736M144.598 158.628V193.372" stroke="#ABB2C3"/>
<path d="M162.736 610H199.014M216.897 627.628V662.372M199.014 680H162.736M144.598 627.628V662.372" stroke="#ABB2C3"/>
<path d="M235.035 71H271.313M289.196 88.6277V123.372M271.313 141H235.035M216.896 88.6277V123.372" stroke="#ABB2C3"/>
<path d="M235.035 141H271.313M289.196 158.628V193.372M271.313 211H235.035M216.896 158.628V193.372" stroke="#ABB2C3"/>
<path d="M235.035 610H271.313M289.196 627.628V662.372M271.313 680H235.035M216.896 627.628V662.372" stroke="#ABB2C3"/>
<path d="M234.139 1H270.416M288.299 18.6277V53.3723M270.416 71H234.139M216 18.6277V53.3723" stroke="#ABB2C3"/>
<path d="M307.334 71H343.611M361.495 88.6277V123.372M343.611 141H307.334M289.195 88.6277V123.372" stroke="#ABB2C3"/>
<path d="M307.334 141H343.611M361.495 158.628V193.372M343.611 211H307.334M289.195 158.628V193.372" stroke="#ABB2C3"/>
<path d="M307.334 610H343.611M361.495 627.628V662.372M343.611 680H307.334M289.195 627.628V662.372" stroke="#ABB2C3"/>
<path d="M306.139 1H342.416M360.299 18.6277V53.3723M342.416 71H306.139M288 18.6277V53.3723" stroke="#ABB2C3"/>
<path d="M379.633 71H415.91M433.793 88.6277V123.372M415.91 141H379.633M361.494 88.6277V123.372" stroke="#ABB2C3"/>
<path d="M379.633 141H415.91M433.793 158.628V193.372M415.91 211H379.633M361.494 158.628V193.372" stroke="#ABB2C3"/>
<path d="M379.633 610H415.91M433.793 627.628V662.372M415.91 680H379.633M361.494 627.628V662.372" stroke="#ABB2C3"/>
<path d="M378.139 1H414.416M432.299 18.6277V53.3723M414.416 71H378.139M360 18.6277V53.3723" stroke="#ABB2C3"/>
<path d="M18.1387 680H54.4161M72.2993 697.628V732.372M54.4161 750H18.1387M0 697.628V732.372" stroke="#ABB2C3"/>
<path d="M18.1387 750H54.4161M72.2993 767.628V802.372M54.4161 820H18.1387M0 767.628V802.372" stroke="#ABB2C3"/>
<path d="M18.1387 820H54.4161M72.2993 837.628V872.372M54.4161 890H18.1387M0 837.628V872.372" stroke="#ABB2C3"/>
<path d="M90.4375 680H126.715M144.598 697.628V732.372M126.715 750H90.4375M72.2988 697.628V732.372" stroke="#ABB2C3"/>
<path d="M90.4375 750H126.715M144.598 767.628V802.372M126.715 820H90.4375M72.2988 767.628V802.372" stroke="#ABB2C3"/>
<path d="M90.4375 820H126.715M144.598 837.628V872.372M126.715 890H90.4375M72.2988 837.628V872.372" stroke="#ABB2C3"/>
<path d="M162.736 680H199.014M216.897 697.628V732.372M199.014 750H162.736M144.598 697.628V732.372" stroke="#ABB2C3"/>
<path d="M162.736 750H199.014M216.897 767.628V802.372M199.014 820H162.736M144.598 767.628V802.372" stroke="#ABB2C3"/>
<path d="M162.736 820H199.014M216.897 837.628V872.372M199.014 890H162.736M144.598 837.628V872.372" stroke="#ABB2C3"/>
<path d="M235.035 680H271.313M289.196 697.628V732.372M271.313 750H235.035M216.896 697.628V732.372" stroke="#ABB2C3"/>
<path d="M235.035 750H271.313M289.196 767.628V802.372M271.313 820H235.035M216.896 767.628V802.372" stroke="#ABB2C3"/>
<path d="M235.035 820H271.313M289.196 837.628V872.372M271.313 890H235.035M216.896 837.628V872.372" stroke="#ABB2C3"/>
<path d="M307.334 680H343.611M361.495 697.628V732.372M343.611 750H307.334M289.195 697.628V732.372" stroke="#ABB2C3"/>
<path d="M307.334 750H343.611M361.495 767.628V802.372M343.611 820H307.334M289.195 767.628V802.372" stroke="#ABB2C3"/>
<path d="M307.334 820H343.611M361.495 837.628V872.372M343.611 890H307.334M289.195 837.628V872.372" stroke="#ABB2C3"/>
<path d="M379.633 680H415.91M433.793 697.628V732.372M415.91 750H379.633M361.494 697.628V732.372" stroke="#ABB2C3"/>
<path d="M379.633 750H415.91M433.793 767.628V802.372M415.91 820H379.633M361.494 767.628V802.372" stroke="#ABB2C3"/>
<path d="M379.633 820H415.91M433.793 837.628V872.372M415.91 890H379.633M361.494 837.628V872.372" stroke="#ABB2C3"/>
<defs>
<linearGradient id="paint0_linear_110_10353" x1="0" y1="0" x2="774.489" y2="238.115" gradientUnits="userSpaceOnUse">
<stop stop-color="#017BFF"/>
<stop offset="1" stop-color="#0C1678"/>
</linearGradient>
</defs>
</svg>
