<svg width="393" height="891" viewBox="0 0 393 891" fill="none" xmlns="http://www.w3.org/2000/svg">
<rect width="393" height="840" transform="translate(0 1)" fill="url(#paint0_linear_110_10353)"/>
<path d="M103.289 274L96.9525 251.6H100.825L105.529 269.104L110.617 251.6H114.009L119.065 269.104L123.769 251.6H127.641L121.305 274H117.049L112.312 257.648L107.545 274H103.289ZM138.088 257.584C139.923 257.584 141.406 258.171 142.536 259.344C143.667 260.517 144.232 262.128 144.232 264.176V274H140.776V264.528C140.776 263.333 140.456 262.416 139.816 261.776C139.176 261.136 138.302 260.816 137.192 260.816C135.976 260.816 134.995 261.2 134.248 261.968C133.502 262.715 133.128 263.867 133.128 265.424V274H129.672V251.6H133.128V260.048C134.174 258.405 135.827 257.584 138.088 257.584ZM160.626 258H164.082V274H160.626V271.696C159.324 273.509 157.458 274.416 155.026 274.416C152.828 274.416 150.951 273.605 149.394 271.984C147.836 270.341 147.058 268.347 147.058 266C147.058 263.632 147.836 261.637 149.394 260.016C150.951 258.395 152.828 257.584 155.026 257.584C157.458 257.584 159.324 258.48 160.626 260.272V258ZM151.954 269.68C152.914 270.64 154.119 271.12 155.57 271.12C157.02 271.12 158.226 270.64 159.186 269.68C160.146 268.699 160.626 267.472 160.626 266C160.626 264.528 160.146 263.312 159.186 262.352C158.226 261.371 157.02 260.88 155.57 260.88C154.119 260.88 152.914 261.371 151.954 262.352C150.994 263.312 150.514 264.528 150.514 266C150.514 267.472 150.994 268.699 151.954 269.68ZM177.038 261.328H173.07V269.008C173.07 269.669 173.219 270.149 173.518 270.448C173.816 270.725 174.254 270.885 174.83 270.928C175.427 270.949 176.163 270.939 177.038 270.896V274C174.392 274.32 172.494 274.096 171.342 273.328C170.19 272.539 169.614 271.099 169.614 269.008V261.328H166.67V258H169.614V254.544L173.07 253.52V258H177.038V261.328ZM201.001 258H204.457V274H201.001V271.696C199.699 273.509 197.833 274.416 195.401 274.416C193.203 274.416 191.326 273.605 189.769 271.984C188.211 270.341 187.433 268.347 187.433 266C187.433 263.632 188.211 261.637 189.769 260.016C191.326 258.395 193.203 257.584 195.401 257.584C197.833 257.584 199.699 258.48 201.001 260.272V258ZM192.329 269.68C193.289 270.64 194.494 271.12 195.945 271.12C197.395 271.12 198.601 270.64 199.561 269.68C200.521 268.699 201.001 267.472 201.001 266C201.001 264.528 200.521 263.312 199.561 262.352C198.601 261.371 197.395 260.88 195.945 260.88C194.494 260.88 193.289 261.371 192.329 262.352C191.369 263.312 190.889 264.528 190.889 266C190.889 267.472 191.369 268.699 192.329 269.68ZM211.941 260.688C212.815 258.704 214.458 257.712 216.869 257.712V261.456C215.546 261.371 214.394 261.691 213.413 262.416C212.431 263.12 211.941 264.293 211.941 265.936V274H208.485V258H211.941V260.688ZM221.392 267.472C221.648 268.688 222.235 269.627 223.152 270.288C224.07 270.928 225.19 271.248 226.512 271.248C228.347 271.248 229.723 270.587 230.64 269.264L233.488 270.928C231.91 273.253 229.574 274.416 226.48 274.416C223.878 274.416 221.776 273.627 220.176 272.048C218.576 270.448 217.776 268.432 217.776 266C217.776 263.611 218.566 261.616 220.144 260.016C221.723 258.395 223.75 257.584 226.224 257.584C228.571 257.584 230.491 258.405 231.984 260.048C233.499 261.691 234.256 263.685 234.256 266.032C234.256 266.395 234.214 266.875 234.128 267.472H221.392ZM221.36 264.656H230.768C230.534 263.355 229.99 262.373 229.136 261.712C228.304 261.051 227.323 260.72 226.192 260.72C224.912 260.72 223.846 261.072 222.992 261.776C222.139 262.48 221.595 263.44 221.36 264.656ZM256.081 258H259.761L253.617 274.512C252.081 278.651 249.479 280.613 245.809 280.4V277.168C246.897 277.232 247.772 276.997 248.433 276.464C249.095 275.952 249.639 275.141 250.065 274.032L250.225 273.712L243.441 258H247.217L251.985 269.616L256.081 258ZM268.849 274.416C266.503 274.416 264.508 273.605 262.865 271.984C261.223 270.363 260.401 268.368 260.401 266C260.401 263.632 261.223 261.637 262.865 260.016C264.508 258.395 266.503 257.584 268.849 257.584C271.217 257.584 273.212 258.395 274.833 260.016C276.476 261.637 277.297 263.632 277.297 266C277.297 268.368 276.476 270.363 274.833 271.984C273.212 273.605 271.217 274.416 268.849 274.416ZM265.297 269.616C266.257 270.576 267.441 271.056 268.849 271.056C270.257 271.056 271.441 270.576 272.401 269.616C273.361 268.656 273.841 267.451 273.841 266C273.841 264.549 273.361 263.344 272.401 262.384C271.441 261.424 270.257 260.944 268.849 260.944C267.441 260.944 266.257 261.424 265.297 262.384C264.337 263.344 263.857 264.549 263.857 266C263.857 267.451 264.337 268.656 265.297 269.616ZM291.206 258H294.662V274H291.206V271.952C290.161 273.595 288.508 274.416 286.246 274.416C284.412 274.416 282.929 273.829 281.798 272.656C280.668 271.483 280.102 269.872 280.102 267.824V258H283.558V267.472C283.558 268.667 283.878 269.584 284.518 270.224C285.158 270.864 286.033 271.184 287.142 271.184C288.358 271.184 289.34 270.811 290.086 270.064C290.833 269.296 291.206 268.133 291.206 266.576V258ZM129.557 296H133.205L128.181 312H124.789L121.461 301.216L118.101 312H114.709L109.685 296H113.333L116.437 307.04L119.797 296H123.093L126.421 307.04L129.557 296ZM147.797 296H151.253V312H147.797V309.696C146.496 311.509 144.629 312.416 142.197 312.416C140 312.416 138.123 311.605 136.565 309.984C135.008 308.341 134.229 306.347 134.229 304C134.229 301.632 135.008 299.637 136.565 298.016C138.123 296.395 140 295.584 142.197 295.584C144.629 295.584 146.496 296.48 147.797 298.272V296ZM139.125 307.68C140.085 308.64 141.291 309.12 142.741 309.12C144.192 309.12 145.397 308.64 146.357 307.68C147.317 306.699 147.797 305.472 147.797 304C147.797 302.528 147.317 301.312 146.357 300.352C145.397 299.371 144.192 298.88 142.741 298.88C141.291 298.88 140.085 299.371 139.125 300.352C138.165 301.312 137.685 302.528 137.685 304C137.685 305.472 138.165 306.699 139.125 307.68ZM158.546 292.96C158.119 293.387 157.607 293.6 157.01 293.6C156.412 293.6 155.89 293.387 155.442 292.96C155.015 292.512 154.802 291.989 154.802 291.392C154.802 290.795 155.015 290.283 155.442 289.856C155.868 289.408 156.391 289.184 157.01 289.184C157.628 289.184 158.151 289.408 158.578 289.856C159.004 290.283 159.218 290.795 159.218 291.392C159.218 291.989 158.994 292.512 158.546 292.96ZM155.282 312V296H158.738V312H155.282ZM171.678 299.328H167.71V307.008C167.71 307.669 167.86 308.149 168.158 308.448C168.457 308.725 168.894 308.885 169.47 308.928C170.068 308.949 170.804 308.939 171.678 308.896V312C169.033 312.32 167.134 312.096 165.982 311.328C164.83 310.539 164.254 309.099 164.254 307.008V299.328H161.31V296H164.254V292.544L167.71 291.52V296H171.678V299.328ZM178.077 292.96C177.65 293.387 177.138 293.6 176.541 293.6C175.944 293.6 175.421 293.387 174.973 292.96C174.546 292.512 174.333 291.989 174.333 291.392C174.333 290.795 174.546 290.283 174.973 289.856C175.4 289.408 175.922 289.184 176.541 289.184C177.16 289.184 177.682 289.408 178.109 289.856C178.536 290.283 178.749 290.795 178.749 291.392C178.749 291.989 178.525 292.512 178.077 292.96ZM174.813 312V296H178.269V312H174.813ZM190.698 295.584C192.532 295.584 194.015 296.171 195.146 297.344C196.276 298.517 196.842 300.128 196.842 302.176V312H193.386V302.528C193.386 301.333 193.066 300.416 192.426 299.776C191.786 299.136 190.911 298.816 189.802 298.816C188.586 298.816 187.604 299.2 186.858 299.968C186.111 300.715 185.738 301.867 185.738 303.424V312H182.282V296H185.738V298.048C186.783 296.405 188.436 295.584 190.698 295.584ZM213.299 296H216.691V311.264C216.691 313.696 215.891 315.563 214.291 316.864C212.691 318.165 210.75 318.816 208.467 318.816C204.776 318.816 202.248 317.525 200.883 314.944L203.859 313.216C204.691 314.859 206.248 315.68 208.531 315.68C210.024 315.68 211.187 315.285 212.019 314.496C212.872 313.728 213.299 312.651 213.299 311.264V309.312C211.998 311.168 210.142 312.096 207.731 312.096C205.47 312.096 203.56 311.296 202.003 309.696C200.446 308.075 199.667 306.123 199.667 303.84C199.667 301.557 200.446 299.616 202.003 298.016C203.56 296.395 205.47 295.584 207.731 295.584C210.142 295.584 211.998 296.512 213.299 298.368V296ZM204.563 307.424C205.544 308.384 206.76 308.864 208.211 308.864C209.662 308.864 210.867 308.384 211.827 307.424C212.808 306.464 213.299 305.269 213.299 303.84C213.299 302.411 212.808 301.216 211.827 300.256C210.867 299.296 209.662 298.816 208.211 298.816C206.76 298.816 205.544 299.296 204.563 300.256C203.603 301.216 203.123 302.411 203.123 303.84C203.123 305.269 203.603 306.464 204.563 307.424ZM237.103 292.512C234.586 292.277 233.327 293.333 233.327 295.68V296H237.103V299.328H233.327V312H229.871V299.328H227.439V296H229.871V295.68C229.871 293.483 230.479 291.819 231.695 290.688C232.932 289.536 234.735 289.035 237.103 289.184V292.512ZM245.927 312.416C243.581 312.416 241.586 311.605 239.943 309.984C238.301 308.363 237.479 306.368 237.479 304C237.479 301.632 238.301 299.637 239.943 298.016C241.586 296.395 243.581 295.584 245.927 295.584C248.295 295.584 250.29 296.395 251.911 298.016C253.554 299.637 254.375 301.632 254.375 304C254.375 306.368 253.554 308.363 251.911 309.984C250.29 311.605 248.295 312.416 245.927 312.416ZM242.375 307.616C243.335 308.576 244.519 309.056 245.927 309.056C247.335 309.056 248.519 308.576 249.479 307.616C250.439 306.656 250.919 305.451 250.919 304C250.919 302.549 250.439 301.344 249.479 300.384C248.519 299.424 247.335 298.944 245.927 298.944C244.519 298.944 243.335 299.424 242.375 300.384C241.415 301.344 240.935 302.549 240.935 304C240.935 305.451 241.415 306.656 242.375 307.616ZM260.956 298.688C261.831 296.704 263.474 295.712 265.884 295.712V299.456C264.562 299.371 263.41 299.691 262.428 300.416C261.447 301.12 260.956 302.293 260.956 303.936V312H257.5V296H260.956V298.688ZM272.822 304.96C272.822 304.085 273.014 303.275 273.398 302.528C273.782 301.781 274.251 301.141 274.806 300.608C275.361 300.053 275.915 299.531 276.47 299.04C277.025 298.528 277.494 297.984 277.878 297.408C278.262 296.811 278.454 296.192 278.454 295.552C278.454 294.656 278.145 293.973 277.526 293.504C276.907 293.013 276.075 292.768 275.03 292.768C274.027 292.768 273.163 293.024 272.438 293.536C271.713 294.048 271.19 294.773 270.87 295.712L267.702 293.92C268.299 292.405 269.259 291.243 270.582 290.432C271.926 289.6 273.441 289.184 275.126 289.184C277.025 289.184 278.667 289.728 280.054 290.816C281.441 291.904 282.134 293.408 282.134 295.328C282.134 296.224 281.942 297.067 281.558 297.856C281.174 298.624 280.705 299.285 280.15 299.84C279.595 300.395 279.041 300.939 278.486 301.472C277.931 301.984 277.462 302.539 277.078 303.136C276.694 303.733 276.502 304.341 276.502 304.96H272.822ZM276.374 311.68C275.905 312.149 275.339 312.384 274.678 312.384C274.017 312.384 273.451 312.149 272.982 311.68C272.513 311.211 272.278 310.645 272.278 309.984C272.278 309.323 272.502 308.757 272.95 308.288C273.419 307.819 273.995 307.584 274.678 307.584C275.339 307.584 275.905 307.819 276.374 308.288C276.843 308.757 277.078 309.323 277.078 309.984C277.078 310.645 276.843 311.211 276.374 311.68Z" fill="white"/>
<path d="M114.597 366.708C112.901 366.708 111.498 366.148 110.389 365.028C109.29 363.908 108.741 362.532 108.741 360.9C108.741 359.268 109.29 357.892 110.389 356.772C111.498 355.652 112.901 355.092 114.597 355.092C115.621 355.092 116.559 355.337 117.413 355.828C118.277 356.319 118.949 356.98 119.429 357.812L118.133 358.564C117.813 357.945 117.333 357.455 116.693 357.092C116.063 356.719 115.365 356.532 114.597 356.532C113.306 356.532 112.25 356.948 111.429 357.78C110.618 358.612 110.213 359.652 110.213 360.9C110.213 362.137 110.618 363.172 111.429 364.004C112.25 364.836 113.306 365.252 114.597 365.252C115.365 365.252 116.063 365.071 116.693 364.708C117.333 364.335 117.813 363.844 118.133 363.236L119.429 363.972C118.959 364.804 118.293 365.471 117.429 365.972C116.565 366.463 115.621 366.708 114.597 366.708ZM127.691 365.492C126.869 366.303 125.872 366.708 124.699 366.708C123.525 366.708 122.528 366.303 121.707 365.492C120.896 364.681 120.491 363.684 120.491 362.5C120.491 361.316 120.896 360.319 121.707 359.508C122.528 358.697 123.525 358.292 124.699 358.292C125.872 358.292 126.869 358.697 127.691 359.508C128.512 360.319 128.923 361.316 128.923 362.5C128.923 363.684 128.512 364.681 127.691 365.492ZM124.699 365.348C125.499 365.348 126.171 365.076 126.715 364.532C127.259 363.988 127.531 363.311 127.531 362.5C127.531 361.689 127.259 361.012 126.715 360.468C126.171 359.924 125.499 359.652 124.699 359.652C123.909 359.652 123.243 359.924 122.699 360.468C122.155 361.012 121.883 361.689 121.883 362.5C121.883 363.311 122.155 363.988 122.699 364.532C123.243 365.076 123.909 365.348 124.699 365.348ZM134.548 358.292C135.486 358.292 136.238 358.591 136.804 359.188C137.369 359.775 137.652 360.575 137.652 361.588V366.5H136.26V361.668C136.26 361.017 136.084 360.516 135.732 360.164C135.38 359.801 134.894 359.62 134.276 359.62C133.582 359.62 133.022 359.839 132.596 360.276C132.169 360.703 131.956 361.364 131.956 362.26V366.5H130.564V358.5H131.956V359.652C132.521 358.745 133.385 358.292 134.548 358.292ZM143.579 358.292C144.518 358.292 145.27 358.591 145.835 359.188C146.4 359.775 146.683 360.575 146.683 361.588V366.5H145.291V361.668C145.291 361.017 145.115 360.516 144.763 360.164C144.411 359.801 143.926 359.62 143.307 359.62C142.614 359.62 142.054 359.839 141.627 360.276C141.2 360.703 140.987 361.364 140.987 362.26V366.5H139.595V358.5H140.987V359.652C141.552 358.745 142.416 358.292 143.579 358.292ZM149.602 363.14C149.741 363.855 150.066 364.409 150.578 364.804C151.101 365.199 151.741 365.396 152.498 365.396C153.554 365.396 154.322 365.007 154.802 364.228L155.986 364.9C155.208 366.105 154.034 366.708 152.466 366.708C151.197 366.708 150.162 366.313 149.362 365.524C148.573 364.724 148.178 363.716 148.178 362.5C148.178 361.295 148.568 360.292 149.346 359.492C150.125 358.692 151.133 358.292 152.37 358.292C153.544 358.292 154.498 358.708 155.234 359.54C155.981 360.361 156.354 361.353 156.354 362.516C156.354 362.719 156.338 362.927 156.306 363.14H149.602ZM152.37 359.604C151.624 359.604 151.005 359.817 150.514 360.244C150.024 360.66 149.72 361.22 149.602 361.924H154.946C154.829 361.167 154.53 360.591 154.05 360.196C153.57 359.801 153.01 359.604 152.37 359.604ZM161.699 366.708C160.493 366.708 159.491 366.308 158.691 365.508C157.891 364.697 157.491 363.695 157.491 362.5C157.491 361.305 157.891 360.308 158.691 359.508C159.491 358.697 160.493 358.292 161.699 358.292C162.488 358.292 163.197 358.484 163.827 358.868C164.456 359.241 164.925 359.748 165.235 360.388L164.067 361.06C163.864 360.633 163.549 360.292 163.123 360.036C162.707 359.78 162.232 359.652 161.699 359.652C160.899 359.652 160.227 359.924 159.683 360.468C159.149 361.012 158.883 361.689 158.883 362.5C158.883 363.3 159.149 363.972 159.683 364.516C160.227 365.06 160.899 365.332 161.699 365.332C162.232 365.332 162.712 365.209 163.139 364.964C163.565 364.708 163.891 364.367 164.115 363.94L165.299 364.628C164.957 365.257 164.467 365.764 163.827 366.148C163.187 366.521 162.477 366.708 161.699 366.708ZM171.025 359.844H168.897V364.18C168.897 364.575 168.972 364.857 169.121 365.028C169.281 365.188 169.521 365.273 169.841 365.284C170.161 365.284 170.556 365.273 171.025 365.252V366.5C169.809 366.66 168.919 366.564 168.353 366.212C167.788 365.849 167.505 365.172 167.505 364.18V359.844H165.921V358.5H167.505V356.676L168.897 356.26V358.5H171.025V359.844ZM186.144 358.5H187.6L185.12 366.5H183.696L181.824 360.58L179.952 366.5H178.528L176.048 358.5H177.504L179.264 364.58L181.152 358.5H182.496L184.384 364.596L186.144 358.5ZM189.737 357.044C189.47 357.044 189.246 356.953 189.065 356.772C188.883 356.591 188.793 356.372 188.793 356.116C188.793 355.86 188.883 355.641 189.065 355.46C189.246 355.268 189.47 355.172 189.737 355.172C189.993 355.172 190.211 355.268 190.393 355.46C190.574 355.641 190.665 355.86 190.665 356.116C190.665 356.372 190.574 356.591 190.393 356.772C190.211 356.953 189.993 357.044 189.737 357.044ZM189.033 366.5V358.5H190.425V366.5H189.033ZM196.9 359.844H194.772V364.18C194.772 364.575 194.847 364.857 194.996 365.028C195.156 365.188 195.396 365.273 195.716 365.284C196.036 365.284 196.431 365.273 196.9 365.252V366.5C195.684 366.66 194.794 366.564 194.228 366.212C193.663 365.849 193.38 365.172 193.38 364.18V359.844H191.796V358.5H193.38V356.676L194.772 356.26V358.5H196.9V359.844ZM202.532 358.292C203.471 358.292 204.223 358.591 204.788 359.188C205.354 359.775 205.636 360.575 205.636 361.588V366.5H204.244V361.668C204.244 361.017 204.068 360.516 203.716 360.164C203.364 359.801 202.879 359.62 202.26 359.62C201.567 359.62 201.007 359.839 200.58 360.276C200.154 360.703 199.94 361.364 199.94 362.26V366.5H198.548V355.3H199.94V359.652C200.506 358.745 201.37 358.292 202.532 358.292ZM217.099 358.5H218.491V366.5H217.099V365.348C216.534 366.255 215.67 366.708 214.507 366.708C213.569 366.708 212.817 366.415 212.251 365.828C211.686 365.231 211.403 364.425 211.403 363.412V358.5H212.795V363.332C212.795 363.983 212.971 364.489 213.323 364.852C213.675 365.204 214.161 365.38 214.779 365.38C215.473 365.38 216.033 365.167 216.459 364.74C216.886 364.303 217.099 363.636 217.099 362.74V358.5ZM221.795 360.66C221.795 360.969 221.95 361.22 222.259 361.412C222.568 361.593 222.942 361.743 223.379 361.86C223.816 361.967 224.254 362.095 224.691 362.244C225.128 362.383 225.502 362.628 225.811 362.98C226.12 363.321 226.275 363.764 226.275 364.308C226.275 365.033 225.992 365.615 225.427 366.052C224.872 366.489 224.158 366.708 223.283 366.708C222.504 366.708 221.838 366.537 221.283 366.196C220.728 365.855 220.334 365.401 220.099 364.836L221.299 364.148C221.427 364.532 221.667 364.836 222.019 365.06C222.371 365.284 222.792 365.396 223.283 365.396C223.742 365.396 224.12 365.311 224.419 365.14C224.718 364.959 224.867 364.681 224.867 364.308C224.867 363.999 224.712 363.753 224.403 363.572C224.094 363.38 223.72 363.231 223.283 363.124C222.846 363.007 222.408 362.873 221.971 362.724C221.534 362.575 221.16 362.329 220.851 361.988C220.542 361.647 220.387 361.209 220.387 360.676C220.387 359.983 220.654 359.412 221.187 358.964C221.731 358.516 222.408 358.292 223.219 358.292C223.87 358.292 224.446 358.441 224.947 358.74C225.459 359.028 225.843 359.433 226.099 359.956L224.931 360.612C224.643 359.929 224.072 359.588 223.219 359.588C222.824 359.588 222.488 359.684 222.211 359.876C221.934 360.057 221.795 360.319 221.795 360.66Z" fill="white"/>
<g clip-path="url(#clip0_110_10353)">
<path d="M264.954 367.103L263.756 365.936L267.797 361.901H256.947V360.227H267.797L263.731 356.161L264.929 355L270.999 361.064L264.954 367.103Z" fill="white"/>
</g>
<rect x="243.5" y="340.5" width="41" height="41" rx="20.5" stroke="white"/>
<rect x="40" y="412" width="2" height="313" transform="rotate(-90 40 412)" fill="#FDFDFD" fill-opacity="0.45"/>
<path d="M104.27 470.416C100.899 470.416 98.1042 469.307 95.8855 467.088C93.6668 464.848 92.5575 462.085 92.5575 458.8C92.5575 455.515 93.6668 452.763 95.8855 450.544C98.1042 448.304 100.899 447.184 104.27 447.184C106.296 447.184 108.163 447.664 109.87 448.624C111.598 449.584 112.942 450.885 113.902 452.528L110.702 454.384C110.104 453.275 109.23 452.4 108.078 451.76C106.947 451.099 105.678 450.768 104.27 450.768C101.88 450.768 99.9388 451.525 98.4455 453.04C96.9735 454.555 96.2375 456.475 96.2375 458.8C96.2375 461.125 96.9735 463.045 98.4455 464.56C99.9388 466.075 101.88 466.832 104.27 466.832C105.678 466.832 106.958 466.512 108.11 465.872C109.262 465.211 110.126 464.325 110.702 463.216L113.902 465.04C112.963 466.683 111.63 467.995 109.902 468.976C108.195 469.936 106.318 470.416 104.27 470.416ZM127.675 454H131.131V470H127.675V467.952C126.63 469.595 124.976 470.416 122.715 470.416C120.88 470.416 119.398 469.829 118.267 468.656C117.136 467.483 116.571 465.872 116.571 463.824V454H120.027V463.472C120.027 464.667 120.347 465.584 120.987 466.224C121.627 466.864 122.502 467.184 123.611 467.184C124.827 467.184 125.808 466.811 126.555 466.064C127.302 465.296 127.675 464.133 127.675 462.576V454ZM138.628 456.688C139.503 454.704 141.146 453.712 143.556 453.712V457.456C142.234 457.371 141.082 457.691 140.1 458.416C139.119 459.12 138.628 460.293 138.628 461.936V470H135.172V454H138.628V456.688ZM149.374 450.96C148.947 451.387 148.435 451.6 147.838 451.6C147.24 451.6 146.718 451.387 146.27 450.96C145.843 450.512 145.63 449.989 145.63 449.392C145.63 448.795 145.843 448.283 146.27 447.856C146.696 447.408 147.219 447.184 147.838 447.184C148.456 447.184 148.979 447.408 149.406 447.856C149.832 448.283 150.046 448.795 150.046 449.392C150.046 449.989 149.822 450.512 149.374 450.96ZM146.11 470V454H149.566V470H146.11ZM161.131 470.416C158.784 470.416 156.789 469.605 155.147 467.984C153.504 466.363 152.683 464.368 152.683 462C152.683 459.632 153.504 457.637 155.147 456.016C156.789 454.395 158.784 453.584 161.131 453.584C163.499 453.584 165.493 454.395 167.115 456.016C168.757 457.637 169.579 459.632 169.579 462C169.579 464.368 168.757 466.363 167.115 467.984C165.493 469.605 163.499 470.416 161.131 470.416ZM157.579 465.616C158.539 466.576 159.723 467.056 161.131 467.056C162.539 467.056 163.723 466.576 164.683 465.616C165.643 464.656 166.123 463.451 166.123 462C166.123 460.549 165.643 459.344 164.683 458.384C163.723 457.424 162.539 456.944 161.131 456.944C159.723 456.944 158.539 457.424 157.579 458.384C156.619 459.344 156.139 460.549 156.139 462C156.139 463.451 156.619 464.656 157.579 465.616ZM183.488 454H186.944V470H183.488V467.952C182.442 469.595 180.789 470.416 178.528 470.416C176.693 470.416 175.21 469.829 174.08 468.656C172.949 467.483 172.384 465.872 172.384 463.824V454H175.84V463.472C175.84 464.667 176.16 465.584 176.8 466.224C177.44 466.864 178.314 467.184 179.424 467.184C180.64 467.184 181.621 466.811 182.368 466.064C183.114 465.296 183.488 464.133 183.488 462.576V454ZM193.995 458.416C193.995 458.949 194.283 459.376 194.859 459.696C195.456 459.995 196.171 460.261 197.003 460.496C197.856 460.709 198.71 460.965 199.563 461.264C200.416 461.563 201.131 462.075 201.707 462.8C202.304 463.504 202.603 464.4 202.603 465.488C202.603 467.024 202.006 468.229 200.811 469.104C199.638 469.979 198.155 470.416 196.363 470.416C194.784 470.416 193.43 470.085 192.299 469.424C191.168 468.763 190.347 467.845 189.835 466.672L192.811 464.944C193.366 466.48 194.55 467.248 196.363 467.248C198.176 467.248 199.083 466.651 199.083 465.456C199.083 464.944 198.784 464.528 198.187 464.208C197.611 463.888 196.896 463.621 196.043 463.408C195.211 463.173 194.368 462.907 193.515 462.608C192.662 462.309 191.936 461.819 191.339 461.136C190.763 460.432 190.475 459.547 190.475 458.48C190.475 457.008 191.03 455.824 192.139 454.928C193.27 454.032 194.667 453.584 196.331 453.584C197.654 453.584 198.827 453.883 199.851 454.48C200.896 455.056 201.696 455.867 202.251 456.912L199.339 458.544C198.784 457.328 197.782 456.72 196.331 456.72C195.67 456.72 195.115 456.869 194.667 457.168C194.219 457.445 193.995 457.861 193.995 458.416ZM226.313 454H229.769V470H226.313V467.696C225.012 469.509 223.145 470.416 220.713 470.416C218.516 470.416 216.638 469.605 215.081 467.984C213.524 466.341 212.745 464.347 212.745 462C212.745 459.632 213.524 457.637 215.081 456.016C216.638 454.395 218.516 453.584 220.713 453.584C223.145 453.584 225.012 454.48 226.313 456.272V454ZM217.641 465.68C218.601 466.64 219.806 467.12 221.257 467.12C222.708 467.12 223.913 466.64 224.873 465.68C225.833 464.699 226.313 463.472 226.313 462C226.313 460.528 225.833 459.312 224.873 458.352C223.913 457.371 222.708 456.88 221.257 456.88C219.806 456.88 218.601 457.371 217.641 458.352C216.681 459.312 216.201 460.528 216.201 462C216.201 463.472 216.681 464.699 217.641 465.68ZM242.853 453.584C245.051 453.584 246.928 454.395 248.485 456.016C250.043 457.637 250.821 459.632 250.821 462C250.821 464.347 250.043 466.341 248.485 467.984C246.928 469.605 245.051 470.416 242.853 470.416C240.421 470.416 238.555 469.509 237.253 467.696V470H233.797V447.6H237.253V456.272C238.555 454.48 240.421 453.584 242.853 453.584ZM238.693 465.68C239.653 466.64 240.859 467.12 242.309 467.12C243.76 467.12 244.965 466.64 245.925 465.68C246.885 464.699 247.365 463.472 247.365 462C247.365 460.528 246.885 459.312 245.925 458.352C244.965 457.371 243.76 456.88 242.309 456.88C240.859 456.88 239.653 457.371 238.693 458.352C237.733 459.312 237.253 460.528 237.253 462C237.253 463.472 237.733 464.699 238.693 465.68ZM261.506 470.416C259.159 470.416 257.164 469.605 255.522 467.984C253.879 466.363 253.058 464.368 253.058 462C253.058 459.632 253.879 457.637 255.522 456.016C257.164 454.395 259.159 453.584 261.506 453.584C263.874 453.584 265.868 454.395 267.49 456.016C269.132 457.637 269.954 459.632 269.954 462C269.954 464.368 269.132 466.363 267.49 467.984C265.868 469.605 263.874 470.416 261.506 470.416ZM257.954 465.616C258.914 466.576 260.098 467.056 261.506 467.056C262.914 467.056 264.098 466.576 265.058 465.616C266.018 464.656 266.498 463.451 266.498 462C266.498 460.549 266.018 459.344 265.058 458.384C264.098 457.424 262.914 456.944 261.506 456.944C260.098 456.944 258.914 457.424 257.954 458.384C256.994 459.344 256.514 460.549 256.514 462C256.514 463.451 256.994 464.656 257.954 465.616ZM283.863 454H287.319V470H283.863V467.952C282.817 469.595 281.164 470.416 278.903 470.416C277.068 470.416 275.585 469.829 274.455 468.656C273.324 467.483 272.759 465.872 272.759 463.824V454H276.215V463.472C276.215 464.667 276.535 465.584 277.175 466.224C277.815 466.864 278.689 467.184 279.799 467.184C281.015 467.184 281.996 466.811 282.743 466.064C283.489 465.296 283.863 464.133 283.863 462.576V454ZM300.288 457.328H296.32V465.008C296.32 465.669 296.469 466.149 296.768 466.448C297.066 466.725 297.504 466.885 298.08 466.928C298.677 466.949 299.413 466.939 300.288 466.896V470C297.642 470.32 295.744 470.096 294.592 469.328C293.44 468.539 292.864 467.099 292.864 465.008V457.328H289.92V454H292.864V450.544L296.32 449.52V454H300.288V457.328ZM74.1068 488.96C73.6801 489.387 73.1681 489.6 72.5708 489.6C71.9734 489.6 71.4508 489.387 71.0028 488.96C70.5761 488.512 70.3628 487.989 70.3628 487.392C70.3628 486.795 70.5761 486.283 71.0028 485.856C71.4508 485.408 71.9734 485.184 72.5708 485.184C73.1681 485.184 73.6801 485.408 74.1068 485.856C74.5548 486.283 74.7788 486.795 74.7788 487.392C74.7788 487.989 74.5548 488.512 74.1068 488.96ZM70.8428 508.64V492H74.2988V508.64C74.2988 513.077 72.1121 515.136 67.7387 514.816V511.488C68.8054 511.595 69.5841 511.424 70.0748 510.976C70.5868 510.528 70.8428 509.749 70.8428 508.64ZM85.8805 508.416C83.5338 508.416 81.5392 507.605 79.8965 505.984C78.2538 504.363 77.4325 502.368 77.4325 500C77.4325 497.632 78.2538 495.637 79.8965 494.016C81.5392 492.395 83.5338 491.584 85.8805 491.584C88.2485 491.584 90.2432 492.395 91.8645 494.016C93.5072 495.637 94.3285 497.632 94.3285 500C94.3285 502.368 93.5072 504.363 91.8645 505.984C90.2432 507.605 88.2485 508.416 85.8805 508.416ZM82.3285 503.616C83.2885 504.576 84.4725 505.056 85.8805 505.056C87.2885 505.056 88.4725 504.576 89.4325 503.616C90.3925 502.656 90.8725 501.451 90.8725 500C90.8725 498.549 90.3925 497.344 89.4325 496.384C88.4725 495.424 87.2885 494.944 85.8805 494.944C84.4725 494.944 83.2885 495.424 82.3285 496.384C81.3685 497.344 80.8885 498.549 80.8885 500C80.8885 501.451 81.3685 502.656 82.3285 503.616ZM100.718 488.96C100.291 489.387 99.7788 489.6 99.1815 489.6C98.5842 489.6 98.0615 489.387 97.6135 488.96C97.1868 488.512 96.9735 487.989 96.9735 487.392C96.9735 486.795 97.1868 486.283 97.6135 485.856C98.0402 485.408 98.5628 485.184 99.1815 485.184C99.8002 485.184 100.323 485.408 100.75 485.856C101.176 486.283 101.39 486.795 101.39 487.392C101.39 487.989 101.166 488.512 100.718 488.96ZM97.4535 508V492H100.91V508H97.4535ZM113.338 491.584C115.173 491.584 116.656 492.171 117.786 493.344C118.917 494.517 119.482 496.128 119.482 498.176V508H116.026V498.528C116.026 497.333 115.706 496.416 115.066 495.776C114.426 495.136 113.552 494.816 112.442 494.816C111.226 494.816 110.245 495.2 109.498 495.968C108.752 496.715 108.378 497.867 108.378 499.424V508H104.922V492H108.378V494.048C109.424 492.405 111.077 491.584 113.338 491.584ZM126.468 488.96C126.041 489.387 125.529 489.6 124.932 489.6C124.334 489.6 123.812 489.387 123.364 488.96C122.937 488.512 122.724 487.989 122.724 487.392C122.724 486.795 122.937 486.283 123.364 485.856C123.79 485.408 124.313 485.184 124.932 485.184C125.55 485.184 126.073 485.408 126.5 485.856C126.926 486.283 127.14 486.795 127.14 487.392C127.14 487.989 126.916 488.512 126.468 488.96ZM123.204 508V492H126.66V508H123.204ZM139.088 491.584C140.923 491.584 142.406 492.171 143.536 493.344C144.667 494.517 145.232 496.128 145.232 498.176V508H141.776V498.528C141.776 497.333 141.456 496.416 140.816 495.776C140.176 495.136 139.302 494.816 138.192 494.816C136.976 494.816 135.995 495.2 135.248 495.968C134.502 496.715 134.128 497.867 134.128 499.424V508H130.672V492H134.128V494.048C135.174 492.405 136.827 491.584 139.088 491.584ZM161.69 492H165.082V507.264C165.082 509.696 164.282 511.563 162.682 512.864C161.082 514.165 159.14 514.816 156.858 514.816C153.167 514.816 150.639 513.525 149.274 510.944L152.25 509.216C153.082 510.859 154.639 511.68 156.922 511.68C158.415 511.68 159.578 511.285 160.41 510.496C161.263 509.728 161.69 508.651 161.69 507.264V505.312C160.388 507.168 158.532 508.096 156.122 508.096C153.86 508.096 151.951 507.296 150.394 505.696C148.836 504.075 148.058 502.123 148.058 499.84C148.058 497.557 148.836 495.616 150.394 494.016C151.951 492.395 153.86 491.584 156.122 491.584C158.532 491.584 160.388 492.512 161.69 494.368V492ZM152.954 503.424C153.935 504.384 155.151 504.864 156.602 504.864C158.052 504.864 159.258 504.384 160.218 503.424C161.199 502.464 161.69 501.269 161.69 499.84C161.69 498.411 161.199 497.216 160.218 496.256C159.258 495.296 158.052 494.816 156.602 494.816C155.151 494.816 153.935 495.296 152.954 496.256C151.994 497.216 151.514 498.411 151.514 499.84C151.514 501.269 151.994 502.464 152.954 503.424ZM184.662 508.416C182.315 508.416 180.32 507.605 178.678 505.984C177.035 504.363 176.214 502.368 176.214 500C176.214 497.632 177.035 495.637 178.678 494.016C180.32 492.395 182.315 491.584 184.662 491.584C187.03 491.584 189.024 492.395 190.646 494.016C192.288 495.637 193.11 497.632 193.11 500C193.11 502.368 192.288 504.363 190.646 505.984C189.024 507.605 187.03 508.416 184.662 508.416ZM181.11 503.616C182.07 504.576 183.254 505.056 184.662 505.056C186.07 505.056 187.254 504.576 188.214 503.616C189.174 502.656 189.654 501.451 189.654 500C189.654 498.549 189.174 497.344 188.214 496.384C187.254 495.424 186.07 494.944 184.662 494.944C183.254 494.944 182.07 495.424 181.11 496.384C180.15 497.344 179.67 498.549 179.67 500C179.67 501.451 180.15 502.656 181.11 503.616ZM207.019 492H210.475V508H207.019V505.952C205.973 507.595 204.32 508.416 202.059 508.416C200.224 508.416 198.741 507.829 197.611 506.656C196.48 505.483 195.915 503.872 195.915 501.824V492H199.371V501.472C199.371 502.667 199.691 503.584 200.331 504.224C200.971 504.864 201.845 505.184 202.955 505.184C204.171 505.184 205.152 504.811 205.899 504.064C206.645 503.296 207.019 502.133 207.019 500.576V492ZM217.972 494.688C218.847 492.704 220.489 491.712 222.9 491.712V495.456C221.577 495.371 220.425 495.691 219.444 496.416C218.463 497.12 217.972 498.293 217.972 499.936V508H214.516V492H217.972V494.688ZM242.382 495.328H238.414V503.008C238.414 503.669 238.563 504.149 238.862 504.448C239.16 504.725 239.598 504.885 240.174 504.928C240.771 504.949 241.507 504.939 242.382 504.896V508C239.736 508.32 237.838 508.096 236.686 507.328C235.534 506.539 234.958 505.099 234.958 503.008V495.328H232.014V492H234.958V488.544L238.414 487.52V492H242.382V495.328ZM247.58 501.472C247.836 502.688 248.422 503.627 249.34 504.288C250.257 504.928 251.377 505.248 252.7 505.248C254.534 505.248 255.91 504.587 256.828 503.264L259.676 504.928C258.097 507.253 255.761 508.416 252.668 508.416C250.065 508.416 247.964 507.627 246.364 506.048C244.764 504.448 243.964 502.432 243.964 500C243.964 497.611 244.753 495.616 246.332 494.016C247.91 492.395 249.937 491.584 252.412 491.584C254.758 491.584 256.678 492.405 258.172 494.048C259.686 495.691 260.444 497.685 260.444 500.032C260.444 500.395 260.401 500.875 260.316 501.472H247.58ZM247.548 498.656H256.956C256.721 497.355 256.177 496.373 255.324 495.712C254.492 495.051 253.51 494.72 252.38 494.72C251.1 494.72 250.033 495.072 249.18 495.776C248.326 496.48 247.782 497.44 247.548 498.656ZM276.063 492H279.519V508H276.063V505.696C274.762 507.509 272.895 508.416 270.463 508.416C268.266 508.416 266.388 507.605 264.831 505.984C263.274 504.341 262.495 502.347 262.495 500C262.495 497.632 263.274 495.637 264.831 494.016C266.388 492.395 268.266 491.584 270.463 491.584C272.895 491.584 274.762 492.48 276.063 494.272V492ZM267.391 503.68C268.351 504.64 269.556 505.12 271.007 505.12C272.458 505.12 273.663 504.64 274.623 503.68C275.583 502.699 276.063 501.472 276.063 500C276.063 498.528 275.583 497.312 274.623 496.352C273.663 495.371 272.458 494.88 271.007 494.88C269.556 494.88 268.351 495.371 267.391 496.352C266.431 497.312 265.951 498.528 265.951 500C265.951 501.472 266.431 502.699 267.391 503.68ZM301.019 491.584C302.833 491.584 304.294 492.171 305.403 493.344C306.513 494.517 307.067 496.096 307.067 498.08V508H303.611V498.304C303.611 497.195 303.334 496.341 302.779 495.744C302.225 495.125 301.467 494.816 300.507 494.816C299.441 494.816 298.587 495.168 297.947 495.872C297.329 496.576 297.019 497.632 297.019 499.04V508H293.563V498.304C293.563 497.195 293.297 496.341 292.763 495.744C292.251 495.125 291.515 494.816 290.555 494.816C289.51 494.816 288.657 495.179 287.995 495.904C287.334 496.608 287.003 497.653 287.003 499.04V508H283.547V492H287.003V493.92C288.027 492.363 289.553 491.584 291.579 491.584C293.627 491.584 295.142 492.427 296.123 494.112C297.19 492.427 298.822 491.584 301.019 491.584ZM313.713 500.96C313.713 500.085 313.905 499.275 314.289 498.528C314.673 497.781 315.142 497.141 315.697 496.608C316.251 496.053 316.806 495.531 317.361 495.04C317.915 494.528 318.385 493.984 318.769 493.408C319.153 492.811 319.345 492.192 319.345 491.552C319.345 490.656 319.035 489.973 318.417 489.504C317.798 489.013 316.966 488.768 315.921 488.768C314.918 488.768 314.054 489.024 313.329 489.536C312.603 490.048 312.081 490.773 311.761 491.712L308.593 489.92C309.19 488.405 310.15 487.243 311.473 486.432C312.817 485.6 314.331 485.184 316.017 485.184C317.915 485.184 319.558 485.728 320.945 486.816C322.331 487.904 323.025 489.408 323.025 491.328C323.025 492.224 322.833 493.067 322.449 493.856C322.065 494.624 321.595 495.285 321.041 495.84C320.486 496.395 319.931 496.939 319.377 497.472C318.822 497.984 318.353 498.539 317.969 499.136C317.585 499.733 317.393 500.341 317.393 500.96H313.713ZM317.265 507.68C316.795 508.149 316.23 508.384 315.569 508.384C314.907 508.384 314.342 508.149 313.873 507.68C313.403 507.211 313.169 506.645 313.169 505.984C313.169 505.323 313.393 504.757 313.841 504.288C314.31 503.819 314.886 503.584 315.569 503.584C316.23 503.584 316.795 503.819 317.265 504.288C317.734 504.757 317.969 505.323 317.969 505.984C317.969 506.645 317.734 507.211 317.265 507.68Z" fill="white"/>
<path d="M84.8258 551.3C86.3511 551.3 87.6151 551.844 88.6178 552.932C89.6311 554.009 90.1378 555.332 90.1378 556.9C90.1378 558.468 89.6311 559.796 88.6178 560.884C87.6151 561.961 86.3511 562.5 84.8258 562.5H80.4578V551.3H84.8258ZM84.8258 561.092C85.9671 561.092 86.9005 560.692 87.6258 559.892C88.3511 559.092 88.7138 558.095 88.7138 556.9C88.7138 555.705 88.3511 554.708 87.6258 553.908C86.9005 553.108 85.9671 552.708 84.8258 552.708H81.9458V561.092H84.8258ZM98.5502 561.492C97.7289 562.303 96.7315 562.708 95.5582 562.708C94.3849 562.708 93.3875 562.303 92.5662 561.492C91.7555 560.681 91.3502 559.684 91.3502 558.5C91.3502 557.316 91.7555 556.319 92.5662 555.508C93.3875 554.697 94.3849 554.292 95.5582 554.292C96.7315 554.292 97.7289 554.697 98.5502 555.508C99.3715 556.319 99.7822 557.316 99.7822 558.5C99.7822 559.684 99.3715 560.681 98.5502 561.492ZM95.5582 561.348C96.3582 561.348 97.0302 561.076 97.5742 560.532C98.1182 559.988 98.3902 559.311 98.3902 558.5C98.3902 557.689 98.1182 557.012 97.5742 556.468C97.0302 555.924 96.3582 555.652 95.5582 555.652C94.7689 555.652 94.1022 555.924 93.5582 556.468C93.0142 557.012 92.7422 557.689 92.7422 558.5C92.7422 559.311 93.0142 559.988 93.5582 560.532C94.1022 561.076 94.7689 561.348 95.5582 561.348ZM105.407 554.292C106.346 554.292 107.098 554.591 107.663 555.188C108.229 555.775 108.511 556.575 108.511 557.588V562.5H107.119V557.668C107.119 557.017 106.943 556.516 106.591 556.164C106.239 555.801 105.754 555.62 105.135 555.62C104.442 555.62 103.882 555.839 103.455 556.276C103.029 556.703 102.815 557.364 102.815 558.26V562.5H101.423V554.5H102.815V555.652C103.381 554.745 104.245 554.292 105.407 554.292ZM111.722 551.284L110.682 555.172H109.482L110.122 551.284H111.722ZM118.041 555.844H115.913V560.18C115.913 560.575 115.987 560.857 116.137 561.028C116.297 561.188 116.537 561.273 116.857 561.284C117.177 561.284 117.571 561.273 118.041 561.252V562.5C116.825 562.66 115.934 562.564 115.369 562.212C114.803 561.849 114.521 561.172 114.521 560.18V555.844H112.937V554.5H114.521V552.676L115.913 552.26V554.5H118.041V555.844ZM132.376 554.292C133.272 554.292 133.997 554.585 134.552 555.172C135.106 555.748 135.384 556.532 135.384 557.524V562.5H133.992V557.572C133.992 556.953 133.832 556.473 133.512 556.132C133.192 555.791 132.765 555.62 132.232 555.62C131.634 555.62 131.154 555.823 130.792 556.228C130.44 556.623 130.264 557.231 130.264 558.052V562.5H128.872V557.572C128.872 556.953 128.717 556.473 128.408 556.132C128.109 555.791 127.698 555.62 127.176 555.62C126.589 555.62 126.098 555.823 125.704 556.228C125.32 556.633 125.128 557.241 125.128 558.052V562.5H123.736V554.5H125.128V555.572C125.672 554.719 126.466 554.292 127.512 554.292C128.589 554.292 129.373 554.745 129.864 555.652C130.418 554.745 131.256 554.292 132.376 554.292ZM138.018 553.044C137.751 553.044 137.527 552.953 137.346 552.772C137.164 552.591 137.074 552.372 137.074 552.116C137.074 551.86 137.164 551.641 137.346 551.46C137.527 551.268 137.751 551.172 138.018 551.172C138.274 551.172 138.492 551.268 138.674 551.46C138.855 551.641 138.946 551.86 138.946 552.116C138.946 552.372 138.855 552.591 138.674 552.772C138.492 552.953 138.274 553.044 138.018 553.044ZM137.314 562.5V554.5H138.706V562.5H137.314ZM142.014 556.66C142.014 556.969 142.168 557.22 142.478 557.412C142.787 557.593 143.16 557.743 143.598 557.86C144.035 557.967 144.472 558.095 144.91 558.244C145.347 558.383 145.72 558.628 146.03 558.98C146.339 559.321 146.494 559.764 146.494 560.308C146.494 561.033 146.211 561.615 145.646 562.052C145.091 562.489 144.376 562.708 143.502 562.708C142.723 562.708 142.056 562.537 141.502 562.196C140.947 561.855 140.552 561.401 140.318 560.836L141.518 560.148C141.646 560.532 141.886 560.836 142.238 561.06C142.59 561.284 143.011 561.396 143.502 561.396C143.96 561.396 144.339 561.311 144.638 561.14C144.936 560.959 145.086 560.681 145.086 560.308C145.086 559.999 144.931 559.753 144.622 559.572C144.312 559.38 143.939 559.231 143.502 559.124C143.064 559.007 142.627 558.873 142.19 558.724C141.752 558.575 141.379 558.329 141.07 557.988C140.76 557.647 140.606 557.209 140.606 556.676C140.606 555.983 140.872 555.412 141.406 554.964C141.95 554.516 142.627 554.292 143.438 554.292C144.088 554.292 144.664 554.441 145.166 554.74C145.678 555.028 146.062 555.433 146.318 555.956L145.15 556.612C144.862 555.929 144.291 555.588 143.438 555.588C143.043 555.588 142.707 555.684 142.43 555.876C142.152 556.057 142.014 556.319 142.014 556.66ZM148.842 556.66C148.842 556.969 148.997 557.22 149.306 557.412C149.615 557.593 149.989 557.743 150.426 557.86C150.863 557.967 151.301 558.095 151.738 558.244C152.175 558.383 152.549 558.628 152.858 558.98C153.167 559.321 153.322 559.764 153.322 560.308C153.322 561.033 153.039 561.615 152.474 562.052C151.919 562.489 151.205 562.708 150.33 562.708C149.551 562.708 148.885 562.537 148.33 562.196C147.775 561.855 147.381 561.401 147.146 560.836L148.346 560.148C148.474 560.532 148.714 560.836 149.066 561.06C149.418 561.284 149.839 561.396 150.33 561.396C150.789 561.396 151.167 561.311 151.466 561.14C151.765 560.959 151.914 560.681 151.914 560.308C151.914 559.999 151.759 559.753 151.45 559.572C151.141 559.38 150.767 559.231 150.33 559.124C149.893 559.007 149.455 558.873 149.018 558.724C148.581 558.575 148.207 558.329 147.898 557.988C147.589 557.647 147.434 557.209 147.434 556.676C147.434 555.983 147.701 555.412 148.234 554.964C148.778 554.516 149.455 554.292 150.266 554.292C150.917 554.292 151.493 554.441 151.994 554.74C152.506 555.028 152.89 555.433 153.146 555.956L151.978 556.612C151.69 555.929 151.119 555.588 150.266 555.588C149.871 555.588 149.535 555.684 149.258 555.876C148.981 556.057 148.842 556.319 148.842 556.66ZM165.594 554.5H166.986V562.5H165.594V561.124C164.901 562.18 163.893 562.708 162.57 562.708C161.45 562.708 160.495 562.303 159.706 561.492C158.917 560.671 158.522 559.673 158.522 558.5C158.522 557.327 158.917 556.335 159.706 555.524C160.495 554.703 161.45 554.292 162.57 554.292C163.893 554.292 164.901 554.82 165.594 555.876V554.5ZM162.746 561.364C163.557 561.364 164.234 561.092 164.778 560.548C165.322 559.993 165.594 559.311 165.594 558.5C165.594 557.689 165.322 557.012 164.778 556.468C164.234 555.913 163.557 555.636 162.746 555.636C161.946 555.636 161.274 555.913 160.73 556.468C160.186 557.012 159.914 557.689 159.914 558.5C159.914 559.311 160.186 559.993 160.73 560.548C161.274 561.092 161.946 561.364 162.746 561.364ZM173.079 554.292C174.018 554.292 174.77 554.591 175.335 555.188C175.9 555.775 176.183 556.575 176.183 557.588V562.5H174.791V557.668C174.791 557.017 174.615 556.516 174.263 556.164C173.911 555.801 173.426 555.62 172.807 555.62C172.114 555.62 171.554 555.839 171.127 556.276C170.7 556.703 170.487 557.364 170.487 558.26V562.5H169.095V554.5H170.487V555.652C171.052 554.745 171.916 554.292 173.079 554.292ZM184.878 561.492C184.057 562.303 183.06 562.708 181.886 562.708C180.713 562.708 179.716 562.303 178.894 561.492C178.084 560.681 177.678 559.684 177.678 558.5C177.678 557.316 178.084 556.319 178.894 555.508C179.716 554.697 180.713 554.292 181.886 554.292C183.06 554.292 184.057 554.697 184.878 555.508C185.7 556.319 186.11 557.316 186.11 558.5C186.11 559.684 185.7 560.681 184.878 561.492ZM181.886 561.348C182.686 561.348 183.358 561.076 183.902 560.532C184.446 559.988 184.718 559.311 184.718 558.5C184.718 557.689 184.446 557.012 183.902 556.468C183.358 555.924 182.686 555.652 181.886 555.652C181.097 555.652 180.43 555.924 179.886 556.468C179.342 557.012 179.07 557.689 179.07 558.5C179.07 559.311 179.342 559.988 179.886 560.532C180.43 561.076 181.097 561.348 181.886 561.348ZM191.931 555.844H189.803V560.18C189.803 560.575 189.878 560.857 190.027 561.028C190.187 561.188 190.427 561.273 190.747 561.284C191.067 561.284 191.462 561.273 191.931 561.252V562.5C190.715 562.66 189.825 562.564 189.259 562.212C188.694 561.849 188.411 561.172 188.411 560.18V555.844H186.827V554.5H188.411V552.676L189.803 552.26V554.5H191.931V555.844ZM197.563 554.292C198.502 554.292 199.254 554.591 199.819 555.188C200.385 555.775 200.667 556.575 200.667 557.588V562.5H199.275V557.668C199.275 557.017 199.099 556.516 198.747 556.164C198.395 555.801 197.91 555.62 197.291 555.62C196.598 555.62 196.038 555.839 195.611 556.276C195.185 556.703 194.971 557.364 194.971 558.26V562.5H193.579V551.3H194.971V555.652C195.537 554.745 196.401 554.292 197.563 554.292ZM203.587 559.14C203.725 559.855 204.051 560.409 204.563 560.804C205.085 561.199 205.725 561.396 206.483 561.396C207.539 561.396 208.307 561.007 208.787 560.228L209.971 560.9C209.192 562.105 208.019 562.708 206.451 562.708C205.181 562.708 204.147 562.313 203.347 561.524C202.557 560.724 202.163 559.716 202.163 558.5C202.163 557.295 202.552 556.292 203.331 555.492C204.109 554.692 205.117 554.292 206.355 554.292C207.528 554.292 208.483 554.708 209.219 555.54C209.965 556.361 210.339 557.353 210.339 558.516C210.339 558.719 210.323 558.927 210.291 559.14H203.587ZM206.355 555.604C205.608 555.604 204.989 555.817 204.499 556.244C204.008 556.66 203.704 557.22 203.587 557.924H208.931C208.813 557.167 208.515 556.591 208.035 556.196C207.555 555.801 206.995 555.604 206.355 555.604ZM213.331 555.844C213.789 554.852 214.621 554.356 215.827 554.356V555.812C215.144 555.78 214.557 555.961 214.067 556.356C213.576 556.751 213.331 557.385 213.331 558.26V562.5H211.939V554.5H213.331V555.844ZM225.605 554.292C226.725 554.292 227.679 554.703 228.469 555.524C229.258 556.335 229.653 557.327 229.653 558.5C229.653 559.673 229.258 560.671 228.469 561.492C227.679 562.303 226.725 562.708 225.605 562.708C224.282 562.708 223.274 562.18 222.581 561.124V562.5H221.189V551.3H222.581V555.876C223.274 554.82 224.282 554.292 225.605 554.292ZM225.429 561.364C226.229 561.364 226.901 561.092 227.445 560.548C227.989 559.993 228.261 559.311 228.261 558.5C228.261 557.689 227.989 557.012 227.445 556.468C226.901 555.913 226.229 555.636 225.429 555.636C224.618 555.636 223.941 555.913 223.397 556.468C222.853 557.012 222.581 557.689 222.581 558.5C222.581 559.311 222.853 559.993 223.397 560.548C223.941 561.092 224.618 561.364 225.429 561.364ZM232.29 559.14C232.428 559.855 232.754 560.409 233.266 560.804C233.788 561.199 234.428 561.396 235.186 561.396C236.242 561.396 237.01 561.007 237.49 560.228L238.674 560.9C237.895 562.105 236.722 562.708 235.154 562.708C233.884 562.708 232.85 562.313 232.05 561.524C231.26 560.724 230.866 559.716 230.866 558.5C230.866 557.295 231.255 556.292 232.034 555.492C232.812 554.692 233.82 554.292 235.058 554.292C236.231 554.292 237.186 554.708 237.922 555.54C238.668 556.361 239.042 557.353 239.042 558.516C239.042 558.719 239.026 558.927 238.994 559.14H232.29ZM235.058 555.604C234.311 555.604 233.692 555.817 233.202 556.244C232.711 556.66 232.407 557.22 232.29 557.924H237.634C237.516 557.167 237.218 556.591 236.738 556.196C236.258 555.801 235.698 555.604 235.058 555.604ZM247.25 554.5H248.642V562.5H247.25V561.124C246.557 562.18 245.549 562.708 244.226 562.708C243.106 562.708 242.152 562.303 241.362 561.492C240.573 560.671 240.178 559.673 240.178 558.5C240.178 557.327 240.573 556.335 241.362 555.524C242.152 554.703 243.106 554.292 244.226 554.292C245.549 554.292 246.557 554.82 247.25 555.876V554.5ZM244.402 561.364C245.213 561.364 245.89 561.092 246.434 560.548C246.978 559.993 247.25 559.311 247.25 558.5C247.25 557.689 246.978 557.012 246.434 556.468C245.89 555.913 245.213 555.636 244.402 555.636C243.602 555.636 242.93 555.913 242.386 556.468C241.842 557.012 241.57 557.689 241.57 558.5C241.57 559.311 241.842 559.993 242.386 560.548C242.93 561.092 243.602 561.364 244.402 561.364ZM255.103 555.844H252.975V560.18C252.975 560.575 253.05 560.857 253.199 561.028C253.359 561.188 253.599 561.273 253.919 561.284C254.239 561.284 254.634 561.273 255.103 561.252V562.5C253.887 562.66 252.997 562.564 252.431 562.212C251.866 561.849 251.583 561.172 251.583 560.18V555.844H249.999V554.5H251.583V552.676L252.975 552.26V554.5H255.103V555.844Z" fill="white"/>
<g clip-path="url(#clip1_110_10353)">
<path d="M293.954 563.103L292.756 561.936L296.797 557.901H285.947V556.227H296.797L292.731 552.161L293.929 551L299.999 557.064L293.954 563.103Z" fill="white"/>
</g>
<rect x="272.5" y="536.5" width="41" height="41" rx="20.5" stroke="white"/>
<path d="M18.1387 1H54.4161M72.2993 18.6277V53.3723M54.4161 71H18.1387M0 18.6277V53.3723" stroke="#ABB2C3"/>
<path d="M18.1387 71H54.4161M72.2993 88.6277V123.372M54.4161 141H18.1387M0 88.6277V123.372" stroke="#ABB2C3"/>
<path d="M18.1387 141H54.4161M72.2993 158.628V193.372M54.4161 211H18.1387M0 158.628V193.372" stroke="#ABB2C3"/>
<path d="M18.1387 610H54.4161M72.2993 627.628V662.372M54.4161 680H18.1387M0 627.628V662.372" stroke="#ABB2C3"/>
<path d="M90.1387 1H126.416M144.299 18.6277V53.3723M126.416 71H90.1387M72 18.6277V53.3723" stroke="#ABB2C3"/>
<path d="M90.4375 71H126.715M144.598 88.6277V123.372M126.715 141H90.4375M72.2988 88.6277V123.372" stroke="#ABB2C3"/>
<path d="M90.4375 141H126.715M144.598 158.628V193.372M126.715 211H90.4375M72.2988 158.628V193.372" stroke="#ABB2C3"/>
<path d="M90.4375 610H126.715M144.598 627.628V662.372M126.715 680H90.4375M72.2988 627.628V662.372" stroke="#ABB2C3"/>
<path d="M162.139 1H198.416M216.299 18.6277V53.3723M198.416 71H162.139M144 18.6277V53.3723" stroke="#ABB2C3"/>
<path d="M162.736 71H199.014M216.897 88.6277V123.372M199.014 141H162.736M144.598 88.6277V123.372" stroke="#ABB2C3"/>
<path d="M162.736 141H199.014M216.897 158.628V193.372M199.014 211H162.736M144.598 158.628V193.372" stroke="#ABB2C3"/>
<path d="M162.736 610H199.014M216.897 627.628V662.372M199.014 680H162.736M144.598 627.628V662.372" stroke="#ABB2C3"/>
<path d="M235.035 71H271.313M289.196 88.6277V123.372M271.313 141H235.035M216.896 88.6277V123.372" stroke="#ABB2C3"/>
<path d="M235.035 141H271.313M289.196 158.628V193.372M271.313 211H235.035M216.896 158.628V193.372" stroke="#ABB2C3"/>
<path d="M235.035 610H271.313M289.196 627.628V662.372M271.313 680H235.035M216.896 627.628V662.372" stroke="#ABB2C3"/>
<path d="M234.139 1H270.416M288.299 18.6277V53.3723M270.416 71H234.139M216 18.6277V53.3723" stroke="#ABB2C3"/>
<path d="M307.334 71H343.611M361.495 88.6277V123.372M343.611 141H307.334M289.195 88.6277V123.372" stroke="#ABB2C3"/>
<path d="M307.334 141H343.611M361.495 158.628V193.372M343.611 211H307.334M289.195 158.628V193.372" stroke="#ABB2C3"/>
<path d="M307.334 610H343.611M361.495 627.628V662.372M343.611 680H307.334M289.195 627.628V662.372" stroke="#ABB2C3"/>
<path d="M306.139 1H342.416M360.299 18.6277V53.3723M342.416 71H306.139M288 18.6277V53.3723" stroke="#ABB2C3"/>
<path d="M379.633 71H415.91M433.793 88.6277V123.372M415.91 141H379.633M361.494 88.6277V123.372" stroke="#ABB2C3"/>
<path d="M379.633 141H415.91M433.793 158.628V193.372M415.91 211H379.633M361.494 158.628V193.372" stroke="#ABB2C3"/>
<path d="M379.633 610H415.91M433.793 627.628V662.372M415.91 680H379.633M361.494 627.628V662.372" stroke="#ABB2C3"/>
<path d="M378.139 1H414.416M432.299 18.6277V53.3723M414.416 71H378.139M360 18.6277V53.3723" stroke="#ABB2C3"/>
<path d="M18.1387 680H54.4161M72.2993 697.628V732.372M54.4161 750H18.1387M0 697.628V732.372" stroke="#ABB2C3"/>
<path d="M18.1387 750H54.4161M72.2993 767.628V802.372M54.4161 820H18.1387M0 767.628V802.372" stroke="#ABB2C3"/>
<path d="M18.1387 820H54.4161M72.2993 837.628V872.372M54.4161 890H18.1387M0 837.628V872.372" stroke="#ABB2C3"/>
<path d="M90.4375 680H126.715M144.598 697.628V732.372M126.715 750H90.4375M72.2988 697.628V732.372" stroke="#ABB2C3"/>
<path d="M90.4375 750H126.715M144.598 767.628V802.372M126.715 820H90.4375M72.2988 767.628V802.372" stroke="#ABB2C3"/>
<path d="M90.4375 820H126.715M144.598 837.628V872.372M126.715 890H90.4375M72.2988 837.628V872.372" stroke="#ABB2C3"/>
<path d="M162.736 680H199.014M216.897 697.628V732.372M199.014 750H162.736M144.598 697.628V732.372" stroke="#ABB2C3"/>
<path d="M162.736 750H199.014M216.897 767.628V802.372M199.014 820H162.736M144.598 767.628V802.372" stroke="#ABB2C3"/>
<path d="M162.736 820H199.014M216.897 837.628V872.372M199.014 890H162.736M144.598 837.628V872.372" stroke="#ABB2C3"/>
<path d="M235.035 680H271.313M289.196 697.628V732.372M271.313 750H235.035M216.896 697.628V732.372" stroke="#ABB2C3"/>
<path d="M235.035 750H271.313M289.196 767.628V802.372M271.313 820H235.035M216.896 767.628V802.372" stroke="#ABB2C3"/>
<path d="M235.035 820H271.313M289.196 837.628V872.372M271.313 890H235.035M216.896 837.628V872.372" stroke="#ABB2C3"/>
<path d="M307.334 680H343.611M361.495 697.628V732.372M343.611 750H307.334M289.195 697.628V732.372" stroke="#ABB2C3"/>
<path d="M307.334 750H343.611M361.495 767.628V802.372M343.611 820H307.334M289.195 767.628V802.372" stroke="#ABB2C3"/>
<path d="M307.334 820H343.611M361.495 837.628V872.372M343.611 890H307.334M289.195 837.628V872.372" stroke="#ABB2C3"/>
<path d="M379.633 680H415.91M433.793 697.628V732.372M415.91 750H379.633M361.494 697.628V732.372" stroke="#ABB2C3"/>
<path d="M379.633 750H415.91M433.793 767.628V802.372M415.91 820H379.633M361.494 767.628V802.372" stroke="#ABB2C3"/>
<path d="M379.633 820H415.91M433.793 837.628V872.372M415.91 890H379.633M361.494 837.628V872.372" stroke="#ABB2C3"/>
<defs>
<linearGradient id="paint0_linear_110_10353" x1="0" y1="0" x2="560.367" y2="132.575" gradientUnits="userSpaceOnUse">
<stop stop-color="#017BFF"/>
<stop offset="1" stop-color="#0C1678"/>
</linearGradient>
<clipPath id="clip0_110_10353">
<rect x="243" y="340" width="42" height="42" rx="21" fill="white"/>
</clipPath>
<clipPath id="clip1_110_10353">
<rect x="272" y="536" width="42" height="42" rx="21" fill="white"/>
</clipPath>
</defs>
</svg>
