<svg width="365" height="529" viewBox="0 0 365 529" fill="none" xmlns="http://www.w3.org/2000/svg">
<g filter="url(#filter0_d_110_10207)">
<rect x="6" y="2.66602" width="353" height="460.833" rx="16" fill="url(#paint0_linear_110_10207)"/>
</g>
<circle cx="182.5" cy="199" r="16" fill="white"/>
<path d="M182.188 200.274H178.115V199.006H182.188V194.925H183.455V199.006H187.536V200.274H183.455V204.346H182.188V200.274Z" fill="#28285E"/>
<path d="M138.608 250.26C136.435 250.26 134.935 249.407 134.108 247.7L136.088 246.54C136.542 247.527 137.388 248.02 138.628 248.02C139.428 248.02 140.042 247.827 140.468 247.44C140.908 247.04 141.128 246.48 141.128 245.76V236H143.428V245.76C143.428 247.2 142.975 248.313 142.068 249.1C141.162 249.873 140.008 250.26 138.608 250.26ZM150.56 250.26C149.093 250.26 147.847 249.753 146.82 248.74C145.793 247.727 145.28 246.48 145.28 245C145.28 243.52 145.793 242.273 146.82 241.26C147.847 240.247 149.093 239.74 150.56 239.74C152.04 239.74 153.287 240.247 154.3 241.26C155.327 242.273 155.84 243.52 155.84 245C155.84 246.48 155.327 247.727 154.3 248.74C153.287 249.753 152.04 250.26 150.56 250.26ZM148.34 247.26C148.94 247.86 149.68 248.16 150.56 248.16C151.44 248.16 152.18 247.86 152.78 247.26C153.38 246.66 153.68 245.907 153.68 245C153.68 244.093 153.38 243.34 152.78 242.74C152.18 242.14 151.44 241.84 150.56 241.84C149.68 241.84 148.94 242.14 148.34 242.74C147.74 243.34 147.44 244.093 147.44 245C147.44 245.907 147.74 246.66 148.34 247.26ZM159.833 238.1C159.567 238.367 159.247 238.5 158.873 238.5C158.5 238.5 158.173 238.367 157.893 238.1C157.627 237.82 157.493 237.493 157.493 237.12C157.493 236.747 157.627 236.427 157.893 236.16C158.16 235.88 158.487 235.74 158.873 235.74C159.26 235.74 159.587 235.88 159.853 236.16C160.12 236.427 160.253 236.747 160.253 237.12C160.253 237.493 160.113 237.82 159.833 238.1ZM157.793 250V240H159.953V250H157.793ZM167.721 239.74C168.868 239.74 169.795 240.107 170.501 240.84C171.208 241.573 171.561 242.58 171.561 243.86V250H169.401V244.08C169.401 243.333 169.201 242.76 168.801 242.36C168.401 241.96 167.855 241.76 167.161 241.76C166.401 241.76 165.788 242 165.321 242.48C164.855 242.947 164.621 243.667 164.621 244.64V250H162.461V240H164.621V241.28C165.275 240.253 166.308 239.74 167.721 239.74ZM185.627 240H187.787V250H185.627V248.72C184.974 249.747 183.94 250.26 182.527 250.26C181.38 250.26 180.454 249.893 179.747 249.16C179.04 248.427 178.687 247.42 178.687 246.14V240H180.847V245.92C180.847 246.667 181.047 247.24 181.447 247.64C181.847 248.04 182.394 248.24 183.087 248.24C183.847 248.24 184.46 248.007 184.927 247.54C185.394 247.06 185.627 246.333 185.627 245.36V240ZM192.194 242.76C192.194 243.093 192.374 243.36 192.734 243.56C193.107 243.747 193.554 243.913 194.074 244.06C194.607 244.193 195.141 244.353 195.674 244.54C196.207 244.727 196.654 245.047 197.014 245.5C197.387 245.94 197.574 246.5 197.574 247.18C197.574 248.14 197.201 248.893 196.454 249.44C195.721 249.987 194.794 250.26 193.674 250.26C192.687 250.26 191.841 250.053 191.134 249.64C190.427 249.227 189.914 248.653 189.594 247.92L191.454 246.84C191.801 247.8 192.541 248.28 193.674 248.28C194.807 248.28 195.374 247.907 195.374 247.16C195.374 246.84 195.187 246.58 194.814 246.38C194.454 246.18 194.007 246.013 193.474 245.88C192.954 245.733 192.427 245.567 191.894 245.38C191.361 245.193 190.907 244.887 190.534 244.46C190.174 244.02 189.994 243.467 189.994 242.8C189.994 241.88 190.341 241.14 191.034 240.58C191.741 240.02 192.614 239.74 193.654 239.74C194.481 239.74 195.214 239.927 195.854 240.3C196.507 240.66 197.007 241.167 197.354 241.82L195.534 242.84C195.187 242.08 194.561 241.7 193.654 241.7C193.241 241.7 192.894 241.793 192.614 241.98C192.334 242.153 192.194 242.413 192.194 242.76ZM209.193 250.26C207.726 250.26 206.48 249.753 205.453 248.74C204.426 247.727 203.913 246.48 203.913 245C203.913 243.52 204.426 242.273 205.453 241.26C206.48 240.247 207.726 239.74 209.193 239.74C210.673 239.74 211.92 240.247 212.933 241.26C213.96 242.273 214.473 243.52 214.473 245C214.473 246.48 213.96 247.727 212.933 248.74C211.92 249.753 210.673 250.26 209.193 250.26ZM206.973 247.26C207.573 247.86 208.313 248.16 209.193 248.16C210.073 248.16 210.813 247.86 211.413 247.26C212.013 246.66 212.313 245.907 212.313 245C212.313 244.093 212.013 243.34 211.413 242.74C210.813 242.14 210.073 241.84 209.193 241.84C208.313 241.84 207.573 242.14 206.973 242.74C206.373 243.34 206.073 244.093 206.073 245C206.073 245.907 206.373 246.66 206.973 247.26ZM221.686 239.74C222.833 239.74 223.759 240.107 224.466 240.84C225.173 241.573 225.526 242.58 225.526 243.86V250H223.366V244.08C223.366 243.333 223.166 242.76 222.766 242.36C222.366 241.96 221.819 241.76 221.126 241.76C220.366 241.76 219.753 242 219.286 242.48C218.819 242.947 218.586 243.667 218.586 244.64V250H216.426V240H218.586V241.28C219.239 240.253 220.273 239.74 221.686 239.74ZM126.069 270.08H123.589V274.88C123.589 275.293 123.682 275.593 123.869 275.78C124.055 275.953 124.329 276.053 124.689 276.08C125.062 276.093 125.522 276.087 126.069 276.06V278C124.415 278.2 123.229 278.06 122.509 277.58C121.789 277.087 121.429 276.187 121.429 274.88V270.08H119.589V268H121.429V265.84L123.589 265.2V268H126.069V270.08ZM133.288 267.74C134.434 267.74 135.361 268.107 136.068 268.84C136.774 269.573 137.128 270.58 137.128 271.86V278H134.968V272.08C134.968 271.333 134.768 270.76 134.368 270.36C133.968 269.96 133.421 269.76 132.728 269.76C131.968 269.76 131.354 270 130.888 270.48C130.421 270.947 130.188 271.667 130.188 272.64V278H128.028V264H130.188V269.28C130.841 268.253 131.874 267.74 133.288 267.74ZM141.493 266.1C141.227 266.367 140.907 266.5 140.533 266.5C140.16 266.5 139.833 266.367 139.553 266.1C139.287 265.82 139.153 265.493 139.153 265.12C139.153 264.747 139.287 264.427 139.553 264.16C139.82 263.88 140.147 263.74 140.533 263.74C140.92 263.74 141.247 263.88 141.513 264.16C141.78 264.427 141.913 264.747 141.913 265.12C141.913 265.493 141.773 265.82 141.493 266.1ZM139.453 278V268H141.613V278H139.453ZM146.003 270.76C146.003 271.093 146.183 271.36 146.543 271.56C146.916 271.747 147.363 271.913 147.883 272.06C148.416 272.193 148.949 272.353 149.483 272.54C150.016 272.727 150.463 273.047 150.823 273.5C151.196 273.94 151.383 274.5 151.383 275.18C151.383 276.14 151.009 276.893 150.263 277.44C149.529 277.987 148.603 278.26 147.483 278.26C146.496 278.26 145.649 278.053 144.943 277.64C144.236 277.227 143.723 276.653 143.403 275.92L145.263 274.84C145.609 275.8 146.349 276.28 147.483 276.28C148.616 276.28 149.183 275.907 149.183 275.16C149.183 274.84 148.996 274.58 148.623 274.38C148.263 274.18 147.816 274.013 147.283 273.88C146.763 273.733 146.236 273.567 145.703 273.38C145.169 273.193 144.716 272.887 144.343 272.46C143.983 272.02 143.803 271.467 143.803 270.8C143.803 269.88 144.149 269.14 144.843 268.58C145.549 268.02 146.423 267.74 147.463 267.74C148.289 267.74 149.023 267.927 149.663 268.3C150.316 268.66 150.816 269.167 151.163 269.82L149.343 270.84C148.996 270.08 148.369 269.7 147.463 269.7C147.049 269.7 146.703 269.793 146.423 269.98C146.143 270.153 146.003 270.413 146.003 270.76ZM159.981 273.92C160.141 274.68 160.508 275.267 161.081 275.68C161.655 276.08 162.355 276.28 163.181 276.28C164.328 276.28 165.188 275.867 165.761 275.04L167.541 276.08C166.555 277.533 165.095 278.26 163.161 278.26C161.535 278.26 160.221 277.767 159.221 276.78C158.221 275.78 157.721 274.52 157.721 273C157.721 271.507 158.215 270.26 159.201 269.26C160.188 268.247 161.455 267.74 163.001 267.74C164.468 267.74 165.668 268.253 166.601 269.28C167.548 270.307 168.021 271.553 168.021 273.02C168.021 273.247 167.995 273.547 167.941 273.92H159.981ZM159.961 272.16H165.841C165.695 271.347 165.355 270.733 164.821 270.32C164.301 269.907 163.688 269.7 162.981 269.7C162.181 269.7 161.515 269.92 160.981 270.36C160.448 270.8 160.108 271.4 159.961 272.16ZM175.182 267.74C176.329 267.74 177.255 268.107 177.962 268.84C178.669 269.573 179.022 270.58 179.022 271.86V278H176.862V272.08C176.862 271.333 176.662 270.76 176.262 270.36C175.862 269.96 175.315 269.76 174.622 269.76C173.862 269.76 173.249 270 172.782 270.48C172.315 270.947 172.082 271.667 172.082 272.64V278H169.922V268H172.082V269.28C172.735 268.253 173.769 267.74 175.182 267.74ZM189.268 264H191.428V278H189.268V276.56C188.455 277.693 187.288 278.26 185.768 278.26C184.395 278.26 183.221 277.753 182.248 276.74C181.275 275.713 180.788 274.467 180.788 273C180.788 271.52 181.275 270.273 182.248 269.26C183.221 268.247 184.395 267.74 185.768 267.74C187.288 267.74 188.455 268.3 189.268 269.42V264ZM183.848 275.3C184.448 275.9 185.201 276.2 186.108 276.2C187.015 276.2 187.768 275.9 188.368 275.3C188.968 274.687 189.268 273.92 189.268 273C189.268 272.08 188.968 271.32 188.368 270.72C187.768 270.107 187.015 269.8 186.108 269.8C185.201 269.8 184.448 270.107 183.848 270.72C183.248 271.32 182.948 272.08 182.948 273C182.948 273.92 183.248 274.687 183.848 275.3ZM195.646 273.92C195.806 274.68 196.172 275.267 196.746 275.68C197.319 276.08 198.019 276.28 198.846 276.28C199.992 276.28 200.852 275.867 201.426 275.04L203.206 276.08C202.219 277.533 200.759 278.26 198.826 278.26C197.199 278.26 195.886 277.767 194.886 276.78C193.886 275.78 193.386 274.52 193.386 273C193.386 271.507 193.879 270.26 194.866 269.26C195.852 268.247 197.119 267.74 198.666 267.74C200.132 267.74 201.332 268.253 202.266 269.28C203.212 270.307 203.686 271.553 203.686 273.02C203.686 273.247 203.659 273.547 203.606 273.92H195.646ZM195.626 272.16H201.506C201.359 271.347 201.019 270.733 200.486 270.32C199.966 269.907 199.352 269.7 198.646 269.7C197.846 269.7 197.179 269.92 196.646 270.36C196.112 270.8 195.772 271.4 195.626 272.16ZM213.448 268H215.608V278H213.448V276.56C212.634 277.693 211.468 278.26 209.948 278.26C208.574 278.26 207.401 277.753 206.428 276.74C205.454 275.713 204.968 274.467 204.968 273C204.968 271.52 205.454 270.273 206.428 269.26C207.401 268.247 208.574 267.74 209.948 267.74C211.468 267.74 212.634 268.3 213.448 269.42V268ZM208.028 275.3C208.628 275.9 209.381 276.2 210.288 276.2C211.194 276.2 211.948 275.9 212.548 275.3C213.148 274.687 213.448 273.92 213.448 273C213.448 272.08 213.148 271.32 212.548 270.72C211.948 270.107 211.194 269.8 210.288 269.8C209.381 269.8 208.628 270.107 208.028 270.72C207.428 271.32 207.128 272.08 207.128 273C207.128 273.92 207.428 274.687 208.028 275.3ZM224.905 268H227.265L223.365 278H220.865L216.965 268H219.325L222.125 275.6L224.905 268ZM232.962 278.26C231.496 278.26 230.249 277.753 229.222 276.74C228.196 275.727 227.682 274.48 227.682 273C227.682 271.52 228.196 270.273 229.222 269.26C230.249 268.247 231.496 267.74 232.962 267.74C234.442 267.74 235.689 268.247 236.702 269.26C237.729 270.273 238.242 271.52 238.242 273C238.242 274.48 237.729 275.727 236.702 276.74C235.689 277.753 234.442 278.26 232.962 278.26ZM230.742 275.26C231.342 275.86 232.082 276.16 232.962 276.16C233.842 276.16 234.582 275.86 235.182 275.26C235.782 274.66 236.082 273.907 236.082 273C236.082 272.093 235.782 271.34 235.182 270.74C234.582 270.14 233.842 269.84 232.962 269.84C232.082 269.84 231.342 270.14 230.742 270.74C230.142 271.34 229.842 272.093 229.842 273C229.842 273.907 230.142 274.66 230.742 275.26ZM242.356 269.68C242.902 268.44 243.929 267.82 245.436 267.82V270.16C244.609 270.107 243.889 270.307 243.276 270.76C242.662 271.2 242.356 271.933 242.356 272.96V278H240.196V268H242.356V269.68Z" fill="white"/>
<g clip-path="url(#clip0_110_10207)">
<path d="M98.1934 315.216V305.444C98.1934 303.817 97.5185 302.258 96.3163 301.105L22.6827 230.496C21.4805 229.343 20.8056 227.783 20.8056 226.157V216.784" stroke="#EAEAEA" stroke-opacity="0.2"/>
<path d="M98.1934 529L98.1934 315.216" stroke="#EAEAEA" stroke-opacity="0.2"/>
<path d="M72.3984 167.567L72.3984 98.3569L46.6025 73.7487L46.6025 3.00012" stroke="#EAEAEA" stroke-opacity="0.2"/>
<path d="M46.6016 167.567L46.6016 98.3569" stroke="#EAEAEA" stroke-opacity="0.2"/>
<path d="M98.1934 167.567L98.1934 98.3569" stroke="#EAEAEA" stroke-opacity="0.2"/>
<path d="M98.1934 2.99996L98.1934 72.9795H85.2954L72.3974 60.6754L72.3974 2.99996" stroke="#EAEAEA" stroke-opacity="0.2"/>
<path d="M20.8066 479.784L20.8066 266" stroke="#EAEAEA" stroke-opacity="0.2"/>
<path d="M20.8066 216.784L20.8066 3.00007" stroke="#EAEAEA" stroke-opacity="0.2"/>
<path d="M20.8066 529C20.8066 515.409 32.3558 504.392 46.6025 504.392C60.8492 504.392 72.3984 515.409 72.3984 529" stroke="#EAEAEA" stroke-opacity="0.2"/>
<path d="M46.6025 390.579L46.6025 303.297C46.6025 303.085 46.783 302.912 47.0056 302.912H59.1666C59.3804 302.912 59.5854 302.993 59.7366 303.138L72.0443 314.879C72.2711 315.095 72.3984 315.388 72.3984 315.694L72.3984 390.579" stroke="#EAEAEA" stroke-opacity="0.2"/>
<path d="M46.6015 216.783C46.6015 203.193 58.1507 192.175 72.3974 192.175C86.6441 192.175 98.1934 203.193 98.1934 216.783C98.1934 230.374 86.6441 241.392 72.3974 241.392C58.1507 241.392 46.6015 230.374 46.6015 216.783Z" stroke="#EAEAEA" stroke-opacity="0.2"/>
<path d="M72.3984 479.784L72.3984 415.187H46.6025L46.6025 467.48L59.5005 479.784H72.3984Z" stroke="#EAEAEA" stroke-opacity="0.2"/>
</g>
<g clip-path="url(#clip1_110_10207)">
<path d="M258.807 315.216V305.444C258.807 303.817 259.481 302.258 260.684 301.105L334.317 230.496C335.52 229.343 336.194 227.783 336.194 226.157V216.784" stroke="#EAEAEA" stroke-opacity="0.2"/>
<path d="M258.807 529L258.807 315.216" stroke="#EAEAEA" stroke-opacity="0.2"/>
<path d="M284.602 167.567V98.3569L310.397 73.7487L310.397 3.00012" stroke="#EAEAEA" stroke-opacity="0.2"/>
<path d="M310.398 167.567V98.3569" stroke="#EAEAEA" stroke-opacity="0.2"/>
<path d="M258.807 167.567V98.3569" stroke="#EAEAEA" stroke-opacity="0.2"/>
<path d="M258.807 2.99996V72.9795H271.705L284.603 60.6754V2.99996" stroke="#EAEAEA" stroke-opacity="0.2"/>
<path d="M336.193 479.784L336.193 266" stroke="#EAEAEA" stroke-opacity="0.2"/>
<path d="M336.193 216.784L336.193 3.00007" stroke="#EAEAEA" stroke-opacity="0.2"/>
<path d="M336.193 529C336.193 515.409 324.644 504.392 310.397 504.392C296.151 504.392 284.602 515.409 284.602 529" stroke="#EAEAEA" stroke-opacity="0.2"/>
<path d="M310.397 390.579V303.297C310.397 303.085 310.217 302.912 309.994 302.912H297.833C297.62 302.912 297.415 302.993 297.263 303.138L284.956 314.879C284.729 315.095 284.602 315.388 284.602 315.694V390.579" stroke="#EAEAEA" stroke-opacity="0.2"/>
<path d="M310.398 216.783C310.398 203.193 298.849 192.175 284.603 192.175C270.356 192.175 258.807 203.193 258.807 216.783C258.807 230.374 270.356 241.392 284.603 241.392C298.849 241.392 310.398 230.374 310.398 216.783Z" stroke="#EAEAEA" stroke-opacity="0.2"/>
<path d="M284.602 479.784V415.187H310.397V467.48L297.5 479.784H284.602Z" stroke="#EAEAEA" stroke-opacity="0.2"/>
</g>
<defs>
<filter id="filter0_d_110_10207" x="0" y="0.666016" width="365" height="472.833" filterUnits="userSpaceOnUse" color-interpolation-filters="sRGB">
<feFlood flood-opacity="0" result="BackgroundImageFix"/>
<feColorMatrix in="SourceAlpha" type="matrix" values="0 0 0 0 0 0 0 0 0 0 0 0 0 0 0 0 0 0 127 0" result="hardAlpha"/>
<feOffset dy="4"/>
<feGaussianBlur stdDeviation="3"/>
<feComposite in2="hardAlpha" operator="out"/>
<feColorMatrix type="matrix" values="0 0 0 0 0 0 0 0 0 0 0 0 0 0 0 0 0 0 0.1 0"/>
<feBlend mode="normal" in2="BackgroundImageFix" result="effect1_dropShadow_110_10207"/>
<feBlend mode="normal" in="SourceGraphic" in2="effect1_dropShadow_110_10207" result="shape"/>
</filter>
<linearGradient id="paint0_linear_110_10207" x1="6" y1="2.66602" x2="468.161" y2="181.685" gradientUnits="userSpaceOnUse">
<stop stop-color="#017BFF"/>
<stop offset="1" stop-color="#0C1678"/>
</linearGradient>
<clipPath id="clip0_110_10207">
<rect width="526" height="79" fill="white" transform="matrix(0 -1 -1 0 99 529)"/>
</clipPath>
<clipPath id="clip1_110_10207">
<rect width="526" height="79" fill="white" transform="matrix(0 -1 1 0 258 529)"/>
</clipPath>
</defs>
</svg>
