<svg width="374" height="891" viewBox="0 0 374 891" fill="none" xmlns="http://www.w3.org/2000/svg">
<rect width="414" height="889" transform="translate(1 1)" fill="url(#paint0_linear_110_10353)"/>
<path d="M19.1387 1H55.4161M73.2993 18.6277V53.3723M55.4161 71H19.1387M1 18.6277V53.3723" stroke="#ABB2C3"/>
<path d="M19.1387 71H55.4161M73.2993 88.6277V123.372M55.4161 141H19.1387M1 88.6277V123.372" stroke="#ABB2C3"/>
<path d="M19.1387 141H55.4161M73.2993 158.628V193.372M55.4161 211H19.1387M1 158.628V193.372" stroke="#ABB2C3"/>
<path d="M19.1387 610H55.4161M73.2993 627.628V662.372M55.4161 680H19.1387M1 627.628V662.372" stroke="#ABB2C3"/>
<path d="M91.1387 1H127.416M145.299 18.6277V53.3723M127.416 71H91.1387M73 18.6277V53.3723" stroke="#ABB2C3"/>
<path d="M91.4375 71H127.715M145.598 88.6277V123.372M127.715 141H91.4375M73.2988 88.6277V123.372" stroke="#ABB2C3"/>
<path d="M91.4375 141H127.715M145.598 158.628V193.372M127.715 211H91.4375M73.2988 158.628V193.372" stroke="#ABB2C3"/>
<path d="M91.4375 610H127.715M145.598 627.628V662.372M127.715 680H91.4375M73.2988 627.628V662.372" stroke="#ABB2C3"/>
<path d="M163.139 1H199.416M217.299 18.6277V53.3723M199.416 71H163.139M145 18.6277V53.3723" stroke="#ABB2C3"/>
<path d="M163.736 71H200.014M217.897 88.6277V123.372M200.014 141H163.736M145.598 88.6277V123.372" stroke="#ABB2C3"/>
<path d="M163.736 141H200.014M217.897 158.628V193.372M200.014 211H163.736M145.598 158.628V193.372" stroke="#ABB2C3"/>
<path d="M163.736 610H200.014M217.897 627.628V662.372M200.014 680H163.736M145.598 627.628V662.372" stroke="#ABB2C3"/>
<path d="M236.035 71H272.313M290.196 88.6277V123.372M272.313 141H236.035M217.896 88.6277V123.372" stroke="#ABB2C3"/>
<path d="M236.035 141H272.313M290.196 158.628V193.372M272.313 211H236.035M217.896 158.628V193.372" stroke="#ABB2C3"/>
<path d="M236.035 610H272.313M290.196 627.628V662.372M272.313 680H236.035M217.896 627.628V662.372" stroke="#ABB2C3"/>
<path d="M235.139 1H271.416M289.299 18.6277V53.3723M271.416 71H235.139M217 18.6277V53.3723" stroke="#ABB2C3"/>
<path d="M308.334 71H344.611M362.495 88.6277V123.372M344.611 141H308.334M290.195 88.6277V123.372" stroke="#ABB2C3"/>
<path d="M308.334 141H344.611M362.495 158.628V193.372M344.611 211H308.334M290.195 158.628V193.372" stroke="#ABB2C3"/>
<path d="M308.334 610H344.611M362.495 627.628V662.372M344.611 680H308.334M290.195 627.628V662.372" stroke="#ABB2C3"/>
<path d="M307.139 1H343.416M361.299 18.6277V53.3723M343.416 71H307.139M289 18.6277V53.3723" stroke="#ABB2C3"/>
<path d="M380.633 71H416.91M434.793 88.6277V123.372M416.91 141H380.633M362.494 88.6277V123.372" stroke="#ABB2C3"/>
<path d="M380.633 141H416.91M434.793 158.628V193.372M416.91 211H380.633M362.494 158.628V193.372" stroke="#ABB2C3"/>
<path d="M380.633 610H416.91M434.793 627.628V662.372M416.91 680H380.633M362.494 627.628V662.372" stroke="#ABB2C3"/>
<path d="M379.139 1H415.416M433.299 18.6277V53.3723M415.416 71H379.139M361 18.6277V53.3723" stroke="#ABB2C3"/>
<path d="M19.1387 680H55.4161M73.2993 697.628V732.372M55.4161 750H19.1387M1 697.628V732.372" stroke="#ABB2C3"/>
<path d="M19.1387 750H55.4161M73.2993 767.628V802.372M55.4161 820H19.1387M1 767.628V802.372" stroke="#ABB2C3"/>
<path d="M19.1387 820H55.4161M73.2993 837.628V872.372M55.4161 890H19.1387M1 837.628V872.372" stroke="#ABB2C3"/>
<path d="M91.4375 680H127.715M145.598 697.628V732.372M127.715 750H91.4375M73.2988 697.628V732.372" stroke="#ABB2C3"/>
<path d="M91.4375 750H127.715M145.598 767.628V802.372M127.715 820H91.4375M73.2988 767.628V802.372" stroke="#ABB2C3"/>
<path d="M91.4375 820H127.715M145.598 837.628V872.372M127.715 890H91.4375M73.2988 837.628V872.372" stroke="#ABB2C3"/>
<path d="M163.736 680H200.014M217.897 697.628V732.372M200.014 750H163.736M145.598 697.628V732.372" stroke="#ABB2C3"/>
<path d="M163.736 750H200.014M217.897 767.628V802.372M200.014 820H163.736M145.598 767.628V802.372" stroke="#ABB2C3"/>
<path d="M163.736 820H200.014M217.897 837.628V872.372M200.014 890H163.736M145.598 837.628V872.372" stroke="#ABB2C3"/>
<path d="M236.035 680H272.313M290.196 697.628V732.372M272.313 750H236.035M217.896 697.628V732.372" stroke="#ABB2C3"/>
<path d="M236.035 750H272.313M290.196 767.628V802.372M272.313 820H236.035M217.896 767.628V802.372" stroke="#ABB2C3"/>
<path d="M236.035 820H272.313M290.196 837.628V872.372M272.313 890H236.035M217.896 837.628V872.372" stroke="#ABB2C3"/>
<path d="M308.334 680H344.611M362.495 697.628V732.372M344.611 750H308.334M290.195 697.628V732.372" stroke="#ABB2C3"/>
<path d="M308.334 750H344.611M362.495 767.628V802.372M344.611 820H308.334M290.195 767.628V802.372" stroke="#ABB2C3"/>
<path d="M308.334 820H344.611M362.495 837.628V872.372M344.611 890H308.334M290.195 837.628V872.372" stroke="#ABB2C3"/>
<path d="M380.633 680H416.91M434.793 697.628V732.372M416.91 750H380.633M362.494 697.628V732.372" stroke="#ABB2C3"/>
<path d="M380.633 750H416.91M434.793 767.628V802.372M416.91 820H380.633M362.494 767.628V802.372" stroke="#ABB2C3"/>
<path d="M380.633 820H416.91M434.793 837.628V872.372M416.91 890H380.633M362.494 837.628V872.372" stroke="#ABB2C3"/>
<defs>
<linearGradient id="paint0_linear_110_10353" x1="0" y1="0" x2="590.599" y2="139.08" gradientUnits="userSpaceOnUse">
<stop stop-color="#017BFF"/>
<stop offset="1" stop-color="#0C1678"/>
</linearGradient>
</defs>
</svg>
