<svg width="541" height="796" viewBox="0 0 541 796" fill="none" xmlns="http://www.w3.org/2000/svg">
<path d="M127 30H30" stroke="#28285E"/>
<path d="M127 215H30" stroke="#28285E"/>
<path d="M127 400H30" stroke="#28285E"/>
<path d="M127 585H30" stroke="#28285E"/>
<path d="M127 770H30" stroke="#28285E"/>
<rect width="60" height="60" rx="30" fill="#28285E"/>
<path d="M30.336 23.248L25.952 26.576L24.64 24.56L30.784 20.016H33.024V42H30.336V23.248Z" fill="white"/>
<rect y="184" width="60" height="60" rx="30" fill="#28285E"/>
<path d="M22.684 224.144L30.204 216.464C32.06 214.544 33.532 212.784 33.532 210.608C33.532 208.176 31.836 206.384 29.404 206.384C27.324 206.384 25.724 207.408 24.7 209.392L22.716 208.016C23.932 205.584 26.14 203.856 29.564 203.856C33.084 203.856 36.284 206.256 36.284 210.32C36.284 212.784 35.228 214.928 32.508 217.68L26.78 223.44L26.812 223.536H36.54V226H22.716L22.684 224.144Z" fill="white"/>
<rect y="368" width="60" height="60" rx="30" fill="#28285E"/>
<path d="M29.352 410.192C25.608 410.192 22.92 408.368 21.832 405.84L24.168 404.784C24.936 406.544 26.6 407.696 29.16 407.696C31.72 407.696 33.704 406.128 33.704 403.728C33.704 401.616 32.136 399.76 28.872 399.76H27.048V397.456H29.192C32.008 397.456 33.16 395.696 33.16 393.936C33.16 391.76 31.368 390.32 29.064 390.32C26.888 390.32 25.608 391.248 24.744 392.528L22.568 391.312C23.72 389.296 25.96 387.824 29.128 387.824C32.872 387.824 35.88 389.936 35.88 393.584C35.88 395.632 34.728 397.616 32.648 398.512V398.608C34.984 399.504 36.456 401.488 36.456 404.112C36.456 407.76 33.416 410.192 29.352 410.192Z" fill="white"/>
<rect y="552" width="60" height="60" rx="30" fill="#28285E"/>
<path d="M31.636 590.128H21.428V588.208L32.052 572.016H34.324V587.696H37.524V590.128H34.324V594H31.636V590.128ZM31.732 587.76V576.592L24.564 587.76H31.732Z" fill="white"/>
<rect y="736" width="60" height="60" rx="30" fill="#28285E"/>
<path d="M30.056 764.048C33.96 764.048 37.16 766.64 37.16 771.056C37.16 775.312 33.96 778.192 29.512 778.192C26.472 778.192 23.72 776.848 22.184 774.544L24.2 773.04C25.192 774.64 27.048 775.696 29.288 775.696C32.36 775.696 34.408 773.744 34.408 771.024C34.408 768.048 32.008 766.384 29.32 766.384C27.88 766.384 26.568 766.736 25.448 767.6L23.88 767.12L24.52 756.016H36.136V758.512H27.048L26.696 764.688C27.848 764.272 29.16 764.048 30.056 764.048Z" fill="white"/>
<path d="M153.74 20.8H156.34L151.04 35H148.9L143.6 20.8H146.2L149.94 31.54H149.96L153.74 20.8ZM163.983 25.24H166.223V35H164.083V33.7H164.043C163.323 34.6733 162.29 35.16 160.943 35.16C159.57 35.16 158.437 34.7 157.543 33.78C156.663 32.86 156.223 31.6533 156.223 30.16C156.223 28.6933 156.67 27.4867 157.563 26.54C158.457 25.58 159.577 25.1 160.923 25.1C162.203 25.1 163.21 25.54 163.943 26.42H163.983V25.24ZM161.303 33.12C162.077 33.12 162.73 32.8467 163.263 32.3C163.81 31.7533 164.083 31.0467 164.083 30.18C164.083 29.3133 163.817 28.5867 163.283 28C162.763 27.4133 162.103 27.12 161.303 27.12C160.503 27.12 159.837 27.4 159.303 27.96C158.77 28.52 158.503 29.26 158.503 30.18C158.503 31.0467 158.763 31.7533 159.283 32.3C159.803 32.8467 160.477 33.12 161.303 33.12ZM169.19 35V20.28H171.43V35H169.19ZM176.819 23.36C176.526 23.6533 176.172 23.8 175.759 23.8C175.346 23.8 174.992 23.6533 174.699 23.36C174.406 23.0667 174.259 22.7133 174.259 22.3C174.259 21.9 174.406 21.5533 174.699 21.26C174.992 20.9667 175.346 20.82 175.759 20.82C176.172 20.82 176.526 20.9667 176.819 21.26C177.126 21.5533 177.279 21.9 177.279 22.3C177.279 22.7133 177.126 23.0667 176.819 23.36ZM174.639 35V25.24H176.879V35H174.639ZM187.208 20.28H189.428V35H187.288V33.7H187.248C186.502 34.6733 185.448 35.16 184.088 35.16C182.715 35.16 181.582 34.7 180.688 33.78C179.795 32.86 179.348 31.6533 179.348 30.16C179.348 28.6933 179.795 27.4867 180.688 26.54C181.595 25.58 182.722 25.1 184.068 25.1C185.375 25.1 186.408 25.54 187.168 26.42H187.208V20.28ZM182.408 32.3C182.942 32.8467 183.615 33.12 184.428 33.12C185.242 33.12 185.922 32.8467 186.468 32.3C187.015 31.7533 187.288 31.0467 187.288 30.18C187.288 29.3 187.022 28.5733 186.488 28C185.955 27.4133 185.275 27.12 184.448 27.12C183.648 27.12 182.975 27.4 182.428 27.96C181.895 28.52 181.628 29.26 181.628 30.18C181.628 31.0467 181.888 31.7533 182.408 32.3ZM199.511 25.24H201.751V35H199.611V33.7H199.571C198.851 34.6733 197.817 35.16 196.471 35.16C195.097 35.16 193.964 34.7 193.071 33.78C192.191 32.86 191.751 31.6533 191.751 30.16C191.751 28.6933 192.197 27.4867 193.091 26.54C193.984 25.58 195.104 25.1 196.451 25.1C197.731 25.1 198.737 25.54 199.471 26.42H199.511V25.24ZM196.831 33.12C197.604 33.12 198.257 32.8467 198.791 32.3C199.337 31.7533 199.611 31.0467 199.611 30.18C199.611 29.3133 199.344 28.5867 198.811 28C198.291 27.4133 197.631 27.12 196.831 27.12C196.031 27.12 195.364 27.4 194.831 27.96C194.297 28.52 194.031 29.26 194.031 30.18C194.031 31.0467 194.291 31.7533 194.811 32.3C195.331 32.8467 196.004 33.12 196.831 33.12ZM207.477 35.16C206.624 35.16 205.957 34.8867 205.477 34.34C204.997 33.7933 204.757 32.9867 204.757 31.92V27.14H203.557V25.24H204.757V22L206.997 21.76V25.24H209.857V27.14H206.997V31.7C206.997 32.1933 207.071 32.5467 207.217 32.76C207.364 32.96 207.604 33.06 207.937 33.06C208.377 33.06 208.857 32.92 209.377 32.64L209.957 34.58C209.251 34.9667 208.424 35.16 207.477 35.16ZM214.124 23.36C213.83 23.6533 213.477 23.8 213.064 23.8C212.65 23.8 212.297 23.6533 212.004 23.36C211.71 23.0667 211.564 22.7133 211.564 22.3C211.564 21.9 211.71 21.5533 212.004 21.26C212.297 20.9667 212.65 20.82 213.064 20.82C213.477 20.82 213.83 20.9667 214.124 21.26C214.43 21.5533 214.584 21.9 214.584 22.3C214.584 22.7133 214.43 23.0667 214.124 23.36ZM211.944 35V25.24H214.184V35H211.944ZM221.793 35.16C220.273 35.16 219.04 34.6867 218.093 33.74C217.146 32.7933 216.673 31.5933 216.673 30.14C216.673 28.6867 217.146 27.4867 218.093 26.54C219.04 25.58 220.273 25.1 221.793 25.1C223.3 25.1 224.526 25.5667 225.473 26.5C226.433 27.4333 226.913 28.6467 226.913 30.14C226.913 31.62 226.433 32.8267 225.473 33.76C224.526 34.6933 223.3 35.16 221.793 35.16ZM221.793 33.12C222.593 33.12 223.266 32.84 223.813 32.28C224.36 31.72 224.633 31.0067 224.633 30.14C224.633 29.2467 224.36 28.52 223.813 27.96C223.28 27.4 222.606 27.12 221.793 27.12C220.953 27.12 220.266 27.4067 219.733 27.98C219.213 28.5533 218.953 29.2733 218.953 30.14C218.953 30.98 219.22 31.6867 219.753 32.26C220.286 32.8333 220.966 33.12 221.793 33.12ZM234.785 25.1C235.905 25.1 236.778 25.44 237.405 26.12C238.045 26.8 238.365 27.8467 238.365 29.26V35H236.125V29.84C236.125 28.8533 235.945 28.1533 235.585 27.74C235.238 27.3267 234.712 27.12 234.005 27.12C233.232 27.12 232.618 27.38 232.165 27.9C231.712 28.42 231.485 29.1533 231.485 30.1V35H229.245V25.24H231.485V26.6H231.505C232.345 25.6 233.438 25.1 234.785 25.1ZM253.612 25.24H255.852V35H253.712V33.7H253.672C252.952 34.6733 251.919 35.16 250.572 35.16C249.199 35.16 248.066 34.7 247.172 33.78C246.292 32.86 245.852 31.6533 245.852 30.16C245.852 28.6933 246.299 27.4867 247.192 26.54C248.086 25.58 249.206 25.1 250.552 25.1C251.832 25.1 252.839 25.54 253.572 26.42H253.612V25.24ZM250.932 33.12C251.706 33.12 252.359 32.8467 252.892 32.3C253.439 31.7533 253.712 31.0467 253.712 30.18C253.712 29.3133 253.446 28.5867 252.912 28C252.392 27.4133 251.732 27.12 250.932 27.12C250.132 27.12 249.466 27.4 248.932 27.96C248.399 28.52 248.132 29.26 248.132 30.18C248.132 31.0467 248.392 31.7533 248.912 32.3C249.432 32.8467 250.106 33.12 250.932 33.12ZM264.219 25.1C265.339 25.1 266.212 25.44 266.839 26.12C267.479 26.8 267.799 27.8467 267.799 29.26V35H265.559V29.84C265.559 28.8533 265.379 28.1533 265.019 27.74C264.672 27.3267 264.145 27.12 263.439 27.12C262.665 27.12 262.052 27.38 261.599 27.9C261.145 28.42 260.919 29.1533 260.919 30.1V35H258.679V25.24H260.919V26.6H260.939C261.779 25.6 262.872 25.1 264.219 25.1ZM277.794 20.28H280.014V35H277.874V33.7H277.834C277.088 34.6733 276.034 35.16 274.674 35.16C273.301 35.16 272.168 34.7 271.274 33.78C270.381 32.86 269.934 31.6533 269.934 30.16C269.934 28.6933 270.381 27.4867 271.274 26.54C272.181 25.58 273.308 25.1 274.654 25.1C275.961 25.1 276.994 25.54 277.754 26.42H277.794V20.28ZM272.994 32.3C273.528 32.8467 274.201 33.12 275.014 33.12C275.828 33.12 276.508 32.8467 277.054 32.3C277.601 31.7533 277.874 31.0467 277.874 30.18C277.874 29.3 277.608 28.5733 277.074 28C276.541 27.4133 275.861 27.12 275.034 27.12C274.234 27.12 273.561 27.4 273.014 27.96C272.481 28.52 272.214 29.26 272.214 30.18C272.214 31.0467 272.474 31.7533 272.994 32.3ZM297.788 35L296.708 31.94H290.908L289.848 35H287.328L292.628 20.8H294.988L300.308 35H297.788ZM291.648 29.86H295.988L293.828 23.7H293.788L291.648 29.86ZM306.36 35.16C304.907 35.16 303.713 34.6933 302.78 33.76C301.847 32.8267 301.38 31.62 301.38 30.14C301.38 28.6467 301.853 27.4333 302.8 26.5C303.747 25.5667 304.96 25.1 306.44 25.1C307.227 25.1 307.987 25.26 308.72 25.58C309.453 25.8867 310.06 26.3333 310.54 26.92L309.02 28.24C308.38 27.4933 307.56 27.12 306.56 27.12C305.693 27.12 304.993 27.4 304.46 27.96C303.927 28.5067 303.66 29.2267 303.66 30.12C303.66 31.0133 303.927 31.74 304.46 32.3C304.993 32.8467 305.693 33.12 306.56 33.12C307.573 33.12 308.4 32.7733 309.04 32.08L310.58 33.44C310.14 33.9467 309.547 34.36 308.8 34.68C308.067 35 307.253 35.16 306.36 35.16ZM317.005 35.16C315.551 35.16 314.358 34.6933 313.425 33.76C312.491 32.8267 312.025 31.62 312.025 30.14C312.025 28.6467 312.498 27.4333 313.445 26.5C314.391 25.5667 315.605 25.1 317.085 25.1C317.871 25.1 318.631 25.26 319.365 25.58C320.098 25.8867 320.705 26.3333 321.185 26.92L319.665 28.24C319.025 27.4933 318.205 27.12 317.205 27.12C316.338 27.12 315.638 27.4 315.105 27.96C314.571 28.5067 314.305 29.2267 314.305 30.12C314.305 31.0133 314.571 31.74 315.105 32.3C315.638 32.8467 316.338 33.12 317.205 33.12C318.218 33.12 319.045 32.7733 319.685 32.08L321.225 33.44C320.785 33.9467 320.191 34.36 319.445 34.68C318.711 35 317.898 35.16 317.005 35.16ZM328.549 25.1H328.829V27.6C328.482 27.5733 328.256 27.56 328.149 27.56C327.322 27.56 326.669 27.8267 326.189 28.36C325.722 28.88 325.489 29.5533 325.489 30.38V35H323.249V25.24H325.489V26.72H325.509C326.296 25.64 327.309 25.1 328.549 25.1ZM339.337 30C339.337 30.24 339.317 30.54 339.277 30.9H332.157C332.304 31.5933 332.624 32.14 333.117 32.54C333.61 32.9267 334.217 33.12 334.937 33.12C335.95 33.12 336.764 32.74 337.377 31.98L338.937 33.32C337.99 34.5467 336.617 35.16 334.817 35.16C333.377 35.16 332.184 34.7 331.237 33.78C330.304 32.8467 329.837 31.6267 329.837 30.12C329.837 28.64 330.284 27.4333 331.177 26.5C332.084 25.5667 333.224 25.1 334.597 25.1C336.024 25.1 337.17 25.56 338.037 26.48C338.904 27.3867 339.337 28.56 339.337 30ZM336.257 27.66C335.857 27.3 335.344 27.12 334.717 27.12C334.09 27.12 333.55 27.2933 333.097 27.64C332.657 27.9867 332.357 28.4733 332.197 29.1H337.077C336.93 28.4867 336.657 28.0067 336.257 27.66ZM348.908 20.28H351.128V35H348.988V33.7H348.948C348.201 34.6733 347.148 35.16 345.788 35.16C344.414 35.16 343.281 34.7 342.388 33.78C341.494 32.86 341.048 31.6533 341.048 30.16C341.048 28.6933 341.494 27.4867 342.388 26.54C343.294 25.58 344.421 25.1 345.768 25.1C347.074 25.1 348.108 25.54 348.868 26.42H348.908V20.28ZM344.108 32.3C344.641 32.8467 345.314 33.12 346.128 33.12C346.941 33.12 347.621 32.8467 348.168 32.3C348.714 31.7533 348.988 31.0467 348.988 30.18C348.988 29.3 348.721 28.5733 348.188 28C347.654 27.4133 346.974 27.12 346.148 27.12C345.348 27.12 344.674 27.4 344.128 27.96C343.594 28.52 343.328 29.26 343.328 30.18C343.328 31.0467 343.588 31.7533 344.108 32.3ZM356.37 23.36C356.077 23.6533 355.723 23.8 355.31 23.8C354.897 23.8 354.543 23.6533 354.25 23.36C353.957 23.0667 353.81 22.7133 353.81 22.3C353.81 21.9 353.957 21.5533 354.25 21.26C354.543 20.9667 354.897 20.82 355.31 20.82C355.723 20.82 356.077 20.9667 356.37 21.26C356.677 21.5533 356.83 21.9 356.83 22.3C356.83 22.7133 356.677 23.0667 356.37 23.36ZM354.19 35V25.24H356.43V35H354.19ZM362.321 35.16C361.468 35.16 360.801 34.8867 360.321 34.34C359.841 33.7933 359.601 32.9867 359.601 31.92V27.14H358.401V25.24H359.601V22L361.841 21.76V25.24H364.701V27.14H361.841V31.7C361.841 32.1933 361.914 32.5467 362.061 32.76C362.208 32.96 362.448 33.06 362.781 33.06C363.221 33.06 363.701 32.92 364.221 32.64L364.801 34.58C364.094 34.9667 363.268 35.16 362.321 35.16ZM373.456 25.24H375.696V35H373.556V33.7H373.516C372.796 34.6733 371.763 35.16 370.416 35.16C369.043 35.16 367.909 34.7 367.016 33.78C366.136 32.86 365.696 31.6533 365.696 30.16C365.696 28.6933 366.143 27.4867 367.036 26.54C367.929 25.58 369.049 25.1 370.396 25.1C371.676 25.1 372.683 25.54 373.416 26.42H373.456V25.24ZM370.776 33.12C371.549 33.12 372.203 32.8467 372.736 32.3C373.283 31.7533 373.556 31.0467 373.556 30.18C373.556 29.3133 373.289 28.5867 372.756 28C372.236 27.4133 371.576 27.12 370.776 27.12C369.976 27.12 369.309 27.4 368.776 27.96C368.243 28.52 367.976 29.26 367.976 30.18C367.976 31.0467 368.236 31.7533 368.756 32.3C369.276 32.8467 369.949 33.12 370.776 33.12ZM381.423 35.16C380.569 35.16 379.903 34.8867 379.423 34.34C378.943 33.7933 378.703 32.9867 378.703 31.92V27.14H377.503V25.24H378.703V22L380.943 21.76V25.24H383.803V27.14H380.943V31.7C380.943 32.1933 381.016 32.5467 381.163 32.76C381.309 32.96 381.549 33.06 381.883 33.06C382.323 33.06 382.803 32.92 383.323 32.64L383.903 34.58C383.196 34.9667 382.369 35.16 381.423 35.16ZM388.069 23.36C387.776 23.6533 387.422 23.8 387.009 23.8C386.596 23.8 386.242 23.6533 385.949 23.36C385.656 23.0667 385.509 22.7133 385.509 22.3C385.509 21.9 385.656 21.5533 385.949 21.26C386.242 20.9667 386.596 20.82 387.009 20.82C387.422 20.82 387.776 20.9667 388.069 21.26C388.376 21.5533 388.529 21.9 388.529 22.3C388.529 22.7133 388.376 23.0667 388.069 23.36ZM385.889 35V25.24H388.129V35H385.889ZM395.738 35.16C394.218 35.16 392.985 34.6867 392.038 33.74C391.092 32.7933 390.618 31.5933 390.618 30.14C390.618 28.6867 391.092 27.4867 392.038 26.54C392.985 25.58 394.218 25.1 395.738 25.1C397.245 25.1 398.472 25.5667 399.418 26.5C400.378 27.4333 400.858 28.6467 400.858 30.14C400.858 31.62 400.378 32.8267 399.418 33.76C398.472 34.6933 397.245 35.16 395.738 35.16ZM395.738 33.12C396.538 33.12 397.212 32.84 397.758 32.28C398.305 31.72 398.578 31.0067 398.578 30.14C398.578 29.2467 398.305 28.52 397.758 27.96C397.225 27.4 396.552 27.12 395.738 27.12C394.898 27.12 394.212 27.4067 393.678 27.98C393.158 28.5533 392.898 29.2733 392.898 30.14C392.898 30.98 393.165 31.6867 393.698 32.26C394.232 32.8333 394.912 33.12 395.738 33.12ZM408.73 25.1C409.85 25.1 410.724 25.44 411.35 26.12C411.99 26.8 412.31 27.8467 412.31 29.26V35H410.07V29.84C410.07 28.8533 409.89 28.1533 409.53 27.74C409.184 27.3267 408.657 27.12 407.95 27.12C407.177 27.12 406.564 27.38 406.11 27.9C405.657 28.42 405.43 29.1533 405.43 30.1V35H403.19V25.24H405.43V26.6H405.45C406.29 25.6 407.384 25.1 408.73 25.1ZM424.918 35.16C422.931 35.16 421.218 34.4133 419.778 32.92L421.298 31.06C421.791 31.66 422.364 32.12 423.018 32.44C423.671 32.76 424.311 32.92 424.938 32.92C425.698 32.92 426.278 32.7667 426.678 32.46C427.091 32.1533 427.298 31.7333 427.298 31.2C427.298 30.6267 427.098 30.1933 426.698 29.9C426.298 29.6067 425.584 29.28 424.558 28.92C423.904 28.6933 423.364 28.48 422.938 28.28C422.524 28.0667 422.084 27.7933 421.618 27.46C421.164 27.1267 420.824 26.7267 420.598 26.26C420.371 25.78 420.257 25.2267 420.257 24.6C420.257 23.4933 420.697 22.56 421.577 21.8C422.458 21.0267 423.518 20.64 424.758 20.64C426.398 20.6267 427.964 21.2067 429.458 22.38L428.018 24.28C426.844 23.3067 425.758 22.82 424.758 22.82C424.184 22.82 423.711 22.9667 423.338 23.26C422.964 23.5533 422.771 23.96 422.758 24.48C422.758 24.7333 422.804 24.9533 422.898 25.14C422.991 25.3133 423.178 25.4867 423.458 25.66C423.751 25.8333 424.011 25.9733 424.238 26.08C424.478 26.1733 424.871 26.3267 425.418 26.54C426.884 27.1133 427.851 27.56 428.318 27.88C429.318 28.5867 429.818 29.5933 429.818 30.9C429.818 32.26 429.318 33.3133 428.318 34.06C427.331 34.7933 426.198 35.16 424.918 35.16ZM441.134 30C441.134 30.24 441.114 30.54 441.074 30.9H433.954C434.101 31.5933 434.421 32.14 434.914 32.54C435.407 32.9267 436.014 33.12 436.734 33.12C437.747 33.12 438.561 32.74 439.174 31.98L440.734 33.32C439.787 34.5467 438.414 35.16 436.614 35.16C435.174 35.16 433.981 34.7 433.034 33.78C432.101 32.8467 431.634 31.6267 431.634 30.12C431.634 28.64 432.081 27.4333 432.974 26.5C433.881 25.5667 435.021 25.1 436.394 25.1C437.821 25.1 438.967 25.56 439.834 26.48C440.701 27.3867 441.134 28.56 441.134 30ZM438.054 27.66C437.654 27.3 437.141 27.12 436.514 27.12C435.887 27.12 435.347 27.2933 434.894 27.64C434.454 27.9867 434.154 28.4733 433.994 29.1H438.874C438.727 28.4867 438.454 28.0067 438.054 27.66ZM448.744 25.1H449.024V27.6C448.678 27.5733 448.451 27.56 448.344 27.56C447.518 27.56 446.864 27.8267 446.384 28.36C445.918 28.88 445.684 29.5533 445.684 30.38V35H443.444V25.24H445.684V26.72H445.704C446.491 25.64 447.504 25.1 448.744 25.1ZM457.384 25.24H459.784L455.924 35H453.784L449.904 25.24H452.284L454.844 32.2H454.864L457.384 25.24ZM463.968 23.36C463.674 23.6533 463.321 23.8 462.908 23.8C462.494 23.8 462.141 23.6533 461.848 23.36C461.554 23.0667 461.408 22.7133 461.408 22.3C461.408 21.9 461.554 21.5533 461.848 21.26C462.141 20.9667 462.494 20.82 462.908 20.82C463.321 20.82 463.674 20.9667 463.968 21.26C464.274 21.5533 464.428 21.9 464.428 22.3C464.428 22.7133 464.274 23.0667 463.968 23.36ZM461.788 35V25.24H464.028V35H461.788ZM471.497 35.16C470.043 35.16 468.85 34.6933 467.917 33.76C466.983 32.8267 466.517 31.62 466.517 30.14C466.517 28.6467 466.99 27.4333 467.937 26.5C468.883 25.5667 470.097 25.1 471.577 25.1C472.363 25.1 473.123 25.26 473.857 25.58C474.59 25.8867 475.197 26.3333 475.677 26.92L474.157 28.24C473.517 27.4933 472.697 27.12 471.697 27.12C470.83 27.12 470.13 27.4 469.597 27.96C469.063 28.5067 468.797 29.2267 468.797 30.12C468.797 31.0133 469.063 31.74 469.597 32.3C470.13 32.8467 470.83 33.12 471.697 33.12C472.71 33.12 473.537 32.7733 474.177 32.08L475.717 33.44C475.277 33.9467 474.683 34.36 473.937 34.68C473.203 35 472.39 35.16 471.497 35.16ZM486.661 30C486.661 30.24 486.641 30.54 486.601 30.9H479.481C479.628 31.5933 479.948 32.14 480.441 32.54C480.935 32.9267 481.541 33.12 482.261 33.12C483.275 33.12 484.088 32.74 484.701 31.98L486.261 33.32C485.315 34.5467 483.941 35.16 482.141 35.16C480.701 35.16 479.508 34.7 478.561 33.78C477.628 32.8467 477.161 31.6267 477.161 30.12C477.161 28.64 477.608 27.4333 478.501 26.5C479.408 25.5667 480.548 25.1 481.921 25.1C483.348 25.1 484.495 25.56 485.361 26.48C486.228 27.3867 486.661 28.56 486.661 30ZM483.581 27.66C483.181 27.3 482.668 27.12 482.041 27.12C481.415 27.12 480.875 27.2933 480.421 27.64C479.981 27.9867 479.681 28.4733 479.521 29.1H484.401C484.255 28.4867 483.981 28.0067 483.581 27.66ZM492.092 35.16C490.532 35.16 489.218 34.6867 488.152 33.74L489.272 32.06C490.045 32.82 490.985 33.2 492.092 33.2C492.518 33.2 492.852 33.1133 493.092 32.94C493.332 32.7667 493.452 32.5333 493.452 32.24C493.452 32.0133 493.312 31.8267 493.032 31.68C492.765 31.52 492.265 31.3133 491.532 31.06C490.572 30.7267 489.832 30.3267 489.312 29.86C488.805 29.3933 488.552 28.7267 488.552 27.86C488.552 27.06 488.872 26.4 489.512 25.88C490.165 25.36 490.992 25.1 491.992 25.1C493.285 25.1 494.432 25.5067 495.432 26.32L494.312 28.08C493.578 27.3867 492.765 27.04 491.872 27.04C491.605 27.04 491.358 27.1133 491.132 27.26C490.918 27.3933 490.812 27.6 490.812 27.88C490.812 28.28 491.325 28.6733 492.352 29.06C493.618 29.5533 494.412 29.9133 494.732 30.14C495.398 30.6067 495.732 31.2933 495.732 32.2C495.732 33.0667 495.418 33.78 494.792 34.34C494.178 34.8867 493.278 35.16 492.092 35.16Z" fill="#28285E"/>
<path d="M144.74 220V205.8H153.68V207.96H147.16V211.88H152.42V214.04H147.16V217.84H154.1V220H144.74ZM163.595 205.28H165.815V220H163.675V218.7H163.635C162.888 219.673 161.835 220.16 160.475 220.16C159.102 220.16 157.968 219.7 157.075 218.78C156.182 217.86 155.735 216.653 155.735 215.16C155.735 213.693 156.182 212.487 157.075 211.54C157.982 210.58 159.108 210.1 160.455 210.1C161.762 210.1 162.795 210.54 163.555 211.42H163.595V205.28ZM158.795 217.3C159.328 217.847 160.002 218.12 160.815 218.12C161.628 218.12 162.308 217.847 162.855 217.3C163.402 216.753 163.675 216.047 163.675 215.18C163.675 214.3 163.408 213.573 162.875 213C162.342 212.413 161.662 212.12 160.835 212.12C160.035 212.12 159.362 212.4 158.815 212.96C158.282 213.52 158.015 214.26 158.015 215.18C158.015 216.047 158.275 216.753 158.795 217.3ZM175.217 210.24H177.457V220H175.217V218.72C174.417 219.68 173.411 220.16 172.197 220.16C169.757 220.16 168.537 218.833 168.537 216.18V210.24H170.777V215.58C170.777 216.527 170.924 217.187 171.217 217.56C171.524 217.933 172.024 218.12 172.717 218.12C173.411 218.12 173.997 217.84 174.477 217.28C174.971 216.707 175.217 215.92 175.217 214.92V210.24ZM184.7 220.16C183.247 220.16 182.053 219.693 181.12 218.76C180.187 217.827 179.72 216.62 179.72 215.14C179.72 213.647 180.193 212.433 181.14 211.5C182.087 210.567 183.3 210.1 184.78 210.1C185.567 210.1 186.327 210.26 187.06 210.58C187.793 210.887 188.4 211.333 188.88 211.92L187.36 213.24C186.72 212.493 185.9 212.12 184.9 212.12C184.033 212.12 183.333 212.4 182.8 212.96C182.267 213.507 182 214.227 182 215.12C182 216.013 182.267 216.74 182.8 217.3C183.333 217.847 184.033 218.12 184.9 218.12C185.913 218.12 186.74 217.773 187.38 217.08L188.92 218.44C188.48 218.947 187.887 219.36 187.14 219.68C186.407 220 185.593 220.16 184.7 220.16ZM198.104 210.24H200.344V220H198.204V218.7H198.164C197.444 219.673 196.411 220.16 195.064 220.16C193.691 220.16 192.558 219.7 191.664 218.78C190.784 217.86 190.344 216.653 190.344 215.16C190.344 213.693 190.791 212.487 191.684 211.54C192.578 210.58 193.698 210.1 195.044 210.1C196.324 210.1 197.331 210.54 198.064 211.42H198.104V210.24ZM195.424 218.12C196.198 218.12 196.851 217.847 197.384 217.3C197.931 216.753 198.204 216.047 198.204 215.18C198.204 214.313 197.938 213.587 197.404 213C196.884 212.413 196.224 212.12 195.424 212.12C194.624 212.12 193.958 212.4 193.424 212.96C192.891 213.52 192.624 214.26 192.624 215.18C192.624 216.047 192.884 216.753 193.404 217.3C193.924 217.847 194.598 218.12 195.424 218.12ZM206.071 220.16C205.218 220.16 204.551 219.887 204.071 219.34C203.591 218.793 203.351 217.987 203.351 216.92V212.14H202.151V210.24H203.351V207L205.591 206.76V210.24H208.451V212.14H205.591V216.7C205.591 217.193 205.664 217.547 205.811 217.76C205.958 217.96 206.198 218.06 206.531 218.06C206.971 218.06 207.451 217.92 207.971 217.64L208.551 219.58C207.844 219.967 207.018 220.16 206.071 220.16ZM212.718 208.36C212.424 208.653 212.071 208.8 211.658 208.8C211.244 208.8 210.891 208.653 210.598 208.36C210.304 208.067 210.158 207.713 210.158 207.3C210.158 206.9 210.304 206.553 210.598 206.26C210.891 205.967 211.244 205.82 211.658 205.82C212.071 205.82 212.424 205.967 212.718 206.26C213.024 206.553 213.178 206.9 213.178 207.3C213.178 207.713 213.024 208.067 212.718 208.36ZM210.538 220V210.24H212.778V220H210.538ZM220.387 220.16C218.867 220.16 217.633 219.687 216.687 218.74C215.74 217.793 215.267 216.593 215.267 215.14C215.267 213.687 215.74 212.487 216.687 211.54C217.633 210.58 218.867 210.1 220.387 210.1C221.893 210.1 223.12 210.567 224.067 211.5C225.027 212.433 225.507 213.647 225.507 215.14C225.507 216.62 225.027 217.827 224.067 218.76C223.12 219.693 221.893 220.16 220.387 220.16ZM220.387 218.12C221.187 218.12 221.86 217.84 222.407 217.28C222.953 216.72 223.227 216.007 223.227 215.14C223.227 214.247 222.953 213.52 222.407 212.96C221.873 212.4 221.2 212.12 220.387 212.12C219.547 212.12 218.86 212.407 218.327 212.98C217.807 213.553 217.547 214.273 217.547 215.14C217.547 215.98 217.813 216.687 218.347 217.26C218.88 217.833 219.56 218.12 220.387 218.12ZM233.379 210.1C234.499 210.1 235.372 210.44 235.999 211.12C236.639 211.8 236.959 212.847 236.959 214.26V220H234.719V214.84C234.719 213.853 234.539 213.153 234.179 212.74C233.832 212.327 233.306 212.12 232.599 212.12C231.826 212.12 231.212 212.38 230.759 212.9C230.306 213.42 230.079 214.153 230.079 215.1V220H227.839V210.24H230.079V211.6H230.099C230.939 210.6 232.032 210.1 233.379 210.1ZM252.206 210.24H254.446V220H252.306V218.7H252.266C251.546 219.673 250.513 220.16 249.166 220.16C247.793 220.16 246.659 219.7 245.766 218.78C244.886 217.86 244.446 216.653 244.446 215.16C244.446 213.693 244.893 212.487 245.786 211.54C246.679 210.58 247.799 210.1 249.146 210.1C250.426 210.1 251.433 210.54 252.166 211.42H252.206V210.24ZM249.526 218.12C250.299 218.12 250.953 217.847 251.486 217.3C252.033 216.753 252.306 216.047 252.306 215.18C252.306 214.313 252.039 213.587 251.506 213C250.986 212.413 250.326 212.12 249.526 212.12C248.726 212.12 248.059 212.4 247.526 212.96C246.993 213.52 246.726 214.26 246.726 215.18C246.726 216.047 246.986 216.753 247.506 217.3C248.026 217.847 248.699 218.12 249.526 218.12ZM262.813 210.1C263.933 210.1 264.806 210.44 265.433 211.12C266.073 211.8 266.393 212.847 266.393 214.26V220H264.153V214.84C264.153 213.853 263.973 213.153 263.613 212.74C263.266 212.327 262.739 212.12 262.033 212.12C261.259 212.12 260.646 212.38 260.193 212.9C259.739 213.42 259.513 214.153 259.513 215.1V220H257.273V210.24H259.513V211.6H259.533C260.373 210.6 261.466 210.1 262.813 210.1ZM276.388 205.28H278.608V220H276.468V218.7H276.428C275.681 219.673 274.628 220.16 273.268 220.16C271.895 220.16 270.761 219.7 269.868 218.78C268.975 217.86 268.528 216.653 268.528 215.16C268.528 213.693 268.975 212.487 269.868 211.54C270.775 210.58 271.901 210.1 273.248 210.1C274.555 210.1 275.588 210.54 276.348 211.42H276.388V205.28ZM271.588 217.3C272.121 217.847 272.795 218.12 273.608 218.12C274.421 218.12 275.101 217.847 275.648 217.3C276.195 216.753 276.468 216.047 276.468 215.18C276.468 214.3 276.201 213.573 275.668 213C275.135 212.413 274.455 212.12 273.628 212.12C272.828 212.12 272.155 212.4 271.608 212.96C271.075 213.52 270.808 214.26 270.808 215.18C270.808 216.047 271.068 216.753 271.588 217.3ZM290.082 220V207.96H286.062V205.8H296.582V207.96H292.502V220H290.082ZM302.319 210.1H302.599V212.6C302.252 212.573 302.025 212.56 301.919 212.56C301.092 212.56 300.439 212.827 299.959 213.36C299.492 213.88 299.259 214.553 299.259 215.38V220H297.019V210.24H299.259V211.72H299.279C300.065 210.64 301.079 210.1 302.319 210.1ZM311.347 210.24H313.587V220H311.447V218.7H311.407C310.687 219.673 309.653 220.16 308.307 220.16C306.933 220.16 305.8 219.7 304.907 218.78C304.027 217.86 303.587 216.653 303.587 215.16C303.587 213.693 304.033 212.487 304.927 211.54C305.82 210.58 306.94 210.1 308.287 210.1C309.567 210.1 310.573 210.54 311.307 211.42H311.347V210.24ZM308.667 218.12C309.44 218.12 310.093 217.847 310.627 217.3C311.173 216.753 311.447 216.047 311.447 215.18C311.447 214.313 311.18 213.587 310.647 213C310.127 212.413 309.467 212.12 308.667 212.12C307.867 212.12 307.2 212.4 306.667 212.96C306.133 213.52 305.867 214.26 305.867 215.18C305.867 216.047 306.127 216.753 306.647 217.3C307.167 217.847 307.84 218.12 308.667 218.12ZM318.733 208.36C318.44 208.653 318.086 208.8 317.673 208.8C317.26 208.8 316.906 208.653 316.613 208.36C316.32 208.067 316.173 207.713 316.173 207.3C316.173 206.9 316.32 206.553 316.613 206.26C316.906 205.967 317.26 205.82 317.673 205.82C318.086 205.82 318.44 205.967 318.733 206.26C319.04 206.553 319.193 206.9 319.193 207.3C319.193 207.713 319.04 208.067 318.733 208.36ZM316.553 220V210.24H318.793V220H316.553ZM327.402 210.1C328.522 210.1 329.396 210.44 330.022 211.12C330.662 211.8 330.982 212.847 330.982 214.26V220H328.742V214.84C328.742 213.853 328.562 213.153 328.202 212.74C327.856 212.327 327.329 212.12 326.622 212.12C325.849 212.12 325.236 212.38 324.782 212.9C324.329 213.42 324.102 214.153 324.102 215.1V220H321.862V210.24H324.102V211.6H324.122C324.962 210.6 326.056 210.1 327.402 210.1ZM336.038 208.36C335.744 208.653 335.391 208.8 334.978 208.8C334.564 208.8 334.211 208.653 333.918 208.36C333.624 208.067 333.478 207.713 333.478 207.3C333.478 206.9 333.624 206.553 333.918 206.26C334.211 205.967 334.564 205.82 334.978 205.82C335.391 205.82 335.744 205.967 336.038 206.26C336.344 206.553 336.498 206.9 336.498 207.3C336.498 207.713 336.344 208.067 336.038 208.36ZM333.858 220V210.24H336.098V220H333.858ZM344.707 210.1C345.827 210.1 346.7 210.44 347.327 211.12C347.967 211.8 348.287 212.847 348.287 214.26V220H346.047V214.84C346.047 213.853 345.867 213.153 345.507 212.74C345.16 212.327 344.634 212.12 343.927 212.12C343.154 212.12 342.54 212.38 342.087 212.9C341.634 213.42 341.407 214.153 341.407 215.1V220H339.167V210.24H341.407V211.6H341.427C342.267 210.6 343.36 210.1 344.707 210.1ZM358.123 210.24H360.363V219C360.363 220.573 359.963 221.813 359.163 222.72C358.363 223.64 357.103 224.1 355.383 224.1C353.863 224.1 352.536 223.76 351.403 223.08L351.943 221.12C352.569 221.453 353.116 221.693 353.583 221.84C354.063 222 354.623 222.08 355.263 222.08C356.183 222.08 356.896 221.847 357.403 221.38C357.909 220.927 358.163 220.36 358.163 219.68V218.64H358.143C357.369 219.44 356.376 219.84 355.163 219.84C353.789 219.84 352.649 219.393 351.743 218.5C350.849 217.607 350.403 216.447 350.403 215.02C350.403 213.593 350.836 212.413 351.703 211.48C352.583 210.547 353.696 210.08 355.043 210.08C356.269 210.08 357.283 210.48 358.083 211.28H358.123V210.24ZM355.463 217.78C356.276 217.78 356.936 217.513 357.443 216.98C357.963 216.433 358.223 215.747 358.223 214.92C358.223 214.107 357.956 213.44 357.423 212.92C356.903 212.4 356.249 212.14 355.463 212.14C354.636 212.14 353.963 212.407 353.443 212.94C352.936 213.46 352.683 214.133 352.683 214.96C352.683 215.813 352.943 216.5 353.463 217.02C353.996 217.527 354.663 217.78 355.463 217.78ZM368.883 220V205.8H371.303V220H368.883ZM380.137 210.1C381.257 210.1 382.13 210.44 382.757 211.12C383.397 211.8 383.717 212.847 383.717 214.26V220H381.477V214.84C381.477 213.853 381.297 213.153 380.937 212.74C380.59 212.327 380.063 212.12 379.357 212.12C378.583 212.12 377.97 212.38 377.517 212.9C377.063 213.42 376.837 214.153 376.837 215.1V220H374.597V210.24H376.837V211.6H376.857C377.697 210.6 378.79 210.1 380.137 210.1ZM388.772 208.36C388.479 208.653 388.126 208.8 387.712 208.8C387.299 208.8 386.946 208.653 386.652 208.36C386.359 208.067 386.212 207.713 386.212 207.3C386.212 206.9 386.359 206.553 386.652 206.26C386.946 205.967 387.299 205.82 387.712 205.82C388.126 205.82 388.479 205.967 388.772 206.26C389.079 206.553 389.232 206.9 389.232 207.3C389.232 207.713 389.079 208.067 388.772 208.36ZM386.592 220V210.24H388.832V220H386.592ZM394.723 220.16C393.87 220.16 393.203 219.887 392.723 219.34C392.243 218.793 392.003 217.987 392.003 216.92V212.14H390.803V210.24H392.003V207L394.243 206.76V210.24H397.103V212.14H394.243V216.7C394.243 217.193 394.317 217.547 394.463 217.76C394.61 217.96 394.85 218.06 395.183 218.06C395.623 218.06 396.103 217.92 396.623 217.64L397.203 219.58C396.497 219.967 395.67 220.16 394.723 220.16ZM401.37 208.36C401.077 208.653 400.723 208.8 400.31 208.8C399.897 208.8 399.543 208.653 399.25 208.36C398.957 208.067 398.81 207.713 398.81 207.3C398.81 206.9 398.957 206.553 399.25 206.26C399.543 205.967 399.897 205.82 400.31 205.82C400.723 205.82 401.077 205.967 401.37 206.26C401.677 206.553 401.83 206.9 401.83 207.3C401.83 207.713 401.677 208.067 401.37 208.36ZM399.19 220V210.24H401.43V220H399.19ZM411.659 210.24H413.899V220H411.759V218.7H411.719C410.999 219.673 409.966 220.16 408.619 220.16C407.246 220.16 406.112 219.7 405.219 218.78C404.339 217.86 403.899 216.653 403.899 215.16C403.899 213.693 404.346 212.487 405.239 211.54C406.132 210.58 407.252 210.1 408.599 210.1C409.879 210.1 410.886 210.54 411.619 211.42H411.659V210.24ZM408.979 218.12C409.752 218.12 410.406 217.847 410.939 217.3C411.486 216.753 411.759 216.047 411.759 215.18C411.759 214.313 411.492 213.587 410.959 213C410.439 212.413 409.779 212.12 408.979 212.12C408.179 212.12 407.512 212.4 406.979 212.96C406.446 213.52 406.179 214.26 406.179 215.18C406.179 216.047 406.439 216.753 406.959 217.3C407.479 217.847 408.152 218.12 408.979 218.12ZM419.626 220.16C418.772 220.16 418.106 219.887 417.626 219.34C417.146 218.793 416.906 217.987 416.906 216.92V212.14H415.706V210.24H416.906V207L419.146 206.76V210.24H422.006V212.14H419.146V216.7C419.146 217.193 419.219 217.547 419.366 217.76C419.512 217.96 419.752 218.06 420.086 218.06C420.526 218.06 421.006 217.92 421.526 217.64L422.106 219.58C421.399 219.967 420.572 220.16 419.626 220.16ZM426.272 208.36C425.979 208.653 425.626 208.8 425.212 208.8C424.799 208.8 424.446 208.653 424.152 208.36C423.859 208.067 423.712 207.713 423.712 207.3C423.712 206.9 423.859 206.553 424.152 206.26C424.446 205.967 424.799 205.82 425.212 205.82C425.626 205.82 425.979 205.967 426.272 206.26C426.579 206.553 426.732 206.9 426.732 207.3C426.732 207.713 426.579 208.067 426.272 208.36ZM424.092 220V210.24H426.332V220H424.092ZM435.821 210.24H438.221L434.361 220H432.221L428.341 210.24H430.721L433.281 217.2H433.301L435.821 210.24ZM448.4 215C448.4 215.24 448.38 215.54 448.34 215.9H441.22C441.366 216.593 441.686 217.14 442.18 217.54C442.673 217.927 443.28 218.12 444 218.12C445.013 218.12 445.826 217.74 446.44 216.98L448 218.32C447.053 219.547 445.68 220.16 443.88 220.16C442.44 220.16 441.246 219.7 440.3 218.78C439.366 217.847 438.9 216.627 438.9 215.12C438.9 213.64 439.346 212.433 440.24 211.5C441.146 210.567 442.286 210.1 443.66 210.1C445.086 210.1 446.233 210.56 447.1 211.48C447.966 212.387 448.4 213.56 448.4 215ZM445.32 212.66C444.92 212.3 444.406 212.12 443.78 212.12C443.153 212.12 442.613 212.293 442.16 212.64C441.72 212.987 441.42 213.473 441.26 214.1H446.14C445.993 213.487 445.72 213.007 445.32 212.66ZM453.83 220.16C452.27 220.16 450.957 219.687 449.89 218.74L451.01 217.06C451.783 217.82 452.723 218.2 453.83 218.2C454.257 218.2 454.59 218.113 454.83 217.94C455.07 217.767 455.19 217.533 455.19 217.24C455.19 217.013 455.05 216.827 454.77 216.68C454.503 216.52 454.003 216.313 453.27 216.06C452.31 215.727 451.57 215.327 451.05 214.86C450.543 214.393 450.29 213.727 450.29 212.86C450.29 212.06 450.61 211.4 451.25 210.88C451.903 210.36 452.73 210.1 453.73 210.1C455.023 210.1 456.17 210.507 457.17 211.32L456.05 213.08C455.317 212.387 454.503 212.04 453.61 212.04C453.343 212.04 453.097 212.113 452.87 212.26C452.657 212.393 452.55 212.6 452.55 212.88C452.55 213.28 453.063 213.673 454.09 214.06C455.357 214.553 456.15 214.913 456.47 215.14C457.137 215.607 457.47 216.293 457.47 217.2C457.47 218.067 457.157 218.78 456.53 219.34C455.917 219.887 455.017 220.16 453.83 220.16Z" fill="#28285E"/>
<path d="M151.26 405.12C149.233 405.12 147.533 404.487 146.16 403.22C144.787 401.94 144.1 400.18 144.1 397.94C144.1 395.847 144.733 394.107 146 392.72C147.28 391.333 149.033 390.64 151.26 390.64C153.513 390.64 155.38 391.547 156.86 393.36L155.08 394.86C154.013 393.567 152.74 392.92 151.26 392.92C149.873 392.92 148.753 393.387 147.9 394.32C147.047 395.24 146.62 396.447 146.62 397.94C146.62 399.393 147.053 400.58 147.92 401.5C148.787 402.407 149.9 402.86 151.26 402.86C152.767 402.86 154.04 402.213 155.08 400.92L156.86 402.44C155.42 404.227 153.553 405.12 151.26 405.12ZM163.492 405.16C161.972 405.16 160.739 404.687 159.792 403.74C158.846 402.793 158.372 401.593 158.372 400.14C158.372 398.687 158.846 397.487 159.792 396.54C160.739 395.58 161.972 395.1 163.492 395.1C164.999 395.1 166.226 395.567 167.172 396.5C168.132 397.433 168.612 398.647 168.612 400.14C168.612 401.62 168.132 402.827 167.172 403.76C166.226 404.693 164.999 405.16 163.492 405.16ZM163.492 403.12C164.292 403.12 164.966 402.84 165.512 402.28C166.059 401.72 166.332 401.007 166.332 400.14C166.332 399.247 166.059 398.52 165.512 397.96C164.979 397.4 164.306 397.12 163.492 397.12C162.652 397.12 161.966 397.407 161.432 397.98C160.912 398.553 160.652 399.273 160.652 400.14C160.652 400.98 160.919 401.687 161.452 402.26C161.986 402.833 162.666 403.12 163.492 403.12ZM176.484 395.1C177.604 395.1 178.478 395.44 179.104 396.12C179.744 396.8 180.064 397.847 180.064 399.26V405H177.824V399.84C177.824 398.853 177.644 398.153 177.284 397.74C176.938 397.327 176.411 397.12 175.704 397.12C174.931 397.12 174.318 397.38 173.864 397.9C173.411 398.42 173.184 399.153 173.184 400.1V405H170.944V395.24H173.184V396.6H173.204C174.044 395.6 175.138 395.1 176.484 395.1ZM185.92 405.16C184.36 405.16 183.047 404.687 181.98 403.74L183.1 402.06C183.873 402.82 184.813 403.2 185.92 403.2C186.347 403.2 186.68 403.113 186.92 402.94C187.16 402.767 187.28 402.533 187.28 402.24C187.28 402.013 187.14 401.827 186.86 401.68C186.593 401.52 186.093 401.313 185.36 401.06C184.4 400.727 183.66 400.327 183.14 399.86C182.633 399.393 182.38 398.727 182.38 397.86C182.38 397.06 182.7 396.4 183.34 395.88C183.993 395.36 184.82 395.1 185.82 395.1C187.113 395.1 188.26 395.507 189.26 396.32L188.14 398.08C187.407 397.387 186.593 397.04 185.7 397.04C185.433 397.04 185.187 397.113 184.96 397.26C184.747 397.393 184.64 397.6 184.64 397.88C184.64 398.28 185.153 398.673 186.18 399.06C187.447 399.553 188.24 399.913 188.56 400.14C189.227 400.607 189.56 401.293 189.56 402.2C189.56 403.067 189.247 403.78 188.62 404.34C188.007 404.887 187.107 405.16 185.92 405.16ZM198.264 395.24H200.504V405H198.264V403.72C197.464 404.68 196.458 405.16 195.244 405.16C192.804 405.16 191.584 403.833 191.584 401.18V395.24H193.824V400.58C193.824 401.527 193.971 402.187 194.264 402.56C194.571 402.933 195.071 403.12 195.764 403.12C196.458 403.12 197.044 402.84 197.524 402.28C198.018 401.707 198.264 400.92 198.264 399.92V395.24ZM203.487 405V390.28H205.727V405H203.487ZM211.657 405.16C210.804 405.16 210.137 404.887 209.657 404.34C209.177 403.793 208.937 402.987 208.937 401.92V397.14H207.737V395.24H208.937V392L211.177 391.76V395.24H214.037V397.14H211.177V401.7C211.177 402.193 211.25 402.547 211.397 402.76C211.544 402.96 211.784 403.06 212.117 403.06C212.557 403.06 213.037 402.92 213.557 402.64L214.137 404.58C213.43 404.967 212.604 405.16 211.657 405.16ZM222.792 395.24H225.032V405H222.892V403.7H222.852C222.132 404.673 221.099 405.16 219.752 405.16C218.379 405.16 217.245 404.7 216.352 403.78C215.472 402.86 215.032 401.653 215.032 400.16C215.032 398.693 215.479 397.487 216.372 396.54C217.265 395.58 218.385 395.1 219.732 395.1C221.012 395.1 222.019 395.54 222.752 396.42H222.792V395.24ZM220.112 403.12C220.885 403.12 221.539 402.847 222.072 402.3C222.619 401.753 222.892 401.047 222.892 400.18C222.892 399.313 222.625 398.587 222.092 398C221.572 397.413 220.912 397.12 220.112 397.12C219.312 397.12 218.645 397.4 218.112 397.96C217.579 398.52 217.312 399.26 217.312 400.18C217.312 401.047 217.572 401.753 218.092 402.3C218.612 402.847 219.285 403.12 220.112 403.12ZM230.758 405.16C229.905 405.16 229.238 404.887 228.758 404.34C228.278 403.793 228.038 402.987 228.038 401.92V397.14H226.838V395.24H228.038V392L230.278 391.76V395.24H233.138V397.14H230.278V401.7C230.278 402.193 230.352 402.547 230.498 402.76C230.645 402.96 230.885 403.06 231.218 403.06C231.658 403.06 232.138 402.92 232.658 402.64L233.238 404.58C232.532 404.967 231.705 405.16 230.758 405.16ZM237.405 393.36C237.112 393.653 236.758 393.8 236.345 393.8C235.932 393.8 235.578 393.653 235.285 393.36C234.992 393.067 234.845 392.713 234.845 392.3C234.845 391.9 234.992 391.553 235.285 391.26C235.578 390.967 235.932 390.82 236.345 390.82C236.758 390.82 237.112 390.967 237.405 391.26C237.712 391.553 237.865 391.9 237.865 392.3C237.865 392.713 237.712 393.067 237.405 393.36ZM235.225 405V395.24H237.465V405H235.225ZM245.074 405.16C243.554 405.16 242.321 404.687 241.374 403.74C240.428 402.793 239.954 401.593 239.954 400.14C239.954 398.687 240.428 397.487 241.374 396.54C242.321 395.58 243.554 395.1 245.074 395.1C246.581 395.1 247.808 395.567 248.754 396.5C249.714 397.433 250.194 398.647 250.194 400.14C250.194 401.62 249.714 402.827 248.754 403.76C247.808 404.693 246.581 405.16 245.074 405.16ZM245.074 403.12C245.874 403.12 246.548 402.84 247.094 402.28C247.641 401.72 247.914 401.007 247.914 400.14C247.914 399.247 247.641 398.52 247.094 397.96C246.561 397.4 245.888 397.12 245.074 397.12C244.234 397.12 243.548 397.407 243.014 397.98C242.494 398.553 242.234 399.273 242.234 400.14C242.234 400.98 242.501 401.687 243.034 402.26C243.568 402.833 244.248 403.12 245.074 403.12ZM258.066 395.1C259.186 395.1 260.06 395.44 260.686 396.12C261.326 396.8 261.646 397.847 261.646 399.26V405H259.406V399.84C259.406 398.853 259.226 398.153 258.866 397.74C258.52 397.327 257.993 397.12 257.286 397.12C256.513 397.12 255.9 397.38 255.446 397.9C254.993 398.42 254.766 399.153 254.766 400.1V405H252.526V395.24H254.766V396.6H254.786C255.626 395.6 256.72 395.1 258.066 395.1ZM276.893 395.24H279.133V405H276.993V403.7H276.953C276.233 404.673 275.2 405.16 273.853 405.16C272.48 405.16 271.347 404.7 270.453 403.78C269.573 402.86 269.133 401.653 269.133 400.16C269.133 398.693 269.58 397.487 270.473 396.54C271.367 395.58 272.487 395.1 273.833 395.1C275.113 395.1 276.12 395.54 276.853 396.42H276.893V395.24ZM274.213 403.12C274.987 403.12 275.64 402.847 276.173 402.3C276.72 401.753 276.993 401.047 276.993 400.18C276.993 399.313 276.727 398.587 276.193 398C275.673 397.413 275.013 397.12 274.213 397.12C273.413 397.12 272.747 397.4 272.213 397.96C271.68 398.52 271.413 399.26 271.413 400.18C271.413 401.047 271.673 401.753 272.193 402.3C272.713 402.847 273.387 403.12 274.213 403.12ZM287.5 395.1C288.62 395.1 289.493 395.44 290.12 396.12C290.76 396.8 291.08 397.847 291.08 399.26V405H288.84V399.84C288.84 398.853 288.66 398.153 288.3 397.74C287.953 397.327 287.427 397.12 286.72 397.12C285.947 397.12 285.333 397.38 284.88 397.9C284.427 398.42 284.2 399.153 284.2 400.1V405H281.96V395.24H284.2V396.6H284.22C285.06 395.6 286.153 395.1 287.5 395.1ZM301.075 390.28H303.295V405H301.155V403.7H301.115C300.369 404.673 299.315 405.16 297.955 405.16C296.582 405.16 295.449 404.7 294.555 403.78C293.662 402.86 293.215 401.653 293.215 400.16C293.215 398.693 293.662 397.487 294.555 396.54C295.462 395.58 296.589 395.1 297.935 395.1C299.242 395.1 300.275 395.54 301.035 396.42H301.075V390.28ZM296.275 402.3C296.809 402.847 297.482 403.12 298.295 403.12C299.109 403.12 299.789 402.847 300.335 402.3C300.882 401.753 301.155 401.047 301.155 400.18C301.155 399.3 300.889 398.573 300.355 398C299.822 397.413 299.142 397.12 298.315 397.12C297.515 397.12 296.842 397.4 296.295 397.96C295.762 398.52 295.495 399.26 295.495 400.18C295.495 401.047 295.755 401.753 296.275 402.3ZM311.929 405V390.8H314.349V405H311.929ZM329.404 395.1C330.497 395.1 331.337 395.453 331.924 396.16C332.524 396.867 332.824 397.933 332.824 399.36V405H330.584V399.92C330.584 398.053 329.95 397.12 328.684 397.12C328.03 397.12 327.484 397.393 327.044 397.94C326.617 398.473 326.404 399.207 326.404 400.14V405H324.164V399.92C324.164 398.053 323.517 397.12 322.224 397.12C321.53 397.12 320.964 397.393 320.524 397.94C320.097 398.473 319.884 399.207 319.884 400.14V405H317.644V395.24H319.884V396.6H319.904C320.717 395.6 321.73 395.1 322.944 395.1C324.317 395.1 325.29 395.64 325.864 396.72H325.904C326.744 395.64 327.91 395.1 329.404 395.1ZM340.953 395.1C342.313 395.1 343.439 395.58 344.333 396.54C345.226 397.487 345.673 398.693 345.673 400.16C345.673 401.653 345.226 402.86 344.333 403.78C343.439 404.7 342.306 405.16 340.933 405.16C339.626 405.16 338.599 404.707 337.853 403.8H337.833V408.96H335.593V395.24H337.833V396.44C338.579 395.547 339.619 395.1 340.953 395.1ZM338.553 402.3C339.099 402.847 339.779 403.12 340.593 403.12C341.406 403.12 342.073 402.847 342.593 402.3C343.126 401.753 343.393 401.047 343.393 400.18C343.393 399.26 343.119 398.52 342.573 397.96C342.039 397.4 341.373 397.12 340.573 397.12C339.746 397.12 339.066 397.413 338.533 398C337.999 398.573 337.733 399.3 337.733 400.18C337.733 401.047 338.006 401.753 338.553 402.3ZM348.155 405V390.28H350.395V405H348.155ZM362.384 400C362.384 400.24 362.364 400.54 362.324 400.9H355.204C355.351 401.593 355.671 402.14 356.164 402.54C356.657 402.927 357.264 403.12 357.984 403.12C358.997 403.12 359.811 402.74 360.424 401.98L361.984 403.32C361.037 404.547 359.664 405.16 357.864 405.16C356.424 405.16 355.231 404.7 354.284 403.78C353.351 402.847 352.884 401.627 352.884 400.12C352.884 398.64 353.331 397.433 354.224 396.5C355.131 395.567 356.271 395.1 357.644 395.1C359.071 395.1 360.217 395.56 361.084 396.48C361.951 397.387 362.384 398.56 362.384 400ZM359.304 397.66C358.904 397.3 358.391 397.12 357.764 397.12C357.137 397.12 356.597 397.293 356.144 397.64C355.704 397.987 355.404 398.473 355.244 399.1H360.124C359.977 398.487 359.704 398.007 359.304 397.66ZM376.454 395.1C377.548 395.1 378.388 395.453 378.974 396.16C379.574 396.867 379.874 397.933 379.874 399.36V405H377.634V399.92C377.634 398.053 377.001 397.12 375.734 397.12C375.081 397.12 374.534 397.393 374.094 397.94C373.668 398.473 373.454 399.207 373.454 400.14V405H371.214V399.92C371.214 398.053 370.568 397.12 369.274 397.12C368.581 397.12 368.014 397.393 367.574 397.94C367.148 398.473 366.934 399.207 366.934 400.14V405H364.694V395.24H366.934V396.6H366.954C367.768 395.6 368.781 395.1 369.994 395.1C371.368 395.1 372.341 395.64 372.914 396.72H372.954C373.794 395.64 374.961 395.1 376.454 395.1ZM391.564 400C391.564 400.24 391.544 400.54 391.504 400.9H384.384C384.53 401.593 384.85 402.14 385.344 402.54C385.837 402.927 386.444 403.12 387.164 403.12C388.177 403.12 388.99 402.74 389.604 401.98L391.164 403.32C390.217 404.547 388.844 405.16 387.044 405.16C385.604 405.16 384.41 404.7 383.464 403.78C382.53 402.847 382.064 401.627 382.064 400.12C382.064 398.64 382.51 397.433 383.404 396.5C384.31 395.567 385.45 395.1 386.824 395.1C388.25 395.1 389.397 395.56 390.264 396.48C391.13 397.387 391.564 398.56 391.564 400ZM388.484 397.66C388.084 397.3 387.57 397.12 386.944 397.12C386.317 397.12 385.777 397.293 385.324 397.64C384.884 397.987 384.584 398.473 384.424 399.1H389.304C389.157 398.487 388.884 398.007 388.484 397.66ZM399.414 395.1C400.534 395.1 401.407 395.44 402.034 396.12C402.674 396.8 402.994 397.847 402.994 399.26V405H400.754V399.84C400.754 398.853 400.574 398.153 400.214 397.74C399.867 397.327 399.341 397.12 398.634 397.12C397.861 397.12 397.247 397.38 396.794 397.9C396.341 398.42 396.114 399.153 396.114 400.1V405H393.874V395.24H396.114V396.6H396.134C396.974 395.6 398.067 395.1 399.414 395.1ZM408.63 405.16C407.776 405.16 407.11 404.887 406.63 404.34C406.15 403.793 405.91 402.987 405.91 401.92V397.14H404.71V395.24H405.91V392L408.15 391.76V395.24H411.01V397.14H408.15V401.7C408.15 402.193 408.223 402.547 408.37 402.76C408.516 402.96 408.756 403.06 409.09 403.06C409.53 403.06 410.01 402.92 410.53 402.64L411.11 404.58C410.403 404.967 409.576 405.16 408.63 405.16ZM419.765 395.24H422.005V405H419.865V403.7H419.825C419.105 404.673 418.071 405.16 416.725 405.16C415.351 405.16 414.218 404.7 413.325 403.78C412.445 402.86 412.005 401.653 412.005 400.16C412.005 398.693 412.451 397.487 413.345 396.54C414.238 395.58 415.358 395.1 416.705 395.1C417.985 395.1 418.991 395.54 419.725 396.42H419.765V395.24ZM417.085 403.12C417.858 403.12 418.511 402.847 419.045 402.3C419.591 401.753 419.865 401.047 419.865 400.18C419.865 399.313 419.598 398.587 419.065 398C418.545 397.413 417.885 397.12 417.085 397.12C416.285 397.12 415.618 397.4 415.085 397.96C414.551 398.52 414.285 399.26 414.285 400.18C414.285 401.047 414.545 401.753 415.065 402.3C415.585 402.847 416.258 403.12 417.085 403.12ZM427.731 405.16C426.878 405.16 426.211 404.887 425.731 404.34C425.251 403.793 425.011 402.987 425.011 401.92V397.14H423.811V395.24H425.011V392L427.251 391.76V395.24H430.111V397.14H427.251V401.7C427.251 402.193 427.324 402.547 427.471 402.76C427.618 402.96 427.858 403.06 428.191 403.06C428.631 403.06 429.111 402.92 429.631 402.64L430.211 404.58C429.504 404.967 428.678 405.16 427.731 405.16ZM434.378 393.36C434.084 393.653 433.731 393.8 433.318 393.8C432.904 393.8 432.551 393.653 432.258 393.36C431.964 393.067 431.818 392.713 431.818 392.3C431.818 391.9 431.964 391.553 432.258 391.26C432.551 390.967 432.904 390.82 433.318 390.82C433.731 390.82 434.084 390.967 434.378 391.26C434.684 391.553 434.838 391.9 434.838 392.3C434.838 392.713 434.684 393.067 434.378 393.36ZM432.198 405V395.24H434.438V405H432.198ZM442.047 405.16C440.527 405.16 439.294 404.687 438.347 403.74C437.4 402.793 436.927 401.593 436.927 400.14C436.927 398.687 437.4 397.487 438.347 396.54C439.294 395.58 440.527 395.1 442.047 395.1C443.554 395.1 444.78 395.567 445.727 396.5C446.687 397.433 447.167 398.647 447.167 400.14C447.167 401.62 446.687 402.827 445.727 403.76C444.78 404.693 443.554 405.16 442.047 405.16ZM442.047 403.12C442.847 403.12 443.52 402.84 444.067 402.28C444.614 401.72 444.887 401.007 444.887 400.14C444.887 399.247 444.614 398.52 444.067 397.96C443.534 397.4 442.86 397.12 442.047 397.12C441.207 397.12 440.52 397.407 439.987 397.98C439.467 398.553 439.207 399.273 439.207 400.14C439.207 400.98 439.474 401.687 440.007 402.26C440.54 402.833 441.22 403.12 442.047 403.12ZM455.039 395.1C456.159 395.1 457.032 395.44 457.659 396.12C458.299 396.8 458.619 397.847 458.619 399.26V405H456.379V399.84C456.379 398.853 456.199 398.153 455.839 397.74C455.492 397.327 454.966 397.12 454.259 397.12C453.486 397.12 452.872 397.38 452.419 397.9C451.966 398.42 451.739 399.153 451.739 400.1V405H449.499V395.24H451.739V396.6H451.759C452.599 395.6 453.692 395.1 455.039 395.1ZM471.226 405.16C469.239 405.16 467.526 404.413 466.086 402.92L467.606 401.06C468.099 401.66 468.673 402.12 469.326 402.44C469.979 402.76 470.619 402.92 471.246 402.92C472.006 402.92 472.586 402.767 472.986 402.46C473.399 402.153 473.606 401.733 473.606 401.2C473.606 400.627 473.406 400.193 473.006 399.9C472.606 399.607 471.893 399.28 470.866 398.92C470.213 398.693 469.673 398.48 469.246 398.28C468.833 398.067 468.393 397.793 467.926 397.46C467.473 397.127 467.133 396.727 466.906 396.26C466.679 395.78 466.566 395.227 466.566 394.6C466.566 393.493 467.006 392.56 467.886 391.8C468.766 391.027 469.826 390.64 471.066 390.64C472.706 390.627 474.273 391.207 475.766 392.38L474.326 394.28C473.153 393.307 472.066 392.82 471.066 392.82C470.493 392.82 470.019 392.967 469.646 393.26C469.273 393.553 469.079 393.96 469.066 394.48C469.066 394.733 469.113 394.953 469.206 395.14C469.299 395.313 469.486 395.487 469.766 395.66C470.059 395.833 470.319 395.973 470.546 396.08C470.786 396.173 471.179 396.327 471.726 396.54C473.193 397.113 474.159 397.56 474.626 397.88C475.626 398.587 476.126 399.593 476.126 400.9C476.126 402.26 475.626 403.313 474.626 404.06C473.639 404.793 472.506 405.16 471.226 405.16ZM485.003 395.24H487.243V405H485.003V403.72C484.203 404.68 483.196 405.16 481.983 405.16C479.543 405.16 478.323 403.833 478.323 401.18V395.24H480.563V400.58C480.563 401.527 480.709 402.187 481.003 402.56C481.309 402.933 481.809 403.12 482.503 403.12C483.196 403.12 483.783 402.84 484.263 402.28C484.756 401.707 485.003 400.92 485.003 399.92V395.24ZM495.445 395.1C496.805 395.1 497.932 395.58 498.825 396.54C499.718 397.487 500.165 398.693 500.165 400.16C500.165 401.653 499.718 402.86 498.825 403.78C497.932 404.7 496.798 405.16 495.425 405.16C494.118 405.16 493.092 404.707 492.345 403.8H492.325V408.96H490.085V395.24H492.325V396.44C493.072 395.547 494.112 395.1 495.445 395.1ZM493.045 402.3C493.592 402.847 494.272 403.12 495.085 403.12C495.898 403.12 496.565 402.847 497.085 402.3C497.618 401.753 497.885 401.047 497.885 400.18C497.885 399.26 497.612 398.52 497.065 397.96C496.532 397.4 495.865 397.12 495.065 397.12C494.238 397.12 493.558 397.413 493.025 398C492.492 398.573 492.225 399.3 492.225 400.18C492.225 401.047 492.498 401.753 493.045 402.3ZM507.867 395.1C509.227 395.1 510.354 395.58 511.247 396.54C512.14 397.487 512.587 398.693 512.587 400.16C512.587 401.653 512.14 402.86 511.247 403.78C510.354 404.7 509.22 405.16 507.847 405.16C506.54 405.16 505.514 404.707 504.767 403.8H504.747V408.96H502.507V395.24H504.747V396.44C505.494 395.547 506.534 395.1 507.867 395.1ZM505.467 402.3C506.014 402.847 506.694 403.12 507.507 403.12C508.32 403.12 508.987 402.847 509.507 402.3C510.04 401.753 510.307 401.047 510.307 400.18C510.307 399.26 510.034 398.52 509.487 397.96C508.954 397.4 508.287 397.12 507.487 397.12C506.66 397.12 505.98 397.413 505.447 398C504.914 398.573 504.647 399.3 504.647 400.18C504.647 401.047 504.92 401.753 505.467 402.3ZM519.469 405.16C517.949 405.16 516.715 404.687 515.769 403.74C514.822 402.793 514.349 401.593 514.349 400.14C514.349 398.687 514.822 397.487 515.769 396.54C516.715 395.58 517.949 395.1 519.469 395.1C520.975 395.1 522.202 395.567 523.149 396.5C524.109 397.433 524.589 398.647 524.589 400.14C524.589 401.62 524.109 402.827 523.149 403.76C522.202 404.693 520.975 405.16 519.469 405.16ZM519.469 403.12C520.269 403.12 520.942 402.84 521.489 402.28C522.035 401.72 522.309 401.007 522.309 400.14C522.309 399.247 522.035 398.52 521.489 397.96C520.955 397.4 520.282 397.12 519.469 397.12C518.629 397.12 517.942 397.407 517.409 397.98C516.889 398.553 516.629 399.273 516.629 400.14C516.629 400.98 516.895 401.687 517.429 402.26C517.962 402.833 518.642 403.12 519.469 403.12ZM532.221 395.1H532.501V397.6C532.154 397.573 531.928 397.56 531.821 397.56C530.994 397.56 530.341 397.827 529.861 398.36C529.394 398.88 529.161 399.553 529.161 400.38V405H526.921V395.24H529.161V396.72H529.181C529.968 395.64 530.981 395.1 532.221 395.1ZM537.262 405.16C536.409 405.16 535.742 404.887 535.262 404.34C534.782 403.793 534.542 402.987 534.542 401.92V397.14H533.342V395.24H534.542V392L536.782 391.76V395.24H539.642V397.14H536.782V401.7C536.782 402.193 536.856 402.547 537.002 402.76C537.149 402.96 537.389 403.06 537.722 403.06C538.162 403.06 538.642 402.92 539.162 402.64L539.742 404.58C539.036 404.967 538.209 405.16 537.262 405.16Z" fill="#28285E"/>
<path d="M155.36 590H152.46L149.06 584.94H147.16V590H144.74V575.8H149.98C151.607 575.8 152.82 576.22 153.62 577.06C154.433 577.9 154.84 579.013 154.84 580.4C154.84 582.667 153.8 584.093 151.72 584.68V584.74L155.36 590ZM147.16 577.96V582.76H149.46C150.393 582.76 151.107 582.547 151.6 582.12C152.093 581.68 152.34 581.093 152.34 580.36C152.34 579.6 152.1 579.013 151.62 578.6C151.153 578.173 150.487 577.96 149.62 577.96H147.16ZM166.388 585C166.388 585.24 166.368 585.54 166.328 585.9H159.208C159.354 586.593 159.674 587.14 160.168 587.54C160.661 587.927 161.268 588.12 161.988 588.12C163.001 588.12 163.814 587.74 164.428 586.98L165.988 588.32C165.041 589.547 163.668 590.16 161.868 590.16C160.428 590.16 159.234 589.7 158.288 588.78C157.354 587.847 156.888 586.627 156.888 585.12C156.888 583.64 157.334 582.433 158.228 581.5C159.134 580.567 160.274 580.1 161.648 580.1C163.074 580.1 164.221 580.56 165.088 581.48C165.954 582.387 166.388 583.56 166.388 585ZM163.308 582.66C162.908 582.3 162.394 582.12 161.768 582.12C161.141 582.12 160.601 582.293 160.148 582.64C159.708 582.987 159.408 583.473 159.248 584.1H164.128C163.981 583.487 163.708 583.007 163.308 582.66ZM171.818 590.16C170.258 590.16 168.945 589.687 167.878 588.74L168.998 587.06C169.772 587.82 170.712 588.2 171.818 588.2C172.245 588.2 172.578 588.113 172.818 587.94C173.058 587.767 173.178 587.533 173.178 587.24C173.178 587.013 173.038 586.827 172.758 586.68C172.492 586.52 171.992 586.313 171.258 586.06C170.298 585.727 169.558 585.327 169.038 584.86C168.532 584.393 168.278 583.727 168.278 582.86C168.278 582.06 168.598 581.4 169.238 580.88C169.892 580.36 170.718 580.1 171.718 580.1C173.012 580.1 174.158 580.507 175.158 581.32L174.038 583.08C173.305 582.387 172.492 582.04 171.598 582.04C171.332 582.04 171.085 582.113 170.858 582.26C170.645 582.393 170.538 582.6 170.538 582.88C170.538 583.28 171.052 583.673 172.078 584.06C173.345 584.553 174.138 584.913 174.458 585.14C175.125 585.607 175.458 586.293 175.458 587.2C175.458 588.067 175.145 588.78 174.518 589.34C173.905 589.887 173.005 590.16 171.818 590.16ZM186.525 585C186.525 585.24 186.505 585.54 186.465 585.9H179.345C179.491 586.593 179.811 587.14 180.305 587.54C180.798 587.927 181.405 588.12 182.125 588.12C183.138 588.12 183.951 587.74 184.565 586.98L186.125 588.32C185.178 589.547 183.805 590.16 182.005 590.16C180.565 590.16 179.371 589.7 178.425 588.78C177.491 587.847 177.025 586.627 177.025 585.12C177.025 583.64 177.471 582.433 178.365 581.5C179.271 580.567 180.411 580.1 181.785 580.1C183.211 580.1 184.358 580.56 185.225 581.48C186.091 582.387 186.525 583.56 186.525 585ZM183.445 582.66C183.045 582.3 182.531 582.12 181.905 582.12C181.278 582.12 180.738 582.293 180.285 582.64C179.845 582.987 179.545 583.473 179.385 584.1H184.265C184.118 583.487 183.845 583.007 183.445 582.66ZM195.995 580.24H198.235V590H196.095V588.7H196.055C195.335 589.673 194.302 590.16 192.955 590.16C191.582 590.16 190.448 589.7 189.555 588.78C188.675 587.86 188.235 586.653 188.235 585.16C188.235 583.693 188.682 582.487 189.575 581.54C190.468 580.58 191.588 580.1 192.935 580.1C194.215 580.1 195.222 580.54 195.955 581.42H195.995V580.24ZM193.315 588.12C194.088 588.12 194.742 587.847 195.275 587.3C195.822 586.753 196.095 586.047 196.095 585.18C196.095 584.313 195.828 583.587 195.295 583C194.775 582.413 194.115 582.12 193.315 582.12C192.515 582.12 191.848 582.4 191.315 582.96C190.782 583.52 190.515 584.26 190.515 585.18C190.515 586.047 190.775 586.753 191.295 587.3C191.815 587.847 192.488 588.12 193.315 588.12ZM206.362 580.1H206.642V582.6C206.295 582.573 206.068 582.56 205.962 582.56C205.135 582.56 204.482 582.827 204.002 583.36C203.535 583.88 203.302 584.553 203.302 585.38V590H201.062V580.24H203.302V581.72H203.322C204.108 580.64 205.122 580.1 206.362 580.1ZM212.63 590.16C211.176 590.16 209.983 589.693 209.05 588.76C208.116 587.827 207.65 586.62 207.65 585.14C207.65 583.647 208.123 582.433 209.07 581.5C210.016 580.567 211.23 580.1 212.71 580.1C213.496 580.1 214.256 580.26 214.99 580.58C215.723 580.887 216.33 581.333 216.81 581.92L215.29 583.24C214.65 582.493 213.83 582.12 212.83 582.12C211.963 582.12 211.263 582.4 210.73 582.96C210.196 583.507 209.93 584.227 209.93 585.12C209.93 586.013 210.196 586.74 210.73 587.3C211.263 587.847 211.963 588.12 212.83 588.12C213.843 588.12 214.67 587.773 215.31 587.08L216.85 588.44C216.41 588.947 215.816 589.36 215.07 589.68C214.336 590 213.523 590.16 212.63 590.16ZM224.454 580.1C225.587 580.1 226.474 580.427 227.114 581.08C227.767 581.733 228.094 582.76 228.094 584.16V590H225.854V584.74C225.854 583.807 225.674 583.14 225.314 582.74C224.967 582.327 224.441 582.12 223.734 582.12C222.907 582.12 222.261 582.373 221.794 582.88C221.341 583.373 221.114 584.093 221.114 585.04V590H218.874V575.28H221.114V581.48H221.134C221.961 580.56 223.067 580.1 224.454 580.1ZM243.339 580.24H245.579V590H243.439V588.7H243.399C242.679 589.673 241.645 590.16 240.299 590.16C238.925 590.16 237.792 589.7 236.899 588.78C236.019 587.86 235.579 586.653 235.579 585.16C235.579 583.693 236.025 582.487 236.919 581.54C237.812 580.58 238.932 580.1 240.279 580.1C241.559 580.1 242.565 580.54 243.299 581.42H243.339V580.24ZM240.659 588.12C241.432 588.12 242.085 587.847 242.619 587.3C243.165 586.753 243.439 586.047 243.439 585.18C243.439 584.313 243.172 583.587 242.639 583C242.119 582.413 241.459 582.12 240.659 582.12C239.859 582.12 239.192 582.4 238.659 582.96C238.125 583.52 237.859 584.26 237.859 585.18C237.859 586.047 238.119 586.753 238.639 587.3C239.159 587.847 239.832 588.12 240.659 588.12ZM253.945 580.1C255.065 580.1 255.939 580.44 256.565 581.12C257.205 581.8 257.525 582.847 257.525 584.26V590H255.285V584.84C255.285 583.853 255.105 583.153 254.745 582.74C254.399 582.327 253.872 582.12 253.165 582.12C252.392 582.12 251.779 582.38 251.325 582.9C250.872 583.42 250.645 584.153 250.645 585.1V590H248.405V580.24H250.645V581.6H250.665C251.505 580.6 252.599 580.1 253.945 580.1ZM267.521 575.28H269.741V590H267.601V588.7H267.561C266.814 589.673 265.761 590.16 264.401 590.16C263.027 590.16 261.894 589.7 261.001 588.78C260.107 587.86 259.661 586.653 259.661 585.16C259.661 583.693 260.107 582.487 261.001 581.54C261.907 580.58 263.034 580.1 264.381 580.1C265.687 580.1 266.721 580.54 267.481 581.42H267.521V575.28ZM262.721 587.3C263.254 587.847 263.927 588.12 264.741 588.12C265.554 588.12 266.234 587.847 266.781 587.3C267.327 586.753 267.601 586.047 267.601 585.18C267.601 584.3 267.334 583.573 266.801 583C266.267 582.413 265.587 582.12 264.761 582.12C263.961 582.12 263.287 582.4 262.741 582.96C262.207 583.52 261.941 584.26 261.941 585.18C261.941 586.047 262.201 586.753 262.721 587.3ZM278.295 590V575.8H282.815C285.041 575.8 286.828 576.46 288.175 577.78C289.521 579.087 290.195 580.8 290.195 582.92C290.195 585.04 289.535 586.753 288.215 588.06C286.908 589.353 285.128 590 282.875 590H278.295ZM280.715 587.84H282.735C284.215 587.84 285.408 587.38 286.315 586.46C287.235 585.527 287.695 584.347 287.695 582.92C287.695 581.48 287.241 580.293 286.335 579.36C285.441 578.427 284.281 577.96 282.855 577.96H280.715V587.84ZM301.661 585C301.661 585.24 301.641 585.54 301.601 585.9H294.481C294.628 586.593 294.948 587.14 295.441 587.54C295.935 587.927 296.541 588.12 297.261 588.12C298.275 588.12 299.088 587.74 299.701 586.98L301.261 588.32C300.315 589.547 298.941 590.16 297.141 590.16C295.701 590.16 294.508 589.7 293.561 588.78C292.628 587.847 292.161 586.627 292.161 585.12C292.161 583.64 292.608 582.433 293.501 581.5C294.408 580.567 295.548 580.1 296.921 580.1C298.348 580.1 299.495 580.56 300.361 581.48C301.228 582.387 301.661 583.56 301.661 585ZM298.581 582.66C298.181 582.3 297.668 582.12 297.041 582.12C296.415 582.12 295.875 582.293 295.421 582.64C294.981 582.987 294.681 583.473 294.521 584.1H299.401C299.255 583.487 298.981 583.007 298.581 582.66ZM309.845 580.24H312.245L308.385 590H306.245L302.365 580.24H304.745L307.305 587.2H307.325L309.845 580.24ZM322.423 585C322.423 585.24 322.403 585.54 322.363 585.9H315.243C315.39 586.593 315.71 587.14 316.203 587.54C316.696 587.927 317.303 588.12 318.023 588.12C319.036 588.12 319.85 587.74 320.463 586.98L322.023 588.32C321.076 589.547 319.703 590.16 317.903 590.16C316.463 590.16 315.27 589.7 314.323 588.78C313.39 587.847 312.923 586.627 312.923 585.12C312.923 583.64 313.37 582.433 314.263 581.5C315.17 580.567 316.31 580.1 317.683 580.1C319.11 580.1 320.256 580.56 321.123 581.48C321.99 582.387 322.423 583.56 322.423 585ZM319.343 582.66C318.943 582.3 318.43 582.12 317.803 582.12C317.176 582.12 316.636 582.293 316.183 582.64C315.743 582.987 315.443 583.473 315.283 584.1H320.163C320.016 583.487 319.743 583.007 319.343 582.66ZM324.873 590V575.28H327.113V590H324.873ZM334.723 590.16C333.203 590.16 331.969 589.687 331.023 588.74C330.076 587.793 329.603 586.593 329.603 585.14C329.603 583.687 330.076 582.487 331.023 581.54C331.969 580.58 333.203 580.1 334.723 580.1C336.229 580.1 337.456 580.567 338.403 581.5C339.363 582.433 339.843 583.647 339.843 585.14C339.843 586.62 339.363 587.827 338.403 588.76C337.456 589.693 336.229 590.16 334.723 590.16ZM334.723 588.12C335.523 588.12 336.196 587.84 336.743 587.28C337.289 586.72 337.563 586.007 337.563 585.14C337.563 584.247 337.289 583.52 336.743 582.96C336.209 582.4 335.536 582.12 334.723 582.12C333.883 582.12 333.196 582.407 332.663 582.98C332.143 583.553 331.883 584.273 331.883 585.14C331.883 585.98 332.149 586.687 332.683 587.26C333.216 587.833 333.896 588.12 334.723 588.12ZM347.535 580.1C348.895 580.1 350.022 580.58 350.915 581.54C351.808 582.487 352.255 583.693 352.255 585.16C352.255 586.653 351.808 587.86 350.915 588.78C350.022 589.7 348.888 590.16 347.515 590.16C346.208 590.16 345.182 589.707 344.435 588.8H344.415V593.96H342.175V580.24H344.415V581.44C345.162 580.547 346.202 580.1 347.535 580.1ZM345.135 587.3C345.682 587.847 346.362 588.12 347.175 588.12C347.988 588.12 348.655 587.847 349.175 587.3C349.708 586.753 349.975 586.047 349.975 585.18C349.975 584.26 349.702 583.52 349.155 582.96C348.622 582.4 347.955 582.12 347.155 582.12C346.328 582.12 345.648 582.413 345.115 583C344.582 583.573 344.315 584.3 344.315 585.18C344.315 586.047 344.588 586.753 345.135 587.3ZM366.357 580.1C367.45 580.1 368.29 580.453 368.877 581.16C369.477 581.867 369.777 582.933 369.777 584.36V590H367.537V584.92C367.537 583.053 366.903 582.12 365.637 582.12C364.983 582.12 364.437 582.393 363.997 582.94C363.57 583.473 363.357 584.207 363.357 585.14V590H361.117V584.92C361.117 583.053 360.47 582.12 359.177 582.12C358.483 582.12 357.917 582.393 357.477 582.94C357.05 583.473 356.837 584.207 356.837 585.14V590H354.597V580.24H356.837V581.6H356.857C357.67 580.6 358.683 580.1 359.897 580.1C361.27 580.1 362.243 580.64 362.817 581.72H362.857C363.697 580.64 364.863 580.1 366.357 580.1ZM381.466 585C381.466 585.24 381.446 585.54 381.406 585.9H374.286C374.433 586.593 374.753 587.14 375.246 587.54C375.739 587.927 376.346 588.12 377.066 588.12C378.079 588.12 378.893 587.74 379.506 586.98L381.066 588.32C380.119 589.547 378.746 590.16 376.946 590.16C375.506 590.16 374.313 589.7 373.366 588.78C372.433 587.847 371.966 586.627 371.966 585.12C371.966 583.64 372.413 582.433 373.306 581.5C374.213 580.567 375.353 580.1 376.726 580.1C378.153 580.1 379.299 580.56 380.166 581.48C381.033 582.387 381.466 583.56 381.466 585ZM378.386 582.66C377.986 582.3 377.473 582.12 376.846 582.12C376.219 582.12 375.679 582.293 375.226 582.64C374.786 582.987 374.486 583.473 374.326 584.1H379.206C379.059 583.487 378.786 583.007 378.386 582.66ZM389.316 580.1C390.436 580.1 391.31 580.44 391.936 581.12C392.576 581.8 392.896 582.847 392.896 584.26V590H390.656V584.84C390.656 583.853 390.476 583.153 390.116 582.74C389.77 582.327 389.243 582.12 388.536 582.12C387.763 582.12 387.15 582.38 386.696 582.9C386.243 583.42 386.016 584.153 386.016 585.1V590H383.776V580.24H386.016V581.6H386.036C386.876 580.6 387.97 580.1 389.316 580.1ZM398.532 590.16C397.679 590.16 397.012 589.887 396.532 589.34C396.052 588.793 395.812 587.987 395.812 586.92V582.14H394.612V580.24H395.812V577L398.052 576.76V580.24H400.912V582.14H398.052V586.7C398.052 587.193 398.125 587.547 398.272 587.76C398.419 587.96 398.659 588.06 398.992 588.06C399.432 588.06 399.912 587.92 400.432 587.64L401.012 589.58C400.305 589.967 399.479 590.16 398.532 590.16ZM415.088 590.12C412.995 590.12 411.275 589.473 409.928 588.18C408.595 586.873 407.928 585.12 407.928 582.92C407.928 580.787 408.568 579.04 409.848 577.68C411.141 576.32 412.861 575.64 415.008 575.64C416.035 575.64 417.035 575.84 418.008 576.24C418.981 576.627 419.828 577.207 420.548 577.98L418.848 579.46C417.795 578.433 416.508 577.92 414.988 577.92C413.681 577.92 412.595 578.38 411.728 579.3C410.875 580.207 410.448 581.413 410.448 582.92C410.448 584.36 410.868 585.553 411.708 586.5C412.561 587.447 413.688 587.92 415.088 587.92C416.248 587.92 417.301 587.607 418.248 586.98V584.58H414.768V582.42H420.648V588.34C419.995 588.887 419.175 589.32 418.188 589.64C417.201 589.96 416.168 590.12 415.088 590.12ZM428.764 580.1H429.044V582.6C428.697 582.573 428.471 582.56 428.364 582.56C427.537 582.56 426.884 582.827 426.404 583.36C425.937 583.88 425.704 584.553 425.704 585.38V590H423.464V580.24H425.704V581.72H425.724C426.511 580.64 427.524 580.1 428.764 580.1ZM437.792 580.24H440.032V590H437.892V588.7H437.852C437.132 589.673 436.099 590.16 434.752 590.16C433.379 590.16 432.245 589.7 431.352 588.78C430.472 587.86 430.032 586.653 430.032 585.16C430.032 583.693 430.479 582.487 431.372 581.54C432.265 580.58 433.385 580.1 434.732 580.1C436.012 580.1 437.019 580.54 437.752 581.42H437.792V580.24ZM435.112 588.12C435.885 588.12 436.539 587.847 437.072 587.3C437.619 586.753 437.892 586.047 437.892 585.18C437.892 584.313 437.625 583.587 437.092 583C436.572 582.413 435.912 582.12 435.112 582.12C434.312 582.12 433.645 582.4 433.112 582.96C432.579 583.52 432.312 584.26 432.312 585.18C432.312 586.047 432.572 586.753 433.092 587.3C433.612 587.847 434.285 588.12 435.112 588.12ZM448.398 580.1C449.518 580.1 450.392 580.44 451.018 581.12C451.658 581.8 451.978 582.847 451.978 584.26V590H449.738V584.84C449.738 583.853 449.558 583.153 449.198 582.74C448.852 582.327 448.325 582.12 447.618 582.12C446.845 582.12 446.232 582.38 445.778 582.9C445.325 583.42 445.098 584.153 445.098 585.1V590H442.858V580.24H445.098V581.6H445.118C445.958 580.6 447.052 580.1 448.398 580.1ZM457.614 590.16C456.761 590.16 456.094 589.887 455.614 589.34C455.134 588.793 454.894 587.987 454.894 586.92V582.14H453.694V580.24H454.894V577L457.134 576.76V580.24H459.994V582.14H457.134V586.7C457.134 587.193 457.207 587.547 457.354 587.76C457.501 587.96 457.741 588.06 458.074 588.06C458.514 588.06 458.994 587.92 459.514 587.64L460.094 589.58C459.387 589.967 458.561 590.16 457.614 590.16ZM465.197 590.16C463.637 590.16 462.324 589.687 461.257 588.74L462.377 587.06C463.151 587.82 464.091 588.2 465.197 588.2C465.624 588.2 465.957 588.113 466.197 587.94C466.437 587.767 466.557 587.533 466.557 587.24C466.557 587.013 466.417 586.827 466.137 586.68C465.871 586.52 465.371 586.313 464.637 586.06C463.677 585.727 462.937 585.327 462.417 584.86C461.911 584.393 461.657 583.727 461.657 582.86C461.657 582.06 461.977 581.4 462.617 580.88C463.271 580.36 464.097 580.1 465.097 580.1C466.391 580.1 467.537 580.507 468.537 581.32L467.417 583.08C466.684 582.387 465.871 582.04 464.977 582.04C464.711 582.04 464.464 582.113 464.237 582.26C464.024 582.393 463.917 582.6 463.917 582.88C463.917 583.28 464.431 583.673 465.457 584.06C466.724 584.553 467.517 584.913 467.837 585.14C468.504 585.607 468.837 586.293 468.837 587.2C468.837 588.067 468.524 588.78 467.897 589.34C467.284 589.887 466.384 590.16 465.197 590.16Z" fill="#28285E"/>
<path d="M151.26 775.12C149.233 775.12 147.533 774.487 146.16 773.22C144.787 771.94 144.1 770.18 144.1 767.94C144.1 765.847 144.733 764.107 146 762.72C147.28 761.333 149.033 760.64 151.26 760.64C153.513 760.64 155.38 761.547 156.86 763.36L155.08 764.86C154.013 763.567 152.74 762.92 151.26 762.92C149.873 762.92 148.753 763.387 147.9 764.32C147.047 765.24 146.62 766.447 146.62 767.94C146.62 769.393 147.053 770.58 147.92 771.5C148.787 772.407 149.9 772.86 151.26 772.86C152.767 772.86 154.04 772.213 155.08 770.92L156.86 772.44C155.42 774.227 153.553 775.12 151.26 775.12ZM163.492 775.16C161.972 775.16 160.739 774.687 159.792 773.74C158.846 772.793 158.372 771.593 158.372 770.14C158.372 768.687 158.846 767.487 159.792 766.54C160.739 765.58 161.972 765.1 163.492 765.1C164.999 765.1 166.226 765.567 167.172 766.5C168.132 767.433 168.612 768.647 168.612 770.14C168.612 771.62 168.132 772.827 167.172 773.76C166.226 774.693 164.999 775.16 163.492 775.16ZM163.492 773.12C164.292 773.12 164.966 772.84 165.512 772.28C166.059 771.72 166.332 771.007 166.332 770.14C166.332 769.247 166.059 768.52 165.512 767.96C164.979 767.4 164.306 767.12 163.492 767.12C162.652 767.12 161.966 767.407 161.432 767.98C160.912 768.553 160.652 769.273 160.652 770.14C160.652 770.98 160.919 771.687 161.452 772.26C161.986 772.833 162.666 773.12 163.492 773.12ZM182.704 765.1C183.798 765.1 184.638 765.453 185.224 766.16C185.824 766.867 186.124 767.933 186.124 769.36V775H183.884V769.92C183.884 768.053 183.251 767.12 181.984 767.12C181.331 767.12 180.784 767.393 180.344 767.94C179.918 768.473 179.704 769.207 179.704 770.14V775H177.464V769.92C177.464 768.053 176.818 767.12 175.524 767.12C174.831 767.12 174.264 767.393 173.824 767.94C173.398 768.473 173.184 769.207 173.184 770.14V775H170.944V765.24H173.184V766.6H173.204C174.018 765.6 175.031 765.1 176.244 765.1C177.618 765.1 178.591 765.64 179.164 766.72H179.204C180.044 765.64 181.211 765.1 182.704 765.1ZM200.654 765.1C201.747 765.1 202.587 765.453 203.174 766.16C203.774 766.867 204.074 767.933 204.074 769.36V775H201.834V769.92C201.834 768.053 201.2 767.12 199.934 767.12C199.28 767.12 198.734 767.393 198.294 767.94C197.867 768.473 197.654 769.207 197.654 770.14V775H195.414V769.92C195.414 768.053 194.767 767.12 193.474 767.12C192.78 767.12 192.214 767.393 191.774 767.94C191.347 768.473 191.134 769.207 191.134 770.14V775H188.894V765.24H191.134V766.6H191.154C191.967 765.6 192.98 765.1 194.194 765.1C195.567 765.1 196.54 765.64 197.114 766.72H197.154C197.994 765.64 199.16 765.1 200.654 765.1ZM213.323 765.24H215.563V775H213.323V773.72C212.523 774.68 211.516 775.16 210.303 775.16C207.863 775.16 206.643 773.833 206.643 771.18V765.24H208.883V770.58C208.883 771.527 209.029 772.187 209.323 772.56C209.629 772.933 210.129 773.12 210.823 773.12C211.516 773.12 212.103 772.84 212.583 772.28C213.076 771.707 213.323 770.92 213.323 769.92V765.24ZM223.945 765.1C225.065 765.1 225.939 765.44 226.565 766.12C227.205 766.8 227.525 767.847 227.525 769.26V775H225.285V769.84C225.285 768.853 225.105 768.153 224.745 767.74C224.399 767.327 223.872 767.12 223.165 767.12C222.392 767.12 221.779 767.38 221.325 767.9C220.872 768.42 220.645 769.153 220.645 770.1V775H218.405V765.24H220.645V766.6H220.665C221.505 765.6 222.599 765.1 223.945 765.1ZM232.581 763.36C232.287 763.653 231.934 763.8 231.521 763.8C231.107 763.8 230.754 763.653 230.461 763.36C230.167 763.067 230.021 762.713 230.021 762.3C230.021 761.9 230.167 761.553 230.461 761.26C230.754 760.967 231.107 760.82 231.521 760.82C231.934 760.82 232.287 760.967 232.581 761.26C232.887 761.553 233.041 761.9 233.041 762.3C233.041 762.713 232.887 763.067 232.581 763.36ZM230.401 775V765.24H232.641V775H230.401ZM238.532 775.16C237.679 775.16 237.012 774.887 236.532 774.34C236.052 773.793 235.812 772.987 235.812 771.92V767.14H234.612V765.24H235.812V762L238.052 761.76V765.24H240.912V767.14H238.052V771.7C238.052 772.193 238.125 772.547 238.272 772.76C238.419 772.96 238.659 773.06 238.992 773.06C239.432 773.06 239.912 772.92 240.432 772.64L241.012 774.58C240.305 774.967 239.479 775.16 238.532 775.16ZM249.437 765.24H251.777L246.417 778.96H244.057L245.817 774.44L241.857 765.24H244.217L246.917 771.84L249.437 765.24ZM259.271 775V760.8H268.211V762.96H261.691V766.88H266.951V769.04H261.691V772.84H268.631V775H259.271ZM276.68 765.1C277.8 765.1 278.673 765.44 279.3 766.12C279.94 766.8 280.26 767.847 280.26 769.26V775H278.02V769.84C278.02 768.853 277.84 768.153 277.48 767.74C277.133 767.327 276.606 767.12 275.9 767.12C275.126 767.12 274.513 767.38 274.06 767.9C273.606 768.42 273.38 769.153 273.38 770.1V775H271.14V765.24H273.38V766.6H273.4C274.24 765.6 275.333 765.1 276.68 765.1ZM290.095 765.24H292.335V774C292.335 775.573 291.935 776.813 291.135 777.72C290.335 778.64 289.075 779.1 287.355 779.1C285.835 779.1 284.508 778.76 283.375 778.08L283.915 776.12C284.542 776.453 285.088 776.693 285.555 776.84C286.035 777 286.595 777.08 287.235 777.08C288.155 777.08 288.868 776.847 289.375 776.38C289.882 775.927 290.135 775.36 290.135 774.68V773.64H290.115C289.342 774.44 288.348 774.84 287.135 774.84C285.762 774.84 284.622 774.393 283.715 773.5C282.822 772.607 282.375 771.447 282.375 770.02C282.375 768.593 282.808 767.413 283.675 766.48C284.555 765.547 285.668 765.08 287.015 765.08C288.242 765.08 289.255 765.48 290.055 766.28H290.095V765.24ZM287.435 772.78C288.248 772.78 288.908 772.513 289.415 771.98C289.935 771.433 290.195 770.747 290.195 769.92C290.195 769.107 289.928 768.44 289.395 767.92C288.875 767.4 288.222 767.14 287.435 767.14C286.608 767.14 285.935 767.407 285.415 767.94C284.908 768.46 284.655 769.133 284.655 769.96C284.655 770.813 284.915 771.5 285.435 772.02C285.968 772.527 286.635 772.78 287.435 772.78ZM302.304 765.24H304.544V775H302.404V773.7H302.364C301.644 774.673 300.61 775.16 299.264 775.16C297.89 775.16 296.757 774.7 295.864 773.78C294.984 772.86 294.544 771.653 294.544 770.16C294.544 768.693 294.99 767.487 295.884 766.54C296.777 765.58 297.897 765.1 299.244 765.1C300.524 765.1 301.53 765.54 302.264 766.42H302.304V765.24ZM299.624 773.12C300.397 773.12 301.05 772.847 301.584 772.3C302.13 771.753 302.404 771.047 302.404 770.18C302.404 769.313 302.137 768.587 301.604 768C301.084 767.413 300.424 767.12 299.624 767.12C298.824 767.12 298.157 767.4 297.624 767.96C297.09 768.52 296.824 769.26 296.824 770.18C296.824 771.047 297.084 771.753 297.604 772.3C298.124 772.847 298.797 773.12 299.624 773.12ZM314.47 765.24H316.71V774C316.71 775.573 316.31 776.813 315.51 777.72C314.71 778.64 313.45 779.1 311.73 779.1C310.21 779.1 308.883 778.76 307.75 778.08L308.29 776.12C308.917 776.453 309.463 776.693 309.93 776.84C310.41 777 310.97 777.08 311.61 777.08C312.53 777.08 313.243 776.847 313.75 776.38C314.257 775.927 314.51 775.36 314.51 774.68V773.64H314.49C313.717 774.44 312.723 774.84 311.51 774.84C310.137 774.84 308.997 774.393 308.09 773.5C307.197 772.607 306.75 771.447 306.75 770.02C306.75 768.593 307.183 767.413 308.05 766.48C308.93 765.547 310.043 765.08 311.39 765.08C312.617 765.08 313.63 765.48 314.43 766.28H314.47V765.24ZM311.81 772.78C312.623 772.78 313.283 772.513 313.79 771.98C314.31 771.433 314.57 770.747 314.57 769.92C314.57 769.107 314.303 768.44 313.77 767.92C313.25 767.4 312.597 767.14 311.81 767.14C310.983 767.14 310.31 767.407 309.79 767.94C309.283 768.46 309.03 769.133 309.03 769.96C309.03 770.813 309.29 771.5 309.81 772.02C310.343 772.527 311.01 772.78 311.81 772.78ZM328.439 770C328.439 770.24 328.419 770.54 328.379 770.9H321.259C321.405 771.593 321.725 772.14 322.219 772.54C322.712 772.927 323.319 773.12 324.039 773.12C325.052 773.12 325.865 772.74 326.479 771.98L328.039 773.32C327.092 774.547 325.719 775.16 323.919 775.16C322.479 775.16 321.285 774.7 320.339 773.78C319.405 772.847 318.939 771.627 318.939 770.12C318.939 768.64 319.385 767.433 320.279 766.5C321.185 765.567 322.325 765.1 323.699 765.1C325.125 765.1 326.272 765.56 327.139 766.48C328.005 767.387 328.439 768.56 328.439 770ZM325.359 767.66C324.959 767.3 324.445 767.12 323.819 767.12C323.192 767.12 322.652 767.293 322.199 767.64C321.759 767.987 321.459 768.473 321.299 769.1H326.179C326.032 768.487 325.759 768.007 325.359 767.66ZM342.509 765.1C343.602 765.1 344.442 765.453 345.029 766.16C345.629 766.867 345.929 767.933 345.929 769.36V775H343.689V769.92C343.689 768.053 343.056 767.12 341.789 767.12C341.136 767.12 340.589 767.393 340.149 767.94C339.722 768.473 339.509 769.207 339.509 770.14V775H337.269V769.92C337.269 768.053 336.622 767.12 335.329 767.12C334.636 767.12 334.069 767.393 333.629 767.94C333.202 768.473 332.989 769.207 332.989 770.14V775H330.749V765.24H332.989V766.6H333.009C333.822 765.6 334.836 765.1 336.049 765.1C337.422 765.1 338.396 765.64 338.969 766.72H339.009C339.849 765.64 341.016 765.1 342.509 765.1ZM357.618 770C357.618 770.24 357.598 770.54 357.558 770.9H350.438C350.585 771.593 350.905 772.14 351.398 772.54C351.892 772.927 352.498 773.12 353.218 773.12C354.232 773.12 355.045 772.74 355.658 771.98L357.218 773.32C356.272 774.547 354.898 775.16 353.098 775.16C351.658 775.16 350.465 774.7 349.518 773.78C348.585 772.847 348.118 771.627 348.118 770.12C348.118 768.64 348.565 767.433 349.458 766.5C350.365 765.567 351.505 765.1 352.878 765.1C354.305 765.1 355.452 765.56 356.318 766.48C357.185 767.387 357.618 768.56 357.618 770ZM354.538 767.66C354.138 767.3 353.625 767.12 352.998 767.12C352.372 767.12 351.832 767.293 351.378 767.64C350.938 767.987 350.638 768.473 350.478 769.1H355.358C355.212 768.487 354.938 768.007 354.538 767.66ZM365.469 765.1C366.589 765.1 367.462 765.44 368.089 766.12C368.729 766.8 369.049 767.847 369.049 769.26V775H366.809V769.84C366.809 768.853 366.629 768.153 366.269 767.74C365.922 767.327 365.395 767.12 364.689 767.12C363.915 767.12 363.302 767.38 362.849 767.9C362.395 768.42 362.169 769.153 362.169 770.1V775H359.929V765.24H362.169V766.6H362.189C363.029 765.6 364.122 765.1 365.469 765.1ZM374.684 775.16C373.831 775.16 373.164 774.887 372.684 774.34C372.204 773.793 371.964 772.987 371.964 771.92V767.14H370.764V765.24H371.964V762L374.204 761.76V765.24H377.064V767.14H374.204V771.7C374.204 772.193 374.278 772.547 374.424 772.76C374.571 772.96 374.811 773.06 375.144 773.06C375.584 773.06 376.064 772.92 376.584 772.64L377.164 774.58C376.458 774.967 375.631 775.16 374.684 775.16ZM391.6 765.24H393.84V775H391.7V773.7H391.66C390.94 774.673 389.907 775.16 388.56 775.16C387.187 775.16 386.054 774.7 385.16 773.78C384.28 772.86 383.84 771.653 383.84 770.16C383.84 768.693 384.287 767.487 385.18 766.54C386.074 765.58 387.194 765.1 388.54 765.1C389.82 765.1 390.827 765.54 391.56 766.42H391.6V765.24ZM388.92 773.12C389.694 773.12 390.347 772.847 390.88 772.3C391.427 771.753 391.7 771.047 391.7 770.18C391.7 769.313 391.434 768.587 390.9 768C390.38 767.413 389.72 767.12 388.92 767.12C388.12 767.12 387.454 767.4 386.92 767.96C386.387 768.52 386.12 769.26 386.12 770.18C386.12 771.047 386.38 771.753 386.9 772.3C387.42 772.847 388.094 773.12 388.92 773.12ZM402.207 765.1C403.327 765.1 404.2 765.44 404.827 766.12C405.467 766.8 405.787 767.847 405.787 769.26V775H403.547V769.84C403.547 768.853 403.367 768.153 403.007 767.74C402.66 767.327 402.134 767.12 401.427 767.12C400.654 767.12 400.04 767.38 399.587 767.9C399.134 768.42 398.907 769.153 398.907 770.1V775H396.667V765.24H398.907V766.6H398.927C399.767 765.6 400.86 765.1 402.207 765.1ZM415.783 760.28H418.003V775H415.863V773.7H415.823C415.076 774.673 414.023 775.16 412.663 775.16C411.289 775.16 410.156 774.7 409.263 773.78C408.369 772.86 407.923 771.653 407.923 770.16C407.923 768.693 408.369 767.487 409.263 766.54C410.169 765.58 411.296 765.1 412.643 765.1C413.949 765.1 414.983 765.54 415.743 766.42H415.783V760.28ZM410.983 772.3C411.516 772.847 412.189 773.12 413.003 773.12C413.816 773.12 414.496 772.847 415.043 772.3C415.589 771.753 415.863 771.047 415.863 770.18C415.863 769.3 415.596 768.573 415.063 768C414.529 767.413 413.849 767.12 413.023 767.12C412.223 767.12 411.549 767.4 411.003 767.96C410.469 768.52 410.203 769.26 410.203 770.18C410.203 771.047 410.463 771.753 410.983 772.3ZM435.776 775L434.696 771.94H428.896L427.836 775H425.316L430.616 760.8H432.976L438.296 775H435.776ZM429.636 769.86H433.976L431.816 763.7H431.776L429.636 769.86ZM447.404 760.28H449.624V775H447.484V773.7H447.444C446.697 774.673 445.644 775.16 444.284 775.16C442.91 775.16 441.777 774.7 440.884 773.78C439.99 772.86 439.544 771.653 439.544 770.16C439.544 768.693 439.99 767.487 440.884 766.54C441.79 765.58 442.917 765.1 444.264 765.1C445.57 765.1 446.604 765.54 447.364 766.42H447.404V760.28ZM442.604 772.3C443.137 772.847 443.81 773.12 444.624 773.12C445.437 773.12 446.117 772.847 446.664 772.3C447.21 771.753 447.484 771.047 447.484 770.18C447.484 769.3 447.217 768.573 446.684 768C446.15 767.413 445.47 767.12 444.644 767.12C443.844 767.12 443.17 767.4 442.624 767.96C442.09 768.52 441.824 769.26 441.824 770.18C441.824 771.047 442.084 771.753 442.604 772.3ZM458.966 765.24H461.366L457.506 775H455.366L451.486 765.24H453.866L456.426 772.2H456.446L458.966 765.24ZM467.164 775.16C465.644 775.16 464.411 774.687 463.464 773.74C462.517 772.793 462.044 771.593 462.044 770.14C462.044 768.687 462.517 767.487 463.464 766.54C464.411 765.58 465.644 765.1 467.164 765.1C468.671 765.1 469.897 765.567 470.844 766.5C471.804 767.433 472.284 768.647 472.284 770.14C472.284 771.62 471.804 772.827 470.844 773.76C469.897 774.693 468.671 775.16 467.164 775.16ZM467.164 773.12C467.964 773.12 468.637 772.84 469.184 772.28C469.731 771.72 470.004 771.007 470.004 770.14C470.004 769.247 469.731 768.52 469.184 767.96C468.651 767.4 467.977 767.12 467.164 767.12C466.324 767.12 465.637 767.407 465.104 767.98C464.584 768.553 464.324 769.273 464.324 770.14C464.324 770.98 464.591 771.687 465.124 772.26C465.657 772.833 466.337 773.12 467.164 773.12ZM479.016 775.16C477.563 775.16 476.37 774.693 475.436 773.76C474.503 772.827 474.036 771.62 474.036 770.14C474.036 768.647 474.51 767.433 475.456 766.5C476.403 765.567 477.616 765.1 479.096 765.1C479.883 765.1 480.643 765.26 481.376 765.58C482.11 765.887 482.716 766.333 483.196 766.92L481.676 768.24C481.036 767.493 480.216 767.12 479.216 767.12C478.35 767.12 477.65 767.4 477.116 767.96C476.583 768.507 476.316 769.227 476.316 770.12C476.316 771.013 476.583 771.74 477.116 772.3C477.65 772.847 478.35 773.12 479.216 773.12C480.23 773.12 481.056 772.773 481.696 772.08L483.236 773.44C482.796 773.947 482.203 774.36 481.456 774.68C480.723 775 479.91 775.16 479.016 775.16ZM492.421 765.24H494.661V775H492.521V773.7H492.481C491.761 774.673 490.727 775.16 489.381 775.16C488.007 775.16 486.874 774.7 485.981 773.78C485.101 772.86 484.661 771.653 484.661 770.16C484.661 768.693 485.107 767.487 486.001 766.54C486.894 765.58 488.014 765.1 489.361 765.1C490.641 765.1 491.647 765.54 492.381 766.42H492.421V765.24ZM489.741 773.12C490.514 773.12 491.167 772.847 491.701 772.3C492.247 771.753 492.521 771.047 492.521 770.18C492.521 769.313 492.254 768.587 491.721 768C491.201 767.413 490.541 767.12 489.741 767.12C488.941 767.12 488.274 767.4 487.741 767.96C487.207 768.52 486.941 769.26 486.941 770.18C486.941 771.047 487.201 771.753 487.721 772.3C488.241 772.847 488.914 773.12 489.741 773.12ZM501.887 775.16C500.434 775.16 499.241 774.693 498.307 773.76C497.374 772.827 496.907 771.62 496.907 770.14C496.907 768.647 497.381 767.433 498.327 766.5C499.274 765.567 500.487 765.1 501.967 765.1C502.754 765.1 503.514 765.26 504.247 765.58C504.981 765.887 505.587 766.333 506.067 766.92L504.547 768.24C503.907 767.493 503.087 767.12 502.087 767.12C501.221 767.12 500.521 767.4 499.987 767.96C499.454 768.507 499.187 769.227 499.187 770.12C499.187 771.013 499.454 771.74 499.987 772.3C500.521 772.847 501.221 773.12 502.087 773.12C503.101 773.12 503.927 772.773 504.567 772.08L506.107 773.44C505.667 773.947 505.074 774.36 504.327 774.68C503.594 775 502.781 775.16 501.887 775.16ZM514.632 765.24H516.972L511.612 778.96H509.252L511.012 774.44L507.052 765.24H509.412L512.112 771.84L514.632 765.24Z" fill="#28285E"/>
</svg>
