<svg width="114" height="120" viewBox="0 0 114 120" fill="none" xmlns="http://www.w3.org/2000/svg">
<g opacity="0.5">
<path d="M66.0171 7.00482C70.5078 9.12755 75.8684 7.20836 77.9903 2.71817C80.1123 -1.77202 78.1921 -7.13283 73.7014 -9.25556C69.2107 -11.3783 63.8501 -9.45912 61.7282 -4.96893C59.6062 -0.478741 61.5265 4.88208 66.0171 7.00482Z" fill="#E6E6E6" fill-opacity="0.5"/>
<path d="M29.9487 84.3531C34.4394 86.4758 39.8 84.5565 41.922 80.0663C44.0439 75.5761 42.1237 70.2153 37.6331 68.0926C33.1424 65.9699 27.7818 67.889 25.6598 72.3792C23.5378 76.8694 25.458 82.2303 29.9487 84.3531Z" fill="#E6E6E6" fill-opacity="0.5"/>
<path d="M38.195 13.9308C38.0117 14.1943 37.8285 14.4577 37.6453 14.7212C36.589 16.4583 34.6443 20.7304 37.705 24.9292C37.8184 25.0602 39.3318 26.7631 44.9606 25.3318C55.1756 22.7362 55.6775 28.14 65.0906 38.7663C65.0906 38.7663 68.8172 41.3939 68.8154 36.8277C68.8117 34.9415 66.0485 24.4327 64.7026 23.1584C70.1772 27.405 75.2888 37.853 78.7548 48.4009C78.7548 48.4009 79.4075 50.3982 81.3162 50.0723C81.762 49.913 82.1254 49.5983 82.4233 49.1751C83.3469 47.8418 84.4251 44.9881 84.0165 40.9104C83.6071 36.7934 82.4455 33.2357 80.5027 28.6109C77.6006 21.6892 71.508 13.519 63.9875 9.80569C51.4596 3.65866 42.5667 7.8671 38.195 13.9308ZM76.5532 28.3068C75.1861 25.7597 73.8039 23.2443 72.6109 21.0706C74.0235 23.1922 75.3485 25.6224 76.5532 28.3068Z" fill="#E6E6E6" fill-opacity="0.5"/>
<path d="M58.4329 -5.01455C61.8605 -12.6693 61.349 -22.8539 59.1907 -30.076C57.7466 -34.8932 56.3793 -38.3873 54.0778 -41.8369C51.8006 -45.2555 49.1572 -46.7812 47.5989 -47.2273C47.1007 -47.366 46.621 -47.3788 46.1767 -47.219C44.4848 -46.2664 45.2677 -44.2968 45.2677 -44.2968C49.2884 -33.9308 52.0108 -22.5814 50.4966 -15.8133C50.7225 -17.6557 46.1776 -27.5685 44.9741 -29.0161C42.0734 -32.5548 40.8755 -28.1515 40.8755 -28.1515C40.385 -13.9387 43.4491 -9.42584 33.9223 -4.95416C28.6808 -2.48682 28.5983 -0.206065 28.5944 -0.0324922C28.9159 5.18838 33.1352 7.2466 35.0363 7.91369C35.3373 8.01734 35.6457 8.105 35.9617 8.17677C43.1967 10.1437 52.7228 7.7381 58.4329 -5.01455ZM57.934 -19.1894C57.4706 -21.6314 56.9355 -24.4582 56.3688 -27.3C57.1244 -24.4466 57.6493 -21.7222 57.934 -19.1894Z" fill="#E6E6E6" fill-opacity="0.5"/>
<path d="M-31.0947 44.3525C-34.5223 52.0073 -34.0108 62.1917 -31.8525 69.4138C-30.4084 74.231 -29.0411 77.7252 -26.7396 81.1748C-24.4623 84.5934 -21.819 86.1191 -20.2607 86.5652C-19.7625 86.7039 -19.2828 86.7167 -18.8384 86.557C-17.1466 85.6043 -17.9295 83.6348 -17.9295 83.6348C-21.9502 73.2687 -24.6726 61.9194 -23.1584 55.1512C-23.3843 56.9936 -18.8394 66.9063 -17.6359 68.3539C-14.7351 71.8926 -13.5373 67.4893 -13.5373 67.4893C-13.0468 53.2765 -16.1109 48.7638 -6.58409 44.2921C-1.34256 41.8248 -1.26014 39.544 -1.25618 39.3704C-1.57769 34.1495 -5.79695 32.0913 -7.69806 31.4243C-7.99903 31.3206 -8.30753 31.2329 -8.6235 31.1612C-15.8502 29.2177 -25.3846 31.5998 -31.0947 44.3525ZM-30.5958 58.5274C-30.1323 60.9694 -29.5973 63.7961 -29.0306 66.6379C-29.7862 63.7846 -30.3185 61.0761 -30.5958 58.5274Z" fill="#E6E6E6" fill-opacity="0.5"/>
<path d="M38.195 13.9308C38.0117 14.1943 37.8285 14.4577 37.6453 14.7212C36.589 16.4583 34.6443 20.7304 37.705 24.9292C37.8184 25.0602 39.3318 26.7631 44.9606 25.3318C55.1756 22.7362 55.6775 28.14 65.0906 38.7663C65.0906 38.7663 68.8172 41.3939 68.8154 36.8277C68.8117 34.9415 66.0485 24.4327 64.7026 23.1584C70.1772 27.405 75.2888 37.853 78.7548 48.4009C78.7548 48.4009 79.4075 50.3982 81.3162 50.0723C81.762 49.913 82.1254 49.5983 82.4233 49.1751C83.3469 47.8418 84.4251 44.9881 84.0165 40.9104C83.6071 36.7934 82.4455 33.2357 80.5027 28.6109C77.6006 21.6892 71.508 13.519 63.9875 9.80569C51.4596 3.65866 42.5667 7.8671 38.195 13.9308ZM76.5532 28.3068C75.1861 25.7597 73.8039 23.2443 72.6109 21.0706C74.0235 23.1922 75.3485 25.6224 76.5532 28.3068Z" fill="#E6E6E6" fill-opacity="0.5"/>
<path d="M58.4329 -5.01455C61.8605 -12.6693 61.349 -22.8539 59.1907 -30.076C57.7466 -34.8932 56.3793 -38.3873 54.0778 -41.8369C51.8006 -45.2555 49.1572 -46.7812 47.5989 -47.2273C47.1007 -47.366 46.621 -47.3788 46.1767 -47.219C44.4848 -46.2664 45.2677 -44.2968 45.2677 -44.2968C49.2884 -33.9308 52.0108 -22.5814 50.4966 -15.8133C50.7225 -17.6557 46.1776 -27.5685 44.9741 -29.0161C42.0734 -32.5548 40.8755 -28.1515 40.8755 -28.1515C40.385 -13.9387 43.4491 -9.42584 33.9223 -4.95416C28.6808 -2.48682 28.5983 -0.206065 28.5944 -0.0324922C28.9159 5.18838 33.1352 7.2466 35.0363 7.91369C35.3373 8.01734 35.6457 8.105 35.9617 8.17677C43.1967 10.1437 52.7228 7.7381 58.4329 -5.01455ZM57.934 -19.1894C57.4706 -21.6314 56.9355 -24.4582 56.3688 -27.3C57.1244 -24.4466 57.6493 -21.7222 57.934 -19.1894Z" fill="#E6E6E6" fill-opacity="0.5"/>
<path d="M-31.0947 44.3525C-34.5223 52.0073 -34.0108 62.1917 -31.8525 69.4138C-30.4084 74.231 -29.0411 77.7252 -26.7396 81.1748C-24.4623 84.5934 -21.819 86.1191 -20.2607 86.5652C-19.7625 86.7039 -19.2828 86.7167 -18.8384 86.557C-17.1466 85.6043 -17.9295 83.6348 -17.9295 83.6348C-21.9502 73.2687 -24.6726 61.9194 -23.1584 55.1512C-23.3843 56.9936 -18.8394 66.9063 -17.6359 68.3539C-14.7351 71.8926 -13.5373 67.4893 -13.5373 67.4893C-13.0468 53.2765 -16.1109 48.7638 -6.58409 44.2921C-1.34256 41.8248 -1.26014 39.544 -1.25618 39.3704C-1.57769 34.1495 -5.79695 32.0913 -7.69806 31.4243C-7.99903 31.3206 -8.30753 31.2329 -8.6235 31.1612C-15.8502 29.2177 -25.3846 31.5998 -31.0947 44.3525ZM-30.5958 58.5274C-30.1323 60.9694 -29.5973 63.7961 -29.0306 66.6379C-29.7862 63.7846 -30.3185 61.0761 -30.5958 58.5274Z" fill="#E6E6E6" fill-opacity="0.5"/>
<path d="M19.4128 44.2164C19.1494 44.033 18.8859 43.8496 18.6225 43.6663C16.8855 42.6091 12.6137 40.6625 8.41498 43.7216C8.28392 43.8349 6.58103 45.3477 8.01197 50.9774C10.6068 61.1941 5.20325 61.6936 -5.42301 71.1026C-5.42301 71.1026 -8.05068 74.8283 -3.48464 74.8284C-1.59857 74.8256 8.90971 72.0667 10.1841 70.7213C5.93738 76.1944 -4.51038 81.3018 -15.0579 84.7634C-15.0579 84.7634 -17.0552 85.4153 -16.7294 87.3241C-16.5701 87.77 -16.2554 88.1337 -15.8322 88.4317C-14.499 89.356 -11.6456 90.4354 -7.5681 90.0286C-3.45132 89.6209 0.106359 88.4608 4.73099 86.5199C11.6525 83.6206 19.8227 77.5313 23.5362 70.012C29.6837 57.4861 25.4759 48.591 19.4128 44.2164ZM5.03524 82.5703C7.5823 81.2043 10.0976 79.8232 12.2713 78.6311C10.1338 80.0353 7.71117 81.3433 5.03524 82.5703Z" fill="#E6E6E6" fill-opacity="0.5"/>
<path d="M38.3577 64.445C46.0136 67.8723 56.1973 67.3602 63.418 65.2014C68.2344 63.7569 71.7278 62.3894 75.1762 60.0876C78.5936 57.81 80.1182 55.1664 80.5636 53.608C80.702 53.1098 80.7147 52.6301 80.5547 52.1857C79.6014 50.4938 77.6322 51.2769 77.6322 51.2769C67.2684 55.2984 55.9209 58.0216 49.1525 56.5077C50.9949 56.7335 60.9051 52.1878 62.3521 50.9842C65.8893 48.083 61.4858 46.8853 61.4858 46.8853C47.2735 46.3956 42.7623 49.4602 38.2867 39.9332C35.8172 34.6915 33.5366 34.6093 33.363 34.6053C28.1425 34.9271 26.0863 39.1467 25.42 41.048C25.3165 41.349 25.229 41.6574 25.1573 41.9734C23.2011 49.1931 25.5873 58.7279 38.3577 64.445ZM52.5156 63.9378C54.9573 63.4741 57.7837 62.939 60.6252 62.3721C57.7882 63.1354 55.0641 63.6603 52.5156 63.9378Z" fill="#E6E6E6" fill-opacity="0.5"/>
<path d="M7.92348 -4.86098C8.18694 -4.67763 8.45044 -4.49433 8.7139 -4.31099C10.4509 -3.25383 14.7226 -1.30714 18.9214 -4.36619C19.0524 -4.47952 20.7553 -5.99229 19.3243 -11.622C16.7295 -21.8387 22.1331 -22.3383 32.7594 -31.7473C32.7594 -31.7473 35.3871 -35.473 30.821 -35.4731C28.935 -35.4703 18.4266 -32.7114 17.1522 -31.366C21.399 -36.8391 31.8467 -41.9464 42.3942 -45.408C42.3942 -45.408 44.3915 -46.06 44.0658 -47.9688C43.9065 -48.4147 43.5918 -48.7783 43.1685 -49.0763C41.8354 -50.0006 38.9819 -51.08 34.9044 -50.6732C30.7876 -50.2656 27.23 -49.1055 22.6054 -47.1646C15.6839 -44.2653 7.5137 -38.176 3.80017 -30.6567C-2.33978 -18.1468 1.87626 -9.22808 7.92348 -4.86098ZM22.3011 -43.215C19.754 -41.8489 17.2387 -40.4678 15.065 -39.2757C17.2025 -40.6799 19.6326 -42.0039 22.3011 -43.215Z" fill="#E6E6E6" fill-opacity="0.5"/>
<path d="M-11.0176 -25.1063C-18.6734 -28.5336 -28.8572 -28.0215 -36.0779 -25.8627C-40.8943 -24.4182 -44.3877 -23.0507 -47.8361 -20.7488C-51.2535 -18.4713 -52.778 -15.8276 -53.2234 -14.2693C-53.3619 -13.7711 -53.3746 -13.2914 -53.2146 -12.847C-52.2613 -11.1551 -50.2921 -11.9382 -50.2921 -11.9382C-39.9283 -15.9597 -28.5808 -18.6829 -21.8123 -17.1691C-23.6547 -17.3948 -33.565 -12.8491 -35.012 -11.6454C-38.5492 -8.74431 -34.1456 -7.54667 -34.1456 -7.54667C-19.9334 -7.05701 -15.4221 -10.1215 -10.9466 -0.594458C-8.4771 4.6472 -6.19641 4.72947 -6.02285 4.73342C-0.802376 4.41159 1.25386 0.19198 1.92009 -1.70927C2.02361 -2.01026 2.11118 -2.31871 2.18281 -2.6347C4.139 -9.85436 1.7453 -19.3732 -11.0176 -25.1063ZM-25.1755 -24.5991C-27.6172 -24.1355 -30.4436 -23.6003 -33.2851 -23.0333C-30.4321 -23.7892 -27.7239 -24.3217 -25.1755 -24.5991Z" fill="#E6E6E6" fill-opacity="0.5"/>
<path d="M24.9001 13.0042L15.0658 33.8589C14.6601 34.7192 13.6242 35.1041 12.7521 34.6889L3.93541 30.4915C3.07911 30.0839 2.69616 29.0431 3.10937 28.1668L12.9437 7.3121C13.3494 6.45178 14.3852 6.06702 15.2574 6.48222L24.074 10.6796C24.9303 11.0872 25.3058 12.1439 24.9001 13.0042Z" fill="#E6E6E6" fill-opacity="0.5"/>
<path d="M21.6007 31.4779L0.741919 21.6494C-0.118564 21.2439 -0.503884 20.208 -0.0891758 19.3353L4.10314 10.5136C4.51031 9.65684 5.55075 9.27325 6.42717 9.68621L27.2859 19.5148C28.1464 19.9202 28.5317 20.9562 28.117 21.8288L23.9247 30.6505C23.4941 31.5157 22.4612 31.8834 21.6007 31.4779Z" fill="#E6E6E6" fill-opacity="0.5"/>
</g>
</svg>
