<svg width="180" height="25" viewBox="0 0 180 25" fill="none" xmlns="http://www.w3.org/2000/svg">
<g clip-path="url(#clip0_110_9292)">
<path d="M11.5963 22.9738C6.26384 22.874 4.44254 22.7842 3.32306 22.5496C2.56566 22.3938 1.90748 22.0478 1.42488 21.5459C1.05189 21.1661 0.755268 20.5866 0.525138 19.7826C0.327735 19.1127 0.250852 18.5554 0.141241 17.194C-0.0265509 14.1216 -0.0665509 11.6097 0.141241 8.80298C0.31267 7.25303 0.395787 5.41306 1.53449 4.33962C2.07215 3.83723 2.69761 3.51393 3.39994 3.38028C4.49709 3.16844 9.17137 3.00098 14.0103 3.00098C18.8384 3.00098 23.5231 3.16844 24.6212 3.38028C25.4986 3.54774 26.3215 4.04959 26.8046 4.69673C27.8436 6.35867 27.8618 8.42526 27.9672 10.0418C28.0109 10.812 28.0109 15.1855 27.9672 15.9558C27.8031 18.5105 27.6711 19.4144 27.2981 20.3515C27.0675 20.9432 26.8706 21.2554 26.5298 21.6014C25.9954 22.1339 25.314 22.4881 24.5766 22.6167C19.962 22.9696 16.0436 23.0462 11.5963 22.9738ZM18.6628 12.7085C16.0955 11.3133 13.6373 10.0196 11.1246 8.68042V16.6922C13.7688 15.2305 16.5563 13.8913 18.6737 12.6974L18.6628 12.7085Z" fill="#00B1B9"/>
</g>
<path d="M80 5.3083C79.0972 5.70205 78.1424 5.96374 77.165 6.0853C78.195 5.47424 78.9651 4.50665 79.3295 3.3658C78.365 3.93781 77.3098 4.34061 76.2095 4.5568C75.5349 3.83647 74.6592 3.33568 73.6962 3.11949C72.7333 2.90331 71.7276 2.98172 70.8098 3.34454C69.892 3.70736 69.1045 4.33782 68.5496 5.15401C67.9948 5.97019 67.6982 6.93438 67.6985 7.9213C67.6985 8.3113 67.7315 8.6863 67.8125 9.0433C65.8551 8.94733 63.94 8.43932 62.1925 7.55248C60.4449 6.66563 58.9041 5.41993 57.671 3.8968C57.0392 4.97959 56.8439 6.26246 57.1248 7.48421C57.4057 8.70595 58.1418 9.77469 59.183 10.4728C58.4041 10.4519 57.6417 10.2441 56.96 9.8668V9.9208C56.9613 11.0569 57.354 12.158 58.072 13.0385C58.79 13.919 59.7894 14.5253 60.902 14.7553C60.4811 14.8662 60.0473 14.9207 59.612 14.9173C59.2994 14.9229 58.9871 14.8947 58.6805 14.8333C58.9984 15.8098 59.6112 16.6638 60.4346 17.2776C61.2579 17.8915 62.2513 18.2349 63.278 18.2608C61.5364 19.6229 59.3885 20.3617 57.1775 20.3593C56.774 20.3593 56.387 20.3413 56 20.2918C58.2498 21.7416 60.8715 22.5085 63.548 22.4998C72.602 22.4998 77.552 14.9998 77.552 8.4988C77.552 8.2813 77.5445 8.0713 77.534 7.8628C78.5044 7.16828 79.3401 6.30262 80 5.3083Z" fill="#00B1B9"/>
<path d="M128.471 3.00014H111.531C111.34 2.9975 111.151 3.03239 110.974 3.10282C110.797 3.17326 110.636 3.27786 110.499 3.41065C110.363 3.54344 110.254 3.70182 110.179 3.87675C110.103 4.05167 110.063 4.23972 110.061 4.43014V21.5701C110.063 21.7606 110.103 21.9486 110.179 22.1235C110.254 22.2985 110.363 22.4568 110.499 22.5896C110.636 22.7224 110.797 22.827 110.974 22.8975C111.151 22.9679 111.34 23.0028 111.531 23.0001H128.471C128.661 23.0028 128.85 22.9679 129.027 22.8975C129.204 22.827 129.365 22.7224 129.502 22.5896C129.638 22.4568 129.747 22.2985 129.823 22.1235C129.898 21.9486 129.938 21.7606 129.941 21.5701V4.43014C129.938 4.23972 129.898 4.05167 129.823 3.87675C129.747 3.70182 129.638 3.54344 129.502 3.41065C129.365 3.27786 129.204 3.17326 129.027 3.10282C128.85 3.03239 128.661 2.9975 128.471 3.00014ZM116.091 19.7401H113.091V10.7401H116.091V19.7401ZM114.591 9.48014C114.177 9.48014 113.78 9.31578 113.487 9.02323C113.195 8.73067 113.031 8.33388 113.031 7.92014C113.031 7.5064 113.195 7.10961 113.487 6.81705C113.78 6.5245 114.177 6.36014 114.591 6.36014C114.81 6.33522 115.033 6.35699 115.243 6.42402C115.454 6.49105 115.648 6.60183 115.813 6.7491C115.978 6.89637 116.11 7.07682 116.2 7.27862C116.291 7.48043 116.337 7.69904 116.337 7.92014C116.337 8.14124 116.291 8.35985 116.2 8.56166C116.11 8.76346 115.978 8.94391 115.813 9.09118C115.648 9.23845 115.454 9.34923 115.243 9.41626C115.033 9.48329 114.81 9.50505 114.591 9.48014ZM126.911 19.7401H123.911V14.9101C123.911 13.7001 123.481 12.9101 122.391 12.9101C122.053 12.9126 121.725 13.0184 121.449 13.2133C121.174 13.4082 120.965 13.6828 120.851 14.0001C120.772 14.2352 120.738 14.4827 120.751 14.7301V19.7301H117.751C117.751 19.7301 117.751 11.5501 117.751 10.7301H120.751V12.0001C121.023 11.5272 121.419 11.1377 121.897 10.8733C122.375 10.609 122.915 10.48 123.461 10.5001C125.461 10.5001 126.911 11.7901 126.911 14.5601V19.7401Z" fill="#00B1B9"/>
<g clip-path="url(#clip1_110_9292)">
<path d="M180 13C180 7.47715 175.523 3 170 3C164.477 3 160 7.47715 160 13C160 17.9913 163.657 22.1283 168.438 22.8785V15.8906H165.898V13H168.438V10.7969C168.438 8.29062 169.93 6.90625 172.215 6.90625C173.309 6.90625 174.453 7.10156 174.453 7.10156V9.5625H173.192C171.95 9.5625 171.562 10.3333 171.562 11.1242V13H174.336L173.893 15.8906H171.562V22.8785C176.343 22.1283 180 17.9913 180 13Z" fill="#00B1B9"/>
</g>
<defs>
<clipPath id="clip0_110_9292">
<rect width="28" height="20" fill="white" transform="translate(0 3)"/>
</clipPath>
<clipPath id="clip1_110_9292">
<rect width="20" height="20" fill="white" transform="translate(160 3)"/>
</clipPath>
</defs>
</svg>
