<svg width="15" height="15" viewBox="0 0 28 28" fill="none" xmlns="http://www.w3.org/2000/svg">
<circle cx="14" cy="14" r="14" fill="#E8E5FF"/>
<path d="M11.8555 16.7562L19.2711 9.34062C19.4461 9.16562 19.654 9.07812 19.8946 9.07812C20.1352 9.07812 20.343 9.16562 20.518 9.34062C20.693 9.51562 20.7805 9.72344 20.7805 9.96406C20.7805 10.2047 20.693 10.4125 20.518 10.5875L12.468 18.6375C12.293 18.8125 12.0888 18.9 11.8555 18.9C11.6222 18.9 11.418 18.8125 11.243 18.6375L7.48052 14.875C7.30552 14.7 7.22166 14.4922 7.22895 14.2516C7.23624 14.0109 7.32739 13.8031 7.50239 13.6281C7.67739 13.4531 7.8852 13.3656 8.12583 13.3656C8.36645 13.3656 8.57427 13.4531 8.74927 13.6281L11.8555 16.7562Z" fill="#28285E"/>
</svg>
