<svg width="101" height="111" viewBox="0 0 101 111" fill="none" xmlns="http://www.w3.org/2000/svg">
<g opacity="0.5">
<path d="M39.5952 129.282C44.0859 131.405 49.4465 129.486 51.5685 124.996C53.6904 120.505 51.7702 115.145 47.2795 113.022C42.7888 110.899 37.4283 112.818 35.3063 117.308C33.1843 121.799 35.1045 127.16 39.5952 129.282Z" fill="#E6E6E6" fill-opacity="0.5"/>
<path d="M75.6636 51.9345C80.1543 54.0572 85.5148 52.138 87.6368 47.6479C89.7588 43.1577 87.8385 37.7969 83.3479 35.6741C78.8572 33.5514 73.4966 35.4706 71.3747 39.9608C69.2527 44.4509 71.1729 49.8118 75.6636 51.9345Z" fill="#E6E6E6" fill-opacity="0.5"/>
<path d="M76.1438 106.407C76.327 106.144 76.5102 105.88 76.6934 105.617C77.7498 103.88 79.6945 99.6074 76.6338 95.4086C76.5204 95.2776 75.0069 93.5748 69.3781 95.0061C59.1631 97.6017 58.6612 92.1978 49.2481 81.5716C49.2481 81.5716 45.5215 78.944 45.5233 83.5103C45.527 85.3964 48.2902 95.9051 49.6362 97.1795C44.1615 92.9328 39.0499 82.4849 35.5839 71.937C35.5839 71.937 34.9312 69.9397 33.0225 70.2656C32.5767 70.425 32.2133 70.7396 31.9155 71.1629C30.9918 72.4962 29.9136 75.3499 30.3222 79.4276C30.7316 83.5445 31.8932 87.1022 33.836 91.727C36.7381 98.6487 42.8307 106.819 50.3512 110.532C62.8716 116.695 71.772 112.471 76.1438 106.407ZM37.778 92.047C39.1451 94.5941 40.5273 97.1094 41.7203 99.2832C40.3152 97.1456 39.0061 94.723 37.778 92.047Z" fill="#E6E6E6" fill-opacity="0.5"/>
<path d="M55.9053 125.352C52.4777 133.007 52.9892 143.192 55.1475 150.414C56.5916 155.231 57.9589 158.725 60.2604 162.175C62.5377 165.593 65.181 167.119 66.7393 167.565C67.2375 167.704 67.7172 167.717 68.1616 167.557C69.8534 166.604 69.0705 164.635 69.0705 164.635C65.0498 154.269 62.3274 142.919 63.8416 136.151C63.6157 137.994 68.1606 147.906 69.3641 149.354C72.2649 152.893 73.4627 148.489 73.4627 148.489C73.9532 134.277 70.8891 129.764 80.4159 125.292C85.6574 122.825 85.7399 120.544 85.7438 120.37C85.4223 115.15 81.2031 113.091 79.3019 112.424C79.001 112.321 78.6925 112.233 78.3765 112.161C71.1498 110.218 61.6154 112.6 55.9053 125.352ZM56.4042 139.527C56.8677 141.969 57.4027 144.796 57.9694 147.638C57.2138 144.785 56.6815 142.076 56.4042 139.527Z" fill="#E6E6E6" fill-opacity="0.5"/>
<path d="M76.1438 106.407C76.327 106.144 76.5102 105.88 76.6934 105.617C77.7498 103.88 79.6945 99.6074 76.6338 95.4086C76.5204 95.2776 75.0069 93.5748 69.3781 95.0061C59.1631 97.6017 58.6612 92.1978 49.2481 81.5716C49.2481 81.5716 45.5215 78.944 45.5233 83.5103C45.527 85.3964 48.2902 95.9051 49.6362 97.1795C44.1615 92.9328 39.0499 82.4849 35.5839 71.937C35.5839 71.937 34.9312 69.9397 33.0225 70.2656C32.5767 70.425 32.2133 70.7396 31.9155 71.1629C30.9918 72.4962 29.9136 75.3499 30.3222 79.4276C30.7316 83.5445 31.8932 87.1022 33.836 91.727C36.7381 98.6487 42.8307 106.819 50.3512 110.532C62.8716 116.695 71.772 112.471 76.1438 106.407ZM37.778 92.047C39.1451 94.5941 40.5273 97.1094 41.7203 99.2832C40.3152 97.1456 39.0061 94.723 37.778 92.047Z" fill="#E6E6E6" fill-opacity="0.5"/>
<path d="M55.9053 125.352C52.4777 133.007 52.9892 143.192 55.1475 150.414C56.5916 155.231 57.9589 158.725 60.2604 162.175C62.5377 165.593 65.181 167.119 66.7393 167.565C67.2375 167.704 67.7172 167.717 68.1616 167.557C69.8534 166.604 69.0705 164.635 69.0705 164.635C65.0498 154.269 62.3274 142.919 63.8416 136.151C63.6157 137.994 68.1606 147.906 69.3641 149.354C72.2649 152.893 73.4627 148.489 73.4627 148.489C73.9532 134.277 70.8891 129.764 80.4159 125.292C85.6574 122.825 85.7399 120.544 85.7438 120.37C85.4223 115.15 81.2031 113.091 79.3019 112.424C79.001 112.321 78.6925 112.233 78.3765 112.161C71.1498 110.218 61.6154 112.6 55.9053 125.352ZM56.4042 139.527C56.8677 141.969 57.4027 144.796 57.9694 147.638C57.2138 144.785 56.6815 142.076 56.4042 139.527Z" fill="#E6E6E6" fill-opacity="0.5"/>
<path d="M94.9235 76.139C95.1869 76.3224 95.4504 76.5057 95.7139 76.689C97.4509 77.7462 101.723 79.6929 105.921 76.6338C106.052 76.5205 107.755 75.0077 106.324 69.378C103.73 59.1613 109.133 58.6617 119.759 49.2527C119.759 49.2527 122.387 45.527 117.821 45.5269C115.935 45.5297 105.427 48.2886 104.152 49.634C108.399 44.1609 118.847 39.0536 129.394 35.592C129.394 35.592 131.392 34.94 131.066 33.0312C130.906 32.5853 130.592 32.2217 130.169 31.9237C128.835 30.9994 125.982 29.92 121.904 30.3268C117.788 30.7344 114.23 31.8945 109.605 33.8354C102.684 36.7347 94.5137 42.824 90.8002 50.3433C84.6602 62.8532 88.8763 71.7719 94.9235 76.139ZM109.301 37.785C106.754 39.1511 104.239 40.5322 102.065 41.7243C104.203 40.3201 106.633 38.9961 109.301 37.785Z" fill="#E6E6E6" fill-opacity="0.5"/>
<path d="M75.9824 55.8937C68.3266 52.4664 58.1428 52.9785 50.9221 55.1373C46.1057 56.5818 42.6123 57.9493 39.1639 60.2512C35.7465 62.5287 34.222 65.1724 33.7766 66.7307C33.6381 67.2289 33.6254 67.7086 33.7854 68.153C34.7387 69.8449 36.7079 69.0618 36.7079 69.0618C47.0717 65.0403 58.4192 62.3171 65.1877 63.8309C63.3453 63.6052 53.435 68.1509 51.988 69.3546C48.4508 72.2557 52.8544 73.4533 52.8544 73.4533C67.0666 73.943 71.5779 70.8785 76.0534 80.4055C78.5229 85.6472 80.8036 85.7295 80.9772 85.7334C86.1976 85.4116 88.2539 81.192 88.9201 79.2907C89.0236 78.9897 89.1112 78.6813 89.1828 78.3653C91.139 71.1456 88.7453 61.6268 75.9824 55.8937ZM61.8245 56.4009C59.3828 56.8645 56.5564 57.3997 53.7149 57.9667C56.5679 57.2108 59.2761 56.6783 61.8245 56.4009Z" fill="#E6E6E6" fill-opacity="0.5"/>
<path d="M111.9 94.0042L102.066 114.859C101.66 115.719 100.624 116.104 99.7521 115.689L90.9354 111.492C90.0791 111.084 89.6962 110.043 90.1094 109.167L99.9437 88.3121C100.349 87.4518 101.385 87.067 102.257 87.4822L111.074 91.6796C111.93 92.0872 112.306 93.1439 111.9 94.0042Z" fill="#E6E6E6" fill-opacity="0.5"/>
<path d="M108.601 112.478L87.7419 102.649C86.8814 102.244 86.4961 101.208 86.9108 100.335L91.1031 91.5136C91.5103 90.6568 92.5508 90.2732 93.4272 90.6862L114.286 100.515C115.146 100.92 115.532 101.956 115.117 102.829L110.925 111.651C110.494 112.516 109.461 112.883 108.601 112.478Z" fill="#E6E6E6" fill-opacity="0.5"/>
</g>
</svg>
