<svg width="137" height="137" viewBox="0 0 137 137" fill="none" xmlns="http://www.w3.org/2000/svg">
<path d="M136.74 55.48C112.92 55.48 92.61 40.46 84.75 19.38C82.31 30.02 77.91 39.92 71.95 48.67C86.73 68.33 110.25 81.04 136.74 81.04V55.48Z" fill="#008DFF"/>
<path d="M55.71 -0.0100021V0.00999832C55.71 23.83 40.69 44.14 19.61 52C30.25 54.44 40.15 58.84 48.9 64.8C68.55 50.01 81.26 26.5 81.26 0.00999832V-0.0100021H55.7H55.71Z" fill="#7F58FF"/>
<path d="M0.23999 81.04C24.06 81.04 44.37 96.06 52.23 117.14C54.67 106.5 59.07 96.6 65.03 87.85C50.24 68.2 26.73 55.49 0.23999 55.49V81.05V81.04Z" fill="#B74AFF"/>
<path d="M55.71 136.51H81.27C81.27 112.69 96.29 92.38 117.37 84.52C106.73 82.08 96.83 77.68 88.08 71.72C68.43 86.51 55.72 110.02 55.72 136.5L55.71 136.51Z" fill="#00BEFF"/>
<path d="M122.71 136.51C130.459 136.51 136.74 130.229 136.74 122.48C136.74 114.731 130.459 108.45 122.71 108.45C114.961 108.45 108.68 114.731 108.68 122.48C108.68 130.229 114.961 136.51 122.71 136.51Z" fill="#00BEFF"/>
<path d="M122.71 28.05C130.459 28.05 136.74 21.7686 136.74 14.02C136.74 6.27144 130.459 -0.0100021 122.71 -0.0100021C114.961 -0.0100021 108.68 6.27144 108.68 14.02C108.68 21.7686 114.961 28.05 122.71 28.05Z" fill="#008DFF"/>
<path d="M14.26 136.51C22.0086 136.51 28.29 130.229 28.29 122.48C28.29 114.731 22.0086 108.45 14.26 108.45C6.51144 108.45 0.229996 114.731 0.229996 122.48C0.229996 130.229 6.51144 136.51 14.26 136.51Z" fill="#B74AFF"/>
<path d="M14.26 28.05C22.0086 28.05 28.29 21.7686 28.29 14.02C28.29 6.27144 22.0086 -0.0100021 14.26 -0.0100021C6.51144 -0.0100021 0.229996 6.27144 0.229996 14.02C0.229996 21.7686 6.51144 28.05 14.26 28.05Z" fill="#7F58FF"/>
</svg>
