<svg width="156" height="83" viewBox="0 0 156 83" fill="none" xmlns="http://www.w3.org/2000/svg">
<path d="M64.8238 22.9189C67.5774 22.9189 69.8096 20.6867 69.8096 17.9331C69.8096 15.1795 67.5774 12.9473 64.8238 12.9473C62.0701 12.9473 59.8379 15.1795 59.8379 17.9331C59.8379 20.6867 62.0701 22.9189 64.8238 22.9189Z" fill="#28285E"/>
<path d="M17.5913 70.1407C20.3449 70.1407 22.5772 67.9084 22.5772 65.1548C22.5772 62.4012 20.3449 60.1689 17.5913 60.1689C14.8377 60.1689 12.6055 62.4012 12.6055 65.1548C12.6055 67.9084 14.8377 70.1407 17.5913 70.1407Z" fill="#28285E"/>
<path d="M64.8238 70.1407C67.5774 70.1407 69.8096 67.9084 69.8096 65.1548C69.8096 62.4012 67.5774 60.1689 64.8238 60.1689C62.0701 60.1689 59.8379 62.4012 59.8379 65.1548C59.8379 67.9084 62.0701 70.1407 64.8238 70.1407Z" fill="#28285E"/>
<path d="M17.5913 22.9189C20.3449 22.9189 22.5772 20.6867 22.5772 17.9331C22.5772 15.1795 20.3449 12.9473 17.5913 12.9473C14.8377 12.9473 12.6055 15.1795 12.6055 17.9331C12.6055 20.6867 14.8377 22.9189 17.5913 22.9189Z" fill="#28285E"/>
<path d="M52.4526 32.9409C52.4234 33.1166 52.3941 33.2922 52.3648 33.4678C52.2477 34.5898 52.2867 37.195 54.8138 38.5805C54.9016 38.6195 56.0627 39.1171 58.541 37.0681C63.039 33.3507 64.5709 35.9461 71.8008 39.0586C71.8008 39.0586 74.2889 39.4977 73.2059 37.2048C72.757 36.2583 68.8835 31.6334 67.9078 31.3115C71.6545 32.1506 76.6891 36.19 80.9237 40.6685C80.9237 40.6685 81.7238 41.5173 82.6019 40.9027C82.7873 40.7173 82.8946 40.4734 82.9434 40.1904C83.0898 39.3025 82.9532 37.6145 81.7823 35.6631C80.6017 33.6922 79.1772 32.1799 77.1087 30.3163C74.0157 27.5258 69.0298 24.8621 64.3855 24.7743C56.6579 24.6474 53.2039 28.8625 52.4526 32.9409ZM75.0597 31.0968C73.7718 30.1406 72.4838 29.2039 71.3715 28.3941C72.5814 29.1259 73.8206 30.0333 75.0597 31.0968Z" fill="#28285E"/>
<path d="M58.2193 18.6058C58.1315 13.9614 55.4678 8.98531 52.6772 5.88256C50.8136 3.81407 49.3013 2.38956 47.3304 1.20896C45.379 0.0381105 43.691 -0.0984906 42.8031 0.0478652C42.5202 0.0966504 42.2762 0.204014 42.0909 0.389398C41.4664 1.26753 42.325 2.06758 42.325 2.06758C46.7937 6.30214 50.8429 11.3368 51.682 15.0835C51.36 14.1078 46.7352 10.2245 45.7888 9.78538C43.4959 8.70235 43.9349 11.1904 43.9349 11.1904C47.0474 18.4204 49.6526 19.9523 45.9254 24.4503C43.8764 26.9286 44.374 28.0896 44.413 28.1775C45.8083 30.7143 48.4134 30.7436 49.5257 30.6265C49.7014 30.607 49.877 30.5777 50.0526 30.5387C54.1505 29.8069 58.3656 26.3431 58.2193 18.6058ZM54.6189 11.6295C53.8091 10.5172 52.8724 9.22928 51.9162 7.94135C52.9699 9.19025 53.8774 10.4294 54.6189 11.6295Z" fill="#28285E"/>
<path d="M30.5562 50.0621C30.5855 49.8864 30.6148 49.7108 30.644 49.5352C30.7611 48.4131 30.7221 45.808 28.195 44.4225C28.1072 44.3834 26.9461 43.8859 24.4678 45.9349C19.9698 49.6523 18.438 47.0569 11.208 43.9444C11.208 43.9444 8.71995 43.5053 9.80298 45.7982C10.2518 46.7447 14.1253 51.3695 15.1011 51.6915C11.3543 50.8524 6.31971 46.813 2.08515 42.3345C2.08515 42.3345 1.28507 41.4856 0.406933 42.1003C0.221549 42.2857 0.11423 42.5296 0.0654449 42.8126C-0.0809109 43.7005 0.0556753 45.3885 1.22652 47.3399C2.40712 49.3108 3.83166 50.8231 5.90016 52.6867C8.99314 55.4772 13.979 58.1409 18.6233 58.2287C26.3509 58.3653 29.8049 54.1405 30.5562 50.0621ZM7.94913 51.9159C9.23706 52.8721 10.525 53.8088 11.6373 54.6186C10.4274 53.8771 9.19803 52.9697 7.94913 51.9159Z" fill="#28285E"/>
<path d="M24.7908 64.394C24.8786 69.0384 27.5423 74.0144 30.3328 77.1172C32.1964 79.1857 33.7088 80.6102 35.6797 81.7908C37.6311 82.9617 39.319 83.0983 40.2069 82.9519C40.4899 82.9032 40.7338 82.7958 40.9192 82.6104C41.5437 81.7323 40.6851 80.9322 40.6851 80.9322C36.2163 76.6977 32.1671 71.663 31.328 67.9163C31.65 68.892 36.2748 72.7753 37.2213 73.2144C39.5142 74.2974 39.0751 71.8093 39.0751 71.8093C35.9626 64.5794 33.3575 63.0475 37.0847 58.5495C39.1337 56.0713 38.6361 54.9102 38.597 54.8223C37.2018 52.2855 34.5966 52.2562 33.4843 52.3733C33.3087 52.3928 33.1331 52.4221 32.9575 52.4612C28.8692 53.2027 24.6445 56.6567 24.7908 64.394ZM28.3912 71.3703C29.201 72.4826 30.1377 73.7705 31.0939 75.0585C30.0401 73.8096 29.1327 72.5802 28.3912 71.3703Z" fill="#28285E"/>
<path d="M52.4526 32.9409C52.4234 33.1166 52.3941 33.2922 52.3648 33.4678C52.2477 34.5898 52.2867 37.195 54.8138 38.5805C54.9016 38.6195 56.0627 39.1171 58.541 37.0681C63.039 33.3507 64.5709 35.9461 71.8008 39.0586C71.8008 39.0586 74.2889 39.4977 73.2059 37.2048C72.757 36.2583 68.8835 31.6334 67.9078 31.3115C71.6545 32.1506 76.6891 36.19 80.9237 40.6685C80.9237 40.6685 81.7238 41.5173 82.6019 40.9027C82.7873 40.7173 82.8946 40.4734 82.9434 40.1904C83.0898 39.3025 82.9532 37.6145 81.7823 35.6631C80.6017 33.6922 79.1772 32.1799 77.1087 30.3163C74.0157 27.5258 69.0298 24.8621 64.3855 24.7743C56.6579 24.6474 53.2039 28.8625 52.4526 32.9409ZM75.0597 31.0968C73.7718 30.1406 72.4838 29.2039 71.3715 28.3941C72.5814 29.1259 73.8206 30.0333 75.0597 31.0968Z" fill="#28285E"/>
<path d="M58.2193 18.6058C58.1315 13.9614 55.4678 8.98531 52.6772 5.88256C50.8136 3.81407 49.3013 2.38956 47.3304 1.20896C45.379 0.0381105 43.691 -0.0984906 42.8031 0.0478652C42.5202 0.0966504 42.2762 0.204014 42.0909 0.389398C41.4664 1.26753 42.325 2.06758 42.325 2.06758C46.7937 6.30214 50.8429 11.3368 51.682 15.0835C51.36 14.1078 46.7352 10.2245 45.7888 9.78538C43.4959 8.70235 43.9349 11.1904 43.9349 11.1904C47.0474 18.4204 49.6526 19.9523 45.9254 24.4503C43.8764 26.9286 44.374 28.0896 44.413 28.1775C45.8083 30.7143 48.4134 30.7436 49.5257 30.6265C49.7014 30.607 49.877 30.5777 50.0526 30.5387C54.1505 29.8069 58.3656 26.3431 58.2193 18.6058ZM54.6189 11.6295C53.8091 10.5172 52.8724 9.22928 51.9162 7.94135C52.9699 9.19025 53.8774 10.4294 54.6189 11.6295Z" fill="#28285E"/>
<path d="M30.5562 50.0621C30.5855 49.8864 30.6148 49.7108 30.644 49.5352C30.7611 48.4131 30.7221 45.808 28.195 44.4225C28.1072 44.3834 26.9461 43.8859 24.4678 45.9349C19.9698 49.6523 18.438 47.0569 11.208 43.9444C11.208 43.9444 8.71995 43.5053 9.80298 45.7982C10.2518 46.7447 14.1253 51.3695 15.1011 51.6915C11.3543 50.8524 6.31971 46.813 2.08515 42.3345C2.08515 42.3345 1.28507 41.4856 0.406933 42.1003C0.221549 42.2857 0.11423 42.5296 0.0654449 42.8126C-0.0809109 43.7005 0.0556753 45.3885 1.22652 47.3399C2.40712 49.3108 3.83166 50.8231 5.90016 52.6867C8.99314 55.4772 13.979 58.1409 18.6233 58.2287C26.3509 58.3653 29.8049 54.1405 30.5562 50.0621ZM7.94913 51.9159C9.23706 52.8721 10.525 53.8088 11.6373 54.6186C10.4274 53.8771 9.19803 52.9697 7.94913 51.9159Z" fill="#28285E"/>
<path d="M24.7908 64.394C24.8786 69.0384 27.5423 74.0144 30.3328 77.1172C32.1964 79.1857 33.7088 80.6102 35.6797 81.7908C37.6311 82.9617 39.319 83.0983 40.2069 82.9519C40.4899 82.9032 40.7338 82.7958 40.9192 82.6104C41.5437 81.7323 40.6851 80.9322 40.6851 80.9322C36.2163 76.6977 32.1671 71.663 31.328 67.9163C31.65 68.892 36.2748 72.7753 37.2213 73.2144C39.5142 74.2974 39.0751 71.8093 39.0751 71.8093C35.9626 64.5794 33.3575 63.0475 37.0847 58.5495C39.1337 56.0713 38.6361 54.9102 38.597 54.8223C37.2018 52.2855 34.5966 52.2562 33.4843 52.3733C33.3087 52.3928 33.1331 52.4221 32.9575 52.4612C28.8692 53.2027 24.6445 56.6567 24.7908 64.394ZM28.3912 71.3703C29.201 72.4826 30.1377 73.7705 31.0939 75.0585C30.0401 73.8096 29.1327 72.5802 28.3912 71.3703Z" fill="#28285E"/>
<path d="M50.0719 52.4536C49.8962 52.4244 49.7206 52.3951 49.545 52.3658C48.4229 52.2487 45.8178 52.2877 44.4323 54.8148C44.3933 54.9026 43.8956 56.0637 45.9446 58.542C49.6621 63.04 47.0667 64.5718 43.9542 71.8018C43.9542 71.8018 43.5151 74.2899 45.808 73.2068C46.7545 72.758 51.3793 68.8845 51.7013 67.9088C50.8622 71.6555 46.8227 76.6901 42.3443 80.9247C42.3443 80.9247 41.4954 81.7248 42.1101 82.6029C42.2955 82.7883 42.5394 82.8956 42.8224 82.9444C43.7103 83.0908 45.3982 82.9542 47.3496 81.7833C49.3206 80.6027 50.8329 79.1782 52.6965 77.1097C55.487 74.0167 58.1507 69.0308 58.2385 64.3865C58.3654 56.6589 54.1503 53.2049 50.0719 52.4536ZM51.9159 75.0607C52.8721 73.7728 53.8088 72.4849 54.6187 71.3726C53.8771 72.5824 52.9697 73.8118 51.9159 75.0607Z" fill="#28285E"/>
<path d="M64.4057 58.2173C69.0501 58.1295 74.0262 55.4658 77.1289 52.6753C79.1974 50.8117 80.6219 49.2994 81.8025 47.3284C82.9734 45.377 83.11 43.689 82.9636 42.8012C82.9148 42.5182 82.8075 42.2743 82.6221 42.0889C81.744 41.4645 80.9439 42.3231 80.9439 42.3231C76.7094 46.7918 71.6747 50.8409 67.928 51.68C68.9037 51.3581 72.787 46.7332 73.2261 45.7868C74.3091 43.4939 71.8211 43.9329 71.8211 43.9329C64.5911 47.0454 63.0592 49.6506 58.5612 45.9234C56.0829 43.8744 54.9219 44.3721 54.8341 44.4111C52.2972 45.8063 52.2679 48.4115 52.385 49.5238C52.4045 49.6994 52.4338 49.875 52.4728 50.0506C53.2046 54.1388 56.6586 58.3636 64.4057 58.2173ZM71.3722 54.6169C72.4846 53.8071 73.7725 52.8705 75.0604 51.9143C73.8213 52.968 72.5821 53.8754 71.3722 54.6169Z" fill="#28285E"/>
<path d="M32.939 30.5592C33.1146 30.5884 33.2902 30.6177 33.4659 30.6469C34.5879 30.764 37.1931 30.725 38.5786 28.198C38.6176 28.1102 39.1152 26.9491 37.0662 24.4708C33.3488 19.9728 35.9441 18.4409 39.0566 11.2109C39.0566 11.2109 39.4957 8.72286 37.2028 9.80589C36.2564 10.2547 31.6315 14.1283 31.3095 15.104C32.1486 11.3573 36.1881 6.32265 40.6665 2.08809C40.6665 2.08809 41.5154 1.28798 40.9007 0.409846C40.7154 0.224462 40.4714 0.117158 40.1885 0.068373C39.3006 -0.0779828 37.6126 0.0586183 35.6612 1.22946C33.6903 2.41007 32.1779 3.83458 30.3143 5.90307C27.5238 8.99606 24.8601 13.9819 24.7723 18.6262C24.6455 26.3441 28.8703 29.8079 32.939 30.5592ZM31.0949 7.95209C30.1387 9.24002 29.202 10.5279 28.3922 11.6402C29.1337 10.4303 30.0411 9.19123 31.0949 7.95209Z" fill="#28285E"/>
<path d="M18.6058 24.7825C13.9614 24.8703 8.98532 27.534 5.88258 30.3245C3.81408 32.1881 2.38956 33.7004 1.20896 35.6714C0.0381105 37.6228 -0.0984906 39.3108 0.0478652 40.1987C0.0966504 40.4816 0.203969 40.7255 0.389353 40.9109C1.26749 41.5354 2.06757 40.6767 2.06757 40.6767C6.30213 36.208 11.3368 32.1588 15.0835 31.3197C14.1078 31.6417 10.2245 36.2666 9.7854 37.213C8.70237 39.5059 11.1904 39.0668 11.1904 39.0668C18.4204 35.9543 19.9522 33.3492 24.4502 37.0764C26.9285 39.1254 28.0896 38.6278 28.1774 38.5887C30.7143 37.1935 30.7435 34.5883 30.6265 33.476C30.6069 33.3004 30.5777 33.1248 30.5387 32.9492C29.8069 28.861 26.3529 24.6459 18.6058 24.7825ZM11.6392 28.3828C10.5269 29.1927 9.239 30.1294 7.95107 31.0855C9.19997 30.0318 10.4294 29.1244 11.6392 28.3828Z" fill="#28285E"/>
<path d="M45.5658 35.4952V48.2672C45.5658 48.7941 45.1365 49.2332 44.5998 49.2332H39.1749C38.648 49.2332 38.209 48.8038 38.209 48.2672V35.4952C38.209 34.9684 38.6383 34.5293 39.1749 34.5293H44.5998C45.1267 34.5293 45.5658 34.9684 45.5658 35.4952Z" fill="#28285E"/>
<path d="M48.277 45.5541H35.505C34.9781 45.5541 34.5391 45.1248 34.5391 44.5881V39.1632C34.5391 38.6363 34.9684 38.1973 35.505 38.1973H48.277C48.8039 38.1973 49.2429 38.6266 49.2429 39.1632V44.5881C49.2332 45.1248 48.8039 45.5541 48.277 45.5541Z" fill="#28285E"/>
<path d="M100.693 22.292V32.1759H99.3954V24.4483L96.1658 29.8342L96.0097 29.8245L92.7606 24.4386V32.1759H91.4434V22.292H92.9264L96.0877 27.5413L99.2295 22.292H100.693Z" fill="#28285E"/>
<path d="M111.045 30.8693C110.05 31.8645 108.84 32.3621 107.406 32.3621C105.971 32.3621 104.761 31.8645 103.776 30.8693C102.791 29.8741 102.293 28.6642 102.293 27.2396C102.293 25.8054 102.791 24.5955 103.776 23.6003C104.761 22.6051 105.971 22.1074 107.406 22.1074C108.84 22.1074 110.05 22.6051 111.045 23.6003C112.04 24.5955 112.538 25.8054 112.538 27.2396C112.528 28.6642 112.04 29.8741 111.045 30.8693ZM104.683 29.9716C105.415 30.7131 106.323 31.0839 107.406 31.0839C108.489 31.0839 109.396 30.7131 110.128 29.9716C110.86 29.2301 111.221 28.3227 111.221 27.2396C111.221 26.1469 110.86 25.2297 110.128 24.4881C109.396 23.7466 108.489 23.3759 107.406 23.3759C106.323 23.3759 105.415 23.7466 104.683 24.4881C103.952 25.2297 103.591 26.1469 103.591 27.2396C103.591 28.3227 103.961 29.2301 104.683 29.9716Z" fill="#28285E"/>
<path d="M119.767 27.0534C120.215 27.2681 120.576 27.5803 120.85 27.9901C121.113 28.3902 121.25 28.8585 121.25 29.3854C121.25 30.1757 120.976 30.8392 120.42 31.3758C119.864 31.9124 119.191 32.1759 118.391 32.1759H114.127V22.292H118.079C118.849 22.292 119.503 22.5555 120.04 23.0726C120.576 23.5897 120.84 24.2337 120.84 24.9947C120.84 25.8728 120.479 26.5558 119.767 27.0534ZM118.069 23.5214H115.425V26.5461H118.069C118.479 26.5461 118.83 26.3997 119.113 26.107C119.396 25.8143 119.532 25.4533 119.532 25.0337C119.532 24.6239 119.386 24.2629 119.103 23.9702C118.82 23.6775 118.469 23.5214 118.069 23.5214ZM118.381 30.9563C118.82 30.9563 119.191 30.8002 119.493 30.4879C119.796 30.1757 119.942 29.7952 119.942 29.3464C119.942 28.9073 119.786 28.5268 119.484 28.2145C119.181 27.9023 118.81 27.7462 118.371 27.7462H115.415V30.9563H118.381Z" fill="#28285E"/>
<path d="M122.803 22.292H124.12V32.1759H122.803V22.292Z" fill="#28285E"/>
<path d="M127.544 30.9368H131.808V32.1759H126.227V22.292H127.544V30.9368Z" fill="#28285E"/>
<path d="M133.125 22.292H134.442V32.1759H133.125V22.292Z" fill="#28285E"/>
<path d="M142.882 22.292V23.5312H139.955V32.1759H138.658V23.5312H135.75V22.292H142.882Z" fill="#28285E"/>
<path d="M151.538 22.292L148.035 28.1853V32.1857H146.718V28.1755L143.234 22.3018H144.698L147.391 26.9461L150.064 22.3018H151.538V22.292Z" fill="#28285E"/>
<path d="M94.6315 47.7889C93.7045 47.7889 92.924 47.5742 92.2703 47.1351C91.6166 46.7058 91.158 46.1106 90.8945 45.3594L92.0264 44.7056C92.4166 45.9058 93.2948 46.5009 94.6705 46.5009C95.3437 46.5009 95.8706 46.3643 96.2219 46.0814C96.5829 45.8082 96.7585 45.4374 96.7585 44.969C96.7585 44.5007 96.5829 44.1495 96.2219 43.9056C95.8609 43.6714 95.2657 43.4177 94.4266 43.1543C94.0168 43.0177 93.7046 42.9006 93.4801 42.8323C93.2655 42.7543 92.9923 42.6371 92.6606 42.4712C92.3386 42.3054 92.0946 42.1395 91.9288 41.9639C91.7727 41.7883 91.6263 41.5639 91.4995 41.2809C91.3726 40.998 91.3141 40.676 91.3141 40.3247C91.3141 39.4661 91.6165 38.7831 92.2215 38.2855C92.8264 37.7781 93.5582 37.5342 94.4266 37.5342C95.2071 37.5342 95.8901 37.7294 96.4658 38.1294C97.0415 38.5294 97.4805 39.0466 97.7732 39.7003L96.6707 40.3344C96.2511 39.3197 95.4999 38.8124 94.4266 38.8124C93.8899 38.8124 93.4606 38.949 93.1289 39.2124C92.7972 39.4759 92.6313 39.8369 92.6313 40.2857C92.6313 40.715 92.7874 41.0467 93.0996 41.2711C93.4119 41.4956 93.9485 41.7298 94.7095 41.9737C94.973 42.0713 95.1681 42.1395 95.2852 42.1785C95.4023 42.2176 95.5779 42.2859 95.8218 42.3639C96.0658 42.4517 96.2414 42.5201 96.3487 42.5786C96.4658 42.6372 96.6122 42.7152 96.8073 42.8225C97.0024 42.9299 97.139 43.0274 97.2366 43.1152C97.3342 43.2128 97.4415 43.3299 97.5684 43.4665C97.6952 43.6031 97.783 43.7397 97.8415 43.886C97.9001 44.0226 97.9489 44.1885 97.9879 44.3739C98.0269 44.5593 98.0562 44.7544 98.0562 44.9593C98.0562 45.8277 97.744 46.5107 97.1098 47.0278C96.4756 47.5352 95.656 47.7889 94.6315 47.7889Z" fill="#28285E"/>
<path d="M104.187 47.7869C102.694 47.7869 101.455 47.2893 100.479 46.3039C99.5035 45.3184 99.0156 44.0987 99.0156 42.6644C99.0156 41.2204 99.5035 40.0105 100.479 39.0251C101.455 38.0396 102.694 37.542 104.187 37.542C105.094 37.542 105.924 37.7567 106.675 38.1958C107.436 38.6251 108.021 39.2105 108.451 39.952L107.309 40.6155C107.026 40.0691 106.607 39.63 106.041 39.308C105.485 38.986 104.86 38.8202 104.187 38.8202C103.045 38.8202 102.118 39.1909 101.396 39.9227C100.674 40.6545 100.313 41.5717 100.313 42.6742C100.313 43.767 100.674 44.6744 101.396 45.4159C102.118 46.1477 103.045 46.5185 104.187 46.5185C104.87 46.5185 105.485 46.3526 106.041 46.0306C106.597 45.7087 107.026 45.2696 107.309 44.7427L108.451 45.3964C108.041 46.1282 107.446 46.7137 106.685 47.1527C105.924 47.5625 105.094 47.7869 104.187 47.7869Z" fill="#28285E"/>
<path d="M109.934 37.7188H111.251V47.6026H109.934V37.7188Z" fill="#28285E"/>
<path d="M114.675 46.3635H119.26V47.6026H113.357V37.7188H119.192V38.9579H114.675V41.9923H118.841V43.2217H114.675V46.3635Z" fill="#28285E"/>
<path d="M126.999 37.7188H128.316V47.6026H127.252L122.169 40.2166V47.6026H120.852V37.7188H121.866L126.999 45.1439V37.7188Z" fill="#28285E"/>
<path d="M135.077 47.7869C133.585 47.7869 132.346 47.2893 131.37 46.3039C130.394 45.3184 129.906 44.0987 129.906 42.6644C129.906 41.2204 130.394 40.0105 131.37 39.0251C132.346 38.0396 133.585 37.542 135.077 37.542C135.985 37.542 136.814 37.7567 137.566 38.1958C138.327 38.6251 138.912 39.2105 139.341 39.952L138.2 40.6155C137.917 40.0691 137.497 39.63 136.931 39.308C136.375 38.986 135.751 38.8202 135.077 38.8202C133.936 38.8202 133.009 39.1909 132.287 39.9227C131.565 40.6545 131.204 41.5717 131.204 42.6742C131.204 43.767 131.565 44.6744 132.287 45.4159C133.009 46.1477 133.936 46.5185 135.077 46.5185C135.751 46.5185 136.375 46.3526 136.931 46.0306C137.487 45.7087 137.917 45.2696 138.2 44.7427L139.341 45.3964C138.932 46.1282 138.336 46.7137 137.575 47.1527C136.814 47.5625 135.975 47.7869 135.077 47.7869Z" fill="#28285E"/>
<path d="M142.132 46.3635H146.717V47.6026H140.814V37.7188H146.649V38.9579H142.132V41.9923H146.298V43.2217H142.132V46.3635Z" fill="#28285E"/>
<path d="M97.9602 63.0186L97.1504 60.8038H92.7012L91.8913 63.0186H90.4961L94.1843 53.1348H95.6673L99.3555 63.0186H97.9602ZM93.15 59.5744H96.7016L94.9258 54.6959L93.15 59.5744Z" fill="#28285E"/>
<path d="M104.822 63.2048C103.329 63.2048 102.09 62.7072 101.114 61.7218C100.138 60.7363 99.6504 59.5166 99.6504 58.0824C99.6504 56.6383 100.138 55.4284 101.114 54.4332C102.09 53.4478 103.329 52.9502 104.822 52.9502C105.729 52.9502 106.558 53.1648 107.31 53.6039C108.071 54.0332 108.656 54.6186 109.085 55.3602L107.944 56.0236C107.661 55.4772 107.241 55.0382 106.675 54.7162C106.119 54.3942 105.495 54.2284 104.822 54.2284C103.68 54.2284 102.753 54.5991 102.031 55.3309C101.309 56.0627 100.948 56.9798 100.948 58.0824C100.948 59.1751 101.309 60.0825 102.031 60.8241C102.753 61.5559 103.68 61.9266 104.822 61.9266C105.505 61.9266 106.119 61.7608 106.675 61.4388C107.232 61.1168 107.661 60.6778 107.944 60.1509L109.085 60.8046C108.676 61.5364 108.08 62.1218 107.319 62.5609C106.558 62.9902 105.729 63.2048 104.822 63.2048Z" fill="#28285E"/>
<path d="M116.968 63.0157L116.158 60.8009H111.709L110.899 63.0157H109.504L113.192 53.1318H114.675L118.363 63.0157H116.968ZM112.158 59.5715H115.709L113.934 54.6929L112.158 59.5715Z" fill="#28285E"/>
<path d="M123.397 53.1318C124.743 53.1318 125.866 53.6099 126.753 54.5661C127.641 55.5223 128.09 56.6931 128.09 58.0786C128.09 59.4641 127.641 60.635 126.753 61.5912C125.866 62.5474 124.743 63.0254 123.397 63.0254H119.543V53.1415H123.397V53.1318ZM123.397 61.7766C124.402 61.7766 125.231 61.4253 125.866 60.713C126.51 60.0105 126.822 59.1227 126.822 58.0689C126.822 57.0151 126.5 56.137 125.866 55.4247C125.222 54.7222 124.402 54.3612 123.397 54.3612H120.85V61.757H123.397V61.7766Z" fill="#28285E"/>
<path d="M130.989 61.7795H135.575V63.0186H129.672V53.1348H135.507V54.3739H130.989V57.4083H135.155V58.6377H130.989V61.7795Z" fill="#28285E"/>
<path d="M146.416 53.1348V63.0186H145.118V55.291L141.888 60.6769L141.732 60.6672L138.493 55.2813V63.0186H137.176V53.1348H138.659L141.82 58.384L144.962 53.1348H146.416Z" fill="#28285E"/>
<path d="M155.887 53.1348L152.384 59.028V63.0284H151.067V59.0182L147.574 53.1445H149.048L151.74 57.7888L154.414 53.1445H155.887V53.1348Z" fill="#28285E"/>
<path d="M90.1425 69.9585H91.0596V70.0853H90.0059V68.2607H91.0401V68.3875H90.1425V69.0998H90.9816V69.2267H90.1425V69.9585Z" fill="#28285E"/>
<path d="M91.89 70.0853L91.207 68.2607H91.3631L91.9681 69.9097L92.573 68.2607H92.7194L92.0364 70.0853H91.89Z" fill="#28285E"/>
<path d="M93.1171 69.9585H94.0342V70.0853H92.9805V68.2607H94.0147V68.3875H93.1171V69.0998H93.9562V69.2267H93.1171V69.9585Z" fill="#28285E"/>
<path d="M95.5185 70.0853L95.0795 69.334H94.5038V70.0853H94.3672V68.2607H95.0892C95.2356 68.2607 95.3624 68.3095 95.4697 68.4168C95.5771 68.5242 95.6259 68.651 95.6259 68.7974C95.6259 68.9242 95.5868 69.0315 95.5088 69.1291C95.4307 69.2266 95.3331 69.2852 95.216 69.3242L95.6746 70.095H95.5185V70.0853ZM94.5038 68.3875V69.2071H95.0892C95.1965 69.2071 95.2941 69.1681 95.3722 69.0901C95.4502 69.012 95.4892 68.9145 95.4892 68.7974C95.4892 68.6803 95.4502 68.5925 95.3722 68.5047C95.2941 68.4266 95.1965 68.3875 95.0892 68.3875H94.5038Z" fill="#28285E"/>
<path d="M97.1764 68.2607L96.513 69.334V70.0853H96.3764V69.334L95.7129 68.2607H95.869L96.4447 69.1974L97.0203 68.2607H97.1764Z" fill="#28285E"/>
<path d="M98.5536 68.2607V68.3875H97.9779V70.0853H97.8413V68.3875H97.2656V68.2607H98.5536Z" fill="#28285E"/>
<path d="M100.046 68.2607H100.182V70.0853H100.046V69.2071H98.9823V70.0853H98.8457V68.2607H98.9823V69.0803H100.046V68.2607Z" fill="#28285E"/>
<path d="M100.633 68.2607H100.769V70.0853H100.633V68.2607Z" fill="#28285E"/>
<path d="M102.427 68.2607H102.563V70.0853H102.436L101.363 68.5144V70.0853H101.227V68.2607H101.344L102.427 69.8414V68.2607Z" fill="#28285E"/>
<path d="M104.758 69.2355V69.3037C104.758 69.5281 104.68 69.7233 104.514 69.8794C104.348 70.0355 104.143 70.1136 103.88 70.1136C103.597 70.1136 103.373 70.0258 103.187 69.8404C103.002 69.655 102.914 69.4404 102.914 69.1672C102.914 68.9037 103.002 68.6793 103.187 68.4939C103.363 68.3085 103.597 68.2207 103.87 68.2207C104.036 68.2207 104.192 68.2597 104.329 68.3378C104.465 68.4158 104.573 68.5232 104.651 68.6598L104.524 68.7281C104.465 68.611 104.378 68.5232 104.251 68.4549C104.134 68.3866 103.997 68.3475 103.86 68.3475C103.626 68.3475 103.431 68.4256 103.275 68.5817C103.119 68.7378 103.051 68.933 103.051 69.1574C103.051 69.3818 103.129 69.5769 103.285 69.733C103.441 69.8891 103.636 69.9673 103.88 69.9673C104.095 69.9673 104.27 69.9087 104.397 69.7916C104.534 69.6745 104.602 69.5282 104.622 69.3526H103.851V69.2257H104.758V69.2355Z" fill="#28285E"/>
<path d="M107.073 68.2607L106.409 69.334V70.0853H106.273V69.334L105.609 68.2607H105.765L106.341 69.1974L106.917 68.2607H107.073Z" fill="#28285E"/>
<path d="M108.69 69.8414C108.505 70.0268 108.28 70.1145 108.027 70.1145C107.763 70.1145 107.539 70.0268 107.363 69.8414C107.178 69.656 107.09 69.4316 107.09 69.1779C107.09 68.9242 107.178 68.6998 107.363 68.5144C107.548 68.329 107.773 68.2412 108.027 68.2412C108.29 68.2412 108.514 68.329 108.69 68.5144C108.875 68.6998 108.963 68.9242 108.963 69.1779C108.963 69.4316 108.875 69.656 108.69 69.8414ZM107.461 69.7438C107.617 69.8999 107.802 69.9779 108.027 69.9779C108.251 69.9779 108.436 69.8999 108.592 69.7438C108.749 69.5877 108.827 69.3926 108.827 69.1681C108.827 68.9437 108.749 68.7486 108.592 68.5925C108.436 68.4363 108.251 68.3583 108.027 68.3583C107.802 68.3583 107.617 68.4363 107.461 68.5925C107.305 68.7486 107.226 68.9437 107.226 69.1681C107.226 69.3926 107.305 69.5877 107.461 69.7438Z" fill="#28285E"/>
<path d="M110.436 69.938C110.31 70.055 110.154 70.1136 109.949 70.1136C109.744 70.1136 109.588 70.055 109.461 69.938C109.344 69.8209 109.275 69.6648 109.275 69.4696V68.25H109.412V69.4696C109.412 69.6257 109.461 69.7428 109.549 69.8404C109.636 69.9282 109.773 69.977 109.939 69.977C110.105 69.977 110.241 69.9282 110.329 69.8404C110.427 69.7526 110.466 69.6257 110.466 69.4696V68.25H110.602V69.4696C110.612 69.6648 110.554 69.8209 110.436 69.938Z" fill="#28285E"/>
<path d="M112.946 68.2607H113.083V70.0853H112.956L111.883 68.5144V70.0853H111.746V68.2607H111.863L112.946 69.8414V68.2607Z" fill="#28285E"/>
<path d="M113.668 69.9585H114.585V70.0853H113.531V68.2607H114.566V68.3875H113.668V69.0998H114.507V69.2267H113.668V69.9585Z" fill="#28285E"/>
<path d="M115.062 69.9585H115.98V70.0853H114.926V68.2607H115.96V68.3875H115.062V69.0998H115.901V69.2267H115.062V69.9585Z" fill="#28285E"/>
<path d="M117.005 68.2598C117.249 68.2598 117.464 68.3475 117.62 68.5232C117.786 68.6988 117.864 68.9135 117.864 69.1672C117.864 69.4208 117.786 69.6355 117.62 69.8111C117.454 69.9867 117.249 70.0746 117.005 70.0746H116.322V68.25H117.005V68.2598ZM117.005 69.9575C117.22 69.9575 117.396 69.8794 117.522 69.733C117.659 69.5867 117.727 69.4013 117.727 69.1769C117.727 68.9525 117.659 68.7671 117.522 68.6208C117.386 68.4744 117.21 68.3963 117.005 68.3963H116.459V69.9575H117.005Z" fill="#28285E"/>
<path d="M120.028 68.2607V68.3875H119.452V70.0853H119.316V68.3875H118.74V68.2607H120.028Z" fill="#28285E"/>
<path d="M121.717 69.8414C121.532 70.0268 121.308 70.1145 121.054 70.1145C120.79 70.1145 120.566 70.0268 120.39 69.8414C120.205 69.656 120.117 69.4316 120.117 69.1779C120.117 68.9242 120.205 68.6998 120.39 68.5144C120.576 68.329 120.8 68.2412 121.054 68.2412C121.317 68.2412 121.542 68.329 121.717 68.5144C121.903 68.6998 121.991 68.9242 121.991 69.1779C121.991 69.4316 121.903 69.656 121.717 69.8414ZM120.478 69.7438C120.634 69.8999 120.82 69.9779 121.044 69.9779C121.269 69.9779 121.454 69.8999 121.61 69.7438C121.766 69.5877 121.844 69.3926 121.844 69.1681C121.844 68.9437 121.766 68.7486 121.61 68.5925C121.454 68.4363 121.269 68.3583 121.044 68.3583C120.82 68.3583 120.634 68.4363 120.478 68.5925C120.322 68.7486 120.244 68.9437 120.244 69.1681C120.244 69.3926 120.322 69.5877 120.478 69.7438Z" fill="#28285E"/>
<path d="M124.272 70.0853H124.087L123.17 69.1876V70.0853H123.033V68.2607H123.17V69.1096L124.058 68.2607H124.243L123.316 69.1486L124.272 70.0853Z" fill="#28285E"/>
<path d="M125.727 68.2607H125.864V70.0853H125.737L124.664 68.5144V70.0853H124.527V68.2607H124.644L125.727 69.8414V68.2607Z" fill="#28285E"/>
<path d="M127.825 69.8414C127.639 70.0268 127.415 70.1145 127.161 70.1145C126.898 70.1145 126.673 70.0268 126.498 69.8414C126.312 69.656 126.225 69.4316 126.225 69.1779C126.225 68.9242 126.312 68.6998 126.498 68.5144C126.683 68.329 126.908 68.2412 127.161 68.2412C127.425 68.2412 127.649 68.329 127.825 68.5144C128.01 68.6998 128.098 68.9242 128.098 69.1779C128.098 69.4316 128.01 69.656 127.825 69.8414ZM126.586 69.7438C126.742 69.8999 126.927 69.9779 127.152 69.9779C127.376 69.9779 127.561 69.8999 127.717 69.7438C127.874 69.5877 127.952 69.3926 127.952 69.1681C127.952 68.9437 127.874 68.7486 127.717 68.5925C127.561 68.4363 127.376 68.3583 127.152 68.3583C126.927 68.3583 126.742 68.4363 126.586 68.5925C126.43 68.7486 126.351 68.9437 126.351 69.1681C126.351 69.3926 126.43 69.5877 126.586 69.7438Z" fill="#28285E"/>
<path d="M128.761 70.0853L128.234 68.2607H128.371L128.849 69.8999L129.356 68.2607H129.522L130.03 69.9097L130.498 68.2607H130.635L130.108 70.0853H129.942L129.425 68.4266L128.908 70.0853H128.761Z" fill="#28285E"/>
<path d="M133.583 70.0853L133.407 69.6169H132.49L132.314 70.0853H132.168L132.88 68.2607H133.027L133.729 70.0853H133.583ZM132.539 69.4901H133.349L132.939 68.4266L132.539 69.4901Z" fill="#28285E"/>
<path d="M134.968 69.1388C135.065 69.1779 135.134 69.2364 135.192 69.3145C135.251 69.3925 135.28 69.4901 135.28 69.5877C135.28 69.7243 135.231 69.8414 135.134 69.9389C135.036 70.0365 134.919 70.0853 134.783 70.0853H133.992V68.2607H134.724C134.861 68.2607 134.968 68.3095 135.065 68.3973C135.163 68.4851 135.202 68.6022 135.202 68.7388C135.202 68.8266 135.183 68.9047 135.134 68.973C135.095 69.051 135.036 69.0998 134.968 69.1388ZM134.724 68.3875H134.139V69.0901H134.724C134.822 69.0901 134.9 69.0511 134.968 68.9828C135.036 68.9145 135.065 68.8364 135.065 68.7388C135.065 68.6413 135.036 68.5632 134.968 68.4949C134.9 68.4266 134.812 68.3875 134.724 68.3875ZM134.783 69.9585C134.88 69.9585 134.968 69.9194 135.036 69.8511C135.104 69.7828 135.144 69.695 135.144 69.5877C135.144 69.4901 135.104 69.4023 135.036 69.3242C134.968 69.2559 134.88 69.2169 134.783 69.2169H134.129V69.9487H134.783V69.9585Z" fill="#28285E"/>
<path d="M137.122 69.8414C136.936 70.0268 136.712 70.1145 136.458 70.1145C136.195 70.1145 135.97 70.0268 135.795 69.8414C135.609 69.656 135.521 69.4316 135.521 69.1779C135.521 68.9242 135.609 68.6998 135.795 68.5144C135.98 68.329 136.204 68.2412 136.458 68.2412C136.722 68.2412 136.946 68.329 137.122 68.5144C137.307 68.6998 137.395 68.9242 137.395 69.1779C137.395 69.4316 137.307 69.656 137.122 69.8414ZM135.882 69.7438C136.039 69.8999 136.224 69.9779 136.448 69.9779C136.673 69.9779 136.858 69.8999 137.014 69.7438C137.17 69.5877 137.249 69.3926 137.249 69.1681C137.249 68.9437 137.17 68.7486 137.014 68.5925C136.858 68.4363 136.673 68.3583 136.448 68.3583C136.224 68.3583 136.039 68.4363 135.882 68.5925C135.726 68.7486 135.648 68.9437 135.648 69.1681C135.648 69.3926 135.726 69.5877 135.882 69.7438Z" fill="#28285E"/>
<path d="M138.86 69.938C138.733 70.055 138.577 70.1136 138.372 70.1136C138.168 70.1136 138.011 70.055 137.885 69.938C137.768 69.8209 137.699 69.6648 137.699 69.4696V68.25H137.836V69.4696C137.836 69.6257 137.885 69.7428 137.972 69.8404C138.06 69.9282 138.197 69.977 138.363 69.977C138.529 69.977 138.665 69.9282 138.753 69.8404C138.851 69.7526 138.89 69.6257 138.89 69.4696V68.25H139.026V69.4696C139.046 69.6648 138.987 69.8209 138.86 69.938Z" fill="#28285E"/>
<path d="M140.597 68.2607V68.3875H140.021V70.0853H139.884V68.3875H139.309V68.2607H140.597Z" fill="#28285E"/>
<path d="M143.231 68.2607V70.0853H143.094V68.4656L142.421 69.5877H142.402L141.728 68.4656V70.0853H141.592V68.2607H141.767L142.421 69.3438L143.075 68.2607H143.231Z" fill="#28285E"/>
<path d="M145.19 69.8414C145.005 70.0268 144.78 70.1145 144.527 70.1145C144.263 70.1145 144.039 70.0268 143.863 69.8414C143.678 69.656 143.59 69.4316 143.59 69.1779C143.59 68.9242 143.678 68.6998 143.863 68.5144C144.048 68.329 144.273 68.2412 144.527 68.2412C144.79 68.2412 145.014 68.329 145.19 68.5144C145.375 68.6998 145.463 68.9242 145.463 69.1779C145.463 69.4316 145.366 69.656 145.19 69.8414ZM143.951 69.7438C144.107 69.8999 144.292 69.9779 144.517 69.9779C144.741 69.9779 144.927 69.8999 145.083 69.7438C145.239 69.5877 145.317 69.3926 145.317 69.1681C145.317 68.9437 145.239 68.7486 145.083 68.5925C144.927 68.4363 144.741 68.3583 144.517 68.3583C144.292 68.3583 144.107 68.4363 143.951 68.5925C143.795 68.7486 143.717 68.9437 143.717 69.1681C143.717 69.3926 143.795 69.5877 143.951 69.7438Z" fill="#28285E"/>
<path d="M146.78 69.1388C146.878 69.1779 146.946 69.2364 147.005 69.3145C147.063 69.3925 147.093 69.4901 147.093 69.5877C147.093 69.7243 147.044 69.8414 146.946 69.9389C146.849 70.0365 146.732 70.0853 146.595 70.0853H145.805V68.2607H146.536C146.673 68.2607 146.78 68.3095 146.878 68.3973C146.976 68.4851 147.015 68.6022 147.015 68.7388C147.015 68.8266 146.995 68.9047 146.946 68.973C146.907 69.051 146.849 69.0998 146.78 69.1388ZM146.536 68.3875H145.951V69.0901H146.536C146.634 69.0901 146.712 69.0511 146.78 68.9828C146.849 68.9145 146.878 68.8364 146.878 68.7388C146.878 68.6413 146.849 68.5632 146.78 68.4949C146.712 68.4266 146.634 68.3875 146.536 68.3875ZM146.595 69.9585C146.693 69.9585 146.78 69.9194 146.849 69.8511C146.917 69.7828 146.956 69.695 146.956 69.5877C146.956 69.4901 146.917 69.4023 146.849 69.3242C146.78 69.2559 146.693 69.2169 146.595 69.2169H145.941V69.9487H146.595V69.9585Z" fill="#28285E"/>
<path d="M147.436 68.2607H147.572V70.0853H147.436V68.2607Z" fill="#28285E"/>
<path d="M148.166 69.9585H149.025V70.0853H148.029V68.2607H148.166V69.9585Z" fill="#28285E"/>
<path d="M149.309 68.2607H149.445V70.0853H149.309V68.2607Z" fill="#28285E"/>
<path d="M151.026 68.2607V68.3875H150.451V70.0853H150.314V68.3875H149.738V68.2607H151.026Z" fill="#28285E"/>
<path d="M152.579 68.2607L151.915 69.334V70.0853H151.779V69.334L151.115 68.2607H151.271L151.847 69.1974L152.423 68.2607H152.579Z" fill="#28285E"/>
</svg>
