<svg width="22" height="22" viewBox="0 0 22 22" fill="none" xmlns="http://www.w3.org/2000/svg">
<g clip-path="url(#clip0_726_8816)">
<mask id="mask0_726_8816" style="mask-type:luminance" maskUnits="userSpaceOnUse" x="0" y="0" width="22" height="22">
<path d="M5.57862 21.9222C4.27028 21.8627 3.55954 21.645 3.08681 21.4606C2.46043 21.2167 2.01385 20.9264 1.54373 20.4569C1.07427 19.9875 0.782655 19.5409 0.540078 18.9145C0.355693 18.4418 0.137962 17.731 0.0784617 16.4227C0.0130769 15.0084 0 14.5841 0 11.001C0 7.4179 0.0143846 6.9942 0.0778078 5.57863C0.137308 4.27028 0.356347 3.56085 0.539424 3.08681C0.783309 2.46043 1.07427 2.01385 1.54308 1.54308C2.01254 1.07362 2.45912 0.782001 3.08616 0.539424C3.55889 0.355039 4.26962 0.137308 5.57797 0.0778078C6.9929 0.0130769 7.4179 0 10.9997 0C14.5828 0 15.0064 0.0143846 16.422 0.0778078C17.7304 0.137308 18.4398 0.356347 18.9138 0.539424C19.5402 0.782001 19.9868 1.07362 20.4569 1.54308C20.9264 2.01254 21.2167 2.45977 21.4606 3.08616C21.645 3.55889 21.8627 4.26962 21.9222 5.57797C21.9869 6.99355 22 7.41724 22 11.0003C22 14.5821 21.9869 15.0071 21.9222 16.4227C21.8627 17.731 21.6437 18.4418 21.4606 18.9145C21.2167 19.5409 20.9264 19.9875 20.4569 20.4569C19.9875 20.9264 19.5402 21.2167 18.9138 21.4606C18.4411 21.645 17.7304 21.8627 16.422 21.9222C15.0078 21.9869 14.5828 22 10.9997 22C7.4179 22 6.9929 21.9876 5.57862 21.9222Z" fill="white"/>
</mask>
<g mask="url(#mask0_726_8816)">
<mask id="mask1_726_8816" style="mask-type:luminance" maskUnits="userSpaceOnUse" x="-37" y="-37" width="96" height="96">
<path d="M-36.0967 -36.0957H58.141V58.0962H-36.0967V-36.0957Z" fill="white"/>
</mask>
<g mask="url(#mask1_726_8816)">
<mask id="mask2_726_8816" style="mask-type:luminance" maskUnits="userSpaceOnUse" x="-37" y="-37" width="96" height="96">
<path d="M-36.0967 -36.0957H58.141V58.0962H-36.0967V-36.0957Z" fill="white"/>
</mask>
<g mask="url(#mask2_726_8816)">
<path d="M-36.0967 -36.0957H58.0953V58.0962H-36.0967V-36.0957Z" fill="#00B1B9"/>
</g>
</g>
</g>
<path d="M8.30213 10.9999C8.30213 9.50979 9.50979 8.30148 10.9999 8.30148C12.49 8.30148 13.6983 9.50979 13.6983 10.9999C13.6983 12.49 12.49 13.6983 10.9999 13.6983C9.50979 13.6983 8.30213 12.49 8.30213 10.9999ZM6.8434 10.9999C6.8434 13.2956 8.70425 15.1564 10.9999 15.1564C13.2956 15.1564 15.1564 13.2956 15.1564 10.9999C15.1564 8.70425 13.2956 6.8434 10.9999 6.8434C8.70425 6.8434 6.8434 8.70425 6.8434 10.9999ZM14.3496 6.67863C14.3496 7.21478 14.7844 7.65024 15.3212 7.65024C15.8573 7.65024 16.2928 7.21478 16.2928 6.67863C16.2928 6.14247 15.858 5.70766 15.3212 5.70766C14.7844 5.70766 14.3496 6.14247 14.3496 6.67863ZM7.72936 17.5887C6.94017 17.5528 6.51124 17.4213 6.22616 17.3102C5.84824 17.1631 5.57886 16.9878 5.29509 16.7047C5.01197 16.4216 4.83608 16.1522 4.68962 15.7743C4.57847 15.4892 4.44705 15.0603 4.41108 14.2711C4.37185 13.4178 4.36401 13.1615 4.36401 10.9999C4.36401 8.83828 4.37251 8.58263 4.41108 7.7287C4.44705 6.93951 4.57912 6.51124 4.68962 6.22551C4.83674 5.84759 5.01197 5.5782 5.29509 5.29443C5.5782 5.01132 5.84759 4.83543 6.22616 4.68897C6.51124 4.57782 6.94017 4.44639 7.72936 4.41043C8.58263 4.3712 8.83894 4.36335 10.9999 4.36335C13.1615 4.36335 13.4172 4.37185 14.2711 4.41043C15.0603 4.44639 15.4886 4.57847 15.7743 4.68897C16.1522 4.83543 16.4216 5.01132 16.7054 5.29443C16.9885 5.57755 17.1637 5.84759 17.3108 6.22551C17.422 6.51059 17.5534 6.93951 17.5894 7.7287C17.6286 8.58263 17.6365 8.83828 17.6365 10.9999C17.6365 13.1609 17.6286 13.4172 17.5894 14.2711C17.5534 15.0603 17.4213 15.4892 17.3108 15.7743C17.1637 16.1522 16.9885 16.4216 16.7054 16.7047C16.4223 16.9878 16.1522 17.1631 15.7743 17.3102C15.4892 17.4213 15.0603 17.5528 14.2711 17.5887C13.4178 17.628 13.1615 17.6358 10.9999 17.6358C8.83894 17.6358 8.58263 17.628 7.72936 17.5887ZM7.66267 2.95431C6.8009 2.99354 6.21243 3.1302 5.69786 3.33027C5.16562 3.53689 4.71447 3.81412 4.26397 4.26397C3.81412 4.71382 3.53689 5.16497 3.33027 5.69786C3.1302 6.21243 2.99354 6.8009 2.95431 7.66267C2.91443 8.52574 2.90527 8.80167 2.90527 10.9999C2.90527 13.1981 2.91443 13.4741 2.95431 14.3371C2.99354 15.1989 3.1302 15.7874 3.33027 16.302C3.53689 16.8342 3.81347 17.286 4.26397 17.7358C4.71381 18.1857 5.16497 18.4623 5.69786 18.6695C6.21309 18.8696 6.8009 19.0063 7.66267 19.0455C8.5264 19.0847 8.80167 19.0945 10.9999 19.0945C13.1988 19.0945 13.4741 19.0854 14.3371 19.0455C15.1989 19.0063 15.7874 18.8696 16.302 18.6695C16.8342 18.4623 17.2853 18.1857 17.7358 17.7358C18.1857 17.286 18.4623 16.8342 18.6695 16.302C18.8696 15.7874 19.0069 15.1989 19.0455 14.3371C19.0847 13.4734 19.0939 13.1981 19.0939 10.9999C19.0939 8.80167 19.0847 8.52574 19.0455 7.66267C19.0063 6.8009 18.8696 6.21243 18.6695 5.69786C18.4623 5.16562 18.1857 4.71447 17.7358 4.26397C17.286 3.81412 16.8342 3.53689 16.3026 3.33027C15.7874 3.1302 15.1989 2.99289 14.3378 2.95431C13.4747 2.91508 13.1988 2.90527 11.0006 2.90527C8.80167 2.90527 8.5264 2.91443 7.66267 2.95431Z" fill="white"/>
</g>
<defs>
<clipPath id="clip0_726_8816">
<rect width="21.9974" height="22" fill="white"/>
</clipPath>
</defs>
</svg>
