<svg width="20" height="20" viewBox="0 0 20 20" fill="none" xmlns="http://www.w3.org/2000/svg">
<path d="M10.0025 9.79199C10.404 9.79199 10.7472 9.64901 11.0319 9.36306C11.3166 9.07711 11.459 8.73336 11.459 8.33181C11.459 7.93026 11.316 7.58713 11.03 7.30241C10.7441 7.01769 10.4004 6.87533 9.9988 6.87533C9.59726 6.87533 9.25412 7.01831 8.9694 7.30426C8.68468 7.59021 8.54232 7.93396 8.54232 8.33551C8.54232 8.73706 8.6853 9.08019 8.97125 9.36491C9.2572 9.64963 9.60095 9.79199 10.0025 9.79199ZM10.0007 16.6878C11.8479 15.0073 13.2125 13.483 14.0944 12.1149C14.9763 10.7469 15.4173 9.54199 15.4173 8.50033C15.4173 6.86435 14.8945 5.5248 13.8487 4.48168C12.803 3.43855 11.5203 2.91699 10.0007 2.91699C8.48097 2.91699 7.19828 3.43855 6.15257 4.48168C5.10685 5.5248 4.58398 6.86435 4.58398 8.50033C4.58398 9.54199 5.03537 10.7469 5.93815 12.1149C6.84093 13.483 8.1951 15.0073 10.0007 16.6878ZM10.0111 18.0837C9.92079 18.0837 9.83398 18.0698 9.75065 18.042C9.66732 18.0142 9.59093 17.9725 9.52148 17.917C7.45204 16.0975 5.90343 14.4108 4.87565 12.8567C3.84787 11.3026 3.33398 9.85048 3.33398 8.50033C3.33398 6.41699 4.00412 4.75727 5.3444 3.52116C6.68468 2.28505 8.23676 1.66699 10.0007 1.66699C11.7645 1.66699 13.3166 2.28505 14.6569 3.52116C15.9972 4.75727 16.6673 6.41699 16.6673 8.50033C16.6673 9.84755 16.1534 11.2989 15.1257 12.8545C14.0979 14.41 12.5493 16.0975 10.4798 17.917C10.4104 17.9725 10.3375 18.0142 10.2611 18.042C10.1847 18.0698 10.1013 18.0837 10.0111 18.0837Z" fill="#28285E"/>
</svg>
