<?xml version="1.0" encoding="UTF-8"?>
<svg id="Layer_1" data-name="Layer 1" xmlns="http://www.w3.org/2000/svg" viewBox="0 0 841.89 213.71">
  <defs>
    <style>
      .cls-1 {
        fill: #fff;
        stroke-width: 0px;
      }
    </style>
  </defs>
  <g>
    <path class="cls-1" d="M240.82,93.8h-14.24l-2.58,6.16h-5.79l12.78-29.15h5.79l12.62,29.15h-6l-2.58-6.16ZM238.82,89.01l-5.08-12.24-5.16,12.24h10.24Z"/>
    <path class="cls-1" d="M265.4,75.6c-5.5,0-9.78,4.25-9.78,9.66s4.29,9.7,9.78,9.7c2.79,0,5.75-1.29,7.91-3.41l3.29,3.66c-3,3.04-7.28,5-11.49,5-8.58,0-15.2-6.45-15.2-14.86s6.7-14.7,15.41-14.7c4.16,0,8.41,1.79,11.24,4.66l-3.25,4.08c-2.08-2.33-5.04-3.79-7.91-3.79Z"/>
    <path class="cls-1" d="M299.93,93.8h-14.24l-2.58,6.16h-5.79l12.78-29.15h5.79l12.62,29.15h-6l-2.58-6.16ZM297.93,89.01l-5.08-12.24-5.16,12.24h10.24Z"/>
    <path class="cls-1" d="M339.37,85.38c0,8.49-6.41,14.57-15.41,14.57h-11.91v-29.15h12.12c8.83,0,15.2,6.04,15.2,14.57ZM333.67,85.43c0-5.7-4.12-9.7-9.58-9.7h-6.45v19.32h6.66c5.37,0,9.37-3.96,9.37-9.62Z"/>
    <path class="cls-1" d="M365.62,70.81v4.87h-15.78v7.2h14.16v4.87h-14.16v7.33h16.28v4.87h-21.86v-29.15h21.36Z"/>
    <path class="cls-1" d="M378.24,70.81l9.16,18.7,9.12-18.7h6.41v29.15h-5.08l-.04-20.82-8.62,17.82h-3.62l-8.62-17.82v20.82h-5.16v-29.15h6.46Z"/>
    <path class="cls-1" d="M422.98,90.42v9.53h-5.58v-9.33l-10.87-19.82h5.66l7.95,13.7,7.83-13.7h5.62l-10.62,19.61Z"/>
    <path class="cls-1" d="M478.46,85.38c0,8.37-6.75,14.82-15.53,14.82s-15.53-6.45-15.53-14.82,6.74-14.74,15.53-14.74,15.53,6.37,15.53,14.74ZM453.1,85.38c0,5.5,4.54,9.83,9.91,9.83s9.74-4.33,9.74-9.83-4.41-9.74-9.74-9.74-9.91,4.25-9.91,9.74Z"/>
    <path class="cls-1" d="M503.49,70.81l-.04,4.87h-14.49v7.87h13.2v4.87h-13.2v11.53h-5.58v-29.15h20.11Z"/>
    <path class="cls-1" d="M529.74,75.64c-2.62,0-4.33.96-4.33,2.75,0,5.91,15.66,2.71,15.61,13.16,0,5.45-4.75,8.62-11.16,8.62-4.67,0-9.21-1.87-12.33-4.66l2.33-4.71c3,2.66,6.95,4.29,10.08,4.29s5-1.17,5-3.21c0-6.08-15.66-2.62-15.66-12.99,0-5.08,4.37-8.33,10.91-8.33,3.87,0,7.74,1.25,10.54,3.08l-2.25,4.83c-3.13-1.87-6.5-2.83-8.75-2.83Z"/>
    <path class="cls-1" d="M565.1,93.8h-14.24l-2.58,6.16h-5.78l12.78-29.15h5.79l12.61,29.15h-5.99l-2.58-6.16ZM563.1,89.01l-5.08-12.24-5.16,12.24h10.24Z"/>
    <path class="cls-1" d="M597.34,70.81l-.04,4.87h-14.49v7.87h13.2v4.87h-13.2v11.53h-5.58v-29.15h20.11Z"/>
    <path class="cls-1" d="M622.87,70.81v4.87h-15.78v7.2h14.15v4.87h-14.15v7.33h16.28v4.87h-21.86v-29.15h21.36Z"/>
    <path class="cls-1" d="M665.02,80.85c0,6.66-4.2,10.53-11.53,10.53h-6.37v8.58h-5.58v-29.15h11.95c7.33,0,11.53,3.62,11.53,10.04ZM659.74,81.01c0-3.58-2.37-5.33-6.54-5.33h-6.08v10.78h6.08c4.17,0,6.54-1.79,6.54-5.46Z"/>
    <path class="cls-1" d="M686.73,93.8h-14.24l-2.58,6.16h-5.79l12.78-29.15h5.79l12.62,29.15h-6l-2.58-6.16ZM684.73,89.01l-5.08-12.24-5.16,12.24h10.24Z"/>
    <path class="cls-1" d="M716.43,70.81v4.96h-9.08v24.19h-5.62v-24.19h-9.08v-4.96h23.78Z"/>
    <path class="cls-1" d="M725.97,70.81v29.15h-5.58v-29.15h5.58Z"/>
    <path class="cls-1" d="M754.5,70.81v4.87h-15.78v7.2h14.15v4.87h-14.15v7.33h16.28v4.87h-21.86v-29.15h21.36Z"/>
    <path class="cls-1" d="M765.96,70.81l15.03,19.95v-19.95h5.42v29.15h-5.29l-14.99-19.9v19.9h-5.46v-29.15h5.29Z"/>
    <path class="cls-1" d="M814.11,70.81v4.96h-9.08v24.19h-5.62v-24.19h-9.08v-4.96h23.78Z"/>
    <path class="cls-1" d="M227.42,113.75v12.45h14.53v-12.45h5.58v29.15h-5.58v-11.83h-14.53v11.83h-5.58v-29.15h5.58Z"/>
    <path class="cls-1" d="M273.73,136.74h-14.24l-2.58,6.16h-5.79l12.78-29.15h5.79l12.62,29.15h-6l-2.58-6.16ZM271.73,131.95l-5.08-12.24-5.16,12.24h10.24Z"/>
    <path class="cls-1" d="M291.15,113.75l15.03,19.94v-19.94h5.41v29.15h-5.29l-14.99-19.9v19.9h-5.46v-29.15h5.29Z"/>
    <path class="cls-1" d="M346.08,128.33c0,8.49-6.41,14.57-15.41,14.57h-11.91v-29.15h12.12c8.83,0,15.2,6.04,15.2,14.57ZM340.37,128.37c0-5.7-4.12-9.7-9.58-9.7h-6.45v19.32h6.66c5.37,0,9.37-3.96,9.37-9.62Z"/>
    <path class="cls-1" d="M356.54,113.75v24.11h12.57v5.04h-18.15v-29.15h5.58Z"/>
    <path class="cls-1" d="M379.08,113.75v29.15h-5.58v-29.15h5.58Z"/>
    <path class="cls-1" d="M391.53,113.75l15.03,19.94v-19.94h5.41v29.15h-5.29l-14.99-19.9v19.9h-5.46v-29.15h5.29Z"/>
    <path class="cls-1" d="M438.93,128.41h4.87v10.95c-3,2.25-7.49,3.79-11.53,3.79-8.7,0-15.41-6.46-15.41-14.82s6.83-14.74,15.74-14.74c4.2,0,8.49,1.63,11.41,4.16l-3.16,4.08c-2.21-2.04-5.29-3.29-8.24-3.29-5.62,0-10.04,4.29-10.04,9.79s4.45,9.83,10.08,9.83c2,0,4.29-.71,6.29-1.83v-7.91Z"/>
    <path class="cls-1" d="M484.12,113.75v4.87h-15.78v7.2h14.16v4.87h-14.16v7.33h16.28v4.87h-21.86v-29.15h21.36Z"/>
    <path class="cls-1" d="M494.46,113.75l6.7,9.58,6.7-9.58h6.62l-9.78,13.95,10.62,15.2h-6.7l-7.45-10.41-7.37,10.41h-6.54l10.49-14.95-9.83-14.2h6.54Z"/>
    <path class="cls-1" d="M532.15,118.54c-5.5,0-9.79,4.25-9.79,9.66s4.29,9.7,9.79,9.7c2.79,0,5.75-1.29,7.91-3.42l3.29,3.66c-3,3.04-7.28,5-11.49,5-8.58,0-15.2-6.46-15.2-14.87s6.7-14.7,15.4-14.7c4.16,0,8.41,1.79,11.24,4.66l-3.25,4.08c-2.08-2.33-5.04-3.79-7.91-3.79Z"/>
    <path class="cls-1" d="M569.31,113.75v4.87h-15.78v7.2h14.16v4.87h-14.16v7.33h16.28v4.87h-21.86v-29.15h21.36Z"/>
    <path class="cls-1" d="M581.06,113.75v24.11h12.58v5.04h-18.15v-29.15h5.58Z"/>
    <path class="cls-1" d="M603.6,113.75v24.11h12.57v5.04h-18.15v-29.15h5.58Z"/>
    <path class="cls-1" d="M641.91,113.75v4.87h-15.78v7.2h14.15v4.87h-14.15v7.33h16.28v4.87h-21.86v-29.15h21.36Z"/>
    <path class="cls-1" d="M653.37,113.75l15.03,19.94v-19.94h5.41v29.15h-5.29l-14.99-19.9v19.9h-5.45v-29.15h5.29Z"/>
    <path class="cls-1" d="M694.19,118.54c-5.5,0-9.78,4.25-9.78,9.66s4.29,9.7,9.78,9.7c2.79,0,5.75-1.29,7.91-3.42l3.29,3.66c-3,3.04-7.29,5-11.5,5-8.58,0-15.2-6.46-15.2-14.87s6.7-14.7,15.41-14.7c4.16,0,8.41,1.79,11.24,4.66l-3.25,4.08c-2.08-2.33-5.04-3.79-7.91-3.79Z"/>
    <path class="cls-1" d="M731.34,113.75v4.87h-15.78v7.2h14.15v4.87h-14.15v7.33h16.28v4.87h-21.86v-29.15h21.36Z"/>
  </g>
  <g>
    <path class="cls-1" d="M199.1,90.83c-29.9,0-55.39-18.85-65.25-45.31-3.06,13.35-8.59,25.77-16.07,36.76,18.56,24.67,48.07,40.63,81.32,40.63v-32.08Z"/>
    <path class="cls-1" d="M97.4,21.18s0,.02,0,.03c0,29.9-18.85,55.38-45.3,65.25,13.35,3.06,25.78,8.58,36.76,16.06,24.66-18.56,40.62-48.07,40.62-81.31,0,0,0-.02,0-.03h-32.08Z"/>
    <path class="cls-1" d="M27.78,122.91h0c29.9,0,55.38,18.85,65.25,45.3,3.06-13.35,8.58-25.78,16.06-36.76-18.56-24.66-48.07-40.62-81.31-40.62h0v32.08Z"/>
    <path class="cls-1" d="M97.4,192.53h32.08c0-29.9,18.85-55.38,45.3-65.25-13.35-3.06-25.78-8.58-36.76-16.06-24.66,18.56-40.62,48.07-40.62,81.31Z"/>
    <circle class="cls-1" cx="181.5" cy="174.92" r="17.61"/>
    <circle class="cls-1" cx="181.5" cy="38.79" r="17.61"/>
    <circle class="cls-1" cx="45.39" cy="174.92" r="17.61"/>
    <circle class="cls-1" cx="45.39" cy="38.79" r="17.61"/>
  </g>
</svg>