<?xml version="1.0" encoding="UTF-8"?>
<svg id="Layer_1" data-name="Layer 1" xmlns="http://www.w3.org/2000/svg" viewBox="0 0 284.37 162.5">
  <defs>
    <style>
      .cls-1 {
        fill: #7f58ff;
      }

      .cls-1, .cls-2, .cls-3, .cls-4, .cls-5 {
        stroke-width: 0px;
      }

      .cls-2 {
        fill: #00beff;
      }

      .cls-3 {
        fill: #008dff;
      }

      .cls-4 {
        fill: #060d42;
      }

      .cls-5 {
        fill: #b74aff;
      }
    </style>
  </defs>
  <g>
    <path class="cls-3" d="M144.74,68.48c-23.82,0-44.13-15.02-51.99-36.1-2.44,10.64-6.84,20.54-12.8,29.29,14.78,19.66,38.3,32.37,64.79,32.37v-25.56Z"/>
    <path class="cls-1" d="M63.71,12.99s0,.02,0,.02c0,23.82-15.02,44.13-36.1,51.99,10.64,2.44,20.54,6.84,29.29,12.8,19.65-14.79,32.36-38.3,32.36-64.79,0,0,0-.02,0-.02h-25.56Z"/>
    <path class="cls-5" d="M8.24,94.04h0c23.82,0,44.13,15.02,51.99,36.1,2.44-10.64,6.84-20.54,12.8-29.29-14.79-19.65-38.3-32.36-64.79-32.36h0v25.56Z"/>
    <path class="cls-2" d="M63.71,149.51h25.56c0-23.82,15.02-44.13,36.1-51.99-10.64-2.44-20.54-6.84-29.29-12.8-19.65,14.79-32.36,38.3-32.36,64.78Z"/>
    <circle class="cls-2" cx="130.71" cy="135.48" r="14.03"/>
    <circle class="cls-3" cx="130.71" cy="27.02" r="14.03"/>
    <circle class="cls-5" cx="22.26" cy="135.48" r="14.03"/>
    <circle class="cls-1" cx="22.26" cy="27.02" r="14.03"/>
  </g>
  <g>
    <path class="cls-4" d="M168.91,77.25h-5.79l-1.1,2.59h-2.02l5.07-11.48h1.98l5.02,11.48h-2.07l-1.1-2.59ZM168.17,75.53l-2.16-5.1-2.16,5.1h4.33Z"/>
    <path class="cls-4" d="M178.42,70.04c-2.3,0-4.1,1.77-4.1,4.03s1.8,4.05,4.1,4.05c1.15,0,2.33-.52,3.2-1.36l1.15,1.28c-1.16,1.15-2.82,1.89-4.44,1.89-3.36,0-5.97-2.54-5.97-5.84s2.64-5.77,6.03-5.77c1.62,0,3.25.67,4.36,1.77l-1.13,1.41c-.84-.9-2.03-1.46-3.2-1.46Z"/>
    <path class="cls-4" d="M192.07,77.25h-5.79l-1.1,2.59h-2.02l5.07-11.48h1.98l5.02,11.48h-2.07l-1.1-2.59ZM191.33,75.53l-2.16-5.1-2.16,5.1h4.33Z"/>
    <path class="cls-4" d="M207.4,74.11c0,3.31-2.51,5.74-5.98,5.74h-4.66v-11.48h4.71c3.44,0,5.94,2.41,5.94,5.74ZM205.45,74.12c0-2.34-1.75-4.02-4.02-4.02h-2.74v8h2.82c2.23,0,3.93-1.66,3.93-3.98Z"/>
    <path class="cls-4" d="M217.67,68.37v1.74h-6.26v3.11h5.61v1.72h-5.61v3.16h6.46v1.74h-8.39v-11.48h8.2Z"/>
    <path class="cls-4" d="M222.53,68.37l3.79,7.62,3.77-7.62h2.28v11.48h-1.79l-.02-8.57-3.62,7.38h-1.26l-3.62-7.38v8.57h-1.82v-11.48h2.3Z"/>
    <path class="cls-4" d="M240.11,76.02v3.82h-1.92v-3.75l-4.28-7.72h1.95l3.28,5.59,3.21-5.59h1.97l-4.21,7.66Z"/>
    <path class="cls-4" d="M261.98,74.11c0,3.28-2.66,5.82-6.08,5.82s-6.08-2.54-6.08-5.82,2.66-5.79,6.08-5.79,6.08,2.51,6.08,5.79ZM251.79,74.11c0,2.28,1.88,4.08,4.13,4.08s4.08-1.8,4.08-4.08-1.84-4.05-4.08-4.05-4.13,1.77-4.13,4.05Z"/>
    <path class="cls-4" d="M271.76,68.37l-.02,1.74h-5.75v3.31h5.21v1.72h-5.21v4.71h-1.93v-11.48h7.71Z"/>
    <path class="cls-4" d="M165.12,87.01c-1.13,0-1.87.43-1.87,1.2,0,2.51,6.2,1.16,6.18,5.3,0,2.05-1.8,3.31-4.33,3.31-1.8,0-3.51-.74-4.69-1.82l.84-1.67c1.18,1.08,2.66,1.67,3.89,1.67,1.34,0,2.15-.51,2.15-1.39,0-2.56-6.2-1.13-6.2-5.21,0-1.97,1.69-3.2,4.18-3.2,1.49,0,2.95.48,4.02,1.18l-.8,1.71c-1.25-.75-2.49-1.07-3.36-1.07Z"/>
    <path class="cls-4" d="M179.01,94.16h-5.79l-1.1,2.59h-2.02l5.07-11.48h1.98l5.02,11.48h-2.07l-1.1-2.59ZM178.27,92.44l-2.16-5.1-2.16,5.1h4.33Z"/>
    <path class="cls-4" d="M191.41,85.28l-.02,1.74h-5.75v3.31h5.21v1.72h-5.21v4.71h-1.93v-11.48h7.71Z"/>
    <path class="cls-4" d="M201.33,85.28v1.74h-6.26v3.11h5.61v1.72h-5.61v3.16h6.46v1.74h-8.39v-11.48h8.2Z"/>
    <path class="cls-4" d="M217.93,89.19c0,2.59-1.66,4.1-4.54,4.1h-2.64v3.46h-1.93v-11.48h4.57c2.89,0,4.54,1.43,4.54,3.92ZM216.08,89.24c0-1.51-1-2.23-2.77-2.23h-2.56v4.54h2.56c1.77,0,2.77-.75,2.77-2.31Z"/>
    <path class="cls-4" d="M226.54,94.16h-5.79l-1.1,2.59h-2.02l5.07-11.48h1.98l5.02,11.48h-2.07l-1.1-2.59ZM225.8,92.44l-2.16-5.1-2.16,5.1h4.33Z"/>
    <path class="cls-4" d="M237.94,85.28v1.74h-3.64v9.74h-1.93v-9.74h-3.62v-1.74h9.2Z"/>
    <path class="cls-4" d="M241.53,85.28v11.48h-1.93v-11.48h1.93Z"/>
    <path class="cls-4" d="M252.75,85.28v1.74h-6.26v3.11h5.61v1.72h-5.61v3.16h6.46v1.74h-8.39v-11.48h8.2Z"/>
    <path class="cls-4" d="M257.21,85.28l6.15,8.25v-8.25h1.9v11.48h-1.9l-6.12-8.23v8.23h-1.93v-11.48h1.9Z"/>
    <path class="cls-4" d="M276.14,85.28v1.74h-3.64v9.74h-1.93v-9.74h-3.62v-1.74h9.2Z"/>
    <path class="cls-4" d="M163.43,102.18v4.98h6.08v-4.98h1.93v11.48h-1.93v-4.75h-6.08v4.75h-1.93v-11.48h1.93Z"/>
    <path class="cls-4" d="M181.88,111.07h-5.79l-1.1,2.59h-2.02l5.07-11.48h1.98l5.02,11.48h-2.07l-1.1-2.59ZM181.14,109.35l-2.16-5.1-2.16,5.1h4.33Z"/>
    <path class="cls-4" d="M188.48,102.18l6.15,8.25v-8.25h1.9v11.48h-1.9l-6.12-8.23v8.23h-1.93v-11.48h1.9Z"/>
    <path class="cls-4" d="M210.2,107.92c0,3.31-2.51,5.74-5.98,5.74h-4.66v-11.48h4.71c3.44,0,5.94,2.41,5.94,5.74ZM208.25,107.94c0-2.34-1.75-4.02-4.02-4.02h-2.74v8h2.82c2.23,0,3.93-1.66,3.93-3.98Z"/>
    <path class="cls-4" d="M214.21,102.18v9.72h4.97v1.75h-6.9v-11.48h1.93Z"/>
    <path class="cls-4" d="M222.97,102.18v11.48h-1.93v-11.48h1.93Z"/>
    <path class="cls-4" d="M227.89,102.18l6.15,8.25v-8.25h1.9v11.48h-1.9l-6.12-8.23v8.23h-1.93v-11.48h1.9Z"/>
    <path class="cls-4" d="M246.83,108.02h1.69v4.23c-1.16.89-2.89,1.49-4.46,1.49-3.39,0-6.03-2.54-6.03-5.82s2.67-5.79,6.15-5.79c1.64,0,3.28.62,4.41,1.61l-1.1,1.43c-.89-.82-2.12-1.31-3.31-1.31-2.35,0-4.18,1.79-4.18,4.07s1.85,4.08,4.2,4.08c.85,0,1.82-.3,2.64-.79v-3.2Z"/>
    <path class="cls-4" d="M169.69,119.09v1.74h-6.26v3.11h5.61v1.72h-5.61v3.16h6.46v1.74h-8.39v-11.48h8.2Z"/>
    <path class="cls-4" d="M173.53,119.09l2.8,3.98,2.82-3.98h2.26l-3.85,5.51,4.18,5.97h-2.31l-3.1-4.33-3.08,4.33h-2.26l4.18-5.89-3.89-5.59h2.25Z"/>
    <path class="cls-4" d="M188.42,120.77c-2.3,0-4.1,1.77-4.1,4.03s1.8,4.05,4.1,4.05c1.15,0,2.33-.52,3.2-1.36l1.15,1.28c-1.16,1.15-2.82,1.89-4.44,1.89-3.36,0-5.97-2.54-5.97-5.84s2.64-5.77,6.03-5.77c1.62,0,3.25.67,4.36,1.77l-1.13,1.41c-.84-.9-2.03-1.46-3.2-1.46Z"/>
    <path class="cls-4" d="M202.94,119.09v1.74h-6.26v3.11h5.61v1.72h-5.61v3.16h6.46v1.74h-8.39v-11.48h8.2Z"/>
    <path class="cls-4" d="M207.44,119.09v9.72h4.97v1.75h-6.9v-11.48h1.93Z"/>
    <path class="cls-4" d="M216.19,119.09v9.72h4.97v1.75h-6.9v-11.48h1.93Z"/>
    <path class="cls-4" d="M231.22,119.09v1.74h-6.26v3.11h5.61v1.72h-5.61v3.16h6.46v1.74h-8.39v-11.48h8.2Z"/>
    <path class="cls-4" d="M235.68,119.09l6.15,8.25v-8.25h1.9v11.48h-1.9l-6.12-8.23v8.23h-1.93v-11.48h1.9Z"/>
    <path class="cls-4" d="M251.88,120.77c-2.3,0-4.1,1.77-4.1,4.03s1.8,4.05,4.1,4.05c1.15,0,2.33-.52,3.2-1.36l1.15,1.28c-1.16,1.15-2.82,1.89-4.44,1.89-3.36,0-5.97-2.54-5.97-5.84s2.64-5.77,6.03-5.77c1.62,0,3.25.67,4.36,1.77l-1.13,1.41c-.84-.9-2.03-1.46-3.2-1.46Z"/>
    <path class="cls-4" d="M266.4,119.09v1.74h-6.26v3.11h5.61v1.72h-5.61v3.16h6.46v1.74h-8.39v-11.48h8.2Z"/>
    <path class="cls-4" d="M163.02,142.41c0,2.72.74,5.23,1.93,7.1h-1.71c-1.29-1.87-2-4.38-2-7.1s.71-5.23,2-7.1h1.71c-1.2,1.87-1.93,4.38-1.93,7.1Z"/>
    <path class="cls-4" d="M174.14,144.89h-5.79l-1.1,2.59h-2.02l5.07-11.48h1.98l5.02,11.48h-2.07l-1.1-2.59ZM173.4,143.17l-2.16-5.1-2.16,5.1h4.33Z"/>
    <path class="cls-4" d="M182.36,137.74c-1.13,0-1.87.43-1.87,1.2,0,2.51,6.2,1.16,6.18,5.3,0,2.05-1.8,3.31-4.33,3.31-1.8,0-3.51-.74-4.69-1.82l.84-1.67c1.18,1.08,2.66,1.67,3.89,1.67,1.34,0,2.15-.51,2.15-1.39,0-2.56-6.2-1.13-6.2-5.21,0-1.97,1.69-3.2,4.18-3.2,1.49,0,2.95.48,4.02,1.18l-.8,1.71c-1.25-.75-2.49-1.07-3.36-1.07Z"/>
    <path class="cls-4" d="M198.05,139.92c0,2.59-1.66,4.1-4.54,4.1h-2.64v3.46h-1.93v-11.48h4.57c2.89,0,4.54,1.43,4.54,3.92ZM196.2,139.97c0-1.51-1-2.23-2.77-2.23h-2.56v4.54h2.56c1.77,0,2.77-.75,2.77-2.31Z"/>
    <path class="cls-4" d="M201.91,136v4.98h6.08v-4.98h1.93v11.48h-1.93v-4.75h-6.08v4.75h-1.93v-11.48h1.93Z"/>
    <path class="cls-4" d="M221.14,136v1.74h-6.26v3.11h5.61v1.72h-5.61v3.16h6.46v1.74h-8.39v-11.48h8.2Z"/>
    <path class="cls-4" d="M225.85,135.31c1.29,1.87,2,4.38,2,7.1s-.71,5.23-2,7.1h-1.71c1.2-1.87,1.93-4.38,1.93-7.1s-.74-5.23-1.93-7.1h1.71Z"/>
  </g>
</svg>