<?xml version="1.0" encoding="UTF-8"?>
<svg id="Layer_1" data-name="Layer 1" xmlns="http://www.w3.org/2000/svg" viewBox="0 0 841.89 468.55">
  <defs>
    <style>
      .cls-1 {
        fill: #fff;
        stroke-width: 0px;
      }
    </style>
  </defs>
  <g>
    <path class="cls-1" d="M428.41,196.88c-69.77,0-129.26-43.99-152.27-105.75-7.15,31.16-20.04,60.15-37.51,85.79,43.3,57.58,112.19,94.82,189.78,94.82v-74.86Z"/>
    <path class="cls-1" d="M191.08,34.34s0,.04,0,.07c0,69.77-43.98,129.24-105.72,152.26,31.16,7.14,60.15,20.03,85.8,37.49,57.56-43.31,94.79-112.18,94.79-189.75,0-.02,0-.04,0-.07h-74.86Z"/>
    <path class="cls-1" d="M28.61,271.74h0c69.77,0,129.24,43.98,152.26,105.72,7.14-31.16,20.03-60.15,37.49-85.8-43.31-57.56-112.18-94.79-189.75-94.79h0v74.86Z"/>
    <path class="cls-1" d="M191.08,434.21h74.86c0-69.77,43.98-129.24,105.72-152.26-31.16-7.14-60.15-20.03-85.8-37.49-57.56,43.31-94.79,112.18-94.79,189.75Z"/>
    <circle class="cls-1" cx="387.32" cy="393.12" r="41.09"/>
    <circle class="cls-1" cx="387.32" cy="75.43" r="41.09"/>
    <circle class="cls-1" cx="69.69" cy="393.12" r="41.09"/>
    <circle class="cls-1" cx="69.69" cy="75.43" r="41.09"/>
  </g>
  <g>
    <path class="cls-1" d="M499.2,222.57h-16.95l-3.22,7.59h-5.91l14.84-33.62h5.81l14.69,33.62h-6.05l-3.22-7.59ZM497.05,217.53l-6.34-14.93-6.34,14.93h12.68Z"/>
    <path class="cls-1" d="M527.07,201.44c-6.72,0-12,5.19-12,11.81s5.28,11.86,12,11.86c3.36,0,6.82-1.54,9.37-3.99l3.36,3.75c-3.41,3.36-8.26,5.52-13.01,5.52-9.85,0-17.48-7.44-17.48-17.09s7.73-16.9,17.67-16.9c4.75,0,9.51,1.97,12.77,5.19l-3.31,4.13c-2.45-2.64-5.96-4.28-9.37-4.28Z"/>
    <path class="cls-1" d="M567.04,222.57h-16.95l-3.22,7.59h-5.91l14.84-33.62h5.81l14.69,33.62h-6.05l-3.22-7.59ZM564.88,217.53l-6.34-14.93-6.34,14.93h12.68Z"/>
    <path class="cls-1" d="M611.95,213.35c0,9.7-7.35,16.81-17.53,16.81h-13.64v-33.62h13.78c10.08,0,17.38,7.06,17.38,16.81ZM606.24,213.4c0-6.87-5.14-11.77-11.76-11.77h-8.02v23.43h8.26c6.53,0,11.52-4.85,11.52-11.67Z"/>
    <path class="cls-1" d="M642.03,196.54v5.09h-18.34v9.12h16.42v5.04h-16.42v9.27h18.92v5.09h-24.59v-33.62h24.01Z"/>
    <path class="cls-1" d="M656.25,196.54l11.09,22.33,11.04-22.33h6.68v33.62h-5.23l-.05-25.11-10.61,21.61h-3.7l-10.61-21.61v25.11h-5.33v-33.62h6.72Z"/>
    <path class="cls-1" d="M707.75,218.97v11.19h-5.62v-11l-12.54-22.62h5.72l9.6,16.38,9.41-16.38h5.76l-12.34,22.43Z"/>
    <path class="cls-1" d="M771.82,213.35c0,9.6-7.78,17.05-17.81,17.05s-17.82-7.44-17.82-17.05,7.78-16.95,17.82-16.95,17.81,7.35,17.81,16.95ZM741.95,213.35c0,6.67,5.52,11.96,12.1,11.96s11.96-5.28,11.96-11.96-5.38-11.86-11.96-11.86-12.1,5.19-12.1,11.86Z"/>
    <path class="cls-1" d="M800.46,196.54l-.05,5.09h-16.86v9.7h15.27v5.04h-15.27v13.78h-5.67v-33.62h22.57Z"/>
    <path class="cls-1" d="M488.11,251.16c-3.31,0-5.47,1.25-5.47,3.5,0,7.35,18.15,3.41,18.1,15.51,0,6-5.28,9.7-12.68,9.7-5.28,0-10.28-2.16-13.73-5.33l2.45-4.9c3.46,3.17,7.78,4.9,11.38,4.9,3.94,0,6.29-1.49,6.29-4.08,0-7.49-18.15-3.31-18.15-15.27,0-5.76,4.95-9.36,12.25-9.36,4.37,0,8.64,1.39,11.76,3.46l-2.35,4.99c-3.65-2.21-7.3-3.12-9.85-3.12Z"/>
    <path class="cls-1" d="M528.8,272.09h-16.95l-3.22,7.59h-5.91l14.84-33.62h5.81l14.69,33.62h-6.05l-3.22-7.59ZM526.64,267.05l-6.34-14.93-6.34,14.93h12.68Z"/>
    <path class="cls-1" d="M565.11,246.07l-.05,5.09h-16.86v9.7h15.27v5.04h-15.27v13.78h-5.67v-33.62h22.57Z"/>
    <path class="cls-1" d="M594.18,246.07v5.09h-18.34v9.12h16.42v5.04h-16.42v9.27h18.92v5.09h-24.59v-33.62h24.01Z"/>
    <path class="cls-1" d="M642.79,257.54c0,7.59-4.85,12.01-13.3,12.01h-7.73v10.13h-5.67v-33.62h13.4c8.45,0,13.3,4.18,13.3,11.48ZM637.37,257.69c0-4.42-2.93-6.53-8.12-6.53h-7.49v13.3h7.49c5.19,0,8.12-2.21,8.12-6.77Z"/>
    <path class="cls-1" d="M668.01,272.09h-16.95l-3.22,7.59h-5.91l14.84-33.62h5.81l14.69,33.62h-6.05l-3.22-7.59ZM665.85,267.05l-6.34-14.93-6.34,14.93h12.68Z"/>
    <path class="cls-1" d="M701.4,246.07v5.09h-10.66v28.52h-5.67v-28.52h-10.61v-5.09h26.94Z"/>
    <path class="cls-1" d="M711.93,246.07v33.62h-5.67v-33.62h5.67Z"/>
    <path class="cls-1" d="M744.78,246.07v5.09h-18.34v9.12h16.42v5.04h-16.42v9.27h18.92v5.09h-24.59v-33.62h24.01Z"/>
    <path class="cls-1" d="M757.85,246.07l18.01,24.16v-24.16h5.57v33.62h-5.57l-17.91-24.11v24.11h-5.67v-33.62h5.57Z"/>
    <path class="cls-1" d="M813.28,246.07v5.09h-10.66v28.52h-5.67v-28.52h-10.61v-5.09h26.94Z"/>
    <path class="cls-1" d="M483.17,295.59v14.6h17.81v-14.6h5.67v33.62h-5.67v-13.93h-17.81v13.93h-5.67v-33.62h5.67Z"/>
    <path class="cls-1" d="M537.2,321.62h-16.95l-3.22,7.59h-5.91l14.84-33.62h5.81l14.69,33.62h-6.05l-3.22-7.59ZM535.04,316.58l-6.34-14.93-6.34,14.93h12.68Z"/>
    <path class="cls-1" d="M556.52,295.59l18.01,24.16v-24.16h5.57v33.62h-5.57l-17.91-24.11v24.11h-5.67v-33.62h5.57Z"/>
    <path class="cls-1" d="M620.17,312.4c0,9.7-7.35,16.81-17.53,16.81h-13.64v-33.62h13.78c10.08,0,17.38,7.06,17.38,16.81ZM614.45,312.45c0-6.87-5.14-11.77-11.76-11.77h-8.02v23.43h8.26c6.53,0,11.52-4.85,11.52-11.67Z"/>
    <path class="cls-1" d="M631.9,295.59v28.48h14.55v5.14h-20.22v-33.62h5.67Z"/>
    <path class="cls-1" d="M657.55,295.59v33.62h-5.67v-33.62h5.67Z"/>
    <path class="cls-1" d="M671.96,295.59l18.01,24.16v-24.16h5.57v33.62h-5.57l-17.91-24.11v24.11h-5.67v-33.62h5.57Z"/>
    <path class="cls-1" d="M727.44,312.69h4.94v12.39c-3.41,2.59-8.45,4.37-13.06,4.37-9.94,0-17.67-7.44-17.67-17.05s7.83-16.95,18.01-16.95c4.8,0,9.6,1.82,12.92,4.71l-3.22,4.18c-2.59-2.4-6.2-3.84-9.7-3.84-6.87,0-12.25,5.23-12.25,11.91s5.43,11.96,12.29,11.96c2.5,0,5.33-.86,7.73-2.31v-9.36Z"/>
    <path class="cls-1" d="M501.51,345.11v5.09h-18.34v9.12h16.42v5.04h-16.42v9.27h18.92v5.09h-24.59v-33.62h24.01Z"/>
    <path class="cls-1" d="M512.76,345.11l8.21,11.67,8.26-11.67h6.63l-11.28,16.14,12.24,17.48h-6.77l-9.08-12.68-9.03,12.68h-6.63l12.25-17.24-11.38-16.38h6.58Z"/>
    <path class="cls-1" d="M556.37,350.01c-6.72,0-12,5.19-12,11.81s5.28,11.86,12,11.86c3.36,0,6.82-1.54,9.37-3.99l3.36,3.75c-3.41,3.36-8.26,5.52-13.01,5.52-9.85,0-17.48-7.44-17.48-17.09s7.73-16.9,17.67-16.9c4.75,0,9.51,1.97,12.77,5.19l-3.31,4.13c-2.45-2.64-5.96-4.28-9.37-4.28Z"/>
    <path class="cls-1" d="M598.89,345.11v5.09h-18.34v9.12h16.42v5.04h-16.42v9.27h18.92v5.09h-24.59v-33.62h24.01Z"/>
    <path class="cls-1" d="M612.06,345.11v28.48h14.55v5.14h-20.22v-33.62h5.67Z"/>
    <path class="cls-1" d="M637.71,345.11v28.48h14.55v5.14h-20.22v-33.62h5.67Z"/>
    <path class="cls-1" d="M681.71,345.11v5.09h-18.34v9.12h16.42v5.04h-16.42v9.27h18.92v5.09h-24.59v-33.62h24.01Z"/>
    <path class="cls-1" d="M694.78,345.11l18.01,24.16v-24.16h5.57v33.62h-5.57l-17.91-24.11v24.11h-5.67v-33.62h5.57Z"/>
    <path class="cls-1" d="M742.24,350.01c-6.72,0-12,5.19-12,11.81s5.28,11.86,12,11.86c3.36,0,6.82-1.54,9.37-3.99l3.36,3.75c-3.41,3.36-8.26,5.52-13.01,5.52-9.85,0-17.48-7.44-17.48-17.09s7.73-16.9,17.67-16.9c4.75,0,9.51,1.97,12.77,5.19l-3.31,4.13c-2.45-2.64-5.96-4.28-9.37-4.28Z"/>
    <path class="cls-1" d="M784.75,345.11v5.09h-18.34v9.12h16.42v5.04h-16.42v9.27h18.92v5.09h-24.59v-33.62h24.01Z"/>
    <path class="cls-1" d="M481.97,413.41c0,7.97,2.16,15.32,5.67,20.79h-4.99c-3.79-5.48-5.86-12.82-5.86-20.79s2.07-15.32,5.86-20.79h4.99c-3.51,5.47-5.67,12.82-5.67,20.79Z"/>
    <path class="cls-1" d="M514.53,420.67h-16.95l-3.22,7.59h-5.91l14.84-33.62h5.81l14.69,33.62h-6.05l-3.22-7.59ZM512.37,415.62l-6.34-14.93-6.34,14.93h12.68Z"/>
    <path class="cls-1" d="M538.6,399.73c-3.31,0-5.47,1.25-5.47,3.5,0,7.35,18.15,3.41,18.1,15.51,0,6-5.28,9.7-12.68,9.7-5.28,0-10.28-2.16-13.73-5.33l2.45-4.9c3.46,3.17,7.78,4.9,11.38,4.9,3.94,0,6.29-1.49,6.29-4.08,0-7.49-18.15-3.31-18.15-15.27,0-5.76,4.95-9.36,12.25-9.36,4.37,0,8.64,1.39,11.76,3.46l-2.35,4.99c-3.65-2.21-7.3-3.12-9.85-3.12Z"/>
    <path class="cls-1" d="M584.57,406.12c0,7.59-4.85,12.01-13.3,12.01h-7.73v10.13h-5.67v-33.62h13.4c8.45,0,13.3,4.18,13.3,11.48ZM579.14,406.26c0-4.42-2.93-6.53-8.12-6.53h-7.49v13.3h7.49c5.19,0,8.12-2.21,8.12-6.77Z"/>
    <path class="cls-1" d="M595.87,394.64v14.6h17.81v-14.6h5.67v33.62h-5.67v-13.93h-17.81v13.93h-5.67v-33.62h5.67Z"/>
    <path class="cls-1" d="M652.21,394.64v5.09h-18.34v9.12h16.42v5.04h-16.42v9.27h18.92v5.09h-24.59v-33.62h24.01Z"/>
    <path class="cls-1" d="M666,392.62c3.79,5.47,5.86,12.82,5.86,20.79s-2.07,15.32-5.86,20.79h-4.99c3.51-5.48,5.67-12.82,5.67-20.79s-2.16-15.32-5.67-20.79h4.99Z"/>
  </g>
</svg>