<?xml version="1.0" encoding="UTF-8"?>
<svg id="Layer_1" data-name="Layer 1" xmlns="http://www.w3.org/2000/svg" viewBox="0 0 1920 548.89">
  <defs>
    <style>
      .cls-1 {
        fill: #7f58ff;
      }

      .cls-1, .cls-2, .cls-3, .cls-4, .cls-5 {
        stroke-width: 0px;
      }

      .cls-2 {
        fill: #00beff;
      }

      .cls-3 {
        fill: #008dff;
      }

      .cls-4 {
        fill: #060d42;
      }

      .cls-6 {
        isolation: isolate;
      }

      .cls-5 {
        fill: #b74aff;
      }
    </style>
  </defs>
  <g>
    <path class="cls-3" d="M464.91,238.51c-67.05,0-124.21-42.28-146.33-101.62-6.87,29.94-19.26,57.8-36.04,82.44,41.61,55.33,107.81,91.12,182.37,91.12v-71.94h0Z"/>
    <path class="cls-1" d="M236.84,82.32v.06c0,67.04-42.27,124.2-101.6,146.32,29.94,6.86,57.8,19.25,82.45,36.03,55.31-41.62,91.09-107.8,91.09-182.35v-.06h-71.94,0Z"/>
    <path class="cls-5" d="M80.71,310.45h0c67.04,0,124.2,42.27,146.32,101.6,6.86-29.94,19.25-57.8,36.03-82.45-41.62-55.31-107.8-91.09-182.35-91.09h0v71.94h0Z"/>
    <path class="cls-2" d="M236.84,466.58h71.94c0-67.04,42.27-124.2,101.6-146.32-29.94-6.86-57.8-19.25-82.45-36.03-55.31,41.62-91.09,107.8-91.09,182.35Z"/>
    <circle class="cls-2" cx="425.42" cy="427.09" r="39.48"/>
    <circle class="cls-3" cx="425.42" cy="121.8" r="39.48"/>
    <circle class="cls-5" cx="120.2" cy="427.09" r="39.48"/>
    <circle class="cls-1" cx="120.2" cy="121.8" r="39.48"/>
  </g>
  <g class="cls-6">
    <g class="cls-6">
      <path class="cls-4" d="M517.87,262.54l29.26-64.62h9.14l29.35,64.62h-9.69l-26.12-59.45h3.69l-26.12,59.45h-9.51ZM530.33,246.39l2.49-7.38h36.37l2.68,7.38h-41.54Z"/>
    </g>
    <g class="cls-6">
      <path class="cls-4" d="M623.85,263.28c-4.92,0-9.46-.81-13.62-2.45-4.15-1.63-7.75-3.94-10.8-6.92-3.05-2.98-5.43-6.48-7.15-10.48-1.72-4-2.58-8.4-2.58-13.2s.86-9.2,2.58-13.2c1.72-4,4.12-7.49,7.2-10.48,3.08-2.98,6.69-5.29,10.85-6.92,4.15-1.63,8.69-2.45,13.62-2.45s9.58.85,13.8,2.54c4.21,1.69,7.8,4.2,10.75,7.52l-6,5.82c-2.46-2.58-5.23-4.51-8.31-5.77-3.08-1.26-6.37-1.89-9.88-1.89s-7,.62-10.11,1.85c-3.11,1.23-5.8,2.95-8.08,5.17-2.28,2.21-4.05,4.85-5.31,7.89-1.26,3.05-1.89,6.35-1.89,9.92s.63,6.88,1.89,9.92c1.26,3.05,3.03,5.68,5.31,7.89,2.28,2.21,4.97,3.94,8.08,5.17,3.11,1.23,6.48,1.85,10.11,1.85s6.8-.63,9.88-1.89c3.08-1.26,5.85-3.21,8.31-5.86l6,5.82c-2.95,3.32-6.54,5.85-10.75,7.57-4.22,1.72-8.85,2.58-13.89,2.58Z"/>
    </g>
    <g class="cls-6">
      <path class="cls-4" d="M648.86,262.54l29.26-64.62h9.14l29.35,64.62h-9.69l-26.12-59.45h3.69l-26.12,59.45h-9.51ZM661.32,246.39l2.49-7.38h36.37l2.68,7.38h-41.54Z"/>
      <path class="cls-4" d="M726.21,262.54v-64.62h27.23c6.89,0,12.97,1.35,18.23,4.06,5.26,2.71,9.35,6.49,12.28,11.35,2.92,4.86,4.38,10.49,4.38,16.89s-1.46,12.03-4.38,16.89c-2.92,4.86-7.02,8.65-12.28,11.35-5.26,2.71-11.34,4.06-18.23,4.06h-27.23ZM735.44,254.51h17.45c5.35,0,9.98-1.01,13.89-3.05,3.91-2.03,6.94-4.88,9.09-8.54,2.15-3.66,3.23-7.89,3.23-12.69s-1.08-9.11-3.23-12.74c-2.15-3.63-5.19-6.46-9.09-8.49-3.91-2.03-8.54-3.05-13.89-3.05h-17.45v48.55Z"/>
      <path class="cls-4" d="M811.69,254.51h37.66v8.03h-46.89v-64.62h45.6v8.03h-36.37v48.55ZM810.86,225.8h33.23v7.85h-33.23v-7.85Z"/>
      <path class="cls-4" d="M864.31,262.54v-64.62h7.57l28.98,48.83h-4.06l28.62-48.83h7.57l.09,64.62h-8.86l-.09-50.68h2.12l-25.48,42.83h-4.25l-25.66-42.83h2.31v50.68h-8.86Z"/>
      <path class="cls-4" d="M968.06,262.54v-24.74l2.12,5.72-27.78-45.6h9.88l23.35,38.49h-5.35l23.45-38.49h9.14l-27.69,45.6,2.03-5.72v24.74h-9.14Z"/>
      <path class="cls-4" d="M1066.19,263.28c-4.92,0-9.49-.83-13.71-2.49-4.22-1.66-7.86-3.98-10.94-6.97-3.08-2.98-5.48-6.48-7.2-10.48-1.72-4-2.58-8.37-2.58-13.11s.86-9.11,2.58-13.11c1.72-4,4.12-7.49,7.2-10.48,3.08-2.98,6.71-5.31,10.89-6.97,4.18-1.66,8.77-2.49,13.75-2.49s9.46.82,13.62,2.45c4.15,1.63,7.78,3.94,10.89,6.92,3.11,2.99,5.51,6.48,7.2,10.48,1.69,4,2.54,8.4,2.54,13.2s-.85,9.2-2.54,13.2c-1.69,4-4.09,7.49-7.2,10.48-3.11,2.99-6.74,5.29-10.89,6.92-4.15,1.63-8.69,2.45-13.62,2.45ZM1066.19,255.06c3.57,0,6.88-.61,9.92-1.85,3.05-1.23,5.69-2.97,7.94-5.22,2.25-2.25,4-4.88,5.26-7.89,1.26-3.01,1.89-6.31,1.89-9.88s-.63-6.86-1.89-9.88c-1.26-3.01-3.02-5.65-5.26-7.89-2.25-2.25-4.89-3.98-7.94-5.22-3.05-1.23-6.36-1.85-9.92-1.85s-6.97.62-10.02,1.85c-3.05,1.23-5.71,2.97-7.98,5.22-2.28,2.25-4.05,4.88-5.31,7.89-1.26,3.02-1.89,6.31-1.89,9.88s.63,6.86,1.89,9.88c1.26,3.02,3.03,5.65,5.31,7.89,2.28,2.25,4.94,3.99,7.98,5.22,3.05,1.23,6.38,1.85,10.02,1.85Z"/>
      <path class="cls-4" d="M1123.79,262.54h-9.23v-64.62h45.6v8.03h-36.37v56.59ZM1122.87,228.48h33.32v7.94h-33.32v-7.94Z"/>
    </g>
    <g class="cls-6">
      <path class="cls-4" d="M1207.61,263.28c-4.92,0-9.63-.75-14.12-2.26-4.49-1.51-8.03-3.46-10.62-5.86l3.42-7.2c2.46,2.16,5.6,3.94,9.42,5.35,3.81,1.42,7.78,2.12,11.91,2.12,3.75,0,6.8-.43,9.14-1.29,2.34-.86,4.06-2.04,5.17-3.55,1.11-1.51,1.66-3.21,1.66-5.12,0-2.22-.72-4-2.17-5.35-1.45-1.35-3.32-2.45-5.63-3.28-2.31-.83-4.85-1.55-7.62-2.17-2.77-.61-5.55-1.34-8.35-2.17-2.8-.83-5.35-1.89-7.66-3.18-2.31-1.29-4.17-3.03-5.58-5.22-1.42-2.18-2.12-5-2.12-8.45s.88-6.38,2.63-9.18c1.75-2.8,4.46-5.05,8.12-6.74,3.66-1.69,8.32-2.54,13.99-2.54,3.75,0,7.48.49,11.17,1.48,3.69.99,6.89,2.4,9.6,4.25l-3.05,7.38c-2.77-1.85-5.69-3.19-8.77-4.02-3.08-.83-6.06-1.25-8.95-1.25-3.63,0-6.62.46-8.95,1.38-2.34.92-4.05,2.15-5.12,3.69-1.08,1.54-1.62,3.26-1.62,5.17,0,2.28.72,4.09,2.17,5.45,1.44,1.35,3.32,2.43,5.63,3.23,2.31.8,4.85,1.52,7.62,2.17,2.77.65,5.55,1.37,8.35,2.17,2.8.8,5.35,1.85,7.66,3.14s4.17,3.02,5.58,5.17c1.42,2.16,2.12,4.92,2.12,8.31s-.89,6.29-2.68,9.09c-1.79,2.8-4.54,5.05-8.26,6.74-3.72,1.69-8.42,2.54-14.08,2.54Z"/>
    </g>
    <g class="cls-6">
      <path class="cls-4" d="M1236.51,262.54l29.26-64.62h9.14l29.36,64.62h-9.69l-26.12-59.45h3.69l-26.12,59.45h-9.51ZM1248.97,246.39l2.49-7.38h36.37l2.68,7.38h-41.54Z"/>
      <path class="cls-4" d="M1323.09,262.54h-9.23v-64.62h45.6v8.03h-36.37v56.59ZM1322.17,228.48h33.32v7.94h-33.32v-7.94Z"/>
      <path class="cls-4" d="M1381.71,254.51h37.66v8.03h-46.89v-64.62h45.6v8.03h-36.37v48.55ZM1380.88,225.8h33.23v7.85h-33.23v-7.85Z"/>
    </g>
    <g class="cls-6">
      <path class="cls-4" d="M1457.77,262.54v-64.62h25.2c5.66,0,10.49.89,14.49,2.68,4,1.79,7.08,4.37,9.23,7.75,2.15,3.38,3.23,7.42,3.23,12.09s-1.08,8.69-3.23,12.05c-2.16,3.35-5.23,5.94-9.23,7.75-4,1.82-8.83,2.72-14.49,2.72h-20.12l4.15-4.34v23.91h-9.23ZM1467,239.55l-4.15-4.62h19.85c5.91,0,10.38-1.26,13.43-3.79,3.05-2.52,4.57-6.09,4.57-10.71s-1.52-8.18-4.57-10.71c-3.05-2.52-7.52-3.78-13.43-3.78h-19.85l4.15-4.62v38.22Z"/>
    </g>
    <g class="cls-6">
      <path class="cls-4" d="M1506.05,262.54l29.26-64.62h9.14l29.35,64.62h-9.69l-26.12-59.45h3.69l-26.12,59.45h-9.51ZM1518.51,246.39l2.49-7.38h36.37l2.68,7.38h-41.54Z"/>
    </g>
    <g class="cls-6">
      <path class="cls-4" d="M1591.06,262.54v-56.59h-22.15v-8.03h53.45v8.03h-22.16v56.59h-9.14Z"/>
      <path class="cls-4" d="M1632.42,262.54v-64.62h9.23v64.62h-9.23Z"/>
      <path class="cls-4" d="M1670.26,254.51h37.66v8.03h-46.89v-64.62h45.6v8.03h-36.37v48.55ZM1669.43,225.8h33.23v7.85h-33.23v-7.85Z"/>
      <path class="cls-4" d="M1722.88,262.54v-64.62h7.57l42.74,53.08h-3.97v-53.08h9.23v64.62h-7.57l-42.74-53.08h3.97v53.08h-9.23Z"/>
      <path class="cls-4" d="M1810.67,262.54v-56.59h-22.15v-8.03h53.45v8.03h-22.15v56.59h-9.14Z"/>
    </g>
    <g class="cls-6">
      <path class="cls-4" d="M536.88,357.7h-9.23v-64.62h9.23v64.62ZM574.82,328.9h-38.86v-8.03h38.86v8.03ZM573.99,293.08h9.23v64.62h-9.23v-64.62Z"/>
      <path class="cls-4" d="M592.82,357.7l29.26-64.62h9.14l29.35,64.62h-9.69l-26.12-59.45h3.69l-26.12,59.45h-9.51ZM605.29,341.55l2.49-7.38h36.37l2.68,7.38h-41.54Z"/>
      <path class="cls-4" d="M670.18,357.7v-64.62h7.57l42.74,53.08h-3.97v-53.08h9.23v64.62h-7.57l-42.74-53.08h3.97v53.08h-9.23Z"/>
      <path class="cls-4" d="M745.13,357.7v-64.62h27.23c6.89,0,12.97,1.35,18.23,4.06,5.26,2.71,9.35,6.49,12.28,11.35,2.92,4.86,4.38,10.49,4.38,16.89s-1.46,12.03-4.38,16.89c-2.92,4.86-7.02,8.65-12.28,11.35-5.26,2.71-11.34,4.06-18.23,4.06h-27.23ZM754.36,349.67h17.45c5.35,0,9.98-1.01,13.89-3.05,3.91-2.03,6.94-4.88,9.09-8.54,2.15-3.66,3.23-7.89,3.23-12.69s-1.08-9.11-3.23-12.74c-2.15-3.63-5.19-6.46-9.09-8.49-3.91-2.03-8.54-3.05-13.89-3.05h-17.45v48.55Z"/>
      <path class="cls-4" d="M821.38,357.7v-64.62h9.23v56.59h34.99v8.03h-44.22Z"/>
      <path class="cls-4" d="M876.21,357.7v-64.62h9.23v64.62h-9.23Z"/>
      <path class="cls-4" d="M904.83,357.7v-64.62h7.57l42.74,53.08h-3.97v-53.08h9.23v64.62h-7.57l-42.74-53.08h3.97v53.08h-9.23Z"/>
      <path class="cls-4" d="M1008.95,358.44c-4.98,0-9.57-.81-13.75-2.45-4.19-1.63-7.82-3.94-10.89-6.92-3.08-2.98-5.48-6.48-7.2-10.48-1.72-4-2.58-8.4-2.58-13.2s.86-9.2,2.58-13.2c1.72-4,4.14-7.49,7.25-10.48,3.11-2.98,6.75-5.29,10.94-6.92,4.18-1.63,8.8-2.45,13.85-2.45s9.78.83,14.03,2.49c4.25,1.66,7.85,4.15,10.8,7.48l-5.72,5.72c-2.65-2.58-5.52-4.48-8.63-5.68-3.11-1.2-6.48-1.8-10.11-1.8s-7.12.62-10.29,1.85c-3.17,1.23-5.91,2.95-8.22,5.17-2.31,2.21-4.09,4.85-5.35,7.89-1.26,3.05-1.89,6.35-1.89,9.92s.63,6.79,1.89,9.83c1.26,3.05,3.05,5.69,5.35,7.94,2.31,2.25,5.03,3.99,8.17,5.22,3.14,1.23,6.55,1.85,10.25,1.85,3.45,0,6.75-.54,9.92-1.62,3.17-1.08,6.11-2.88,8.82-5.4l5.26,7.01c-3.2,2.71-6.94,4.75-11.22,6.14-4.28,1.38-8.69,2.08-13.25,2.08ZM1024.55,349.02v-24h8.86v25.2l-8.86-1.2Z"/>
      <path class="cls-4" d="M1085.11,349.67h37.66v8.03h-46.89v-64.62h45.6v8.03h-36.37v48.55ZM1084.28,320.96h33.23v7.85h-33.23v-7.85Z"/>
    </g>
    <g class="cls-6">
      <path class="cls-4" d="M1114.1,357.7l26.86-36.65v7.11l-25.38-35.08h10.52l20.12,27.6-4.15.09,20.03-27.69h10.06l-25.2,34.52v-6.65l26.86,36.74h-10.62l-21.42-29.45h4.06l-21.14,29.45h-10.62Z"/>
    </g>
    <g class="cls-6">
      <path class="cls-4" d="M1215,358.44c-4.92,0-9.46-.81-13.62-2.45-4.15-1.63-7.75-3.94-10.8-6.92-3.05-2.98-5.43-6.48-7.15-10.48-1.72-4-2.58-8.4-2.58-13.2s.86-9.2,2.58-13.2c1.72-4,4.12-7.49,7.2-10.48,3.08-2.98,6.69-5.29,10.85-6.92,4.15-1.63,8.69-2.45,13.62-2.45s9.58.85,13.8,2.54c4.21,1.69,7.8,4.2,10.75,7.52l-6,5.82c-2.46-2.58-5.23-4.51-8.31-5.77-3.08-1.26-6.37-1.89-9.88-1.89s-7,.62-10.11,1.85c-3.11,1.23-5.8,2.95-8.08,5.17-2.28,2.21-4.05,4.85-5.31,7.89-1.26,3.05-1.89,6.35-1.89,9.92s.63,6.88,1.89,9.92c1.26,3.05,3.03,5.68,5.31,7.89,2.28,2.21,4.97,3.94,8.08,5.17,3.11,1.23,6.48,1.85,10.11,1.85s6.8-.63,9.88-1.89c3.08-1.26,5.85-3.21,8.31-5.86l6,5.82c-2.95,3.32-6.54,5.85-10.75,7.57-4.22,1.72-8.85,2.58-13.89,2.58Z"/>
      <path class="cls-4" d="M1262.07,349.67h37.66v8.03h-46.89v-64.62h45.6v8.03h-36.37v48.55ZM1261.24,320.96h33.23v7.85h-33.23v-7.85Z"/>
      <path class="cls-4" d="M1314.69,357.7v-64.62h9.23v56.59h34.99v8.03h-44.22Z"/>
      <path class="cls-4" d="M1369.52,357.7v-64.62h9.23v56.59h34.99v8.03h-44.22Z"/>
      <path class="cls-4" d="M1433.58,349.67h37.66v8.03h-46.89v-64.62h45.6v8.03h-36.37v48.55ZM1432.75,320.96h33.23v7.85h-33.23v-7.85Z"/>
      <path class="cls-4" d="M1486.2,357.7v-64.62h7.57l42.74,53.08h-3.97v-53.08h9.23v64.62h-7.57l-42.74-53.08h3.97v53.08h-9.23Z"/>
      <path class="cls-4" d="M1590.05,358.44c-4.92,0-9.46-.81-13.62-2.45-4.15-1.63-7.75-3.94-10.8-6.92-3.05-2.98-5.43-6.48-7.15-10.48-1.72-4-2.58-8.4-2.58-13.2s.86-9.2,2.58-13.2c1.72-4,4.12-7.49,7.2-10.48,3.08-2.98,6.69-5.29,10.85-6.92,4.15-1.63,8.69-2.45,13.62-2.45s9.58.85,13.8,2.54c4.21,1.69,7.8,4.2,10.75,7.52l-6,5.82c-2.46-2.58-5.23-4.51-8.31-5.77-3.08-1.26-6.37-1.89-9.88-1.89s-7,.62-10.11,1.85c-3.11,1.23-5.8,2.95-8.08,5.17-2.28,2.21-4.05,4.85-5.31,7.89-1.26,3.05-1.89,6.35-1.89,9.92s.63,6.88,1.89,9.92c1.26,3.05,3.03,5.68,5.31,7.89,2.28,2.21,4.97,3.94,8.08,5.17,3.11,1.23,6.48,1.85,10.11,1.85s6.8-.63,9.88-1.89c3.08-1.26,5.85-3.21,8.31-5.86l6,5.82c-2.95,3.32-6.54,5.85-10.75,7.57-4.22,1.72-8.85,2.58-13.89,2.58Z"/>
      <path class="cls-4" d="M1637.13,349.67h37.66v8.03h-46.89v-64.62h45.6v8.03h-36.37v48.55ZM1636.29,320.96h33.23v7.85h-33.23v-7.85Z"/>
    </g>
  </g>
</svg>