<svg width="24" height="20" viewBox="0 0 24 20" fill="none" xmlns="http://www.w3.org/2000/svg">
<path d="M24 2.3083C23.0972 2.70205 22.1424 2.96374 21.165 3.0853C22.195 2.47424 22.9651 1.50665 23.3295 0.365801C22.365 0.937806 21.3098 1.34061 20.2095 1.5568C19.5349 0.83647 18.6592 0.335679 17.6962 0.119493C16.7333 -0.0966941 15.7276 -0.0182836 14.8098 0.344537C13.892 0.707358 13.1045 1.33782 12.5496 2.15401C11.9948 2.97019 11.6982 3.93438 11.6985 4.9213C11.6985 5.3113 11.7315 5.6863 11.8125 6.0433C9.85512 5.94733 7.94004 5.43932 6.19245 4.55248C4.44487 3.66563 2.90414 2.41993 1.671 0.896801C1.03923 1.97959 0.843913 3.26246 1.12482 4.48421C1.40574 5.70595 2.14175 6.77469 3.183 7.4728C2.40414 7.45191 1.64171 7.24407 0.96 6.8668V6.9208C0.961305 8.05695 1.354 9.15796 2.07198 10.0385C2.78995 10.919 3.78937 11.5253 4.902 11.7553C4.48108 11.8662 4.04728 11.9207 3.612 11.9173C3.29938 11.9229 2.98708 11.8947 2.6805 11.8333C2.99841 12.8098 3.61124 13.6638 4.43459 14.2776C5.25795 14.8915 6.25134 15.2349 7.278 15.2608C5.53641 16.6229 3.38846 17.3617 1.1775 17.3593C0.774 17.3593 0.387 17.3413 0 17.2918C2.24982 18.7416 4.87151 19.5085 7.548 19.4998C16.602 19.4998 21.552 11.9998 21.552 5.4988C21.552 5.2813 21.5445 5.0713 21.534 4.8628C22.5044 4.16828 23.3401 3.30262 24 2.3083Z" fill="#00B1B9"/>
</svg>
