<svg width="28" height="20" viewBox="0 0 28 20" fill="none" xmlns="http://www.w3.org/2000/svg">
<g clip-path="url(#clip0_110_9293)">
<path d="M11.5963 19.9738C6.26384 19.874 4.44254 19.7842 3.32306 19.5496C2.56566 19.3938 1.90748 19.0478 1.42488 18.5459C1.05189 18.1661 0.755268 17.5866 0.525138 16.7826C0.327735 16.1127 0.250852 15.5554 0.141241 14.194C-0.0265509 11.1216 -0.0665509 8.60968 0.141241 5.80298C0.31267 4.25303 0.395787 2.41306 1.53449 1.33962C2.07215 0.83723 2.69761 0.513928 3.39994 0.380275C4.49709 0.168439 9.17137 0.000976562 14.0103 0.000976562C18.8384 0.000976562 23.5231 0.168439 24.6212 0.380275C25.4986 0.547737 26.3215 1.04959 26.8046 1.69673C27.8436 3.35867 27.8618 5.42526 27.9672 7.04177C28.0109 7.81199 28.0109 12.1855 27.9672 12.9558C27.8031 15.5105 27.6711 16.4144 27.2981 17.3515C27.0675 17.9432 26.8706 18.2554 26.5298 18.6014C25.9954 19.1339 25.314 19.4881 24.5766 19.6167C19.962 19.9696 16.0436 20.0462 11.5963 19.9738ZM18.6628 9.70848C16.0955 8.31332 13.6373 7.01958 11.1246 5.68042V13.6922C13.7688 12.2305 16.5563 10.8913 18.6737 9.69739L18.6628 9.70848Z" fill="#00B1B9"/>
</g>
<defs>
<clipPath id="clip0_110_9293">
<rect width="28" height="20" fill="white"/>
</clipPath>
</defs>
</svg>
