<svg width="84" height="66" viewBox="0 0 84 66" fill="none" xmlns="http://www.w3.org/2000/svg">
<path d="M20.8369 65.4512H17.0527C12.1699 65.4512 8.10091 63.498 4.8457 59.5918C1.67188 55.6042 0.0849609 49.8262 0.0849609 42.2578L0.207031 41.2812V40.3047C0.207031 30.7832 3.46224 21.7093 9.97266 13.083C16.4831 4.37533 22.4238 0.0214844 27.7949 0.0214844H29.2598C31.7826 0.0214844 33.0439 1.77116 33.0439 5.27051L25.4756 15.4023C22.2204 19.7155 20.5928 23.9473 20.5928 28.0977C20.5928 30.4577 22.9935 33.835 27.7949 38.2295C32.6777 42.5426 35.1191 46.4896 35.1191 50.0703V51.7793C35.1191 55.6855 33.4915 58.9408 30.2363 61.5449C27.0625 64.1491 23.9294 65.4512 20.8369 65.4512ZM48.0586 43.1123V41.2812C48.0586 31.2715 51.3138 21.9128 57.8242 13.2051C64.416 4.41602 70.6009 0.0214844 76.3789 0.0214844C79.39 0.0214844 80.8955 1.56771 80.8955 4.66016C80.8955 5.22982 78.8203 8.24089 74.6699 13.6934C70.6009 19.1458 68.5664 24.1914 68.5664 28.8301C68.5664 30.6204 70.9671 33.7129 75.7686 38.1074C80.6514 42.4206 83.0928 46.4082 83.0928 50.0703V51.7793C83.0928 55.6042 81.4652 58.8187 78.21 61.4229C75.0361 64.027 71.8623 65.3291 68.6885 65.3291H64.9043C60.1029 65.3291 56.0745 63.376 52.8193 59.4697C49.6455 55.5635 48.0586 50.111 48.0586 43.1123Z" fill="#21CDC0"/>
</svg>
